<?xml version="1.0" standalone="no"?>
<!DOCTYPE svg PUBLIC "-//W3C//DTD SVG 1.1//EN" "http://www.w3.org/Graphics/SVG/1.1/DTD/svg11.dtd" >
<svg xmlns="http://www.w3.org/2000/svg">
<metadata>
Created by FontPrep 20130207 at Wed Apr 12 17:38:20 2017
 By Dima Tsoy
Copyright (c) 2014, Natanael Gama (www.ndiscovered.com . info(at)ndiscovered.com)
</metadata>
<defs>
<font id="fab9a8c1b21288b85f46d8d57dbcc79a" horiz-adv-x='1024' >
  <font-face 
    font-family="Exo2-ExtraLightCondensed"
    font-weight="250"
    font-stretch="condensed"
    units-per-em="2048"
    panose-1="0 0 3 6 0 0 0 0 0 0"
    ascent="1638"
    descent="-410"
    x-height="987"
    cap-height="1413"
    bbox="-287 -539 1964 1890"
    underline-thickness="102"
    underline-position="-102"
    unicode-range="U+0020-FB02"
  />
<missing-glyph horiz-adv-x="985" 
 />
    <glyph glyph-name="fi" unicode="fi" horiz-adv-x="942" 
d="M731 1399h39q31 0 31 -33v-123q0 -33 -31 -33h-39q-29 0 -29 33v123q0 33 29 33zM793 987v-987h-84v915h-428v-915h-84v915h-146v62l146 10v195q0 143 50 213q50 69 164 69t175 -10v-61h-144q-90 0 -126 -48t-35 -169v-189h512z" />
    <glyph glyph-name="fl" unicode="fl" horiz-adv-x="1050" 
d="M912 -14q-83 0 -132 56t-49 159v1194h-289q-88 2 -124 -47t-35 -172v-189h258v-72h-258v-915h-86v915h-144v62l144 10v195q0 143 51 213t168 69q270 0 401 -16v-1237q0 -156 119 -156h90l8 -53q-39 -16 -122 -16z" />
    <glyph glyph-name="f_f" unicode="ff" horiz-adv-x="1118" 
d="M961 1393q-90 0 -126 -47t-36 -164v-195h276v-69h-276v-918h-84v918h-434v-918h-84v918h-146v59l146 10v162q0 139 51 209q50 70 160 70t202 -11l-4 -61h-164q-90 0 -126 -46t-35 -165v-158h434v199q0 141 50 210q50 68 175 68t199 -10l-4 -61h-174z" />
    <glyph glyph-name="f_f_i" unicode="ffi" horiz-adv-x="1456" 
d="M1245 1399h39q29 0 29 -33v-123q0 -33 -29 -33h-39q-31 0 -31 33v123q0 33 31 33zM1307 987v-987h-84v915h-430v-915h-84v915l-435 3v-918h-84v918h-139v59l139 10v162q0 279 218 278q102 0 198 -10l-6 -61h-162q-90 0 -127 -46t-37 -165v-158h435v195q0 143 50 213
q50 69 171 69t190 -10v-61h-164q-90 0 -127 -48t-36 -169v-189h514z" />
    <glyph glyph-name="f_f_l" unicode="ffl" horiz-adv-x="1568" 
d="M1428 -14q-82 0 -131 56q-48 56 -48 159v1194h-288q-88 2 -125 -48t-37 -171v-189h270v-69h-270v-918h-84v918h-434v-918h-84v918h-146v59l146 10v162q0 139 51 209q50 70 160 70t202 -11l-4 -61h-164q-90 0 -126 -46t-35 -165v-158h434v195q0 143 50 213t167 69
q274 0 401 -16v-1237q0 -156 121 -156h88l10 -53q-42 -16 -124 -16z" />
    <glyph glyph-name=".notdef" horiz-adv-x="985" 
 />
    <glyph glyph-name=".null" horiz-adv-x="0" 
 />
    <glyph glyph-name="nonmarkingreturn" horiz-adv-x="681" 
 />
    <glyph glyph-name="space" unicode=" " horiz-adv-x="372" 
 />
    <glyph glyph-name="exclam" unicode="!" horiz-adv-x="430" 
d="M203 193h24q35 0 35 -35v-123q0 -35 -35 -35h-24q-35 0 -35 35v123q0 35 35 35zM172 1423h84v-680l-6 -323h-70l-8 323v680z" />
    <glyph glyph-name="quotedbl" unicode="&#x22;" horiz-adv-x="555" 
d="M420 983h-64l-6 430h74zM197 983h-60l-6 430h72z" />
    <glyph glyph-name="numbersign" unicode="#" horiz-adv-x="1107" 
d="M758 950h-340l-60 -428h340zM831 950l-61 -428h180l-10 -63h-178l-64 -459h-71l63 459h-340l-63 -459h-74l63 459h-190l12 63h187l61 428h-190l12 64h186l56 399h73l-55 -399h340l55 399h72l-55 -399h180l-10 -64h-179z" />
    <glyph glyph-name="dollar" unicode="$" horiz-adv-x="921" 
d="M737 335q0 169 -37 232t-129 82l-79 17l-33 -611h10q158 3 213 57t55 223zM193 1070q-1 -144 37 -209t126 -83l90 -18l29 600h-14q-174 0 -207 -38q-16 -18 -38 -63t-23 -189zM825 380q0 -152 -20 -228q-21 -76 -71 -114t-109 -49t-160 -12h-10l-13 -249h-53l12 249
q-143 4 -278 27l6 64q186 -12 277 -13l32 623l-112 22q-119 23 -170 111q-52 89 -52 237t20 223q33 131 175 156q57 10 160 9h20l10 209h52l-11 -211q137 -6 248 -27l-8 -61q-165 11 -244 14l-28 -612l100 -21q125 -23 176 -109t51 -238z" />
    <glyph glyph-name="percent" unicode="%" horiz-adv-x="1458" 
d="M1113 764q-103 0 -144 -83t-41 -278t41 -279t144 -83q103 0 144 84q41 85 41 279t-41 277t-144 83zM1114 821q138 0 196 -98q58 -99 58 -321t-57 -320t-197 -98t-196 98q-58 98 -58 320t58 320t196 99zM528 1020q0 196 -41 278t-144 82t-144 -83t-41 -277t41 -278
q41 -83 144 -83t144 83t41 278zM377 0h-66l764 1413h66zM344 1438q138 0 196 -98t58 -320t-57 -320t-197 -98t-197 98t-57 320t58 320t196 98z" />
    <glyph glyph-name="ampersand" unicode="&#x26;" horiz-adv-x="1280" 
d="M213 374q-1 -183 55 -250t192 -67q136 -1 226 51t160 162v428h-346q-160 0 -224 -70q-63 -71 -63 -254zM1038 -14q-182 0 -192 194q-76 -110 -168 -154t-225 -44q-180 0 -255 82t-75 272q0 192 50 286t173 107v8q-102 10 -146 92q-44 83 -44 221t22 212q41 132 209 158
q71 12 207 12t248 -19l-13 -61q-55 6 -251 6t-265 -55q-67 -55 -67 -237t55 -240q55 -60 201 -60h344l14 305h68v-305h221l-4 -68h-217v-483q0 -156 121 -156h133l10 -57q-76 -16 -154 -16z" />
    <glyph glyph-name="quotesingle" unicode="'" horiz-adv-x="333" 
d="M197 983h-60l-6 430h72z" />
    <glyph glyph-name="parenleft" unicode="(" horiz-adv-x="587" 
d="M188 644q0 -362 81 -588q81 -228 253 -345l-12 -49q-211 114 -309 352q-99 238 -99 627t98 627t310 350l12 -49q-172 -111 -253 -337t-81 -588z" />
    <glyph glyph-name="parenright" unicode=")" horiz-adv-x="587" 
d="M483 641q0 -389 -98 -627t-309 -352l-10 49q172 117 252 344q81 227 81 589t-81 588q-80 226 -252 337l10 49q211 -112 309 -350t98 -627z" />
    <glyph glyph-name="asterisk" unicode="*" horiz-adv-x="743" 
d="M639 1155l-207 -74l-12 19v26l198 88zM324 1126l-2 -26l-13 -19l-205 76l21 60zM391 1096l158 -265l-45 -34l-133 254l-131 -252l-50 35l160 262l-8 317h59z" />
    <glyph glyph-name="plus" unicode="+" horiz-adv-x="905" 
d="M803 575h-318v-376h-65v376h-318v68h316v377h67v-377h318v-68z" />
    <glyph glyph-name="comma" unicode="," horiz-adv-x="356" 
d="M168 193h27q31 0 32 -35l-2 -131q-4 -158 -41 -275l-41 15q12 123 13 233q-29 0 -25 31v127q2 35 37 35z" />
    <glyph glyph-name="hyphen" unicode="-" horiz-adv-x="768" 
d="M637 481h-506v68h506v-68z" />
    <glyph glyph-name="period" unicode="." horiz-adv-x="356" 
d="M164 193h29q35 0 34 -35v-123q0 -35 -34 -35h-29q-35 0 -35 35v123q0 35 35 35z" />
    <glyph glyph-name="slash" unicode="/" horiz-adv-x="827" 
d="M129 -125h-76l645 1538h74z" />
    <glyph glyph-name="zero" unicode="0" horiz-adv-x="972" 
d="M770 707q0 347 -64 501t-220 154q-157 0 -220 -154t-63 -502t63 -501q63 -154 220 -154t221 154q63 154 63 502zM485 1438q203 0 287 -173t84 -558t-84 -559t-287 -173q-203 0 -285 173q-82 172 -83 558q1 386 83 559t285 173z" />
    <glyph glyph-name="one" unicode="1" horiz-adv-x="643" 
d="M444 0h-86v1229q0 35 4 100l-292 -123l-13 60l301 147h86v-1413z" />
    <glyph glyph-name="two" unicode="2" horiz-adv-x="917" 
d="M451 1438q163 0 244 -58t81 -212t-50 -274t-169 -294l-358 -524q61 2 196 2h428v-78h-727v51q0 16 15 41l364 541q115 168 165 289q50 120 47 242t-62 160t-197 38t-311 -43l-11 63q182 56 345 56z" />
    <glyph glyph-name="three" unicode="3" horiz-adv-x="909" 
d="M414 1438q190 0 267 -71t77 -255q0 -311 -174 -356v-8q199 -39 204 -355q4 -215 -76 -316t-270 -102q-143 0 -348 35l10 66q206 -25 338 -25t196 79q64 80 64 246t-54 250t-202 87l-210 2v63l210 4q229 6 226 318q-2 154 -58 208t-204 54q-147 0 -287 -23l-12 64
q168 35 303 35z" />
    <glyph glyph-name="four" unicode="4" horiz-adv-x="993" 
d="M772 0h-86v387h-508q-57 0 -87 56t-3 120l348 850h86l-346 -858q-14 -39 0 -68t45 -28h465v448l19 238h67v-686h137v-62l-137 -8v-389z" />
    <glyph glyph-name="five" unicode="5" horiz-adv-x="870" 
d="M768 434q0 -112 -12 -182t-47 -138q-72 -140 -295 -139q-143 0 -316 56l13 65q166 -47 286 -47q168 0 227 91q58 91 59 274t-62 264q-49 63 -219 79q-62 5 -179 7l-47 2q-37 4 -37 43l27 604h569l-4 -74h-493l-19 -501l103 -2q128 -4 204 -22t136 -62q106 -81 106 -318z
" />
    <glyph glyph-name="six" unicode="6" horiz-adv-x="931" 
d="M745 445q0 213 -50 303t-191 90q-86 0 -152 -38t-143 -138v-35q0 -255 20 -357q19 -102 51 -140q67 -81 217 -81t199 91t49 305zM522 907q176 0 243 -104t66 -373q0 -114 -12 -190q-29 -183 -154 -235q-71 -30 -180 -30q-223 1 -293 139t-69 527q0 389 62 578
q55 165 204 202q63 17 174 17t195 -27l-13 -61q-67 14 -197 14t-196 -45t-102 -181t-41 -407q69 98 139 137t174 39z" />
    <glyph glyph-name="seven" unicode="7" horiz-adv-x="800" 
d="M664 1413q88 0 61 -94l-363 -1319h-88l342 1255q6 33 27 84h-602l-6 74h629z" />
    <glyph glyph-name="eight" unicode="8" horiz-adv-x="999" 
d="M786 384q0 194 -54 254t-232 59t-234 -62t-55 -252q0 -191 59 -257q58 -66 230 -67q172 0 229 66t57 259zM766 1052q0 178 -52 242t-213 64t-214 -65t-53 -241t50 -230q52 -54 219 -54t215 53t48 231zM501 1432q201 0 275 -85t74 -286q0 -301 -164 -324v-8
q102 -14 144 -104t42 -284q0 -193 -76 -275t-294 -84q-217 -2 -296 82t-79 276q0 194 42 284t144 105v8q-162 23 -161 324q0 201 73 286q74 85 276 85z" />
    <glyph glyph-name="nine" unicode="9" horiz-adv-x="931" 
d="M424 575q86 0 150 37t145 140q-1 285 -19 390t-48 142q-65 80 -211 80q-147 0 -201 -98t-56 -299q0 -201 54 -297t186 -95zM749 1285q56 -112 56 -519t-63 -584q-55 -153 -201 -190q-63 -16 -178 -16t-205 26l12 61q86 -12 213 -12t195 44q137 89 141 591
q-69 -100 -139 -140t-174 -40q-166 0 -236 116t-70 350t76 350t256 116q179 0 252 -67q41 -38 65 -86z" />
    <glyph glyph-name="colon" unicode=":" horiz-adv-x="360" 
d="M164 193h29q35 0 34 -35v-123q0 -35 -34 -35h-29q-35 0 -35 35v123q0 35 35 35zM164 887h29q35 0 34 -35v-125q0 -35 -34 -35h-29q-35 0 -35 35v125q0 35 35 35z" />
    <glyph glyph-name="semicolon" unicode=";" horiz-adv-x="364" 
d="M172 193h27q33 0 32 -35v-131q-4 -150 -43 -275l-41 15q12 123 13 233q-25 0 -25 31v127q2 35 37 35zM168 887h29q35 0 34 -35v-125q0 -35 -34 -35h-29q-35 0 -35 35v125q0 35 35 35z" />
    <glyph glyph-name="less" unicode="&#x3c;" horiz-adv-x="880" 
d="M754 940l-580 -334l580 -325v-70l-656 360v70l656 369v-70z" />
    <glyph glyph-name="equal" unicode="=" horiz-adv-x="962" 
d="M831 344h-700v68h700v-68zM831 778h-700v68h700v-68z" />
    <glyph glyph-name="greater" unicode="&#x3e;" horiz-adv-x="880" 
d="M782 641v-70l-655 -360v70l580 325l-580 334v70z" />
    <glyph glyph-name="question" unicode="?" horiz-adv-x="831" 
d="M389 193h27q33 0 33 -35v-123q0 -35 -33 -35h-27q-35 0 -35 35v123q0 35 35 35zM420 1458q328 0 328 -317q0 -156 -107 -287q-45 -54 -90 -112q-109 -139 -109 -322h-75q0 203 102 343q43 58 86 111q106 130 106 260t-61 191t-198 61t-318 -26l-8 59q24 5 60 13
q112 26 284 26z" />
    <glyph glyph-name="at" unicode="@" horiz-adv-x="1155" 
d="M469 580v-95q0 -158 139 -161q82 -2 178 46t160 117v248l-348 -8q-129 -6 -129 -147zM795 1171q231 0 231 -253v-652h-61l-13 162q-55 -66 -155 -120q-101 -54 -199 -54t-154 58q-55 58 -55 165v109q0 96 48 149t138 53h371v127q0 91 -36 139t-126 46h-219q-86 0 -132 -4
t-91 -24t-63 -53q-47 -84 -53 -210q-5 -127 -5 -269t3 -228q4 -86 22 -158q18 -70 38 -102t72 -54t104 -25q52 -4 150 -4h410v-63q-476 -14 -568 -6q-174 15 -234 97q-60 81 -74 296q-5 94 -5 247q0 152 4 242t22 168q17 78 43 115t77 63t113 34q62 7 165 9h232z" />
    <glyph glyph-name="A" unicode="A" horiz-adv-x="1003" 
d="M731 571l-209 772h-41l-209 -772h459zM449 1413h106q29 0 35 -27l389 -1386h-92l-135 498h-500l-135 -498h-92l389 1386q4 27 35 27z" />
    <glyph glyph-name="B" unicode="B" horiz-adv-x="1011" 
d="M538 57q159 -1 217 61t58 250t-62 257q-62 70 -225 73h-282v-637q135 -4 294 -4zM784 1060q0 175 -62 235q-62 61 -240 61t-238 -2v-588h280q147 2 204 60q56 59 56 234zM903 334q0 -195 -78 -273q-78 -77 -302 -77t-365 16v1413q121 17 335 17q215 0 295 -77t80 -292
q0 -154 -45 -233t-147 -91v-8q123 -14 175 -107t52 -288z" />
    <glyph glyph-name="C" unicode="C" horiz-adv-x="940" 
d="M545 1438q172 0 295 -37l-13 -62q-129 23 -282 23q-190 0 -265 -144t-75 -511t75 -511t259 -144t311 26l14 -64q-135 -39 -319 -39q-240 0 -335 163t-95 569q0 407 95 569t335 162z" />
    <glyph glyph-name="D" unicode="D" horiz-adv-x="1087" 
d="M547 57q186 -1 260 143t74 506t-74 506q-74 143 -260 144q-121 0 -301 -4v-1291q176 -4 301 -4zM547 1432q236 0 331 -162t95 -563t-95 -563t-331 -162q-182 0 -389 18v1413q203 19 389 19z" />
    <glyph glyph-name="E" unicode="E" horiz-adv-x="913" 
d="M338 0q-86 0 -138 60t-53 157v979q-1 96 53 156t138 61q328 0 483 -8l-2 -64h-465q-55 0 -87 -43t-31 -116v-391l516 -3v-67l-516 -2v-488q0 -75 32 -117t86 -42h465l2 -64q-156 -8 -483 -8z" />
    <glyph glyph-name="F" unicode="F" horiz-adv-x="876" 
d="M362 1341q-57 0 -90 -44t-32 -115v-404h503v-69h-503v-709h-88v1194q0 98 53 158t137 61q317 0 473 -10l-6 -62h-447z" />
    <glyph glyph-name="G" unicode="G" horiz-adv-x="1026" 
d="M903 819v-819h-63l-15 166q-141 -190 -340 -190t-285 172q-86 173 -85 571q0 399 98 559t348 160q184 0 318 -37l-13 -62q-141 23 -303 23q-201 0 -279 -141t-79 -503t67 -515q68 -152 228 -152q66 0 128 31q62 30 97 62t92 94v581h86z" />
    <glyph glyph-name="H" unicode="H" horiz-adv-x="1089" 
d="M932 1413v-1413h-88v721h-598v-721h-88v1413h88v-618h598v618h88z" />
    <glyph glyph-name="I" unicode="I" horiz-adv-x="403" 
d="M246 0h-88v1413h88v-1413z" />
    <glyph glyph-name="J" unicode="J" horiz-adv-x="544" 
d="M391 1413v-1161q0 -266 -209 -266q-59 0 -125 16l11 57h90q147 0 147 193v1161h86z" />
    <glyph glyph-name="K" unicode="K" horiz-adv-x="944" 
d="M244 532v-532h-86v1413h86v-473q0 -92 -8 -168h163l379 641h96l-360 -610q-23 -43 -47 -64v-4q35 -35 51 -65l383 -670h-98l-404 702h-161q6 -88 6 -170z" />
    <glyph glyph-name="L" unicode="L" horiz-adv-x="837" 
d="M240 1413v-1182q0 -75 32 -117t90 -42h431l2 -62q-147 -10 -447 -10q-94 0 -145 61t-51 162v1190h88z" />
    <glyph glyph-name="M" unicode="M" horiz-adv-x="1419" 
d="M1083 1413h113q41 0 41 -43l49 -1370h-86l-45 1341h-39l-317 -1179q-10 -29 -39 -29h-101q-31 0 -41 29l-315 1179h-39l-45 -1341h-86l49 1370q0 43 39 43h115q29 0 39 -29l315 -1181h37q41 147 53 194l264 987q6 29 39 29z" />
    <glyph glyph-name="N" unicode="N" horiz-adv-x="1142" 
d="M985 1413v-1372q0 -41 -37 -41h-110q-35 0 -45 31l-457 1155q-10 25 -62 151h-30q2 -51 2 -153v-1184h-88v1372q0 41 39 41h104q37 0 47 -31l445 -1128q41 -100 69 -176h39q-2 66 -2 192v1143h86z" />
    <glyph glyph-name="O" unicode="O" 
d="M546 1362q-189 0 -265 -145t-76 -510t76 -510t265 -145t265 144q76 146 76 511t-76 510t-265 145zM115 707q0 407 95 569t335 162t336 -163t96 -569t-96 -568q-96 -163 -336 -163t-335 162t-95 570z" />
    <glyph glyph-name="P" unicode="P" horiz-adv-x="960" 
d="M246 659h284q145 0 202 73q56 73 56 276q0 204 -56 276t-202 72q-219 0 -284 -4v-693zM512 1430q216 0 290 -90t75 -334q0 -244 -73 -332t-257 -88t-301 10v-596h-88v1413q138 17 354 17z" />
    <glyph glyph-name="Q" unicode="Q" 
d="M457 -150l28 50q164 -121 398 -166l-27 -84q-223 40 -399 200zM546 1362q-189 0 -265 -145t-76 -510t76 -510t265 -145t265 144q76 146 76 511t-76 510t-265 145zM115 707q0 407 95 569t335 162t336 -163t96 -569t-96 -568q-96 -163 -336 -163t-335 162t-95 570z" />
    <glyph glyph-name="R" unicode="R" horiz-adv-x="1005" 
d="M246 698h286q145 4 202 73q56 69 56 258t-56 258t-207 69t-281 -4v-654zM543 623q-199 0 -297 6v-629h-88v1413q137 16 377 17q190 0 266 -84t76 -293q1 -209 -47 -293t-160 -103v-10q90 -33 131 -196l117 -451h-93l-112 444q-25 96 -66 138t-104 41z" />
    <glyph glyph-name="S" unicode="S" horiz-adv-x="915" 
d="M470 1360q-188 0 -226 -45q-39 -45 -47 -109q-9 -64 -9 -172t38 -173t126 -83l242 -51q125 -23 176 -109t51 -238t-20 -228q-21 -76 -71 -114t-108 -49t-202 -11t-301 26l8 64q360 -28 465 -2q104 23 128 130q13 58 13 183t-37 188t-129 82l-245 51q-119 23 -170 111
q-52 89 -52 237t20 223q33 132 175 156q58 11 197 8t282 -28l-6 -61q-230 14 -298 14z" />
    <glyph glyph-name="T" unicode="T" horiz-adv-x="935" 
d="M895 1339h-383v-1339h-88v1339h-383v74h854v-74z" />
    <glyph glyph-name="U" unicode="U" horiz-adv-x="1095" 
d="M946 1413v-887q0 -299 -90 -425t-307 -126t-308 126t-91 425v887h88v-887q0 -262 70 -368t240 -106t240 106t70 368v887h88z" />
    <glyph glyph-name="V" unicode="V" horiz-adv-x="985" 
d="M545 0h-103q-29 0 -36 27l-369 1386h92l305 -1192q18 -63 39 -151h41q10 51 39 153l305 1190h92l-368 -1386q-12 -27 -37 -27z" />
    <glyph glyph-name="W" unicode="W" horiz-adv-x="1540" 
d="M1180 0h-113q-33 0 -39 31l-209 1155l-31 160h-36q-20 -106 -29 -160l-211 -1155q-6 -31 -39 -31h-115q-31 0 -36 29l-269 1384h90l226 -1194q12 -55 26 -149h43q4 28 14 76t13 71l213 1163q6 33 37 33h108q33 0 39 -33l213 -1161q3 -27 13 -77t14 -72h43q16 98 26 147
l226 1196h92l-270 -1384q-10 -29 -39 -29z" />
    <glyph glyph-name="X" unicode="X" horiz-adv-x="987" 
d="M518 702h-49l-322 -702h-94l340 735l-319 678h94l299 -641h53l297 641h96l-321 -678l342 -735h-96z" />
    <glyph glyph-name="Y" unicode="Y" horiz-adv-x="907" 
d="M498 0h-88v518l-383 895h96l326 -795h10l57 144l270 651h93l-381 -895v-518z" />
    <glyph glyph-name="Z" unicode="Z" horiz-adv-x="921" 
d="M842 74v-74h-760v74l659 1265h-651v74h741v-74l-657 -1265h668z" />
    <glyph glyph-name="bracketleft" unicode="[" horiz-adv-x="524" 
d="M449 1509h-185q-20 0 -20 -26v-1731q0 -27 20 -26h185v-64h-220q-29 0 -47 20t-18 56v1759q0 33 18 55t47 21h220v-64z" />
    <glyph glyph-name="backslash" unicode="\" horiz-adv-x="827" 
d="M774 -125h-76l-645 1538h76z" />
    <glyph glyph-name="bracketright" unicode="]" horiz-adv-x="524" 
d="M76 1573h217q31 -1 49 -21t18 -55v-1759q0 -35 -18 -55t-49 -21h-217v64h182q23 0 23 26v1731q0 27 -23 26h-182v64z" />
    <glyph glyph-name="asciicircum" unicode="^" horiz-adv-x="667" 
d="M618 780l-34 -28l-242 366h-12l-244 -366l-37 28l254 412h62z" />
    <glyph glyph-name="underscore" unicode="_" horiz-adv-x="712" 
d="M713 -68h-713v68h713v-68z" />
    <glyph glyph-name="grave" unicode="`" horiz-adv-x="483" 
d="M381 1161l-33 -41l-280 279l51 59z" />
    <glyph glyph-name="a" unicode="a" horiz-adv-x="890" 
d="M184 358v-110q1 -185 146 -187q76 -3 171 49t169 134v291l-359 -7q-127 -2 -127 -170zM507 1012q124 0 185 -68t62 -219v-725h-64l-14 178q-56 -74 -156 -133t-202 -59t-161 68q-58 68 -59 188v123q0 113 54 174t149 61h369v125q-2 101 -40 157t-152 56t-341 -31l-8 62
q254 43 378 43z" />
    <glyph glyph-name="b" unicode="b" horiz-adv-x="925" 
d="M735 495q0 245 -49 344t-172 99q-68 0 -134 -45t-157 -145v-656q129 -47 264 -45q135 3 191 103t57 345zM537 1012q151 0 219 -120t68 -398t-76 -399q-76 -120 -252 -120t-357 66v1393h84v-426q0 -131 -8 -195q170 199 322 199z" />
    <glyph glyph-name="c" unicode="c" horiz-adv-x="792" 
d="M473 1012q143 0 238 -39l-15 -55q-90 20 -211 20q-167 0 -231 -95t-64 -349t65 -350t216 -95q151 0 246 23l10 -58q-121 -39 -254 -39q-203 0 -287 117t-84 402q0 286 84 402t287 116z" />
    <glyph glyph-name="d" unicode="d" horiz-adv-x="929" 
d="M410 49q70 0 134 40t158 138v623q-176 88 -292 88t-167 -98q-50 -98 -50 -344t49 -346t168 -101zM786 1434v-1434h-65l-10 162q-164 -186 -320 -186q-155 0 -221 120q-66 121 -66 400q0 280 69 398t218 118t316 -97q-4 43 -5 189v330h84z" />
    <glyph glyph-name="e" unicode="e" horiz-adv-x="874" 
d="M446 938q-134 0 -194 -92t-62 -326h396q113 0 108 197q-2 117 -58 169t-190 52zM471 49q141 0 281 25l8 -58q-102 -41 -296 -41t-278 120t-84 403q0 282 81 398t272 116q322 0 325 -291q0 -135 -42 -202t-138 -66h-410q6 -225 73 -315t208 -89z" />
    <glyph glyph-name="f" unicode="f" horiz-adv-x="600" 
d="M442 1393q-90 0 -126 -47t-35 -164v-195h276v-69h-276v-918h-84v918h-146v59l146 10v199q0 141 50 210q50 68 175 68t199 -10l-5 -61h-174z" />
    <glyph glyph-name="g" unicode="g" horiz-adv-x="903" 
d="M731 -148q0 110 -30 150q-30 41 -111 59l-299 64l-31 -25q-54 -43 -74 -94t-20 -129q0 -133 58 -183t222 -50t225 49q60 49 60 159zM443 465q134 0 190 56q55 56 55 181q0 126 -55 184t-189 58t-192 -58q-57 -58 -57 -182t57 -182q57 -57 191 -57zM444 397
q-119 0 -190 33q-45 -66 -32 -142t97 -95l310 -68q102 -19 144 -79t42 -181q0 -164 -80 -229q-79 -64 -285 -64t-287 66t-81 233q0 91 28 153t99 107l22 14q-82 43 -84 145t62 165q-94 75 -94 241t75 241q76 75 254 75q100 0 168 -25h250l-6 -53l-151 -8q65 -74 65 -228
t-76 -228t-250 -73z" />
    <glyph glyph-name="h" unicode="h" horiz-adv-x="942" 
d="M590 1012q215 0 215 -271v-741h-84v725q0 113 -37 163t-115 50q-77 0 -153 -44t-191 -144v-750h-84v1434h84l2 -428q0 -117 -8 -189q211 195 371 195z" />
    <glyph glyph-name="i" unicode="i" horiz-adv-x="385" 
d="M233 0h-83v987h83v-987zM172 1399h39q31 0 31 -33v-123q0 -33 -31 -33h-39q-29 0 -29 33v123q0 33 29 33z" />
    <glyph glyph-name="j" unicode="j" horiz-adv-x="385" 
d="M233 987v-1063q0 -203 -127 -350l-47 35q90 139 91 315v1063h83zM172 1399h41q29 0 29 -33v-123q0 -33 -29 -33h-41q-29 0 -29 33v123q0 33 29 33z" />
    <glyph glyph-name="k" unicode="k" horiz-adv-x="802" 
d="M225 356v-356h-84v1434h84l2 -670q0 -82 -6 -168h121l293 391h98l-276 -377q-4 -8 -45 -47v-4q39 -47 45 -59l303 -500h-96l-320 530h-123q4 -59 4 -174z" />
    <glyph glyph-name="l" unicode="l" horiz-adv-x="462" 
d="M227 1434v-1217q0 -156 121 -156h88l10 -59q-40 -16 -122 -16t-131 57t-50 162v1229h84z" />
    <glyph glyph-name="m" unicode="m" horiz-adv-x="1441" 
d="M1096 1012q209 0 209 -271v-741h-84v725q-2 213 -150 213q-71 0 -135 -41t-170 -143v-754h-84v725q0 213 -150 213q-68 0 -134 -42t-171 -142v-754h-84v987h68l8 -172q178 197 344 197t197 -193q174 193 336 193z" />
    <glyph glyph-name="n" unicode="n" horiz-adv-x="944" 
d="M592 1012q215 0 215 -271v-741h-86v725q0 111 -37 162t-114 51q-76 0 -152 -44t-191 -144v-750h-84v987h70l6 -172q197 197 373 197z" />
    <glyph glyph-name="o" unicode="o" horiz-adv-x="923" 
d="M464 938q-153 0 -213 -96q-61 -96 -61 -348t60 -350t213 -97q152 0 211 97q59 98 59 350t-58 348t-211 96zM463 1012q199 0 279 -117t79 -403q0 -286 -80 -401q-81 -116 -279 -116t-279 117t-81 402q0 286 81 402t280 116z" />
    <glyph glyph-name="p" unicode="p" horiz-adv-x="935" 
d="M522 49q119 0 170 99q51 100 51 344t-49 345t-166 101q-70 0 -140 -43t-161 -143v-613q176 -90 295 -90zM549 1012q149 0 215 -122t66 -400t-70 -396q-68 -119 -222 -119t-317 107q6 -53 6 -191v-317h-84v1413h68l10 -172q154 197 328 197z" />
    <glyph glyph-name="q" unicode="q" horiz-adv-x="927" 
d="M399 49q74 0 140 40t163 134v670q-125 45 -261 45t-193 -98q-58 -98 -58 -344t47 -346q47 -101 162 -101zM102 500q0 276 76 394t250 118t358 -66v-1372h-84l-2 393q0 129 11 193q-173 -184 -325 -184t-218 124q-66 125 -66 400z" />
    <glyph glyph-name="r" unicode="r" horiz-adv-x="641" 
d="M559 934q-73 0 -143 -42t-189 -138v-754h-84v987h66l10 -172q197 197 356 197h33l-12 -78h-37z" />
    <glyph glyph-name="s" unicode="s" horiz-adv-x="825" 
d="M176 766q0 -114 30 -156t95 -53l250 -47q92 -18 137 -78t45 -178q0 -174 -73 -225q-74 -51 -242 -51t-307 24l8 59q135 -14 281 -12t199 40q52 37 52 147t-34 150t-99 54l-250 47q-92 17 -134 77t-42 208t66 196t242 44q175 -4 313 -27l-8 -59q-193 12 -316 15t-168 -29
t-45 -146z" />
    <glyph glyph-name="t" unicode="t" horiz-adv-x="593" 
d="M279 918v-701q0 -156 120 -156h133l11 -59q-76 -16 -158 -16q-190 0 -190 223v709h-146v59l146 10v305h84v-305h274v-69h-274z" />
    <glyph glyph-name="u" unicode="u" horiz-adv-x="927" 
d="M784 987v-987h-67l-8 166q-190 -190 -357 -191q-215 0 -215 271v741h84v-725q0 -213 156 -213q71 0 143 43t180 141v754h84z" />
    <glyph glyph-name="v" unicode="v" horiz-adv-x="851" 
d="M465 0h-80q-27 0 -33 23l-311 964h90l227 -739q12 -35 32 -101t24 -81h20q41 123 60 184l225 737h90l-309 -964q-12 -23 -35 -23z" />
    <glyph glyph-name="w" unicode="w" horiz-adv-x="1341" 
d="M1001 0h-81q-31 0 -37 29l-170 747q-20 98 -35 150h-16q-6 -29 -18 -79t-15 -71l-172 -747q-4 -29 -35 -29h-80q-31 0 -37 27l-256 960h88l199 -788q10 -35 33 -138h22l203 897q8 29 37 29h80q31 0 34 -29l173 -757q14 -57 32 -140h25q29 133 31 140l198 786h90
l-258 -960q-6 -27 -35 -27z" />
    <glyph glyph-name="x" unicode="x" horiz-adv-x="845" 
d="M440 481h-34l-263 -481h-94l285 512l-264 475h92l239 -438h43l238 438h94l-266 -475l287 -512h-95z" />
    <glyph glyph-name="y" unicode="y" horiz-adv-x="847" 
d="M385 0q-25 0 -37 25l-307 962h90l250 -809q13 -59 33 -110h20q33 96 37 112l246 807h90l-342 -1073q-47 -141 -115 -227t-182 -115l-12 51q92 41 143 117t88 190l25 70h-27z" />
    <glyph glyph-name="z" unicode="z" horiz-adv-x="829" 
d="M745 70v-70h-661v70l567 845h-563v72h651v-72l-565 -845h571z" />
    <glyph glyph-name="braceleft" unicode="{" horiz-adv-x="505" 
d="M428 1518q-88 0 -124 -50t-36 -159v-408q2 -121 -24 -164t-109 -65q86 -35 113 -76t26 -145v-525q0 -108 36 -158t124 -51v-55q-127 -2 -184 60t-57 202v549q0 96 -43 126q-16 11 -64 34v78q41 16 52 21q12 6 28 24t18 45t2 78v432q0 139 56 201t186 61v-55z" />
    <glyph glyph-name="bar" unicode="|" horiz-adv-x="393" 
d="M229 -346h-65v1945h65v-1945z" />
    <glyph glyph-name="braceright" unicode="}" horiz-adv-x="505" 
d="M78 1518v55q127 1 184 -61t57 -201v-432q1 -94 17 -118t84 -50v-78q-50 -23 -66 -34q-42 -28 -43 -126v-549q0 -140 -56 -202t-183 -60v55q88 1 124 51t35 158v525q0 104 27 145t113 76q-82 24 -109 66t-24 163v408q0 109 -35 159t-125 50z" />
    <glyph glyph-name="asciitilde" unicode="~" horiz-adv-x="868" 
d="M688 676h47q6 -96 -28 -147q-72 -104 -283 22q-181 106 -222 41q-19 -31 -20 -105h-47q-6 99 29 151q34 52 98 47t172 -67q188 -109 235 -43q19 29 19 101z" />
    <glyph glyph-name="uni00A0" unicode="&#xa0;" horiz-adv-x="372" 
 />
    <glyph glyph-name="exclamdown" unicode="&#xa1;" horiz-adv-x="399" 
d="M242 -416h-84v662l6 323h69l9 -323v-662zM188 989h25q33 0 33 -35v-123q0 -35 -33 -34h-25q-35 0 -34 34v123q-1 35 34 35z" />
    <glyph glyph-name="cent" unicode="&#xa2;" horiz-adv-x="833" 
d="M188 728q0 -238 52 -338t176 -116l49 887q-153 -4 -215 -100q-62 -95 -62 -333zM471 199h-10l-15 -199h-51l15 201q-168 16 -238 135q-70 118 -70 392t84 390t285 117l14 178h52l-11 -180q115 -8 183 -37l-13 -57q-66 18 -178 22l-51 -891h18q128 0 232 25l10 -57
q-121 -39 -256 -39z" />
    <glyph glyph-name="sterling" unicode="&#xa3;" horiz-adv-x="925" 
d="M836 74v-74h-725v74q145 109 131 434l-9 207h-133v57h131l-12 303q-8 237 78 302q45 36 95 47q128 28 403 -9l-7 -63q-117 10 -288 10q-115 0 -158 -65t-39 -218l12 -307h385l-4 -57h-377l9 -207q4 -160 -21 -265t-98 -171q33 2 102 2h525z" />
    <glyph glyph-name="currency" unicode="&#xa4;" horiz-adv-x="983" 
d="M229 722q-1 -138 75 -236t184 -99q108 0 184 97q76 96 76 236t-76 238t-182 98t-184 -98q-77 -98 -77 -236zM489 328q-117 0 -202 92l-119 -150l-43 43l125 152q-76 113 -76 258t76 254l-123 151l41 43l119 -149q85 92 203 92t206 -92l119 149l41 -43l-123 -151
q74 -115 74 -257t-76 -255l127 -154l-43 -41l-121 150q-88 -92 -205 -92z" />
    <glyph glyph-name="yen" unicode="&#xa5;" horiz-adv-x="999" 
d="M854 635v-57h-309l-2 -3v-165h311v-58h-311v-352h-86v352h-303v58h303v165l-2 3h-301v57h276l-356 778h92l266 -606q2 -4 64 -145h10q23 55 59 143l266 608h93l-355 -778h285z" />
    <glyph glyph-name="brokenbar" unicode="&#xa6;" horiz-adv-x="397" 
d="M231 -346h-65v819h65v-819zM231 780h-65v819h65v-819z" />
    <glyph glyph-name="section" unicode="&#xa7;" horiz-adv-x="894" 
d="M780 -56q0 -94 -20 -144q-33 -81 -166 -100q-133 -18 -475 19l8 64q331 -22 396 -16t102 20q67 25 68 160t-120 223l-294 213q-106 73 -135 177t-9 278h66q-13 -148 11 -236t97 -141l305 -217q88 -66 127 -136t39 -164zM113 1204q0 141 73 189q74 47 254 44t334 -24
l-6 -61q-294 23 -429 11q-97 -9 -121 -67q-15 -35 -15 -92q-2 -143 121 -233l292 -213q104 -74 134 -180t8 -281h-66q12 145 -12 239t-98 144l-299 219q-92 69 -131 137t-39 168z" />
    <glyph glyph-name="dieresis" unicode="&#xa8;" horiz-adv-x="665" 
d="M463 1389h31q27 0 26 -29v-115q0 -29 -26 -28h-31q-27 0 -27 28v115q0 29 27 29zM172 1389h31q27 0 26 -29v-115q0 -29 -26 -28h-31q-27 0 -27 28v115q0 29 27 29z" />
    <glyph glyph-name="copyright" unicode="&#xa9;" horiz-adv-x="1392" 
d="M705 1182q137 0 219 -27l-11 -47q-85 10 -217 10t-188 -89t-55 -316q0 -227 55 -317t203 -91q148 0 223 14l8 -49q-98 -27 -237 -26q-176 0 -248 105t-72 363t72 364t248 106zM696 1382q-223 0 -379 -194q-155 -194 -155 -482t156 -482t378 -194q223 0 379 194t156 483
t-156 482t-379 193zM696 1438q248 0 418 -208t170 -523t-170 -523t-418 -209q-248 0 -418 208q-170 207 -169 523q-1 316 169 524t418 208z" />
    <glyph glyph-name="ordfeminine" unicode="&#xaa;" horiz-adv-x="727" 
d="M291 604q55 -2 122 33t113 86v188l-245 -8q-94 -2 -95 -108v-70q1 -119 105 -121zM420 1233q174 0 174 -197v-481h-53l-11 123q-44 -51 -114 -92t-143 -41t-113 44t-41 126v84q0 73 38 115t107 42h262v80q0 138 -114 138t-260 -19l-9 49q177 29 277 29z" />
    <glyph glyph-name="guillemotleft" unicode="&#xab;" horiz-adv-x="768" 
d="M664 901l-226 -387l228 -393l-43 -31l-267 412v24l265 406zM387 901l-227 -387l229 -393l-43 -31l-268 412v24l266 406z" />
    <glyph glyph-name="logicalnot" unicode="&#xac;" horiz-adv-x="970" 
d="M831 641v-375h-67v307h-633v68h700z" />
    <glyph glyph-name="softhyphen" unicode="&#xad;" horiz-adv-x="768" 
d="M637 481h-506v68h506v-68z" />
    <glyph glyph-name="registered" unicode="&#xae;" horiz-adv-x="933" 
d="M348 979h135q70 2 97 28q26 27 26 99t-26 98t-97 25h-135v-250zM489 942q-111 0 -141 2v-248h-45v568q57 6 165 6t146 -35q39 -35 39 -117q1 -82 -23 -116t-79 -41v-5q45 -10 63 -79l58 -181h-49l-54 176q-23 70 -80 70zM467 565q135 0 230 122t96 294q-1 172 -97 294
t-230 122t-229 -122t-95 -295t94 -294q96 -121 231 -121zM467 1436q152 0 258 -133t106 -323t-106 -322q-106 -134 -258 -134t-258 133q-107 133 -107 323t106 322q106 134 259 134z" />
    <glyph glyph-name="macron" unicode="&#xaf;" horiz-adv-x="657" 
d="M549 1272h-440v67h440v-67z" />
    <glyph glyph-name="degree" unicode="&#xb0;" horiz-adv-x="616" 
d="M308 1380q-62 0 -105 -57t-43 -138t44 -141t105 -59q61 0 105 59q43 58 43 140t-43 139q-44 57 -106 57zM308 1438q84 0 146 -75t62 -179t-61 -180t-147 -76t-146 76q-61 76 -62 180q0 104 62 179t146 75z" />
    <glyph glyph-name="plusminus" unicode="&#xb1;" horiz-adv-x="974" 
d="M137 248h701v-68h-701v68zM838 750v-66h-316v-295h-67v295h-318v66h316v294h71v-294h314z" />
    <glyph glyph-name="twosuperior" unicode="&#xb2;" horiz-adv-x="718" 
d="M350 1599q114 1 168 -35q55 -36 55 -128q1 -92 -33 -164t-112 -172l-235 -303q43 2 129 2l282 -2v-60h-493v39q0 10 12 31l237 311q139 184 140 305q0 74 -38 96q-82 47 -339 -1l-6 49q119 32 233 32z" />
    <glyph glyph-name="threesuperior" unicode="&#xb3;" horiz-adv-x="690" 
d="M344 1599q118 1 168 -41q51 -42 51 -153q0 -188 -123 -215v-4q137 -25 142 -213q2 -131 -52 -191t-186 -59q-82 0 -233 20l6 52q121 -15 216 -15t137 45t42 154q0 178 -166 178l-141 2v49l141 2q152 4 152 183q0 85 -39 117t-133 32t-197 -12l-6 49q103 20 221 20z" />
    <glyph glyph-name="acute" unicode="&#xb4;" horiz-adv-x="483" 
d="M408 1399l-279 -279l-35 41l262 297z" />
    <glyph glyph-name="paragraph" unicode="&#xb6;" horiz-adv-x="978" 
d="M575 1438q139 0 234 -35v-1403h-72v1360q-98 14 -209 14v-1804h-71v842q-201 24 -289 142t-88 384t112 384q112 116 383 116z" />
    <glyph glyph-name="periodcentered" unicode="&#xb7;" horiz-adv-x="360" 
d="M166 623h29q35 0 34 -35v-123q0 -35 -34 -35h-29q-35 0 -35 35v123q0 35 35 35z" />
    <glyph glyph-name="cedilla" unicode="&#xb8;" horiz-adv-x="370" 
d="M150 -139l10 43q158 12 151 -133q-3 -113 -71 -178t-177 -48l15 47q74 -4 121 48t48 114q1 64 -21 84t-76 23z" />
    <glyph glyph-name="onesuperior" unicode="&#xb9;" horiz-adv-x="475" 
d="M338 737h-68v719q0 43 4 66l-194 -72l-10 45l200 90h68v-848z" />
    <glyph glyph-name="ordmasculine" unicode="&#xba;" horiz-adv-x="733" 
d="M367 1176q-103 0 -145 -64t-42 -227q0 -165 41 -227t145 -62t145 62q40 62 40 228t-40 228t-144 62zM367 1233q141 0 198 -78t57 -269q0 -192 -56 -270q-58 -78 -199 -78t-199 78q-57 78 -57 270q-1 192 57 270t199 77z" />
    <glyph glyph-name="guillemotright" unicode="&#xbb;" horiz-adv-x="768" 
d="M688 526v-24l-266 -412l-43 31l227 393l-225 387l43 31zM412 526v-24l-267 -412l-43 31l228 393l-226 387l43 31z" />
    <glyph glyph-name="onequarter" unicode="&#xbc;" horiz-adv-x="1394" 
d="M1241 0h-65v225h-351q-37 0 -56 33t-1 76l227 514h70l-227 -510q-8 -23 2 -40t30 -17h306v264l14 143h51v-407h78v-48l-78 -6v-227zM1044 1413l-763 -1413h-66l764 1413h65zM276 565v719q0 31 7 66l-197 -72l-10 45l200 90h68v-848h-68z" />
    <glyph glyph-name="onehalf" unicode="&#xbd;" horiz-adv-x="1441" 
d="M1096 862q114 0 170 -36t55 -128q0 -92 -34 -164t-111 -172l-234 -303q45 2 125 2l285 -2v-59h-496v39q0 16 10 31l240 311q141 184 139 305q0 74 -38 96t-130 21q-92 0 -207 -23l-6 49q118 33 232 33zM276 0h-67l764 1413h67zM344 565h-68v719q0 31 7 66l-197 -72
l-10 45l200 90h68v-848z" />
    <glyph glyph-name="threequarters" unicode="&#xbe;" horiz-adv-x="1544" 
d="M1378 0h-65v225h-338q-39 0 -60 34q-20 34 0 75l230 514h65l-223 -510q-8 -20 1 -38t30 -19h295v264l14 143h51v-407h86v-48l-86 -6v-227zM1214 1413l-763 -1413h-68l764 1413h67zM338 547q-84 0 -236 20l7 51q123 -14 218 -14t136 45t41 141t-35 143q-35 48 -131 48
l-141 2v47l141 4q152 4 151 180q0 88 -37 120q-38 32 -132 32t-199 -12l-6 49q101 20 219 20t170 -42t53 -152q0 -188 -125 -215v-4q139 -25 143 -213q2 -129 -53 -189t-184 -61z" />
    <glyph glyph-name="questiondown" unicode="&#xbf;" horiz-adv-x="825" 
d="M408 -451q-328 0 -328 318q0 153 106 288q45 56 90 113q107 136 111 320h76q0 -204 -103 -343q-43 -57 -86 -111q-104 -129 -105 -259q-1 -129 60 -191t199 -62t317 26l9 -60q-176 -39 -346 -39zM414 1008h24q35 0 35 -35v-123q0 -35 -35 -35h-24q-33 0 -33 35v123
q0 35 33 35z" />
    <glyph glyph-name="Agrave" unicode="&#xc0;" horiz-adv-x="1003" 
d="M731 571l-209 772h-41l-209 -772h459zM449 1413h106q29 0 35 -27l389 -1386h-92l-135 498h-500l-135 -498h-92l389 1386q4 27 35 27zM543 1503l-281 279l51 59l262 -297z" />
    <glyph glyph-name="Aacute" unicode="&#xc1;" horiz-adv-x="1003" 
d="M731 571l-209 772h-41l-209 -772h459zM449 1413h106q29 0 35 -27l389 -1386h-92l-135 498h-500l-135 -498h-92l389 1386q4 27 35 27zM446 1503l-34 41l262 297l51 -59z" />
    <glyph glyph-name="Acircumflex" unicode="&#xc2;" horiz-adv-x="1003" 
d="M731 571l-209 772h-41l-209 -772h459zM449 1413h106q29 0 35 -27l389 -1386h-92l-135 498h-500l-135 -498h-92l389 1386q4 27 35 27zM281 1528l-33 39l221 243h61l222 -243l-33 -39l-213 207h-12z" />
    <glyph glyph-name="Atilde" unicode="&#xc3;" horiz-adv-x="1003" 
d="M731 571l-209 772h-41l-209 -772h459zM449 1413h106q29 0 35 -27l389 -1386h-92l-135 498h-500l-135 -498h-92l389 1386q4 27 35 27zM297 1585h-45q-4 97 32 149q72 104 216 -21q70 -60 116 -65t68 23q20 29 21 98h43q6 -94 -29 -144t-95 -44q-60 5 -131 67t-113 68
q-83 12 -83 -131z" />
    <glyph glyph-name="Adieresis" unicode="&#xc4;" horiz-adv-x="1003" 
d="M731 571l-209 772h-41l-209 -772h459zM449 1413h106q29 0 35 -27l389 -1386h-92l-135 498h-500l-135 -498h-92l389 1386q4 27 35 27zM662 1587h-31q-27 0 -27 29v115q0 29 27 28h31q27 0 26 -28v-115q1 -29 -26 -29zM371 1587h-31q-27 0 -27 29v115q0 29 27 28h31
q27 0 26 -28v-115q1 -29 -26 -29z" />
    <glyph glyph-name="Aring" unicode="&#xc5;" horiz-adv-x="1003" 
d="M731 571l-209 772h-41l-209 -772h459zM449 1413h106q29 0 35 -27l389 -1386h-92l-135 498h-500l-135 -498h-92l389 1386q4 27 35 27zM502 1819q-47 0 -79 -42t-32 -107q0 -66 32 -106t80 -40t80 41q31 41 31 105t-32 107q-33 42 -80 42zM668 1670q0 -84 -48 -142
t-117 -58t-118 58t-49 142q0 83 49 141q49 59 118 59t117 -58t48 -142z" />
    <glyph glyph-name="AE" unicode="&#xc6;" horiz-adv-x="1492" 
d="M760 604v582q0 47 17 94t42 61h-10q-61 -35 -113 -141l-295 -596h359zM936 0q-76 0 -126 61t-50 156v315h-393l-263 -532h-96l615 1227q57 113 127 149t188 37q291 0 463 -8l-2 -66h-432q-55 0 -89 -43t-34 -116v-389l485 -3v-67l-485 -2v-486q0 -73 33 -117t90 -44h432
l2 -64q-152 -8 -465 -8z" />
    <glyph glyph-name="Ccedilla" unicode="&#xc7;" horiz-adv-x="940" 
d="M471 -164l10 43q158 12 152 -133q-2 -114 -71 -178t-177 -47l14 47q74 -4 121 47t48 115t-20 84q-22 20 -77 22zM545 1438q172 0 295 -37l-13 -62q-129 23 -282 23q-190 0 -265 -144t-75 -511t75 -511t259 -144t311 26l14 -64q-135 -39 -319 -39q-240 0 -335 163t-95 569
q0 407 95 569t335 162z" />
    <glyph glyph-name="Egrave" unicode="&#xc8;" horiz-adv-x="913" 
d="M338 0q-86 0 -138 60t-53 157v979q-1 96 53 156t138 61q328 0 483 -8l-2 -64h-465q-55 0 -87 -43t-31 -116v-391l516 -3v-67l-516 -2v-488q0 -75 32 -117t86 -42h465l2 -64q-156 -8 -483 -8zM565 1552l-280 279l51 59l262 -297z" />
    <glyph glyph-name="Eacute" unicode="&#xc9;" horiz-adv-x="913" 
d="M338 0q-86 0 -138 60t-53 157v979q-1 96 53 156t138 61q328 0 483 -8l-2 -64h-465q-55 0 -87 -43t-31 -116v-391l516 -3v-67l-516 -2v-488q0 -75 32 -117t86 -42h465l2 -64q-156 -8 -483 -8zM469 1552l-35 41l262 297l52 -59z" />
    <glyph glyph-name="Ecircumflex" unicode="&#xca;" horiz-adv-x="913" 
d="M338 0q-86 0 -138 60t-53 157v979q-1 96 53 156t138 61q328 0 483 -8l-2 -64h-465q-55 0 -87 -43t-31 -116v-391l516 -3v-67l-516 -2v-488q0 -75 32 -117t86 -42h465l2 -64q-156 -8 -483 -8zM305 1577l-33 39l222 244h61l221 -244l-33 -39l-213 207h-12z" />
    <glyph glyph-name="Edieresis" unicode="&#xcb;" horiz-adv-x="913" 
d="M338 0q-86 0 -138 60t-53 157v979q-1 96 53 156t138 61q328 0 483 -8l-2 -64h-465q-55 0 -87 -43t-31 -116v-391l516 -3v-67l-516 -2v-488q0 -75 32 -117t86 -42h465l2 -64q-156 -8 -483 -8zM686 1636h-31q-27 0 -26 29v115q0 29 26 28h31q27 0 27 -28v-115
q0 -29 -27 -29zM395 1636h-30q-27 0 -27 29v115q0 29 27 28h30q27 0 27 -28v-115q0 -29 -27 -29z" />
    <glyph glyph-name="Igrave" unicode="&#xcc;" horiz-adv-x="403" 
d="M246 0h-88v1413h88v-1413zM272 1544l-32 -41l-281 279l51 59z" />
    <glyph glyph-name="Iacute" unicode="&#xcd;" horiz-adv-x="403" 
d="M246 0h-88v1413h88v-1413zM424 1782l-279 -279l-34 41l262 297z" />
    <glyph glyph-name="Icircumflex" unicode="&#xce;" horiz-adv-x="403" 
d="M246 0h-88v1413h88v-1413zM451 1567l-33 -39l-213 207h-12l-213 -207l-33 39l221 243h61z" />
    <glyph glyph-name="Idieresis" unicode="&#xcf;" horiz-adv-x="403" 
d="M246 0h-88v1413h88v-1413zM330 1759h30q27 0 27 -28v-115q0 -29 -27 -29h-30q-27 0 -27 29v115q0 28 27 28zM39 1759h31q27 0 26 -28v-115q0 -29 -26 -29h-31q-27 0 -27 29v115q0 28 27 28z" />
    <glyph glyph-name="Eth" unicode="&#xd0;" 
d="M553 57q186 -1 261 143t75 506t-75 506q-75 143 -261 144q-121 0 -301 -4v-566h276v-57h-276v-668q172 -4 301 -4zM553 1432q236 0 331 -162t95 -563t-95 -563t-331 -162q-184 0 -387 18v729h-125v57h125v627q199 19 387 19z" />
    <glyph glyph-name="Ntilde" unicode="&#xd1;" horiz-adv-x="1142" 
d="M985 1413v-1372q0 -41 -37 -41h-110q-35 0 -45 31l-457 1155q-10 25 -62 151h-30q2 -51 2 -153v-1184h-88v1372q0 41 39 41h104q37 0 47 -31l445 -1128q41 -100 69 -176h39q-2 66 -2 192v1143h86zM786 1769h43q5 -94 -29 -144t-94 -44q-60 5 -132 67t-112 68
q-82 12 -83 -131h-45q-4 97 32 149q72 104 216 -21q70 -60 116 -65t68 23q20 29 20 98z" />
    <glyph glyph-name="Ograve" unicode="&#xd2;" 
d="M546 1362q-189 0 -265 -145t-76 -510t76 -510t265 -145t265 144q76 146 76 511t-76 510t-265 145zM115 707q0 407 95 569t335 162t336 -163t96 -569t-96 -568q-96 -163 -336 -163t-335 162t-95 570zM618 1544l-32 -41l-281 279l51 59z" />
    <glyph glyph-name="Oacute" unicode="&#xd3;" 
d="M546 1362q-189 0 -265 -145t-76 -510t76 -510t265 -145t265 144q76 146 76 511t-76 510t-265 145zM115 707q0 407 95 569t335 162t336 -163t96 -569t-96 -568q-96 -163 -336 -163t-335 162t-95 570zM770 1782l-278 -279l-35 41l262 297z" />
    <glyph glyph-name="Ocircumflex" unicode="&#xd4;" 
d="M546 1362q-189 0 -265 -145t-76 -510t76 -510t265 -145t265 144q76 146 76 511t-76 510t-265 145zM115 707q0 407 95 569t335 162t336 -163t96 -569t-96 -568q-96 -163 -336 -163t-335 162t-95 570zM797 1567l-33 -39l-213 207h-12l-213 -207l-33 39l221 243h61z" />
    <glyph glyph-name="Otilde" unicode="&#xd5;" 
d="M546 1362q-189 0 -265 -145t-76 -510t76 -510t265 -145t265 144q76 146 76 511t-76 510t-265 145zM115 707q0 407 95 569t335 162t336 -163t96 -569t-96 -568q-96 -163 -336 -163t-335 162t-95 570zM342 1585h-45q-4 97 32 149q72 104 216 -21q70 -60 117 -65
q47 -4 67 24t21 97h43q6 -94 -29 -144t-95 -44q-60 5 -131 67t-113 68q-83 12 -83 -131z" />
    <glyph glyph-name="Odieresis" unicode="&#xd6;" 
d="M546 1362q-189 0 -265 -145t-76 -510t76 -510t265 -145t265 144q76 146 76 511t-76 510t-265 145zM115 707q0 407 95 569t335 162t336 -163t96 -569t-96 -568q-96 -163 -336 -163t-335 162t-95 570zM676 1759h31q27 0 26 -28v-115q0 -29 -26 -29h-31q-27 0 -27 29v115
q0 28 27 28zM385 1759h31q27 0 26 -28v-115q0 -29 -26 -29h-31q-27 0 -27 29v115q0 28 27 28z" />
    <glyph glyph-name="multiply" unicode="&#xd7;" horiz-adv-x="798" 
d="M451 590l266 -297l-43 -53l-268 299l-269 -299l-45 53l266 297l-266 297l45 53l269 -299l268 299l43 -51z" />
    <glyph glyph-name="Oslash" unicode="&#xd8;" 
d="M547 51q188 -1 264 145t76 544t-109 528l-436 -1153q72 -64 205 -64zM205 688q0 -384 94 -524l432 1149q-66 49 -184 49q-190 0 -266 -145t-76 -529zM977 707q0 -406 -96 -569t-334 -163q-147 0 -236 56l-53 -140l-51 27l57 152q-150 141 -149 637q0 407 95 569t337 162
q131 0 215 -45l49 129l53 -25l-53 -139q88 -74 127 -230t39 -421z" />
    <glyph glyph-name="Ugrave" unicode="&#xd9;" horiz-adv-x="1095" 
d="M946 1413v-887q0 -299 -90 -425t-307 -126t-308 126t-91 425v887h88v-887q0 -262 70 -368t240 -106t240 106t70 368v887h88zM623 1544l-33 -41l-281 279l51 59z" />
    <glyph glyph-name="Uacute" unicode="&#xda;" horiz-adv-x="1095" 
d="M946 1413v-887q0 -299 -90 -425t-307 -126t-308 126t-91 425v887h88v-887q0 -262 70 -368t240 -106t240 106t70 368v887h88zM772 1782l-278 -279l-35 41l262 297z" />
    <glyph glyph-name="Ucircumflex" unicode="&#xdb;" horiz-adv-x="1095" 
d="M946 1413v-887q0 -299 -90 -425t-307 -126t-308 126t-91 425v887h88v-887q0 -262 70 -368t240 -106t240 106t70 368v887h88zM801 1567l-33 -39l-213 207h-12l-213 -207l-33 39l221 243h62z" />
    <glyph glyph-name="Udieresis" unicode="&#xdc;" horiz-adv-x="1095" 
d="M946 1413v-887q0 -299 -90 -425t-307 -126t-308 126t-91 425v887h88v-887q0 -262 70 -368t240 -106t240 106t70 368v887h88zM680 1759h31q27 0 26 -28v-115q0 -29 -26 -29h-31q-27 0 -27 29v115q0 28 27 28zM389 1759h31q27 0 26 -28v-115q0 -29 -26 -29h-31
q-27 0 -27 29v115q0 28 27 28z" />
    <glyph glyph-name="Yacute" unicode="&#xdd;" horiz-adv-x="907" 
d="M498 0h-88v518l-383 895h96l326 -795h10l57 144l270 651h93l-381 -895v-518zM397 1503l-35 41l263 297l51 -59z" />
    <glyph glyph-name="Thorn" unicode="&#xde;" horiz-adv-x="964" 
d="M246 371h284q145 0 202 72q56 73 56 277t-56 276t-202 73q-219 0 -284 -4v-694zM540 1143q188 0 262 -89t75 -335q0 -246 -74 -335t-246 -89t-311 12v-307h-88v1413h88v-278q106 8 294 8z" />
    <glyph glyph-name="germandbls" unicode="&#xdf;" horiz-adv-x="1085" 
d="M1014 252q0 -170 -65 -222t-211 -52t-265 22l6 61q101 -14 203 -13t135 8q33 8 62 28q51 36 51 148t-28 150t-89 62l-199 86q-139 62 -139 192q1 108 19 136q18 29 27 44q9 16 36 32t40 24t51 26t54 28q70 35 96 78t26 135t-64 130q-63 38 -214 38q-151 -1 -207 -61
t-56 -242v-1090h-86v918h-144v61l144 8v107q0 243 99 312q52 36 107 46t148 10q184 0 268 -51t84 -175t-37 -183t-157 -114q-121 -54 -136 -95q-16 -40 -16 -101t26 -95t81 -56l198 -86q78 -33 115 -88t37 -166z" />
    <glyph glyph-name="agrave" unicode="&#xe0;" horiz-adv-x="890" 
d="M184 358v-110q1 -185 146 -187q76 -3 171 49t169 134v291l-359 -7q-127 -2 -127 -170zM507 1012q124 0 185 -68t62 -219v-725h-64l-14 178q-56 -74 -156 -133t-202 -59t-161 68q-58 68 -59 188v123q0 113 54 174t149 61h369v125q-2 101 -40 157t-152 56t-341 -31l-8 62
q254 43 378 43zM479 1133l-280 278l51 59l262 -296z" />
    <glyph glyph-name="aacute" unicode="&#xe1;" horiz-adv-x="890" 
d="M184 358v-110q1 -185 146 -187q76 -3 171 49t169 134v291l-359 -7q-127 -2 -127 -170zM507 1012q124 0 185 -68t62 -219v-725h-64l-14 178q-56 -74 -156 -133t-202 -59t-161 68q-58 68 -59 188v123q0 113 54 174t149 61h369v125q-2 101 -40 157t-152 56t-341 -31l-8 62
q254 43 378 43zM385 1133l-35 41l262 296l52 -59z" />
    <glyph glyph-name="acircumflex" unicode="&#xe2;" horiz-adv-x="890" 
d="M184 358v-110q1 -185 146 -187q76 -3 171 49t169 134v291l-359 -7q-127 -2 -127 -170zM507 1012q124 0 185 -68t62 -219v-725h-64l-14 178q-56 -74 -156 -133t-202 -59t-161 68q-58 68 -59 188v123q0 113 54 174t149 61h369v125q-2 101 -40 157t-152 56t-341 -31l-8 62
q254 43 378 43zM219 1155l-33 39l222 244h61l221 -244l-33 -39l-213 207h-12z" />
    <glyph glyph-name="atilde" unicode="&#xe3;" horiz-adv-x="890" 
d="M184 358v-110q1 -185 146 -187q76 -3 171 49t169 134v291l-359 -7q-127 -2 -127 -170zM507 1012q124 0 185 -68t62 -219v-725h-64l-14 178q-56 -74 -156 -133t-202 -59t-161 68q-58 68 -59 188v123q0 113 54 174t149 61h369v125q-2 101 -40 157t-152 56t-341 -31l-8 62
q254 43 378 43zM236 1214h-46q-4 98 32 150q72 104 216 -22q70 -60 117 -65t68 23q20 29 20 99h43q6 -95 -29 -145t-95 -44t-131 68t-113 67q-82 12 -82 -131z" />
    <glyph glyph-name="adieresis" unicode="&#xe4;" horiz-adv-x="890" 
d="M184 358v-110q1 -185 146 -187q76 -3 171 49t169 134v291l-359 -7q-127 -2 -127 -170zM507 1012q124 0 185 -68t62 -219v-725h-64l-14 178q-56 -74 -156 -133t-202 -59t-161 68q-58 68 -59 188v123q0 113 54 174t149 61h369v125q-2 101 -40 157t-152 56t-341 -31l-8 62
q254 43 378 43zM600 1217h-31q-27 0 -26 28v115q0 29 26 29h31q27 0 27 -29v-115q0 -28 -27 -28zM309 1217h-30q-27 0 -27 28v115q0 29 27 29h30q27 0 27 -29v-115q0 -28 -27 -28z" />
    <glyph glyph-name="aring" unicode="&#xe5;" horiz-adv-x="890" 
d="M184 358v-110q1 -185 146 -187q76 -3 171 49t169 134v291l-359 -7q-127 -2 -127 -170zM507 1012q124 0 185 -68t62 -219v-725h-64l-14 178q-56 -74 -156 -133t-202 -59t-161 68q-58 68 -59 188v123q0 113 54 174t149 61h369v125q-2 101 -40 157t-152 56t-341 -31l-8 62
q254 43 378 43zM440 1446q-47 0 -79 -42q-31 -42 -31 -107t32 -105t79 -41q48 0 80 41t32 105q0 65 -33 107t-80 42zM441 1098q-69 0 -117 58t-50 141q0 83 50 141t118 59q68 0 116 -58q48 -57 48 -141t-48 -142t-117 -58z" />
    <glyph glyph-name="ae" unicode="&#xe6;" horiz-adv-x="1439" 
d="M668 498v37l-357 -7q-127 -2 -127 -170v-110q1 -185 146 -187q80 -3 181 53t177 142q-20 96 -20 242zM1024 938q-146 0 -206 -92t-62 -326h352q86 0 120 46t34 151q-2 221 -238 221zM1037 49q140 0 280 25l10 -58q-102 -41 -264 -41q-162 -1 -243 53t-118 173
q-58 -80 -166 -148q-108 -67 -214 -67t-165 68q-58 68 -59 188v123q0 113 52 174t151 61h369v125q0 213 -172 213q-133 0 -361 -31l-8 62q254 43 381 43q176 0 223 -142q80 141 287 142q326 0 326 -291q2 -143 -50 -205t-174 -63h-366q6 -225 73 -315q68 -89 208 -89z" />
    <glyph glyph-name="ccedilla" unicode="&#xe7;" horiz-adv-x="792" 
d="M395 -164l11 43q158 12 151 -133q-2 -114 -71 -178t-177 -47l15 47q74 -4 120 47t48 115t-20 84t-77 22zM473 1012q143 0 238 -39l-15 -55q-90 20 -211 20q-167 0 -231 -95t-64 -349t65 -350t216 -95q151 0 246 23l10 -58q-121 -39 -254 -39q-203 0 -287 117t-84 402
q0 286 84 402t287 116z" />
    <glyph glyph-name="egrave" unicode="&#xe8;" horiz-adv-x="874" 
d="M446 938q-134 0 -194 -92t-62 -326h396q113 0 108 197q-2 117 -58 169t-190 52zM471 49q141 0 281 25l8 -58q-102 -41 -296 -41t-278 120t-84 403q0 282 81 398t272 116q322 0 325 -291q0 -135 -42 -202t-138 -66h-410q6 -225 73 -315t208 -89zM500 1133l-281 278l51 59
l262 -296z" />
    <glyph glyph-name="eacute" unicode="&#xe9;" horiz-adv-x="874" 
d="M446 938q-134 0 -194 -92t-62 -326h396q113 0 108 197q-2 117 -58 169t-190 52zM471 49q141 0 281 25l8 -58q-102 -41 -296 -41t-278 120t-84 403q0 282 81 398t272 116q322 0 325 -291q0 -135 -42 -202t-138 -66h-410q6 -225 73 -315t208 -89zM406 1133l-35 41l262 296
l51 -59z" />
    <glyph glyph-name="ecircumflex" unicode="&#xea;" horiz-adv-x="874" 
d="M446 938q-134 0 -194 -92t-62 -326h396q113 0 108 197q-2 117 -58 169t-190 52zM471 49q141 0 281 25l8 -58q-102 -41 -296 -41t-278 120t-84 403q0 282 81 398t272 116q322 0 325 -291q0 -135 -42 -202t-138 -66h-410q6 -225 73 -315t208 -89zM240 1155l-33 39l221 244
h61l222 -244l-33 -39l-213 207h-12z" />
    <glyph glyph-name="edieresis" unicode="&#xeb;" horiz-adv-x="874" 
d="M446 938q-134 0 -194 -92t-62 -326h396q113 0 108 197q-2 117 -58 169t-190 52zM471 49q141 0 281 25l8 -58q-102 -41 -296 -41t-278 120t-84 403q0 282 81 398t272 116q322 0 325 -291q0 -135 -42 -202t-138 -66h-410q6 -225 73 -315t208 -89zM621 1217h-31
q-27 0 -27 28v115q0 29 27 29h31q27 0 26 -29v-115q1 -28 -26 -28zM330 1217h-31q-27 0 -27 28v115q0 29 27 29h31q27 0 26 -29v-115q1 -28 -26 -28z" />
    <glyph glyph-name="igrave" unicode="&#xec;" horiz-adv-x="385" 
d="M233 0h-83v987h83v-987zM262 1174l-33 -41l-280 278l51 59z" />
    <glyph glyph-name="iacute" unicode="&#xed;" horiz-adv-x="385" 
d="M233 0h-83v987h83v-987zM414 1411l-279 -278l-35 41l262 296z" />
    <glyph glyph-name="icircumflex" unicode="&#xee;" horiz-adv-x="385" 
d="M233 0h-83v987h83v-987zM440 1194l-32 -39l-213 207h-13l-213 -207l-32 39l221 244h61z" />
    <glyph glyph-name="idieresis" unicode="&#xef;" horiz-adv-x="385" 
d="M233 0h-83v987h83v-987zM319 1389h31q27 0 27 -29v-115q0 -29 -27 -28h-31q-27 0 -26 28v115q-1 29 26 29zM29 1389h30q27 0 27 -29v-115q0 -29 -27 -28h-30q-27 0 -27 28v115q0 29 27 29z" />
    <glyph glyph-name="eth" unicode="&#xf0;" horiz-adv-x="907" 
d="M700 586q0 92 -6 172q-119 86 -254 86q-248 0 -247 -393q0 -217 61 -311t188 -93q127 0 193 99q65 99 65 440zM104 440q0 238 77 357t253 118q137 0 254 -96q-37 279 -156 416l-145 -127l-33 45l138 121q-113 96 -299 96l12 60q207 8 342 -107l131 115l33 -47l-123 -107
q199 -213 198 -711q0 -352 -87 -475t-258 -123t-254 114q-83 113 -83 351z" />
    <glyph glyph-name="ntilde" unicode="&#xf1;" horiz-adv-x="944" 
d="M592 1012q215 0 215 -271v-741h-86v725q0 111 -37 162t-114 51q-76 0 -152 -44t-191 -144v-750h-84v987h70l6 -172q197 197 373 197zM272 1214h-45q-4 98 32 150q72 104 216 -22q70 -60 117 -65t67 23t21 99h43q6 -95 -29 -145t-95 -44t-131 68t-113 67q-83 12 -83 -131z
" />
    <glyph glyph-name="ograve" unicode="&#xf2;" horiz-adv-x="923" 
d="M464 938q-153 0 -213 -96q-61 -96 -61 -348t60 -350t213 -97q152 0 211 97q59 98 59 350t-58 348t-211 96zM463 1012q199 0 279 -117t79 -403q0 -286 -80 -401q-81 -116 -279 -116t-279 117t-81 402q0 286 81 402t280 116zM537 1174l-33 -41l-281 278l51 59z" />
    <glyph glyph-name="oacute" unicode="&#xf3;" horiz-adv-x="923" 
d="M464 938q-153 0 -213 -96q-61 -96 -61 -348t60 -350t213 -97q152 0 211 97q59 98 59 350t-58 348t-211 96zM463 1012q199 0 279 -117t79 -403q0 -286 -80 -401q-81 -116 -279 -116t-279 117t-81 402q0 286 81 402t280 116zM688 1411l-278 -278l-35 41l262 296z" />
    <glyph glyph-name="ocircumflex" unicode="&#xf4;" horiz-adv-x="923" 
d="M464 938q-153 0 -213 -96q-61 -96 -61 -348t60 -350t213 -97q152 0 211 97q59 98 59 350t-58 348t-211 96zM463 1012q199 0 279 -117t79 -403q0 -286 -80 -401q-81 -116 -279 -116t-279 117t-81 402q0 286 81 402t280 116zM715 1194l-33 -39l-213 207h-12l-213 -207
l-33 39l221 244h62z" />
    <glyph glyph-name="otilde" unicode="&#xf5;" horiz-adv-x="923" 
d="M464 938q-153 0 -213 -96q-61 -96 -61 -348t60 -350t213 -97q152 0 211 97q59 98 59 350t-58 348t-211 96zM463 1012q199 0 279 -117t79 -403q0 -286 -80 -401q-81 -116 -279 -116t-279 117t-81 402q0 286 81 402t280 116zM247 1364q73 103 216 -22q70 -60 117 -65t67 23
t21 99h43q6 -95 -29 -145t-95 -44t-131 68t-113 67q-81 12 -83 -131h-45q-4 98 32 150z" />
    <glyph glyph-name="odieresis" unicode="&#xf6;" horiz-adv-x="923" 
d="M464 938q-153 0 -213 -96q-61 -96 -61 -348t60 -350t213 -97q152 0 211 97q59 98 59 350t-58 348t-211 96zM463 1012q199 0 279 -117t79 -403q0 -286 -80 -401q-81 -116 -279 -116t-279 117t-81 402q0 286 81 402t280 116zM594 1389h31q27 0 26 -29v-115q0 -29 -26 -28
h-31q-27 0 -27 28v115q0 29 27 29zM303 1389h31q27 0 26 -29v-115q0 -29 -26 -28h-31q-27 0 -27 28v115q0 29 27 29z" />
    <glyph glyph-name="divide" unicode="&#xf7;" horiz-adv-x="956" 
d="M463 360h24q35 0 35 -34v-121q0 -35 -35 -35h-24q-35 0 -35 35v121q0 34 35 34zM827 571h-700v68h700v-68zM463 1040h24q35 0 35 -34v-121q0 -35 -35 -35h-24q-35 0 -35 35v121q0 34 35 34z" />
    <glyph glyph-name="oslash" unicode="&#xf8;" horiz-adv-x="925" 
d="M463 47q152 0 211 97t59 380t-98 365l-307 -815q53 -27 135 -27zM463 938q-153 0 -213 -96t-60 -372t93 -366l307 814q-49 20 -127 20zM821 494q0 -287 -80 -403t-278 -116q-94 0 -162 25l-51 -133l-47 24l49 134q-150 94 -150 469q0 286 81 402t280 116q94 0 153 -23
l48 125l47 -22l-47 -125q84 -49 120 -163t37 -310z" />
    <glyph glyph-name="ugrave" unicode="&#xf9;" horiz-adv-x="927" 
d="M784 987v-987h-67l-8 166q-190 -190 -357 -191q-215 0 -215 271v741h84v-725q0 -213 156 -213q71 0 143 43t180 141v754h84zM504 1135l-281 278l51 60l263 -297z" />
    <glyph glyph-name="uacute" unicode="&#xfa;" horiz-adv-x="927" 
d="M784 987v-987h-67l-8 166q-190 -190 -357 -191q-215 0 -215 271v741h84v-725q0 -213 156 -213q71 0 143 43t180 141v754h84zM410 1135l-35 41l262 297l51 -60z" />
    <glyph glyph-name="ucircumflex" unicode="&#xfb;" horiz-adv-x="927" 
d="M784 987v-987h-67l-8 166q-190 -190 -357 -191q-215 0 -215 271v741h84v-725q0 -213 156 -213q71 0 143 43t180 141v754h84zM244 1157l-33 39l221 244h62l221 -244l-33 -39l-213 207h-12z" />
    <glyph glyph-name="udieresis" unicode="&#xfc;" horiz-adv-x="927" 
d="M784 987v-987h-67l-8 166q-190 -190 -357 -191q-215 0 -215 271v741h84v-725q0 -213 156 -213q71 0 143 43t180 141v754h84zM625 1219h-31q-27 0 -27 28v115q0 29 27 29h31q27 0 26 -29v-115q1 -28 -26 -28zM334 1219h-31q-27 0 -27 28v115q0 29 27 29h31q27 0 26 -29
v-115q1 -28 -26 -28z" />
    <glyph glyph-name="yacute" unicode="&#xfd;" horiz-adv-x="847" 
d="M385 0q-25 0 -37 25l-307 962h90l250 -809q13 -59 33 -110h20q33 96 37 112l246 807h90l-342 -1073q-47 -141 -115 -227t-182 -115l-12 51q92 41 143 117t88 190l25 70h-27zM373 1133l-35 41l262 296l51 -59z" />
    <glyph glyph-name="thorn" unicode="&#xfe;" horiz-adv-x="927" 
d="M518 47q117 0 168 100q51 99 51 345t-50 346t-171 100t-289 -168v-631q174 -92 291 -92zM535 1012q159 0 225 -120t66 -400t-68 -399q-68 -118 -222 -118t-313 101q4 -43 4 -185v-317h-84v1860h84v-400q0 -143 -4 -188q154 166 312 166z" />
    <glyph glyph-name="ydieresis" unicode="&#xff;" horiz-adv-x="847" 
d="M385 0q-25 0 -37 25l-307 962h90l250 -809q13 -59 33 -110h20q33 96 37 112l246 807h90l-342 -1073q-47 -141 -115 -227t-182 -115l-12 51q92 41 143 117t88 190l25 70h-27zM588 1217h-31q-27 0 -27 28v115q0 29 27 29h31q27 0 26 -29v-115q1 -28 -26 -28zM297 1217h-31
q-27 0 -26 28v115q0 29 26 29h31q27 0 27 -29v-115q0 -28 -27 -28z" />
    <glyph glyph-name="Amacron" unicode="&#x100;" horiz-adv-x="1003" 
d="M731 571l-209 772h-41l-209 -772h459zM449 1413h106q29 0 35 -27l389 -1386h-92l-135 498h-500l-135 -498h-92l389 1386q4 27 35 27zM723 1636h-440v68h440v-68z" />
    <glyph glyph-name="amacron" unicode="&#x101;" horiz-adv-x="890" 
d="M184 358v-110q1 -185 146 -187q76 -3 171 49t169 134v291l-359 -7q-127 -2 -127 -170zM507 1012q124 0 185 -68t62 -219v-725h-64l-14 178q-56 -74 -156 -133t-202 -59t-161 68q-58 68 -59 188v123q0 113 54 174t149 61h369v125q-2 101 -40 157t-152 56t-341 -31l-8 62
q254 43 378 43zM662 1266h-441v67h441v-67z" />
    <glyph glyph-name="Abreve" unicode="&#x102;" horiz-adv-x="1003" 
d="M731 571l-209 772h-41l-209 -772h459zM449 1413h106q29 0 35 -27l389 -1386h-92l-135 498h-500l-135 -498h-92l389 1386q4 27 35 27zM501 1540q-110 0 -173 66t-60 178l47 8q-1 -86 49 -134t137 -48t136 48t49 134l47 -8q2 -112 -60 -178t-172 -66z" />
    <glyph glyph-name="abreve" unicode="&#x103;" horiz-adv-x="890" 
d="M184 358v-110q1 -185 146 -187q76 -3 171 49t169 134v291l-359 -7q-127 -2 -127 -170zM507 1012q124 0 185 -68t62 -219v-725h-64l-14 178q-56 -74 -156 -133t-202 -59t-161 68q-58 68 -59 188v123q0 113 54 174t149 61h369v125q-2 101 -40 157t-152 56t-341 -31l-8 62
q254 43 378 43zM439 1169q-110 0 -173 66t-59 178l47 8q0 -86 49 -134t136 -48t136 48t50 134l47 -8q2 -113 -60 -179t-173 -65z" />
    <glyph glyph-name="Aogonek" unicode="&#x104;" horiz-adv-x="1003" 
d="M731 571l-209 772h-41l-209 -772h459zM449 1413h106q29 0 35 -27l389 -1386q-96 -126 -128 -234t9 -136t127 10l10 -37q-137 -66 -193 -17t-22 171t150 243h-45l-135 498h-500l-135 -498h-92l389 1386q4 27 35 27z" />
    <glyph glyph-name="aogonek" unicode="&#x105;" horiz-adv-x="890" 
d="M184 358v-110q1 -185 146 -187q76 -3 171 49t169 134v291l-359 -7q-127 -2 -127 -170zM318 -14q-102 0 -161 68q-58 68 -59 188v123q0 113 54 174t149 61h369v125q-2 101 -40 157t-152 56t-341 -31l-8 62q254 43 378 43t185 -68t62 -219v-725q-96 -126 -128 -234t9 -136
t127 10l10 -37q-137 -66 -193 -17q-55 49 -21 171t149 243h-17l-14 178q-56 -74 -156 -133t-202 -59z" />
    <glyph glyph-name="Cacute" unicode="&#x106;" horiz-adv-x="940" 
d="M545 1438q172 0 295 -37l-13 -62q-129 23 -282 23q-190 0 -265 -144t-75 -511t75 -511t259 -144t311 26l14 -64q-135 -39 -319 -39q-240 0 -335 163t-95 569q0 407 95 569t335 162zM754 1782l-279 -279l-35 41l262 297z" />
    <glyph glyph-name="cacute" unicode="&#x107;" horiz-adv-x="792" 
d="M473 1012q143 0 238 -39l-15 -55q-90 20 -211 20q-167 0 -231 -95t-64 -349t65 -350t216 -95q151 0 246 23l10 -58q-121 -39 -254 -39q-203 0 -287 117t-84 402q0 286 84 402t287 116zM668 1411l-279 -278l-35 41l262 296z" />
    <glyph glyph-name="Cdotaccent" unicode="&#x10a;" horiz-adv-x="940" 
d="M545 1438q172 0 295 -37l-13 -62q-129 23 -282 23q-190 0 -265 -144t-75 -511t75 -511t259 -144t311 26l14 -64q-135 -39 -319 -39q-240 0 -335 163t-95 569q0 407 95 569t335 162zM516 1763h29q31 0 30 -30v-125q0 -31 -30 -31h-29q-31 0 -31 31v125q0 30 31 30z" />
    <glyph glyph-name="cdotaccent" unicode="&#x10b;" horiz-adv-x="792" 
d="M473 1012q143 0 238 -39l-15 -55q-90 20 -211 20q-167 0 -231 -95t-64 -349t65 -350t216 -95q151 0 246 23l10 -58q-121 -39 -254 -39q-203 0 -287 117t-84 402q0 286 84 402t287 116zM430 1393h29q31 0 30 -31v-125q0 -31 -30 -31h-29q-31 0 -31 31v125q0 31 31 31z" />
    <glyph glyph-name="Ccaron" unicode="&#x10c;" horiz-adv-x="940" 
d="M545 1438q172 0 295 -37l-13 -62q-129 23 -282 23q-190 0 -265 -144t-75 -511t75 -511t259 -144t311 26l14 -64q-135 -39 -319 -39q-240 0 -335 163t-95 569q0 407 95 569t335 162zM782 1780l-227 -246h-47l-229 246l32 37l213 -201h15l213 201z" />
    <glyph glyph-name="ccaron" unicode="&#x10d;" horiz-adv-x="792" 
d="M473 1012q143 0 238 -39l-15 -55q-90 20 -211 20q-167 0 -231 -95t-64 -349t65 -350t216 -95q151 0 246 23l10 -58q-121 -39 -254 -39q-203 0 -287 117t-84 402q0 286 84 402t287 116zM696 1407l-227 -246h-47l-229 246l32 37l213 -201h15l213 201z" />
    <glyph glyph-name="Dcaron" unicode="&#x10e;" horiz-adv-x="1087" 
d="M547 57q186 -1 260 143t74 506t-74 506q-74 143 -260 144q-121 0 -301 -4v-1291q176 -4 301 -4zM547 1432q236 0 331 -162t95 -563t-95 -563t-331 -162q-182 0 -389 18v1413q203 19 389 19zM524 1534l-229 246l33 37l213 -201h14l213 201l31 -37l-228 -246h-47z" />
    <glyph glyph-name="dcaron" unicode="&#x10f;" horiz-adv-x="929" 
d="M410 49q70 0 134 40t158 138v623q-176 88 -292 88t-167 -98q-50 -98 -50 -344t49 -346t168 -101zM702 1434h84v-1434h-65l-10 162q-164 -186 -320 -186q-155 0 -221 120q-66 121 -66 400q0 280 69 398t218 118t316 -97q-4 43 -5 189v330zM944 1440h25q29 0 28 -31v-115
q-4 -135 -36 -241l-37 12q10 90 10 205q-20 0 -21 26v113q4 31 31 31z" />
    <glyph glyph-name="Dcroat" unicode="&#x110;" 
d="M553 57q186 -1 261 143t75 506t-75 506q-75 143 -261 144q-121 0 -301 -4v-566h276v-57h-276v-668q172 -4 301 -4zM553 1432q236 0 331 -162t95 -563t-95 -563t-331 -162q-184 0 -387 18v729h-125v57h125v627q199 19 387 19z" />
    <glyph glyph-name="dcroat" unicode="&#x111;" horiz-adv-x="919" 
d="M410 49q70 0 134 40t158 138v623q-176 88 -292 88t-167 -98q-50 -98 -50 -344t49 -346t168 -101zM903 1200h-117v-1200h-65l-10 162q-164 -186 -320 -186q-155 0 -221 120q-66 121 -66 400q0 280 69 398t218 118t316 -97q-4 43 -5 189v96h-274v55h274v179h84v-179h117
v-55z" />
    <glyph glyph-name="Emacron" unicode="&#x112;" horiz-adv-x="913" 
d="M338 0q-86 0 -138 60t-53 157v979q-1 96 53 156t138 61q328 0 483 -8l-2 -64h-465q-55 0 -87 -43t-31 -116v-391l516 -3v-67l-516 -2v-488q0 -75 32 -117t86 -42h465l2 -64q-156 -8 -483 -8zM745 1686h-440v67h440v-67z" />
    <glyph glyph-name="emacron" unicode="&#x113;" horiz-adv-x="874" 
d="M446 938q-134 0 -194 -92t-62 -326h396q113 0 108 197q-2 117 -58 169t-190 52zM471 49q141 0 281 25l8 -58q-102 -41 -296 -41t-278 120t-84 403q0 282 81 398t272 116q322 0 325 -291q0 -135 -42 -202t-138 -66h-410q6 -225 73 -315t208 -89zM682 1266h-440v67h440v-67
z" />
    <glyph glyph-name="Edotaccent" unicode="&#x116;" horiz-adv-x="913" 
d="M338 0q-86 0 -138 60t-53 157v979q-1 96 53 156t138 61q328 0 483 -8l-2 -64h-465q-55 0 -87 -43t-31 -116v-391l516 -3v-67l-516 -2v-488q0 -75 32 -117t86 -42h465l2 -64q-156 -8 -483 -8zM541 1626h-29q-31 0 -31 31v125q0 31 31 30h29q31 0 30 -30v-125
q1 -31 -30 -31z" />
    <glyph glyph-name="edotaccent" unicode="&#x117;" horiz-adv-x="874" 
d="M446 938q-134 0 -194 -92t-62 -326h396q113 0 108 197q-2 117 -58 169t-190 52zM471 49q141 0 281 25l8 -58q-102 -41 -296 -41t-278 120t-84 403q0 282 81 398t272 116q322 0 325 -291q0 -135 -42 -202t-138 -66h-410q6 -225 73 -315t208 -89zM475 1206h-29
q-31 0 -30 31v125q0 31 30 31h29q31 0 31 -31v-125q0 -31 -31 -31z" />
    <glyph glyph-name="Eogonek" unicode="&#x118;" horiz-adv-x="913" 
d="M338 0q-86 0 -138 60t-53 157v979q-1 96 53 156t138 61q328 0 483 -8l-2 -64h-465q-55 0 -87 -43t-31 -116v-391l516 -3v-67l-516 -2v-488q0 -75 32 -117t86 -42h465l2 -64q-96 -126 -128 -234t9 -136t127 10l11 -37q-137 -66 -194 -17q-56 49 -20 170t146 242
q-141 -6 -434 -6z" />
    <glyph glyph-name="eogonek" unicode="&#x119;" horiz-adv-x="874" 
d="M446 938q-134 0 -194 -92t-62 -326h396q113 0 108 197q-2 117 -58 169t-190 52zM467 -25q-197 0 -281 120t-84 403q0 282 81 398t272 116q322 0 325 -291q0 -135 -42 -202t-138 -66h-410q6 -225 73 -315t208 -89q141 0 281 25l8 -58h2q-96 -126 -128 -234t9 -136t127 10
l10 -37q-137 -67 -193 -17t-24 165q33 115 137 233q-104 -25 -233 -25z" />
    <glyph glyph-name="Ecaron" unicode="&#x11a;" horiz-adv-x="913" 
d="M338 0q-86 0 -138 60t-53 157v979q-1 96 53 156t138 61q328 0 483 -8l-2 -64h-465q-55 0 -87 -43t-31 -116v-391l516 -3v-67l-516 -2v-488q0 -75 32 -117t86 -42h465l2 -64q-156 -8 -483 -8zM504 1583l-230 246l33 37l213 -201h15l213 201l30 -37l-227 -246h-47z" />
    <glyph glyph-name="ecaron" unicode="&#x11b;" horiz-adv-x="874" 
d="M446 938q-134 0 -194 -92t-62 -326h396q113 0 108 197q-2 117 -58 169t-190 52zM471 49q141 0 281 25l8 -58q-102 -41 -296 -41t-278 120t-84 403q0 282 81 398t272 116q322 0 325 -291q0 -135 -42 -202t-138 -66h-410q6 -225 73 -315t208 -89zM438 1161l-229 246l33 37
l213 -201h14l213 201l31 -37l-228 -246h-47z" />
    <glyph glyph-name="Gbreve" unicode="&#x11e;" horiz-adv-x="1026" 
d="M903 819v-819h-63l-15 166q-141 -190 -340 -190t-285 172q-86 173 -85 571q0 399 98 559t348 160q184 0 318 -37l-13 -62q-141 23 -303 23q-201 0 -279 -141t-79 -503t67 -515q68 -152 228 -152q66 0 128 31q62 30 97 62t92 94v581h86zM556 1540q-110 0 -173 66t-59 178
l47 8q0 -86 49 -134t136 -48t136 48t49 134l47 -8q2 -112 -60 -178t-172 -66z" />
    <glyph glyph-name="gbreve" unicode="&#x11f;" horiz-adv-x="903" 
d="M731 -148q0 110 -30 150q-30 41 -111 59l-299 64l-31 -25q-54 -43 -74 -94t-20 -129q0 -133 58 -183t222 -50t225 49q60 49 60 159zM443 465q134 0 190 56q55 56 55 181q0 126 -55 184t-189 58t-192 -58q-57 -58 -57 -182t57 -182q57 -57 191 -57zM444 397
q-119 0 -190 33q-45 -66 -32 -142t97 -95l310 -68q102 -19 144 -79t42 -181q0 -164 -80 -229q-79 -64 -285 -64t-287 66t-81 233q0 91 28 153t99 107l22 14q-82 43 -84 145t62 165q-94 75 -94 241t75 241q76 75 254 75q100 0 168 -25h250l-6 -53l-151 -8q65 -74 65 -228
t-76 -228t-250 -73zM443 1169q-110 0 -173 66t-59 178l47 8q0 -86 49 -134t136 -48t137 48q49 48 49 134l47 -8q2 -113 -60 -179t-173 -65z" />
    <glyph glyph-name="Gdotaccent" unicode="&#x120;" horiz-adv-x="1026" 
d="M903 819v-819h-63l-15 166q-141 -190 -340 -190t-285 172q-86 173 -85 571q0 399 98 559t348 160q184 0 318 -37l-13 -62q-141 23 -303 23q-201 0 -279 -141t-79 -503t67 -515q68 -152 228 -152q66 0 128 31q62 30 97 62t92 94v581h86zM573 1577h-28q-31 0 -31 31v125
q0 31 31 30h28q31 0 31 -30v-125q0 -31 -31 -31z" />
    <glyph glyph-name="gdotaccent" unicode="&#x121;" horiz-adv-x="903" 
d="M731 -148q0 110 -30 150q-30 41 -111 59l-299 64l-31 -25q-54 -43 -74 -94t-20 -129q0 -133 58 -183t222 -50t225 49q60 49 60 159zM443 465q134 0 190 56q55 56 55 181q0 126 -55 184t-189 58t-192 -58q-57 -58 -57 -182t57 -182q57 -57 191 -57zM444 397
q-119 0 -190 33q-45 -66 -32 -142t97 -95l310 -68q102 -19 144 -79t42 -181q0 -164 -80 -229q-79 -64 -285 -64t-287 66t-81 233q0 91 28 153t99 107l22 14q-82 43 -84 145t62 165q-94 75 -94 241t75 241q76 75 254 75q100 0 168 -25h250l-6 -53l-151 -8q65 -74 65 -228
t-76 -228t-250 -73zM459 1206h-29q-31 0 -31 31v125q0 31 31 31h29q31 0 30 -31v-125q1 -31 -30 -31z" />
    <glyph glyph-name="Gcommaaccent" unicode="&#x122;" horiz-adv-x="1026" 
d="M520 -129h25q29 0 30 -31l-2 -116q-4 -137 -36 -246l-37 12q10 123 10 209q-23 0 -23 27v114q2 31 33 31zM903 819v-819h-63l-15 166q-141 -190 -340 -190t-285 172q-86 173 -85 571q0 399 98 559t348 160q184 0 318 -37l-13 -62q-141 23 -303 23q-201 0 -279 -141
t-79 -503t67 -515q68 -152 228 -152q66 0 128 31q62 30 97 62t92 94v581h86z" />
    <glyph glyph-name="gcommaaccent" unicode="&#x123;" horiz-adv-x="903" 
d="M731 -148q0 110 -30 150q-30 41 -111 59l-299 64l-31 -25q-54 -43 -74 -94t-20 -129q0 -133 58 -183t222 -50t225 49q60 49 60 159zM443 465q134 0 190 56q55 56 55 181q0 126 -55 184t-189 58t-192 -58q-57 -58 -57 -182t57 -182q57 -57 191 -57zM444 397
q-119 0 -190 33q-45 -66 -32 -142t97 -95l310 -68q102 -19 144 -79t42 -181q0 -164 -80 -229q-79 -64 -285 -64t-287 66t-81 233q0 91 28 153t99 107l22 14q-82 43 -84 145t62 165q-94 75 -94 241t75 241q76 75 254 75q100 0 168 -25h250l-6 -53l-151 -8q65 -74 65 -228
t-76 -228t-250 -73zM467 1155h-25q-29 0 -30 31l2 117q4 137 37 245l36 -12q-10 -123 -10 -209q23 0 23 -27v-114q-2 -31 -33 -31z" />
    <glyph glyph-name="Hbar" unicode="&#x126;" horiz-adv-x="1099" 
d="M850 1071h-598v-276h598v276zM1059 1071h-121v-1071h-88v721h-598v-721h-88v1071h-125v55h125v287h88v-287h598v287h88v-287h121v-55z" />
    <glyph glyph-name="hbar" unicode="&#x127;" horiz-adv-x="950" 
d="M596 1012q215 0 215 -271v-741h-84v725q0 113 -37 163t-115 50q-77 0 -153 -44t-191 -144v-750h-84v1200h-133v55h133v179h84v-179h261v-55h-259v-194q0 -117 -8 -189q211 195 371 195z" />
    <glyph glyph-name="Imacron" unicode="&#x12a;" horiz-adv-x="403" 
d="M246 0h-88v1413h88v-1413zM422 1636h-440v68h440v-68z" />
    <glyph glyph-name="imacron" unicode="&#x12b;" horiz-adv-x="385" 
d="M233 0h-83v987h83v-987zM412 1266h-441v67h441v-67z" />
    <glyph glyph-name="Iogonek" unicode="&#x12e;" horiz-adv-x="403" 
d="M158 0v1413h88v-1413h-6q-96 -126 -128 -234t8 -136q42 -28 128 10l10 -37q-137 -66 -193 -17q-55 49 -21 171t149 243h-35z" />
    <glyph glyph-name="iogonek" unicode="&#x12f;" horiz-adv-x="385" 
d="M150 0v987h83v-987h-10q-96 -126 -128 -234t9 -136t127 10l11 -37q-137 -66 -194 -17q-56 49 -21 171t149 243h-26zM205 1206h-29q-31 0 -31 31v125q0 31 31 31h29q31 0 31 -31v-125q0 -31 -31 -31z" />
    <glyph glyph-name="Idotaccent" unicode="&#x130;" horiz-adv-x="403" 
d="M246 0h-88v1413h88v-1413zM186 1763h29q31 0 31 -30v-125q0 -31 -31 -31h-29q-31 0 -30 31v125q-1 30 30 30z" />
    <glyph glyph-name="dotlessi" unicode="&#x131;" horiz-adv-x="385" 
d="M233 0h-83v987h83v-987z" />
    <glyph glyph-name="IJ" unicode="&#x132;" horiz-adv-x="948" 
d="M795 1413v-1161q0 -266 -209 -266q-59 0 -125 16l10 57h90q147 0 148 193v1161h86zM246 0h-88v1413h88v-1413z" />
    <glyph glyph-name="ij" unicode="&#x133;" horiz-adv-x="768" 
d="M618 987v-1063q0 -203 -126 -350l-48 35q90 139 91 315v1063h83zM233 0h-83v987h83v-987zM557 1399h41q29 0 29 -33v-123q0 -33 -29 -33h-41q-29 0 -29 33v123q0 33 29 33zM172 1399h39q31 0 31 -33v-123q0 -33 -31 -33h-39q-29 0 -29 33v123q0 33 29 33z" />
    <glyph glyph-name="Kcommaaccent" unicode="&#x136;" horiz-adv-x="944" 
d="M498 -129h24q29 0 31 -31l-2 -116q-4 -137 -37 -246l-37 12q10 123 10 209q-23 0 -22 27v114q2 31 33 31zM244 532v-532h-86v1413h86v-473q0 -92 -8 -168h163l379 641h96l-360 -610q-23 -43 -47 -64v-4q35 -35 51 -65l383 -670h-98l-404 702h-161q6 -88 6 -170z" />
    <glyph glyph-name="kcommaaccent" unicode="&#x137;" horiz-adv-x="802" 
d="M428 -129h25q29 0 30 -31l-2 -116q-4 -137 -37 -246l-36 12q10 123 10 209q-23 0 -23 27v114q2 31 33 31zM225 356v-356h-84v1434h84l2 -670q0 -82 -6 -168h121l293 391h98l-276 -377q-4 -8 -45 -47v-4q39 -47 45 -59l303 -500h-96l-320 530h-123q4 -59 4 -174z" />
    <glyph glyph-name="Lacute" unicode="&#x139;" horiz-adv-x="837" 
d="M240 1413v-1182q0 -75 32 -117t90 -42h431l2 -62q-147 -10 -447 -10q-94 0 -145 61t-51 162v1190h88zM420 1782l-279 -279l-35 41l263 297z" />
    <glyph glyph-name="lacute" unicode="&#x13a;" horiz-adv-x="462" 
d="M227 1434v-1217q0 -156 121 -156h88l10 -59q-40 -16 -122 -16t-131 57t-50 162v1229h84zM412 1829l-279 -279l-35 41l262 297z" />
    <glyph glyph-name="Lcommaaccent" unicode="&#x13b;" horiz-adv-x="837" 
d="M479 -145h25q29 0 31 -31l-3 -117q-4 -137 -36 -246l-37 13q10 123 10 209q-23 0 -23 26v115q2 31 33 31zM240 1413v-1182q0 -75 32 -117t90 -42h431l2 -62q-147 -10 -447 -10q-94 0 -145 61t-51 162v1190h88z" />
    <glyph glyph-name="lcommaaccent" unicode="&#x13c;" horiz-adv-x="462" 
d="M266 -145h25q29 0 31 -31l-3 -117q-4 -137 -36 -246l-37 13q10 123 10 209q-23 0 -23 26v115q2 31 33 31zM227 1434v-1217q0 -156 121 -156h88l10 -59q-40 -16 -122 -16t-131 57t-50 162v1229h84z" />
    <glyph glyph-name="Lcaron" unicode="&#x13d;" horiz-adv-x="837" 
d="M494 1413h24q29 0 31 -31l-2 -116q-4 -137 -37 -246l-37 12q10 123 10 209q-23 0 -22 27v114q2 31 33 31zM240 1413v-1182q0 -75 32 -117t90 -42h431l2 -62q-147 -10 -447 -10q-94 0 -145 61t-51 162v1190h88z" />
    <glyph glyph-name="lcaron" unicode="&#x13e;" horiz-adv-x="462" 
d="M227 1434v-1217q0 -156 121 -156h88l10 -59q-40 -16 -122 -16t-131 57t-50 162v1229h84zM389 1440h25q29 0 28 -31v-115q-4 -135 -36 -241l-37 12q10 90 10 205q-20 0 -21 26v113q2 31 31 31z" />
    <glyph glyph-name="Ldot" unicode="&#x13f;" horiz-adv-x="837" 
d="M635 682h-29q-31 0 -31 31v125q0 31 31 30h29q31 0 31 -30v-125q0 -31 -31 -31zM240 1413v-1182q0 -75 32 -117t90 -42h431l2 -62q-147 -10 -447 -10q-94 0 -145 61t-51 162v1190h88z" />
    <glyph glyph-name="ldot" unicode="&#x140;" horiz-adv-x="507" 
d="M444 705h-30q-29 0 -29 32v123q0 33 29 33h30q29 0 29 -33v-123q0 -32 -29 -32zM227 1434v-1217q0 -156 121 -156h88l10 -59q-40 -16 -122 -16t-131 57t-50 162v1229h84z" />
    <glyph glyph-name="Lslash" unicode="&#x141;" horiz-adv-x="843" 
d="M356 0q-94 0 -145 61t-51 162v492l-123 -64v62l123 63v637h88v-590l203 105v-60l-203 -106v-531q0 -75 33 -117t90 -42h430l2 -62q-147 -10 -447 -10z" />
    <glyph glyph-name="lslash" unicode="&#x142;" horiz-adv-x="514" 
d="M361 -14q-81 0 -130 57t-49 162v518l-137 -72v62l137 71v650h84v-605l187 99v-62l-187 -98v-551q0 -156 121 -156h88l10 -59q-43 -16 -124 -16z" />
    <glyph glyph-name="Nacute" unicode="&#x143;" horiz-adv-x="1142" 
d="M985 1413v-1372q0 -41 -37 -41h-110q-35 0 -45 31l-457 1155q-10 25 -62 151h-30q2 -51 2 -153v-1184h-88v1372q0 41 39 41h104q37 0 47 -31l445 -1128q41 -100 69 -176h39q-2 66 -2 192v1143h86zM807 1782l-279 -279l-34 41l262 297z" />
    <glyph glyph-name="nacute" unicode="&#x144;" horiz-adv-x="944" 
d="M592 1012q215 0 215 -271v-741h-86v725q0 111 -37 162t-114 51q-76 0 -152 -44t-191 -144v-750h-84v987h70l6 -172q197 197 373 197zM422 1133l-35 41l262 296l51 -59z" />
    <glyph glyph-name="Ncommaaccent" unicode="&#x145;" horiz-adv-x="1142" 
d="M539 -129h24q29 0 31 -31l-2 -116q-4 -137 -37 -246l-37 12q10 123 10 209q-23 0 -22 27v114q2 31 33 31zM985 1413v-1372q0 -41 -37 -41h-110q-35 0 -45 31l-457 1155q-10 25 -62 151h-30q2 -51 2 -153v-1184h-88v1372q0 41 39 41h104q37 0 47 -31l445 -1128
q41 -100 69 -176h39q-2 66 -2 192v1143h86z" />
    <glyph glyph-name="ncommaaccent" unicode="&#x146;" horiz-adv-x="944" 
d="M467 -129h22q31 0 31 -31v-119q-4 -133 -37 -245l-39 12q10 92 11 211q-25 0 -21 27v114q0 31 33 31zM592 1012q215 0 215 -271v-741h-86v725q0 111 -37 162t-114 51q-76 0 -152 -44t-191 -144v-750h-84v987h70l6 -172q197 197 373 197z" />
    <glyph glyph-name="Ncaron" unicode="&#x147;" horiz-adv-x="1142" 
d="M985 1413v-1372q0 -41 -37 -41h-110q-35 0 -45 31l-457 1155q-10 25 -62 151h-30q2 -51 2 -153v-1184h-88v1372q0 41 39 41h104q37 0 47 -31l445 -1128q41 -100 69 -176h39q-2 66 -2 192v1143h86zM836 1780l-228 -246h-47l-229 246l33 37l213 -201h14l213 201z" />
    <glyph glyph-name="ncaron" unicode="&#x148;" horiz-adv-x="944" 
d="M592 1012q215 0 215 -271v-741h-86v725q0 111 -37 162t-114 51q-76 0 -152 -44t-191 -144v-750h-84v987h70l6 -172q197 197 373 197zM455 1161l-230 246l33 37l213 -201h14l213 201l31 -37l-227 -246h-47z" />
    <glyph glyph-name="Eng" unicode="&#x14a;" horiz-adv-x="1142" 
d="M985 1413v-1608q0 -256 -209 -256q-66 0 -123 15l9 53h90q152 0 151 193v190h-72q-29 0 -36 31l-457 1149q-31 82 -59 153h-35q2 -51 2 -157v-1176h-88v1372q0 41 39 41h102q35 0 45 -31l444 -1118q39 -98 72 -178h39v1327h86z" />
    <glyph glyph-name="eng" unicode="&#x14b;" horiz-adv-x="944" 
d="M592 1012q215 0 215 -271v-913q0 -256 -193 -256q-27 0 -112 16l10 54h76q133 0 133 192v891q0 111 -36 161t-116 50q-133 0 -342 -186v-750h-84v987h66l8 -176q201 201 375 201z" />
    <glyph glyph-name="Omacron" unicode="&#x14c;" 
d="M546 1362q-189 0 -265 -145t-76 -510t76 -510t265 -145t265 144q76 146 76 511t-76 510t-265 145zM115 707q0 407 95 569t335 162t336 -163t96 -569t-96 -568q-96 -163 -336 -163t-335 162t-95 570zM768 1636h-440v68h440v-68z" />
    <glyph glyph-name="omacron" unicode="&#x14d;" horiz-adv-x="923" 
d="M464 938q-153 0 -213 -96q-61 -96 -61 -348t60 -350t213 -97q152 0 211 97q59 98 59 350t-58 348t-211 96zM463 1012q199 0 279 -117t79 -403q0 -286 -80 -401q-81 -116 -279 -116t-279 117t-81 402q0 286 81 402t280 116zM686 1266h-440v67h440v-67z" />
    <glyph glyph-name="Ohungarumlaut" unicode="&#x150;" 
d="M546 1362q-189 0 -265 -145t-76 -510t76 -510t265 -145t265 144q76 146 76 511t-76 510t-265 145zM115 707q0 407 95 569t335 162t336 -163t96 -569t-96 -568q-96 -163 -336 -163t-335 162t-95 570zM856 1812l-203 -315l-41 31l181 330zM610 1812l-204 -315l-44 31
l183 330z" />
    <glyph glyph-name="ohungarumlaut" unicode="&#x151;" horiz-adv-x="923" 
d="M464 938q-153 0 -213 -96q-61 -96 -61 -348t60 -350t213 -97q152 0 211 97q59 98 59 350t-58 348t-211 96zM463 1012q199 0 279 -117t79 -403q0 -286 -80 -401q-81 -116 -279 -116t-279 117t-81 402q0 286 81 402t280 116zM774 1442l-203 -316l-41 31l181 330zM528 1442
l-204 -316l-43 31l182 330z" />
    <glyph glyph-name="OE" unicode="&#x152;" horiz-adv-x="1478" 
d="M205 709q0 -367 76 -512t266 -146q113 0 221 49q-27 57 -27 123v967q0 63 27 121q-102 51 -221 51q-190 0 -266 -143t-76 -510zM920 0q-61 0 -109 43q-121 -68 -264 -68q-242 0 -337 162t-95 570q0 407 95 569t337 162q143 0 266 -66q47 41 113 41q313 0 460 -8l-2 -64
h-432q-57 0 -90 -43t-33 -116v-391l488 -3v-67l-488 -2v-488q0 -75 33 -117t90 -42h432l2 -64q-152 -8 -466 -8z" />
    <glyph glyph-name="oe" unicode="&#x153;" horiz-adv-x="1503" 
d="M1083 938q-143 0 -201 -93t-61 -325h344q90 0 126 46t34 157q-6 215 -242 215zM463 47q152 0 211 97q59 98 59 350t-58 348t-211 96t-213 -96q-61 -96 -61 -348t60 -350t213 -97zM1100 49q140 0 282 25l9 -58q-102 -41 -293 -41q-244 0 -318 193q-39 -102 -114 -148
q-76 -45 -203 -45q-199 0 -280 117t-81 402q0 286 81 402t280 116q125 0 200 -44t113 -143q72 186 303 187q330 0 330 -287q2 -150 -52 -210t-188 -60h-348q7 -227 73 -317t206 -89z" />
    <glyph glyph-name="Racute" unicode="&#x154;" horiz-adv-x="1005" 
d="M246 698h286q145 4 202 73q56 69 56 258t-56 258t-207 69t-281 -4v-654zM543 623q-199 0 -297 6v-629h-88v1413q137 16 377 17q190 0 266 -84t76 -293q1 -209 -47 -293t-160 -103v-10q90 -33 131 -196l117 -451h-93l-112 444q-25 96 -66 138t-104 41zM471 1503l-35 41
l262 297l52 -59z" />
    <glyph glyph-name="racute" unicode="&#x155;" horiz-adv-x="641" 
d="M559 934q-73 0 -143 -42t-189 -138v-754h-84v987h66l10 -172q197 197 356 197h33l-12 -78h-37zM313 1133l-34 41l262 296l51 -59z" />
    <glyph glyph-name="Rcommaaccent" unicode="&#x156;" horiz-adv-x="1005" 
d="M526 -129h25q29 0 31 -31l-2 -116q-4 -137 -37 -246l-37 12q10 123 10 209q-23 0 -22 27v114q1 31 32 31zM246 698h286q145 4 202 73q56 69 56 258t-56 258t-207 69t-281 -4v-654zM543 623q-199 0 -297 6v-629h-88v1413q137 16 377 17q190 0 266 -84t76 -293
q1 -209 -47 -293t-160 -103v-10q90 -33 131 -196l117 -451h-93l-112 444q-25 96 -66 138t-104 41z" />
    <glyph glyph-name="rcommaaccent" unicode="&#x157;" horiz-adv-x="641" 
d="M164 -129h24q29 0 31 -31l-2 -116q-4 -137 -37 -246l-37 12q10 123 11 209q-23 0 -23 27v114q2 31 33 31zM559 934q-73 0 -143 -42t-189 -138v-754h-84v987h66l10 -172q197 197 356 197h33l-12 -78h-37z" />
    <glyph glyph-name="Rcaron" unicode="&#x158;" horiz-adv-x="1005" 
d="M246 698h286q145 4 202 73q56 69 56 258t-56 258t-207 69t-281 -4v-654zM543 623q-199 0 -297 6v-629h-88v1413q137 16 377 17q190 0 266 -84t76 -293q1 -209 -47 -293t-160 -103v-10q90 -33 131 -196l117 -451h-93l-112 444q-25 96 -66 138t-104 41zM506 1534l-230 246
l33 37l213 -201h15l213 201l30 -37l-227 -246h-47z" />
    <glyph glyph-name="rcaron" unicode="&#x159;" horiz-adv-x="641" 
d="M575 1012h33l-12 -78h-37q-73 0 -143 -42t-189 -138v-754h-84v987h66l10 -172q197 197 356 197zM348 1161l-229 246l33 37l213 -201h14l213 201l31 -37l-228 -246h-47z" />
    <glyph glyph-name="Sacute" unicode="&#x15a;" horiz-adv-x="915" 
d="M470 1360q-188 0 -226 -45q-39 -45 -47 -109q-9 -64 -9 -172t38 -173t126 -83l242 -51q125 -23 176 -109t51 -238t-20 -228q-21 -76 -71 -114t-108 -49t-202 -11t-301 26l8 64q360 -28 465 -2q104 23 128 130q13 58 13 183t-37 188t-129 82l-245 51q-119 23 -170 111
q-52 89 -52 237t20 223q33 132 175 156q58 11 197 8t282 -28l-6 -61q-230 14 -298 14zM690 1782l-278 -279l-35 41l262 297z" />
    <glyph glyph-name="sacute" unicode="&#x15b;" horiz-adv-x="825" 
d="M176 766q0 -114 30 -156t95 -53l250 -47q92 -18 137 -78t45 -178q0 -174 -73 -225q-74 -51 -242 -51t-307 24l8 59q135 -14 281 -12t199 40q52 37 52 147t-34 150t-99 54l-250 47q-92 17 -134 77t-42 208t66 196t242 44q175 -4 313 -27l-8 -59q-193 12 -316 15t-168 -29
t-45 -146zM647 1411l-278 -278l-35 41l262 296z" />
    <glyph glyph-name="Scedilla" unicode="&#x15e;" horiz-adv-x="915" 
d="M397 -162l11 43q158 12 151 -133q-2 -114 -71 -178t-177 -47l15 47q74 -4 120 47t48 115t-20 84t-77 22zM470 1360q-188 0 -226 -45q-39 -45 -47 -109q-9 -64 -9 -172t38 -173t126 -83l242 -51q125 -23 176 -109t51 -238t-20 -228q-21 -76 -71 -114t-108 -49t-202 -11
t-301 26l8 64q360 -28 465 -2q104 23 128 130q13 58 13 183t-37 188t-129 82l-245 51q-119 23 -170 111q-52 89 -52 237t20 223q33 132 175 156q58 11 197 8t282 -28l-6 -61q-230 14 -298 14z" />
    <glyph glyph-name="scedilla" unicode="&#x15f;" horiz-adv-x="825" 
d="M338 -162l10 43q158 12 152 -133q-2 -114 -71 -178t-177 -47l14 47q74 -4 121 47t48 115t-20 84q-22 20 -77 22zM176 766q0 -114 30 -156t95 -53l250 -47q92 -18 137 -78t45 -178q0 -174 -73 -225q-74 -51 -242 -51t-307 24l8 59q135 -14 281 -12t199 40q52 37 52 147
t-34 150t-99 54l-250 47q-92 17 -134 77t-42 208t66 196t242 44q175 -4 313 -27l-8 -59q-193 12 -316 15t-168 -29t-45 -146z" />
    <glyph glyph-name="Scaron" unicode="&#x160;" horiz-adv-x="915" 
d="M470 1360q-188 0 -226 -45q-39 -45 -47 -109q-9 -64 -9 -172t38 -173t126 -83l242 -51q125 -23 176 -109t51 -238t-20 -228q-21 -76 -71 -114t-108 -49t-202 -11t-301 26l8 64q360 -28 465 -2q104 23 128 130q13 58 13 183t-37 188t-129 82l-245 51q-119 23 -170 111
q-52 89 -52 237t20 223q33 132 175 156q58 11 197 8t282 -28l-6 -61q-230 14 -298 14zM721 1780l-227 -246h-48l-229 246l33 37l213 -201h14l213 201z" />
    <glyph glyph-name="scaron" unicode="&#x161;" horiz-adv-x="825" 
d="M176 766q0 -114 30 -156t95 -53l250 -47q92 -18 137 -78t45 -178q0 -174 -73 -225q-74 -51 -242 -51t-307 24l8 59q135 -14 281 -12t199 40q52 37 52 147t-34 150t-99 54l-250 47q-92 17 -134 77t-42 208t66 196t242 44q175 -4 313 -27l-8 -59q-193 12 -316 15t-168 -29
t-45 -146zM678 1407l-227 -246h-48l-229 246l33 37l213 -201h14l213 201z" />
    <glyph glyph-name="Tcedilla" unicode="&#x162;" horiz-adv-x="935" 
d="M406 -139l10 43q158 12 151 -133q-3 -113 -71 -178t-177 -48l15 47q74 -4 121 48t48 114q1 64 -21 84t-76 23zM895 1413v-74h-383v-1339h-88v1339h-383v74h854z" />
    <glyph glyph-name="tcedilla" unicode="&#x163;" horiz-adv-x="593" 
d="M295 -154l10 43q158 12 152 -133q-2 -114 -71 -178t-177 -47l14 47q74 -4 121 47t48 115t-20 84q-22 20 -77 22zM279 918v-701q0 -156 120 -156h133l11 -59q-76 -16 -158 -16q-190 0 -190 223v709h-146v59l146 10v305h84v-305h274v-69h-274z" />
    <glyph glyph-name="Tcaron" unicode="&#x164;" horiz-adv-x="935" 
d="M895 1339h-383v-1339h-88v1339h-383v74h854v-74zM446 1534l-229 246l33 37l213 -201h14l213 201l31 -37l-227 -246h-48z" />
    <glyph glyph-name="tcaron" unicode="&#x165;" horiz-adv-x="593" 
d="M279 918v-701q0 -156 120 -156h133l11 -59q-76 -16 -158 -16q-190 0 -190 223v709h-146v59l146 10v305h84v-305h274v-69h-274zM449 1368q-23 0 -23 27v114q2 31 33 31h24q29 0 31 -31l-2 -116q-4 -137 -37 -246l-37 12q11 123 11 209z" />
    <glyph glyph-name="Tbar" unicode="&#x166;" horiz-adv-x="937" 
d="M512 1339v-471h238v-57h-238v-811h-88v811h-244v57h244v471h-383v74h854v-74h-383z" />
    <glyph glyph-name="tbar" unicode="&#x167;" horiz-adv-x="595" 
d="M279 918v-230h239v-55h-239v-416q0 -156 120 -156h133l11 -59q-76 -16 -158 -16q-190 0 -190 223v424h-115v55h115v230h-146v59l146 10v305h84v-305h274v-69h-274z" />
    <glyph glyph-name="Umacron" unicode="&#x16a;" horiz-adv-x="1095" 
d="M946 1413v-887q0 -299 -90 -425t-307 -126t-308 126t-91 425v887h88v-887q0 -262 70 -368t240 -106t240 106t70 368v887h88zM770 1636h-440v68h440v-68z" />
    <glyph glyph-name="umacron" unicode="&#x16b;" horiz-adv-x="927" 
d="M784 987v-987h-67l-8 166q-190 -190 -357 -191q-215 0 -215 271v741h84v-725q0 -213 156 -213q71 0 143 43t180 141v754h84zM686 1268h-440v67h440v-67z" />
    <glyph glyph-name="Uring" unicode="&#x16e;" horiz-adv-x="1095" 
d="M946 1413v-887q0 -299 -90 -425t-307 -126t-308 126t-91 425v887h88v-887q0 -262 70 -368t240 -106t240 106t70 368v887h88zM549 1819q-47 0 -79 -42t-32 -107q0 -66 32 -106t80 -40t80 41t32 105t-33 106t-80 43zM383 1670q0 84 49 142t118 58t117 -58t48 -142
q0 -83 -48 -141q-48 -59 -117 -59t-118 58t-49 142z" />
    <glyph glyph-name="uring" unicode="&#x16f;" horiz-adv-x="927" 
d="M784 987v-987h-67l-8 166q-190 -190 -357 -191q-215 0 -215 271v741h84v-725q0 -213 156 -213q71 0 143 43t180 141v754h84zM465 1448q-47 0 -79 -42t-32 -107t32 -105t80 -41q48 0 80 41t32 105q0 65 -33 107t-80 42zM466 1100q-69 0 -118 58t-49 141t49 141t118 59
q69 0 117 -58q48 -57 48 -141t-48 -142t-117 -58z" />
    <glyph glyph-name="Uhungarumlaut" unicode="&#x170;" horiz-adv-x="1095" 
d="M946 1413v-887q0 -299 -90 -425t-307 -126t-308 126t-91 425v887h88v-887q0 -262 70 -368t240 -106t240 106t70 368v887h88zM860 1812l-203 -315l-41 31l181 330zM614 1812l-204 -315l-43 31l182 330z" />
    <glyph glyph-name="uhungarumlaut" unicode="&#x171;" horiz-adv-x="927" 
d="M784 987v-987h-67l-8 166q-190 -190 -357 -191q-215 0 -215 271v741h84v-725q0 -213 156 -213q71 0 143 43t180 141v754h84zM571 1128l-41 31l181 330l63 -45zM324 1128l-43 31l182 330l65 -45z" />
    <glyph glyph-name="Uogonek" unicode="&#x172;" horiz-adv-x="1095" 
d="M946 1413v-887q0 -276 -76 -404t-256 -145q-92 -117 -125 -227t9 -139t127 10l10 -37q-137 -66 -193 -16t-22 168q35 119 143 239h-12q-219 0 -310 126t-91 425v887h88v-887q0 -262 70 -368t240 -106t240 106t70 368v887h88z" />
    <glyph glyph-name="uogonek" unicode="&#x173;" horiz-adv-x="927" 
d="M137 246v741h84v-725q0 -213 156 -213q71 0 143 43t180 141v754h84v-987q-96 -126 -128 -234t10 -136t127 10l10 -37q-137 -66 -194 -17q-56 49 -21 171t149 243h-20l-8 166q-190 -190 -357 -191q-215 0 -215 271z" />
    <glyph glyph-name="Wcircumflex" unicode="&#x174;" horiz-adv-x="1540" 
d="M1180 0h-113q-33 0 -39 31l-209 1155l-31 160h-36q-20 -106 -29 -160l-211 -1155q-6 -31 -39 -31h-115q-31 0 -36 29l-269 1384h90l226 -1194q12 -55 26 -149h43q4 28 14 76t13 71l213 1163q6 33 37 33h108q33 0 39 -33l213 -1161q3 -27 13 -77t14 -72h43q16 98 26 147
l226 1196h92l-270 -1384q-10 -29 -39 -29zM1024 1567l-33 -39l-213 207h-12l-213 -207l-33 39l221 243h62z" />
    <glyph glyph-name="wcircumflex" unicode="&#x175;" horiz-adv-x="1341" 
d="M1001 0h-81q-31 0 -37 29l-170 747q-20 98 -35 150h-16q-6 -29 -18 -79t-15 -71l-172 -747q-4 -29 -35 -29h-80q-31 0 -37 27l-256 960h88l199 -788q10 -35 33 -138h22l203 897q8 29 37 29h80q31 0 34 -29l173 -757q14 -57 32 -140h25q29 133 31 140l198 786h90
l-258 -960q-6 -27 -35 -27zM922 1194l-33 -39l-213 207h-12l-213 -207l-33 39l221 244h61z" />
    <glyph glyph-name="Ycircumflex" unicode="&#x176;" horiz-adv-x="907" 
d="M498 0h-88v518l-383 895h96l326 -795h10l57 144l270 651h93l-381 -895v-518zM233 1528l-32 39l221 243h61l222 -243l-33 -39l-213 207h-13z" />
    <glyph glyph-name="ycircumflex" unicode="&#x177;" horiz-adv-x="847" 
d="M385 0q-25 0 -37 25l-307 962h90l250 -809q13 -59 33 -110h20q33 96 37 112l246 807h90l-342 -1073q-47 -141 -115 -227t-182 -115l-12 51q92 41 143 117t88 190l25 70h-27zM207 1155l-33 39l221 244h62l221 -244l-33 -39l-213 207h-12z" />
    <glyph glyph-name="Ydieresis" unicode="&#x178;" horiz-adv-x="907" 
d="M498 0h-88v518l-383 895h96l326 -795h10l57 144l270 651h93l-381 -895v-518zM614 1587h-30q-27 0 -27 29v115q0 29 27 28h30q27 0 27 -28v-115q0 -29 -27 -29zM324 1587h-31q-27 0 -27 29v115q0 29 27 28h31q27 0 26 -28v-115q1 -29 -26 -29z" />
    <glyph glyph-name="Zacute" unicode="&#x179;" horiz-adv-x="921" 
d="M842 74v-74h-760v74l659 1265h-651v74h741v-74l-657 -1265h668zM408 1503l-35 41l262 297l51 -59z" />
    <glyph glyph-name="zacute" unicode="&#x17a;" horiz-adv-x="829" 
d="M745 70v-70h-661v70l567 845h-563v72h651v-72l-565 -845h571zM360 1133l-34 41l262 296l51 -59z" />
    <glyph glyph-name="Zdotaccent" unicode="&#x17b;" horiz-adv-x="921" 
d="M842 74v-74h-760v74l659 1265h-651v74h741v-74l-657 -1265h668zM479 1577h-28q-31 0 -31 31v125q0 31 31 30h28q31 0 31 -30v-125q0 -31 -31 -31z" />
    <glyph glyph-name="zdotaccent" unicode="&#x17c;" horiz-adv-x="829" 
d="M745 70v-70h-661v70l567 845h-563v72h651v-72l-565 -845h571zM432 1206h-29q-31 0 -30 31v125q0 31 30 31h29q31 0 31 -31v-125q0 -31 -31 -31z" />
    <glyph glyph-name="Zcaron" unicode="&#x17d;" horiz-adv-x="921" 
d="M842 74v-74h-760v74l659 1265h-651v74h741v-74l-657 -1265h668zM442 1534l-229 246l33 37l213 -201h14l213 201l31 -37l-228 -246h-47z" />
    <glyph glyph-name="zcaron" unicode="&#x17e;" horiz-adv-x="829" 
d="M745 70v-70h-661v70l567 845h-563v72h651v-72l-565 -845h571zM395 1161l-229 246l33 37l213 -201h14l213 201l31 -37l-228 -246h-47z" />
    <glyph glyph-name="florin" unicode="&#x192;" horiz-adv-x="690" 
d="M539 1362q-88 0 -127 -47t-47 -166l-27 -354h258l-8 -70h-256l-53 -723q-11 -139 -63 -208q-52 -68 -154 -68t-152 10l8 59h115q79 0 115 48t47 165l53 717h-158l4 61l160 9l27 360q21 277 229 277q104 0 154 -9l-9 -61h-116z" />
    <glyph glyph-name="Scommaaccent" unicode="&#x218;" horiz-adv-x="915" 
d="M465 -129h24q29 0 31 -31l-2 -116q-4 -137 -37 -246l-37 12q10 123 11 209q-23 0 -23 27v114q2 31 33 31zM470 1360q-188 0 -226 -45q-39 -45 -47 -109q-9 -64 -9 -172t38 -173t126 -83l242 -51q125 -23 176 -109t51 -238t-20 -228q-21 -76 -71 -114t-108 -49t-202 -11
t-301 26l8 64q360 -28 465 -2q104 23 128 130q13 58 13 183t-37 188t-129 82l-245 51q-119 23 -170 111q-52 89 -52 237t20 223q33 132 175 156q58 11 197 8t282 -28l-6 -61q-230 14 -298 14z" />
    <glyph glyph-name="scommaaccent" unicode="&#x219;" horiz-adv-x="825" 
d="M418 -129h24q29 0 31 -31l-2 -116q-4 -137 -37 -246l-37 12q10 123 11 209q-23 0 -23 27v114q2 31 33 31zM176 766q0 -114 30 -156t95 -53l250 -47q92 -18 137 -78t45 -178q0 -174 -73 -225q-74 -51 -242 -51t-307 24l8 59q135 -14 281 -12t199 40q52 37 52 147t-34 150
t-99 54l-250 47q-92 17 -134 77t-42 208t66 196t242 44q175 -4 313 -27l-8 -59q-193 12 -316 15t-168 -29t-45 -146z" />
    <glyph glyph-name="uni021A" unicode="&#x21a;" horiz-adv-x="935" 
d="M442 -129h25q29 0 31 -31l-2 -116q-4 -137 -37 -246l-37 12q10 123 10 209q-23 0 -22 27v114q1 31 32 31zM895 1339h-383v-1339h-88v1339h-383v74h854v-74z" />
    <glyph glyph-name="uni021B" unicode="&#x21b;" horiz-adv-x="593" 
d="M367 -129h24q29 0 31 -31l-2 -116q-4 -137 -37 -246l-37 12q10 123 10 209q-23 0 -22 27v114q2 31 33 31zM279 918v-701q0 -156 120 -156h133l11 -59q-76 -16 -158 -16q-190 0 -190 223v709h-146v59l146 10v305h84v-305h274v-69h-274z" />
    <glyph glyph-name="circumflex" unicode="&#x2c6;" horiz-adv-x="663" 
d="M584 1202l-33 -39l-213 207h-12l-213 -207l-33 39l221 244h61z" />
    <glyph glyph-name="caron" unicode="&#x2c7;" horiz-adv-x="663" 
d="M584 1415l-228 -246h-47l-229 246l33 37l213 -201h14l213 201z" />
    <glyph glyph-name="breve" unicode="&#x2d8;" horiz-adv-x="598" 
d="M300 1159q-110 0 -173 66t-59 178l47 8q0 -86 49 -134t136 -48t136 48t49 134l47 -8q2 -113 -60 -179t-172 -65z" />
    <glyph glyph-name="dotaccent" unicode="&#x2d9;" horiz-adv-x="348" 
d="M160 1389h28q31 0 31 -31v-125q0 -31 -31 -31h-28q-31 0 -31 31v125q0 31 31 31z" />
    <glyph glyph-name="ring" unicode="&#x2da;" horiz-adv-x="485" 
d="M242 1454q-47 0 -79 -42t-32 -106t32 -106q32 -41 80 -41t80 41q31 42 31 106t-32 106q-33 42 -80 42zM243 1505q69 0 117 -58t48 -141q0 -84 -48 -142t-118 -58q-68 0 -117 58t-49 142t49 141q49 58 118 58z" />
    <glyph glyph-name="ogonek" unicode="&#x2db;" horiz-adv-x="413" 
d="M240 4l43 -4q-96 -126 -128 -234t9 -137t127 11l10 -37q-137 -66 -193 -17t-22 171t154 247z" />
    <glyph glyph-name="tilde" unicode="&#x2dc;" horiz-adv-x="669" 
d="M118 1368q36 51 91 45t125 -66q70 -59 117 -65t67 23t21 98h43q6 -95 -29 -145t-95 -44t-131 68t-113 68q-81 13 -83 -131h-45q-4 98 32 149z" />
    <glyph glyph-name="hungarumlaut" unicode="&#x2dd;" horiz-adv-x="704" 
d="M592 1430l-203 -316l-41 31l180 330zM346 1430l-205 -316l-43 31l183 330z" />
    <glyph glyph-name="Delta" unicode="&#x394;" horiz-adv-x="1015" 
d="M508 1327q-20 -84 -39 -145l-319 -1110h716l-317 1112q-14 41 -41 143zM965 0h-914v53l412 1360h90l412 -1360v-53z" />
    <glyph glyph-name="Omega" unicode="&#x3a9;" horiz-adv-x="1179" 
d="M588 1438q236 0 345 -173q108 -173 107 -526q0 -247 -59 -399t-195 -268q39 2 105 2h201v-74h-392v72q138 118 194 270t56 389q0 327 -86 479t-276 152t-275 -152q-84 -152 -84 -483q-1 -246 57 -387t193 -268v-72h-391v74h201q68 0 104 -2q-135 114 -194 270t-60 397
q1 355 107 527t342 172z" />
    <glyph glyph-name="mu" unicode="&#x3bc;" horiz-adv-x="958" 
d="M801 987v-987h-66l-10 170q-174 -195 -346 -195q-100 0 -156 60q6 -70 6 -148v-313h-75v1413h84v-725q0 -209 161 -209q72 0 143 41t175 137v756h84z" />
    <glyph glyph-name="pi" unicode="&#x3c0;" horiz-adv-x="1052" 
d="M836 918v-918h-84v918h-451v-918h-84v918h-170v69h959l-2 -69h-168z" />
    <glyph glyph-name="uni0401" unicode="&#x401;" horiz-adv-x="911" 
d="M338 0q-86 0 -138 60t-53 157v979q1 96 53 156t138 61q328 0 483 -8l-4 -64h-465q-55 0 -86 -43t-30 -116v-391l516 -3v-67l-516 -2v-488q0 -75 30 -117t86 -42h465l4 -64q-156 -8 -483 -8zM670 1636h-31q-27 0 -27 29v115q0 29 27 28h31q25 0 24 -28v-115q1 -29 -24 -29
zM379 1636h-31q-27 0 -26 29v115q0 29 26 28h31q25 0 24 -28v-115q1 -29 -24 -29z" />
    <glyph glyph-name="uni0402" unicode="&#x402;" horiz-adv-x="1230" 
d="M870 891q135 0 206 -98t71 -340t-109 -353t-309 -100l-8 59q172 13 255 97t83 295t-50 287q-51 76 -153 77q-102 0 -175 -35t-169 -116v-664h-88v1339h-383v74h854v-74h-383v-600q174 152 358 152z" />
    <glyph glyph-name="uni0403" unicode="&#x403;" horiz-adv-x="845" 
d="M338 1413q315 0 469 -10l-4 -62h-441q-57 0 -90 -44t-32 -119v-1178h-88v1190q0 98 53 160t133 63zM723 1782l-279 -279l-34 41l262 297z" />
    <glyph glyph-name="uni0404" unicode="&#x404;" horiz-adv-x="942" 
d="M557 -25q-244 0 -343 164q-99 163 -99 567t99 568t343 164q178 0 301 -37l-12 -64q-129 25 -301 25t-252 -128t-88 -443l506 -3v-65l-506 -2v-14q0 -367 78 -511t263 -144t312 26l12 -64q-131 -39 -313 -39z" />
    <glyph glyph-name="uni0405" unicode="&#x405;" horiz-adv-x="915" 
d="M470 1360q-188 0 -226 -45q-39 -45 -47 -109q-9 -64 -9 -172t38 -173t126 -83l242 -51q125 -23 176 -109t51 -238t-20 -228q-21 -76 -71 -114t-108 -49t-202 -11t-301 26l8 64q360 -28 465 -2q104 23 128 130q13 58 13 183t-37 188t-129 82l-245 51q-119 23 -170 111
q-52 89 -52 237t20 223q33 132 175 156q58 11 197 8t282 -28l-6 -61q-230 14 -298 14z" />
    <glyph glyph-name="uni0406" unicode="&#x406;" horiz-adv-x="403" 
d="M246 0h-88v1413h88v-1413z" />
    <glyph glyph-name="uni0407" unicode="&#x407;" horiz-adv-x="401" 
d="M244 0h-86v1413h86v-1413zM330 1759h30q27 0 27 -28v-115q0 -29 -27 -29h-30q-25 0 -25 29v115q0 28 25 28zM39 1759h31q27 0 26 -28v-115q0 -29 -26 -29h-31q-27 0 -27 29v115q0 28 27 28z" />
    <glyph glyph-name="uni0408" unicode="&#x408;" horiz-adv-x="544" 
d="M391 1413v-1161q0 -266 -209 -266q-59 0 -125 16l11 57h90q147 0 147 193v1161h86z" />
    <glyph glyph-name="uni0409" unicode="&#x409;" horiz-adv-x="1587" 
d="M1147 59q152 0 208 67t56 261t-54 267t-210 73h-270v-666q63 -2 270 -2zM877 801h270q201 0 277 -92t77 -323q0 -230 -77 -316t-290 -86t-346 16v1341h-247q-117 0 -129 -163q-23 -352 -33 -472q-25 -301 -98 -464q-90 -215 -232 -242l-10 59q93 55 157 199t84 294
q19 151 50 636q16 225 200 225h347v-612z" />
    <glyph glyph-name="uni040A" unicode="&#x40a;" horiz-adv-x="1611" 
d="M1169 59q154 0 210 67q57 67 57 260t-56 266t-211 73h-270v-664q63 -2 270 -2zM899 797h270q201 0 279 -91t78 -321q0 -229 -77 -315t-290 -86t-346 16v725h-567v-725h-88v1413h88v-616h567v616h86v-616z" />
    <glyph glyph-name="uni040B" unicode="&#x40b;" horiz-adv-x="1286" 
d="M936 891q246 0 246 -303v-588h-86v573q0 127 -44 185t-148 57q-104 0 -192 -34t-200 -119v-662h-88v1339h-383v74h854v-74h-383v-602q207 154 424 154z" />
    <glyph glyph-name="uni040C" unicode="&#x40c;" horiz-adv-x="962" 
d="M383 702h-145q6 -88 6 -170v-532h-86v1413h86v-473q0 -92 -8 -168h149q140 0 228 179q64 129 149 395q4 14 8 31t12 36h88q-10 -31 -32 -103t-34 -107q-86 -265 -150 -345q-24 -31 -59 -70t-106 -49v-4q94 -9 152 -90q33 -45 57 -84q59 -93 203 -561h-94q-14 43 -66 213
q-98 318 -171 393q-72 75 -110 85q-38 11 -77 11zM459 1503l-35 41l262 297l51 -59z" />
    <glyph glyph-name="uni040D" unicode="&#x40d;" horiz-adv-x="1126" 
d="M967 0h-86v1143q0 98 2 149h-4q-23 -61 -58 -135l-555 -1157h-108v1413h86v-1134q0 -53 -4 -156h4q10 21 32 71t33 72l547 1147h111v-1413zM641 1544l-33 -41l-280 279l51 59z" />
    <glyph glyph-name="uni040E" unicode="&#x40e;" horiz-adv-x="899" 
d="M420 418q-74 0 -96 78l-277 917h90l260 -881q12 -43 45 -43h72l266 924h90l-319 -1079q-68 -209 -111 -271q-95 -125 -297 -51l13 60q57 -10 91 -14q33 -4 65 5q32 10 56 30t48 92q24 73 49 155l24 78h-69zM452 1540q-110 0 -173 66t-60 178l47 8q0 -86 49 -134t137 -48
t136 48q49 48 49 134l47 -8q2 -112 -60 -178t-172 -66z" />
    <glyph glyph-name="uni040F" unicode="&#x40f;" horiz-adv-x="1099" 
d="M942 1413v-1413h-352l-6 -309h-60l-8 309h-358v1413h88v-1341h608v1341h88z" />
    <glyph glyph-name="uni0410" unicode="&#x410;" horiz-adv-x="1003" 
d="M731 571l-209 772h-41l-209 -772h459zM449 1413h106q29 0 35 -27l389 -1386h-92l-135 498h-500l-135 -498h-92l389 1386q4 27 35 27z" />
    <glyph glyph-name="uni0411" unicode="&#x411;" horiz-adv-x="978" 
d="M528 57q154 0 210 65t56 251t-54 256q-56 70 -212 69h-282v-639q65 -2 282 -2zM246 770h282q201 0 279 -88t78 -313t-83 -305t-294 -80t-348 16h-2v1413q188 10 334 10t335 -10l-10 -70h-571v-573z" />
    <glyph glyph-name="uni0412" unicode="&#x412;" horiz-adv-x="1011" 
d="M538 57q159 -1 217 61t58 250t-62 257q-62 70 -225 73h-282v-637q135 -4 294 -4zM784 1060q0 175 -62 235q-62 61 -240 61t-238 -2v-588h280q147 2 204 60q56 59 56 234zM903 334q0 -195 -78 -273q-78 -77 -302 -77t-365 16v1413q121 17 335 17q215 0 295 -77t80 -292
q0 -154 -45 -233t-147 -91v-8q123 -14 175 -107t52 -288z" />
    <glyph glyph-name="uni0413" unicode="&#x413;" horiz-adv-x="845" 
d="M338 1413q315 0 469 -10l-4 -62h-441q-57 0 -90 -44t-32 -119v-1178h-88v1190q0 98 53 160t133 63z" />
    <glyph glyph-name="uni0414" unicode="&#x414;" horiz-adv-x="1103" 
d="M821 72v1269h-291q-121 0 -127 -159q-23 -725 -186 -1110h604zM1047 72v-381h-62l-10 309h-862l-13 -309h-61v381h92q170 391 188 1116q5 109 55 167t144 58h391v-1341h138z" />
    <glyph glyph-name="uni0415" unicode="&#x415;" horiz-adv-x="911" 
d="M338 0q-86 0 -138 60t-53 157v979q1 96 53 156t138 61q328 0 483 -8l-4 -64h-465q-55 0 -86 -43t-30 -116v-391l516 -3v-67l-516 -2v-488q0 -75 30 -117t86 -42h465l4 -64q-156 -8 -483 -8z" />
    <glyph glyph-name="uni0416" unicode="&#x416;" horiz-adv-x="1462" 
d="M778 532v-532h-82v532q0 90 9 170h-132q-77 0 -117 -35q-42 -35 -64 -59q-27 -28 -72 -125q-46 -97 -166 -483h-93q114 367 159 471q45 105 74 142q28 37 56 65q50 52 123 57v4q-70 9 -106 49q-35 40 -57 66q-72 85 -152 350q-10 31 -35 107t-33 102h88q10 -29 57 -173
q59 -182 107 -277q49 -95 104 -143q54 -48 123 -48h136q-8 76 -9 168v473h82v-473q0 -96 -10 -168h125q53 0 101 33t81 79q65 91 114 236t95 293h90q-107 -332 -130 -384q-24 -52 -54 -113q-30 -62 -70 -104t-70 -56q-28 -14 -59 -17v-4q75 -4 124 -57q63 -66 91 -124
q27 -58 52 -115t77 -227q52 -169 66 -212h-92q-14 45 -40 126t-39 122q-47 149 -90 240t-68 118q-24 28 -64 62q-40 35 -117 34h-123q10 -74 10 -170z" />
    <glyph glyph-name="uni0417" unicode="&#x417;" horiz-adv-x="897" 
d="M410 1430q184 0 264 -77t80 -292q0 -301 -193 -324v-8q123 -12 174 -106t51 -289t-78 -273q-78 -77 -282 -77q-205 0 -360 32l10 62q12 0 123 -10t246 -11t193 61t58 250t-62 259q-62 72 -224 71h-177v68h177q145 0 200 60q56 60 56 234t-62 235q-62 60 -223 61
q-78 0 -179 -8t-104 -9l-8 62q136 29 320 29z" />
    <glyph glyph-name="uni0418" unicode="&#x418;" horiz-adv-x="1126" 
d="M967 0h-86v1143q0 98 2 149h-4q-23 -61 -58 -135l-555 -1157h-108v1413h86v-1134q0 -53 -4 -156h4q10 21 32 71t33 72l547 1147h111v-1413z" />
    <glyph glyph-name="uni0419" unicode="&#x419;" horiz-adv-x="1126" 
d="M967 0h-86v1143q0 98 2 149h-4q-23 -61 -58 -135l-555 -1157h-108v1413h86v-1134q0 -53 -4 -156h4q10 21 32 71t33 72l547 1147h111v-1413zM731 1798h68q5 -114 -59 -186t-173 -72t-173 72t-60 186h67q0 -98 44 -151t121 -53t121 54t44 150z" />
    <glyph glyph-name="uni041A" unicode="&#x41a;" horiz-adv-x="962" 
d="M383 702h-145q6 -88 6 -170v-532h-86v1413h86v-473q0 -92 -8 -168h149q140 0 228 179q64 129 149 395q4 14 8 31t12 36h88q-10 -31 -32 -103t-34 -107q-86 -265 -150 -345q-24 -31 -59 -70t-106 -49v-4q94 -9 152 -90q33 -45 57 -84q59 -93 203 -561h-94q-14 43 -66 213
q-98 318 -171 393q-72 75 -110 85q-38 11 -77 11z" />
    <glyph glyph-name="uni041B" unicode="&#x41b;" horiz-adv-x="1052" 
d="M895 1413v-1413h-88v1341h-279q-119 0 -131 -163q-31 -475 -53 -639t-80 -299q-92 -205 -233 -240l-11 66q98 53 158 194t82 292q20 151 53 638q16 223 197 223h385z" />
    <glyph glyph-name="uni041C" unicode="&#x41c;" horiz-adv-x="1419" 
d="M1083 1413h113q41 0 41 -43l49 -1370h-88l-45 1341h-37l-317 -1179q-10 -29 -39 -29h-101q-31 0 -41 29l-315 1179h-37l-45 -1341h-88l49 1370q0 43 39 43h115q29 0 39 -29l315 -1181h37q41 147 53 194l264 987q6 29 39 29z" />
    <glyph glyph-name="uni041D" unicode="&#x41d;" horiz-adv-x="1089" 
d="M932 1413v-1413h-88v721h-598v-721h-88v1413h88v-618h598v618h88z" />
    <glyph glyph-name="uni041E" unicode="&#x41e;" 
d="M546 1362q-189 0 -265 -145t-76 -510t76 -510t265 -145t265 144q76 146 76 511t-76 510t-265 145zM115 707q0 407 95 569t335 162t336 -163t96 -569t-96 -568q-96 -163 -336 -163t-335 162t-95 570z" />
    <glyph glyph-name="uni041F" unicode="&#x41f;" 
d="M934 1413v-1413h-86v1341h-602v-1341h-88v1413h776z" />
    <glyph glyph-name="uni0420" unicode="&#x420;" horiz-adv-x="960" 
d="M246 659h284q145 0 202 73q56 73 56 276q0 204 -56 276t-202 72q-219 0 -284 -4v-693zM512 1430q216 0 290 -90t75 -334q0 -244 -73 -332t-257 -88t-301 10v-596h-88v1413q138 17 354 17z" />
    <glyph glyph-name="uni0421" unicode="&#x421;" horiz-adv-x="927" 
d="M545 1438q172 0 295 -37l-13 -62q-129 23 -282 23q-190 0 -265 -144t-75 -511t75 -511t259 -144t311 26l14 -64q-135 -39 -319 -39q-240 0 -335 163t-95 569q0 407 95 569t335 162z" />
    <glyph glyph-name="uni0422" unicode="&#x422;" horiz-adv-x="935" 
d="M895 1339h-383v-1339h-88v1339h-383v74h854v-74z" />
    <glyph glyph-name="uni0423" unicode="&#x423;" horiz-adv-x="899" 
d="M420 418q-74 0 -96 78l-277 917h90l260 -881q12 -43 45 -43h72l266 924h90l-319 -1079q-68 -209 -111 -271q-95 -125 -297 -51l13 60q57 -10 91 -14q33 -4 65 5q32 10 56 30t48 92q24 73 49 155l24 78h-69z" />
    <glyph glyph-name="uni0424" unicode="&#x424;" horiz-adv-x="1347" 
d="M1153 726q0 296 -96 412t-342 124v-1069q246 9 342 123t96 410zM195 726q0 -296 95 -411t343 -122v1069q-248 -8 -343 -124t-95 -412zM1243 726q0 -327 -118 -462t-406 -145v-211h-88v211q-291 8 -409 144t-118 463t118 463t409 144v213h86l2 -213q289 -10 407 -145
t117 -462z" />
    <glyph glyph-name="uni0425" unicode="&#x425;" horiz-adv-x="985" 
d="M516 702h-47l-322 -702h-94l340 735l-319 678h94l299 -641h51l299 641h96l-321 -678l342 -735h-96z" />
    <glyph glyph-name="uni0426" unicode="&#x426;" horiz-adv-x="1118" 
d="M1061 72v-381h-62l-14 309h-827v1413h88v-1341h590v1341h88v-1341h137z" />
    <glyph glyph-name="uni0427" unicode="&#x427;" horiz-adv-x="1009" 
d="M852 1413v-1413h-88v696q-201 -156 -416 -155q-240 0 -239 301v571h88v-557q0 -125 42 -182q42 -58 141 -58t185 34t199 118v645h88z" />
    <glyph glyph-name="uni0428" unicode="&#x428;" horiz-adv-x="1503" 
d="M1343 1413v-1413h-1185v1413h86v-1341h465v1341h86v-1341h462v1341h86z" />
    <glyph glyph-name="uni0429" unicode="&#x429;" horiz-adv-x="1523" 
d="M1466 72v-381h-61l-10 309h-1237v1413h86v-1341h456v1341h86v-1341h457v1341h86v-1341h137z" />
    <glyph glyph-name="uni042A" unicode="&#x42a;" horiz-adv-x="1222" 
d="M784 59q152 0 208 67t56 260t-54 267t-210 74h-282v-666q65 -2 282 -2zM502 801h282q199 0 276 -92t77 -323q0 -230 -76 -316t-293 -86t-354 16v1339h-373v74h461v-612z" />
    <glyph glyph-name="uni042B" unicode="&#x42b;" horiz-adv-x="1357" 
d="M528 59q154 0 210 67t56 260t-54 267q-56 74 -212 74h-282v-666q65 -2 282 -2zM1198 1413v-1413h-86v1413h86zM246 801h282q201 0 278 -92t77 -323q0 -230 -77 -316t-267 -86q-242 0 -379 16h-2v1413h88v-612z" />
    <glyph glyph-name="uni042C" unicode="&#x42c;" horiz-adv-x="970" 
d="M528 59q154 0 210 67t56 260t-54 267q-56 74 -212 74h-282v-666q65 -2 282 -2zM246 801h282q201 0 278 -92t77 -323q0 -230 -77 -316t-267 -86q-242 0 -379 16h-2v1413h88v-612z" />
    <glyph glyph-name="uni042D" unicode="&#x42d;" horiz-adv-x="942" 
d="M383 1438q246 0 345 -164t99 -567t-99 -567t-345 -165q-180 0 -311 39l12 64q126 -27 312 -27q186 1 264 145t77 511v14l-506 2v65l506 3q-8 315 -88 443t-253 128t-302 -25l-12 64q125 37 301 37z" />
    <glyph glyph-name="uni042E" unicode="&#x42e;" horiz-adv-x="1488" 
d="M618 707q0 -367 72 -511t258 -145q186 1 262 145q74 144 74 511t-75 511t-261 144t-258 -144t-72 -511zM954 1438q230 0 325 -162t95 -570t-95 -569q-95 -162 -329 -162t-327 162q-92 162 -93 563h-284v-700h-88v1413h88v-641h284q8 370 100 518q94 148 324 148z" />
    <glyph glyph-name="uni042F" unicode="&#x42f;" horiz-adv-x="997" 
d="M752 678v674q-63 4 -275 4q-137 0 -196 -76t-60 -270q0 -332 238 -332h293zM475 1430q233 0 365 -17v-1413h-88v610q-98 -6 -297 -6q-121 0 -170 -178l-109 -426h-96l117 432q45 160 139 197l-2 10q-98 17 -150 123t-51 252q0 228 80 322t262 94z" />
    <glyph glyph-name="uni0430" unicode="&#x430;" horiz-adv-x="892" 
d="M184 358v-110q1 -183 146 -187q78 -1 173 51t169 134v289l-359 -7q-129 -2 -129 -170zM508 1012q123 0 184 -68t62 -219v-725h-64l-14 178q-56 -74 -156 -133t-202 -59t-161 68q-58 68 -59 188v123q0 113 54 174t149 61h371v125q-2 101 -41 157t-151 56t-341 -31l-8 62
q254 43 377 43z" />
    <glyph glyph-name="uni0431" unicode="&#x431;" horiz-adv-x="931" 
d="M737 472q0 236 -53 326q-54 90 -204 89q-150 1 -206 -101t-57 -326q0 -224 59 -317q60 -94 204 -94t201 93q56 94 56 330zM129 604q0 362 59 523t254 235q27 8 78 23q149 44 240 118l22 -61q-86 -70 -161 -96q-27 -10 -81 -28t-71 -24q-141 -51 -195 -153t-67 -283
q-6 -49 -10 -141h2q27 104 94 173q69 68 231 68t232 -110t70 -361q0 -252 -66 -374q-73 -138 -269 -138t-277 109q-63 83 -80 306q-5 81 -5 214z" />
    <glyph glyph-name="uni0432" unicode="&#x432;" horiz-adv-x="903" 
d="M448 55q166 0 218 41q51 41 51 164t-55 170t-195 47h-244v-420q59 -2 225 -2zM692 732q0 116 -54 156t-208 40t-207 -2v-387h244q129 1 177 39t48 154zM803 232q0 -134 -70 -190q-71 -54 -265 -54t-325 12v985q115 12 300 12t258 -55t73 -209q0 -107 -41 -161t-131 -62
v-4q109 -10 155 -75t46 -199z" />
    <glyph glyph-name="uni0433" unicode="&#x433;" horiz-adv-x="737" 
d="M303 987q262 0 391 -8l-2 -61h-358q-111 0 -111 -146v-772h-84v788q0 94 43 146t121 53z" />
    <glyph glyph-name="uni0434" unicode="&#x434;" horiz-adv-x="929" 
d="M674 68v852h-215q-104 0 -111 -140q-23 -461 -147 -712h473zM854 68v-365h-57l-11 297h-669l-11 -297h-57v365h74q129 266 147 720q6 199 174 199h312v-919h98z" />
    <glyph glyph-name="uni0435" unicode="&#x435;" horiz-adv-x="876" 
d="M447 938q-133 0 -193 -92t-61 -326h393q115 0 110 197q-2 117 -59 169t-190 52zM471 49q139 0 283 25l8 -58q-106 -41 -298 -41t-276 120t-84 403q0 282 81 398t272 116q319 0 323 -291q4 -268 -178 -268h-409q6 -225 72 -315q67 -89 206 -89z" />
    <glyph glyph-name="uni0436" unicode="&#x436;" horiz-adv-x="1269" 
d="M678 369v-369h-76v369q0 61 8 112h-141q-60 0 -87 -23q-28 -24 -44 -38t-34 -48t-30 -54t-29 -69q-17 -48 -27 -74t-31 -86q-22 -60 -31 -89h-88q96 285 131 354q80 147 188 160v2q-68 8 -123 79t-82 135q-26 64 -56 153q-30 88 -36 104h86q88 -254 131 -325
q72 -113 166 -115h135q-6 39 -6 119v321h76v-321q0 -59 -6 -119h127q75 0 121 58q80 100 122 237q10 29 28 80t24 65h88q-88 -260 -131 -334q-72 -125 -168 -137v-2q111 -12 178 -141q46 -90 87 -209q40 -119 42 -126l6 -18t6 -20h-86q-10 29 -32 89t-46 131t-37 94
q-14 24 -32 58q-19 34 -35 48t-44 38t-87 23h-133q8 -51 8 -112z" />
    <glyph glyph-name="uni0437" unicode="&#x437;" horiz-adv-x="794" 
d="M355 999q161 0 235 -53t74 -205q0 -109 -37 -165t-131 -66v-4q104 -10 149 -72t45 -195t-75 -193t-251 -60t-292 24l8 62q193 -14 304 -14t165 44q53 45 53 162t-52 162t-190 47l-170 2v62l170 2q129 2 176 41q46 40 46 156t-54 154t-204 38q-148 0 -226 -13l-8 62
q103 22 265 22z" />
    <glyph glyph-name="uni0438" unicode="&#x438;" horiz-adv-x="958" 
d="M815 0h-78v760q0 78 2 117h-2q0 -2 -51 -97l-450 -780h-93v987h78v-878h2q10 25 56 102l444 776h92v-987z" />
    <glyph glyph-name="uni0439" unicode="&#x439;" horiz-adv-x="958" 
d="M815 0h-78v760q0 78 2 117h-2q0 -2 -51 -97l-450 -780h-93v987h78v-878h2q10 25 56 102l444 776h92v-987zM639 1427h68q5 -115 -59 -187t-173 -71q-109 0 -173 72t-60 186h67q0 -98 44 -151t121 -53t121 54t44 150z" />
    <glyph glyph-name="uni043A" unicode="&#x43a;" horiz-adv-x="862" 
d="M227 369v-369h-84v987h84v-321q0 -59 -6 -119h141q130 0 213 167q73 141 111 273h86q-92 -260 -139 -336q-74 -123 -176 -135v-2q78 -8 140 -80t92 -142q29 -70 65 -174q36 -102 43 -118h-90q-96 272 -136 342q-78 137 -202 139h-150q8 -51 8 -112z" />
    <glyph glyph-name="uni043B" unicode="&#x43b;" horiz-adv-x="899" 
d="M756 987v-987h-86v920h-215q-100 0 -112 -114q-5 -48 -13 -142q-8 -92 -14 -134t-17 -142q-12 -99 -49 -198q-55 -168 -205 -200l-10 65q100 47 139 158t54 235q14 126 22 228t10 115q10 100 53 148t129 48h314z" />
    <glyph glyph-name="uni043C" unicode="&#x43c;" horiz-adv-x="1202" 
d="M903 987h101q35 0 34 -37l37 -950h-78l-36 920h-29l-252 -797q-10 -29 -37 -29h-86q-25 0 -35 29l-252 797h-30l-35 -920h-78l35 950q0 37 39 37h100q25 0 35 -29l207 -665q4 -15 20 -63t23 -74h28q27 74 43 137l209 665q10 29 37 29z" />
    <glyph glyph-name="uni043D" unicode="&#x43d;" horiz-adv-x="942" 
d="M797 987v-987h-82v494h-488v-494h-84v987h84v-428h488v428h82z" />
    <glyph glyph-name="uni043E" unicode="&#x43e;" horiz-adv-x="925" 
d="M464 938q-153 0 -212 -96t-59 -348t59 -350t212 -97q153 0 212 97q59 98 59 350t-59 348t-212 96zM104 494q0 286 81 402t279 116t278 -117t79 -403q0 -286 -80 -401q-79 -116 -277 -116t-279 117t-81 402z" />
    <glyph glyph-name="uni043F" unicode="&#x43f;" horiz-adv-x="935" 
d="M791 987v-987h-82v918h-482v-918h-84v987h648z" />
    <glyph glyph-name="uni0440" unicode="&#x440;" horiz-adv-x="937" 
d="M527 49q116 0 166 98q50 97 50 343t-49 347t-166 101q-70 0 -140 -44t-161 -144v-611q184 -90 300 -90zM541 1012q159 0 225 -122t66 -400t-70 -396q-70 -119 -224 -119t-317 109q10 -80 6 -193v-317h-84v1413h68l10 -170q160 195 320 195z" />
    <glyph glyph-name="uni0441" unicode="&#x441;" horiz-adv-x="796" 
d="M473 1012q143 0 238 -39l-13 -55q-94 20 -211 20q-167 0 -231 -95t-64 -349t65 -350q65 -95 216 -95t244 23l10 -58q-121 -39 -254 -39q-203 0 -286 117t-83 402q0 286 83 402t286 116z" />
    <glyph glyph-name="uni0442" unicode="&#x442;" horiz-adv-x="788" 
d="M741 915h-305v-915h-84v915h-305v72h694v-72z" />
    <glyph glyph-name="uni0443" unicode="&#x443;" horiz-adv-x="847" 
d="M385 0q-25 0 -35 25l-307 962h90l248 -809q22 -66 33 -110h20q33 96 37 112l246 807h90l-342 -1073q-61 -196 -151 -278t-242 -56l6 53q123 -8 189 60t120 237l25 70h-27z" />
    <glyph glyph-name="uni0444" unicode="&#x444;" horiz-adv-x="1159" 
d="M975 494q0 240 -80 338t-277 106v-889q197 9 277 107t80 338zM184 494q0 -240 80 -338t277 -107v889q-197 -8 -277 -106t-80 -338zM1057 494q1 -270 -99 -390t-337 -129v-401h-80v401q-238 8 -338 128q-101 121 -101 391t100 390t339 128v422h80v-422q238 -8 337 -128
t99 -390z" />
    <glyph glyph-name="uni0445" unicode="&#x445;" horiz-adv-x="849" 
d="M438 481h-26l-265 -481h-96l287 512l-266 475h94l242 -438h34l242 438h94l-264 -475l285 -512h-94z" />
    <glyph glyph-name="uni0446" unicode="&#x446;" horiz-adv-x="950" 
d="M874 68v-361h-57l-12 293h-662v987h84v-919h465v919h84v-919h98z" />
    <glyph glyph-name="uni0447" unicode="&#x447;" horiz-adv-x="849" 
d="M705 987v-987h-82v465q-166 -98 -344 -98t-179 211v409h82v-389q0 -84 30 -122t93 -38q156 0 318 99v450h82z" />
    <glyph glyph-name="uni0448" unicode="&#x448;" horiz-adv-x="1300" 
d="M1157 987v-987h-1014v987h84v-919h383v919h80v-919h385v919h82z" />
    <glyph glyph-name="uni0449" unicode="&#x449;" horiz-adv-x="1333" 
d="M1255 68v-361h-57l-10 293h-1045v987h84v-919h383v919h78v-919h387v919h82v-919h98z" />
    <glyph glyph-name="uni044A" unicode="&#x44a;" horiz-adv-x="1032" 
d="M622 57q148 0 195 45q47 46 47 174t-46 176t-169 48h-227v-441q52 -2 200 -2zM422 565h227q170 -1 237 -65q66 -64 66 -227t-66 -224t-246 -61t-300 12v918h-293v69h375v-422z" />
    <glyph glyph-name="uni044B" unicode="&#x44b;" horiz-adv-x="1140" 
d="M455 57q109 0 151 45q42 46 41 174q0 128 -41 176t-151 48h-228v-441q54 -2 228 -2zM997 987v-987h-84v987h84zM227 565h228q160 -1 219 -65t59 -227t-59 -224q-60 -61 -234 -61t-295 12h-2v987h84v-422z" />
    <glyph glyph-name="uni044C" unicode="&#x44c;" horiz-adv-x="837" 
d="M428 57q148 0 194 45q46 46 46 174t-44 176t-169 48h-228v-441q53 -2 201 -2zM227 565h228q173 -1 237 -65t64 -227t-65 -224t-245 -61t-301 12h-2v987h84v-422z" />
    <glyph glyph-name="uni044D" unicode="&#x44d;" horiz-adv-x="811" 
d="M334 995q207 -1 290 -113t83 -393t-84 -395t-289 -112q-150 0 -260 30l10 62q112 -18 260 -18t211 90q63 91 66 325l-414 2v62l414 2q-5 217 -69 302t-204 85t-256 -15l-10 60q98 26 252 26z" />
    <glyph glyph-name="uni044E" unicode="&#x44e;" horiz-adv-x="1280" 
d="M545 498q0 -250 56 -346t210 -97q154 1 214 97t60 346t-60 346t-214 96t-210 -96t-56 -346zM818 1012q196 0 277 -113t81 -401t-81 -402q-81 -112 -279 -112t-275 108q-78 108 -80 385h-234v-477h-84v987h84v-444h234q6 261 84 365q77 104 273 104z" />
    <glyph glyph-name="uni044F" unicode="&#x44f;" horiz-adv-x="874" 
d="M649 457v463q-57 4 -254 4q-190 0 -190 -222q0 -125 46 -185t159 -60h239zM393 993q217 0 338 -14v-979h-82v391h-241q-143 0 -175 -127l-65 -264h-88l76 289q29 113 155 131v6q-190 12 -190 290t272 277z" />
    <glyph glyph-name="uni0451" unicode="&#x451;" horiz-adv-x="876" 
d="M447 938q-133 0 -193 -92t-61 -326h393q115 0 110 197q-2 117 -59 169t-190 52zM471 49q139 0 283 25l8 -58q-106 -41 -298 -41t-276 120t-84 403q0 282 81 398t272 116q319 0 323 -291q4 -268 -178 -268h-409q6 -225 72 -315q67 -89 206 -89zM618 1217h-30q-27 0 -27 28
v115q0 29 27 29h30q27 0 27 -29v-115q0 -28 -27 -28zM328 1217h-31q-25 0 -25 28v115q0 29 25 29h31q27 0 26 -29v-115q1 -28 -26 -28z" />
    <glyph glyph-name="uni0452" unicode="&#x452;" horiz-adv-x="944" 
d="M758 522q0 211 -157 211q-79 0 -154 -42t-185 -138v-553h-84v1038h-129v56h129v340h84l2 -340h336v-56h-336l2 -237q0 -94 -10 -183q207 191 371 191q215 0 215 -270v-615q0 -201 -129 -350l-47 35q92 143 92 315v598z" />
    <glyph glyph-name="uni0453" unicode="&#x453;" horiz-adv-x="737" 
d="M303 987q262 0 391 -8l-2 -61h-358q-111 0 -111 -146v-772h-84v788q0 94 43 146t121 53zM653 1411l-278 -278l-35 41l262 296z" />
    <glyph glyph-name="uni0454" unicode="&#x454;" horiz-adv-x="813" 
d="M106 490q0 280 82 393t289 112q154 0 252 -26l-12 -60q-109 15 -251 15t-204 -85q-63 -85 -69 -302l411 -2v-62l-411 -2q2 -233 64 -325q63 -92 211 -90q148 0 259 18l12 -62q-113 -31 -262 -30q-205 0 -288 114t-83 394z" />
    <glyph glyph-name="uni0455" unicode="&#x455;" horiz-adv-x="827" 
d="M176 766q0 -114 30 -156t95 -53l250 -47q94 -18 139 -78t45 -178q1 -174 -73 -225t-242 -51t-309 24l8 59q137 -14 283 -12t197 40q52 37 52 147t-34 150t-99 54l-250 47q-90 17 -132 77t-42 208t66 196t241 44q176 -4 312 -27l-8 -59q-187 12 -313 15t-171 -29t-45 -146
z" />
    <glyph glyph-name="uni0456" unicode="&#x456;" horiz-adv-x="385" 
d="M236 0h-84v987h84v-987zM172 1399h39q31 0 31 -33v-123q0 -33 -31 -33h-39q-29 0 -29 33v123q0 33 29 33z" />
    <glyph glyph-name="uni0457" unicode="&#x457;" horiz-adv-x="382" 
d="M233 0h-83v987h83v-987zM319 1389h31q27 0 27 -29v-115q0 -29 -27 -28h-31q-25 0 -24 28v115q-1 29 24 29zM29 1389h32q25 0 25 -29v-115q0 -29 -25 -28h-32q-25 0 -25 28v115q0 29 25 29z" />
    <glyph glyph-name="uni0458" unicode="&#x458;" horiz-adv-x="385" 
d="M236 987v-1063q0 -201 -130 -350l-47 35q92 143 93 315v1063h84zM174 1399h39q29 0 29 -33v-123q0 -33 -29 -33h-39q-31 0 -31 33v123q0 33 31 33z" />
    <glyph glyph-name="uni0459" unicode="&#x459;" horiz-adv-x="1290" 
d="M893 55q131 0 179 41q48 40 48 180t-43 192t-157 52h-207v-463q49 -2 180 -2zM713 584h207q164 0 225 -67t61 -243t-66 -232q-67 -54 -233 -54t-274 12v922h-176q-92 0 -101 -115q-25 -317 -41 -425t-59 -204q-57 -137 -197 -180l-10 59q96 67 135 154q39 88 54 184
q14 96 38 424q16 168 164 168h273v-403z" />
    <glyph glyph-name="uni045A" unicode="&#x45a;" horiz-adv-x="1306" 
d="M914 55q136 0 181 47q44 46 44 180t-43 184t-158 50h-209v-459q49 -2 185 -2zM729 580h209q164 0 225 -66t61 -232t-62 -230t-230 -64t-283 12v514h-426v-514h-80v987h80v-409h426v409h80v-407z" />
    <glyph glyph-name="uni045B" unicode="&#x45b;" horiz-adv-x="944" 
d="M758 522q0 211 -157 211q-79 0 -154 -42t-185 -138v-553h-84v1038h-129v56h129v340h84l2 -340h336v-56h-336l2 -237q0 -94 -10 -183q207 191 371 191q215 0 215 -270v-539h-84v522z" />
    <glyph glyph-name="uni045C" unicode="&#x45c;" horiz-adv-x="862" 
d="M227 369v-369h-84v987h84v-321q0 -59 -6 -119h141q130 0 213 167q73 141 111 273h86q-92 -260 -139 -336q-74 -123 -176 -135v-2q78 -8 140 -80t92 -142q29 -70 65 -174q36 -102 43 -118h-90q-96 272 -136 342q-78 137 -202 139h-150q8 -51 8 -112zM397 1133l-35 41
l263 296l51 -59z" />
    <glyph glyph-name="uni045D" unicode="&#x45d;" horiz-adv-x="958" 
d="M815 0h-78v760q0 78 2 117h-2q0 -2 -51 -97l-450 -780h-93v987h78v-878h2q10 25 56 102l444 776h92v-987zM547 1174l-33 -41l-281 278l52 59z" />
    <glyph glyph-name="uni045E" unicode="&#x45e;" horiz-adv-x="847" 
d="M385 0q-25 0 -35 25l-307 962h90l248 -809q22 -66 33 -110h20q33 96 37 112l246 807h90l-342 -1073q-61 -196 -151 -278t-242 -56l6 53q123 -8 189 60t120 237l25 70h-27zM428 1169q-110 0 -174 72t-59 186h67q0 -98 44 -151t121 -53t121 54t44 150h67q4 -115 -59 -187
t-172 -71z" />
    <glyph glyph-name="uni045F" unicode="&#x45f;" horiz-adv-x="937" 
d="M793 987v-987h-285l-10 -342h-58l-10 342h-287v987h84l2 -919h478l2 919h84z" />
    <glyph glyph-name="uni0490" unicode="&#x490;" horiz-adv-x="849" 
d="M809 1722v-321l-4 -60h-443q-57 0 -90 -44t-32 -119v-1178h-88v1190q0 98 53 160t133 63q268 0 401 -8l13 317h57z" />
    <glyph glyph-name="uni0491" unicode="&#x491;" horiz-adv-x="739" 
d="M225 772v-772h-84v788q0 96 42 148t120 51q215 0 324 -4l10 305h59l-2 -309l-2 -61h-358q-57 2 -83 -34t-26 -112z" />
    <glyph glyph-name="uni04B0" unicode="&#x4b0;" horiz-adv-x="931" 
d="M768 545v-58h-258v-487h-86v487h-258v58h246l-371 868h94l271 -659q53 -135 57 -146h10q18 55 55 144l271 661h92l-369 -868h246z" />
    <glyph glyph-name="uni04B1" unicode="&#x4b1;" horiz-adv-x="937" 
d="M770 119v-58h-256v-487h-88v487h-258v58h246l-369 868h94l269 -653q8 -20 57 -144h10l57 144l271 653h92l-369 -868h244z" />
    <glyph glyph-name="uni04B6" unicode="&#x4b6;" horiz-adv-x="1040" 
d="M981 66v-375h-59l-13 309h-143v692q-197 -152 -410 -151q-248 0 -247 301v571h88v-557q0 -125 45 -182q45 -58 144 -58t184 34t196 118v645h86v-1347h129z" />
    <glyph glyph-name="uni04B7" unicode="&#x4b7;" horiz-adv-x="878" 
d="M801 68v-361h-56l-12 293h-110v465q-166 -98 -344 -98t-179 211v409h82v-389q0 -84 30 -122t93 -38q156 0 318 99v450h82v-919h96z" />
    <glyph glyph-name="uni04BA" unicode="&#x4ba;" horiz-adv-x="1009" 
d="M653 872q248 0 248 -301v-571h-88v557q2 125 -43 182t-144 57q-98 0 -184 -33q-86 -34 -196 -118v-645h-88v1413h88v-692q196 151 407 151z" />
    <glyph glyph-name="uni04C0" unicode="&#x4c0;" horiz-adv-x="403" 
d="M246 0h-88v1413h88v-1413z" />
    <glyph glyph-name="Wgrave" unicode="&#x1e80;" horiz-adv-x="1540" 
d="M1180 0h-113q-33 0 -39 31l-209 1155l-31 160h-36q-20 -106 -29 -160l-211 -1155q-6 -31 -39 -31h-115q-31 0 -36 29l-269 1384h90l226 -1194q12 -55 26 -149h43q4 28 14 76t13 71l213 1163q6 33 37 33h108q33 0 39 -33l213 -1161q3 -27 13 -77t14 -72h43q16 98 26 147
l226 1196h92l-270 -1384q-10 -29 -39 -29zM846 1544l-33 -41l-281 279l52 59z" />
    <glyph glyph-name="wgrave" unicode="&#x1e81;" horiz-adv-x="1341" 
d="M1001 0h-81q-31 0 -37 29l-170 747q-20 98 -35 150h-16q-6 -29 -18 -79t-15 -71l-172 -747q-4 -29 -35 -29h-80q-31 0 -37 27l-256 960h88l199 -788q10 -35 33 -138h22l203 897q8 29 37 29h80q31 0 34 -29l173 -757q14 -57 32 -140h25q29 133 31 140l198 786h90
l-258 -960q-6 -27 -35 -27zM743 1174l-32 -41l-281 278l51 59z" />
    <glyph glyph-name="Wacute" unicode="&#x1e82;" horiz-adv-x="1540" 
d="M1180 0h-113q-33 0 -39 31l-209 1155l-31 160h-36q-20 -106 -29 -160l-211 -1155q-6 -31 -39 -31h-115q-31 0 -36 29l-269 1384h90l226 -1194q12 -55 26 -149h43q4 28 14 76t13 71l213 1163q6 33 37 33h108q33 0 39 -33l213 -1161q3 -27 13 -77t14 -72h43q16 98 26 147
l226 1196h92l-270 -1384q-10 -29 -39 -29zM995 1782l-278 -279l-35 41l262 297z" />
    <glyph glyph-name="wacute" unicode="&#x1e83;" horiz-adv-x="1341" 
d="M1001 0h-81q-31 0 -37 29l-170 747q-20 98 -35 150h-16q-6 -29 -18 -79t-15 -71l-172 -747q-4 -29 -35 -29h-80q-31 0 -37 27l-256 960h88l199 -788q10 -35 33 -138h22l203 897q8 29 37 29h80q31 0 34 -29l173 -757q14 -57 32 -140h25q29 133 31 140l198 786h90
l-258 -960q-6 -27 -35 -27zM893 1411l-279 -278l-34 41l262 296z" />
    <glyph glyph-name="Wdieresis" unicode="&#x1e84;" horiz-adv-x="1540" 
d="M1180 0h-113q-33 0 -39 31l-209 1155l-31 160h-36q-20 -106 -29 -160l-211 -1155q-6 -31 -39 -31h-115q-31 0 -36 29l-269 1384h90l226 -1194q12 -55 26 -149h43q4 28 14 76t13 71l213 1163q6 33 37 33h108q33 0 39 -33l213 -1161q3 -27 13 -77t14 -72h43q16 98 26 147
l226 1196h92l-270 -1384q-10 -29 -39 -29zM903 1759h31q27 0 27 -28v-115q0 -29 -27 -29h-31q-27 0 -26 29v115q-1 28 26 28zM612 1759h31q27 0 27 -28v-115q0 -29 -27 -29h-31q-27 0 -26 29v115q-1 28 26 28z" />
    <glyph glyph-name="wdieresis" unicode="&#x1e85;" horiz-adv-x="1341" 
d="M1001 0h-81q-31 0 -37 29l-170 747q-20 98 -35 150h-16q-6 -29 -18 -79t-15 -71l-172 -747q-4 -29 -35 -29h-80q-31 0 -37 27l-256 960h88l199 -788q10 -35 33 -138h22l203 897q8 29 37 29h80q31 0 34 -29l173 -757q14 -57 32 -140h25q29 133 31 140l198 786h90
l-258 -960q-6 -27 -35 -27zM801 1389h30q27 0 27 -29v-115q0 -29 -27 -28h-30q-27 0 -27 28v115q0 29 27 29zM510 1389h31q27 0 26 -29v-115q0 -29 -26 -28h-31q-27 0 -27 28v115q0 29 27 29z" />
    <glyph glyph-name="Ygrave" unicode="&#x1ef2;" horiz-adv-x="907" 
d="M498 0h-88v518l-383 895h96l326 -795h10l57 144l270 651h93l-381 -895v-518zM494 1503l-281 279l51 59l262 -297z" />
    <glyph glyph-name="ygrave" unicode="&#x1ef3;" horiz-adv-x="847" 
d="M385 0q-25 0 -37 25l-307 962h90l250 -809q13 -59 33 -110h20q33 96 37 112l246 807h90l-342 -1073q-47 -141 -115 -227t-182 -115l-12 51q92 41 143 117t88 190l25 70h-27zM467 1133l-281 278l52 59l262 -296z" />
    <glyph glyph-name="endash" unicode="&#x2013;" horiz-adv-x="999" 
d="M868 481h-737v68h737v-68z" />
    <glyph glyph-name="emdash" unicode="&#x2014;" horiz-adv-x="1505" 
d="M1374 481h-1243v68h1243v-68z" />
    <glyph glyph-name="quoteleft" unicode="&#x2018;" horiz-adv-x="337" 
d="M182 1063h-26q-31 0 -31 35v129q4 145 41 270l39 -14q-10 -100 -10 -230q23 0 22 -28v-127q-2 -35 -35 -35z" />
    <glyph glyph-name="quoteright" unicode="&#x2019;" horiz-adv-x="333" 
d="M156 1479h26q31 0 31 -35v-129q-4 -141 -39 -271l-41 15q10 102 10 229q-25 0 -20 29v127q0 35 33 35z" />
    <glyph glyph-name="quotesinglbase" unicode="&#x201a;" horiz-adv-x="356" 
d="M168 190h27q33 0 32 -34v-129q-4 -150 -43 -271l-41 15q12 123 13 229q-25 0 -25 29v127q2 34 37 34z" />
    <glyph glyph-name="quotedblleft" unicode="&#x201c;" horiz-adv-x="552" 
d="M397 1065h-26q-31 0 -33 33l2 129q4 154 39 270l41 -14q-10 -100 -10 -230q25 0 20 -28v-127q0 -33 -33 -33zM182 1065h-26q-31 0 -33 33l2 129q4 141 39 270l41 -14q-10 -133 -10 -230q23 0 22 -28v-127q-2 -33 -35 -33z" />
    <glyph glyph-name="quotedblright" unicode="&#x201d;" horiz-adv-x="548" 
d="M371 1479h24q33 0 33 -35v-129q-4 -145 -41 -271l-39 15q10 102 10 229q-23 0 -22 29v127q2 35 35 35zM156 1479h26q31 0 31 -35v-129q-4 -141 -39 -271l-41 15q10 102 10 229q-25 0 -20 29v127q0 35 33 35z" />
    <glyph glyph-name="quotedblbase" unicode="&#x201e;" horiz-adv-x="569" 
d="M379 190h27q31 0 32 -34l-2 -129q-4 -154 -39 -271l-41 15q12 123 13 229q-27 0 -23 29v127q0 34 33 34zM166 190h24q31 0 33 -34l-2 -129q-4 -154 -39 -271l-39 15q10 137 11 229q-27 0 -23 29v127q0 34 35 34z" />
    <glyph glyph-name="dagger" unicode="&#x2020;" horiz-adv-x="727" 
d="M645 987v-80l-217 13v67h217zM82 987h217v-67l-217 -13v80zM403 -225h-79l2 1159v43l-2 438h79l-4 -438v-43z" />
    <glyph glyph-name="daggerdbl" unicode="&#x2021;" horiz-adv-x="784" 
d="M674 203h-217v67l217 13v-80zM328 203h-217v80l217 -13v-67zM457 987h217v-80l-217 13v67zM111 987h217v-67l-217 -13v80zM428 985v-776l6 -434h-82l4 434v776l-4 430h82z" />
    <glyph glyph-name="bullet" unicode="&#x2022;" horiz-adv-x="585" 
d="M285 700h18q67 0 93 -30t26 -109v-22q0 -82 -27 -113t-92 -31h-18q-70 0 -97 31t-26 113v22q0 78 26 109q27 30 97 30z" />
    <glyph glyph-name="ellipsis" unicode="&#x2026;" horiz-adv-x="1320" 
d="M1128 193h29q35 0 35 -35v-123q0 -35 -35 -35h-29q-35 0 -34 35v123q-1 35 34 35zM645 193h29q35 0 35 -35v-123q0 -35 -35 -35h-29q-35 0 -35 35v123q0 35 35 35zM164 193h29q35 0 34 -35v-123q0 -35 -34 -35h-29q-35 0 -35 35v123q0 35 35 35z" />
    <glyph glyph-name="perthousand" unicode="&#x2030;" horiz-adv-x="2056" 
d="M1711 764q-103 0 -144 -83t-41 -278t41 -279t144 -83q103 0 144 84q41 85 41 279t-41 277t-144 83zM1113 764q-103 0 -144 -83t-41 -278t41 -279t144 -83q103 0 144 84q41 85 41 279t-41 277t-144 83zM1710 821q138 0 196 -98q58 -99 58 -321t-57 -320t-197 -98t-197 98
t-57 320t57 321q58 98 197 98zM1114 821q138 0 196 -98q58 -99 58 -321t-57 -320t-197 -98t-196 98q-58 98 -58 320t58 320t196 99zM528 1020q0 196 -41 278t-144 82t-144 -83t-41 -277t41 -278q41 -83 144 -83t144 83t41 278zM377 0h-66l764 1413h66zM344 1438
q138 0 196 -98t58 -320t-57 -320t-197 -98t-197 98t-57 320t58 320t196 98z" />
    <glyph glyph-name="guilsinglleft" unicode="&#x2039;" horiz-adv-x="411" 
d="M354 901l-227 -387l229 -393l-43 -31l-268 412v24l266 406z" />
    <glyph glyph-name="guilsinglright" unicode="&#x203a;" horiz-adv-x="415" 
d="M369 526v-24l-269 -412l-43 31l228 393l-226 387l43 31z" />
    <glyph glyph-name="fraction" unicode="&#x2044;" horiz-adv-x="262" 
d="M-219 0h-68l764 1413h68z" />
    <glyph glyph-name="Euro" unicode="&#x20ac;" horiz-adv-x="1056" 
d="M682 -25q-211 -1 -312 143t-118 439h-152v59h150l-2 91q0 90 4 131h-152v59h154q23 273 123 407t305 134q147 0 266 -37l-12 -64q-106 25 -260 24t-233 -116t-99 -348h451l-13 -59h-440q-4 -41 -4 -131l2 -91h377l-12 -59h-363q16 -256 94 -380t240 -125t274 26l13 -64
q-121 -39 -281 -39z" />
    <glyph glyph-name="trademark" unicode="&#x2122;" horiz-adv-x="1566" 
d="M1112 725h-59q-23 0 -29 23l-186 624h-21l-26 -725h-62l27 748q4 31 28 30h74q23 0 29 -22l155 -522q10 -45 29 -107h23q6 27 28 109l154 520q6 23 27 22h77q25 0 29 -30l25 -748h-62l-26 725h-23l-184 -624q-4 -23 -27 -23zM639 1425v-55h-227v-723h-66v723h-225v55h518
z" />
    <glyph glyph-name="partialdiff" unicode="&#x2202;" horiz-adv-x="935" 
d="M442 49q157 0 220 182q54 156 69 416q-115 188 -278 189q-123 0 -192 -104t-74 -279q-5 -176 57 -290t198 -114zM231 1374v64q135 0 227 -16q215 -36 291 -188q87 -173 68 -546q-26 -533 -200 -659q-73 -53 -177 -54q-182 -1 -263 133t-74 346t95 332t244 121
q190 0 291 -194q12 272 -34 414t-152 195q-107 52 -316 52z" />
    <glyph glyph-name="emptyset" unicode="&#x2205;" horiz-adv-x="1402" 
d="M735 350h-80q-14 0 -14 -16v-76q0 -14 14 -14h80q16 0 17 14v76q-1 16 -17 16zM702 1116q-104 0 -249 -22l6 -93q123 19 251 19t128 -94q0 -75 -100 -178q-38 -39 -68 -107t-31 -147h111q0 72 29 132q30 60 67 95t66 89q30 54 30 116q0 190 -240 190zM702 1296
q248 0 423 -175t175 -423t-175 -424t-423 -176t-424 176t-176 424t176 423t424 175z" />
    <glyph glyph-name="product" unicode="&#x220f;" horiz-adv-x="1191" 
d="M1122 1343h-186v-1564h-84v1564h-512v-1564h-84v1564h-186v70h1052v-70z" />
    <glyph glyph-name="summation" unicode="&#x2211;" horiz-adv-x="960" 
d="M850 1341h-647l295 -608l-318 -846h686v-71h-780v71l315 846l-295 608v72h744v-72z" />
    <glyph glyph-name="minus" unicode="&#x2212;" horiz-adv-x="962" 
d="M831 571h-700v68h700v-68z" />
    <glyph glyph-name="radical" unicode="&#x221a;" horiz-adv-x="915" 
d="M393 0h-96q-20 0 -21 16l-208 971h75l191 -924h22l432 1731h78l-450 -1778q-6 -16 -23 -16z" />
    <glyph glyph-name="infinity" unicode="&#x221e;" horiz-adv-x="1292" 
d="M944 424q70 0 115 55t45 162q0 195 -154 195q-57 0 -112 -37t-84 -75t-72 -101q30 -53 56 -89t82 -73q54 -37 124 -37zM358 424q80 0 136 50q55 50 118 153q-44 73 -74 109t-80 68t-110 32q-160 0 -160 -197q0 -107 45 -161t125 -54zM963 901q94 -1 154 -67
q61 -66 61 -197t-66 -205t-168 -74q-160 0 -295 213q-145 -213 -305 -213q-100 0 -166 75t-66 205t63 197q62 67 163 66q170 0 309 -219q148 219 316 219z" />
    <glyph glyph-name="integral" unicode="&#x222b;" horiz-adv-x="624" 
d="M416 1462q86 0 145 -8l-8 -59h-109q-72 0 -102 -48t-27 -165l70 -1364q12 -272 -182 -273q-90 0 -140 9l7 59h108q74 0 104 48t25 165l-69 1364q-12 272 178 272z" />
    <glyph glyph-name="approxequal" unicode="&#x2248;" horiz-adv-x="970" 
d="M774 494h62q6 -98 -28 -144t-112 -47q-78 0 -218 67q-140 66 -192 66t-72 -26q-19 -26 -19 -105h-60q-15 203 141 199q62 0 204 -66t198 -66t77 23q19 25 19 99zM276 895q62 0 204 -67q142 -66 198 -66t77 23q19 24 19 100h62q6 -101 -28 -147t-112 -46t-218 67t-192 67
t-72 -28q-19 -26 -19 -102h-60q-13 199 141 199z" />
    <glyph glyph-name="notequal" unicode="&#x2260;" horiz-adv-x="962" 
d="M831 412v-68h-475l-125 -252l-34 21l114 231h-180v68h213l182 366h-395v68h428l109 219l37 -21l-99 -198h225v-68h-260l-182 -366h442z" />
    <glyph glyph-name="lessequal" unicode="&#x2264;" horiz-adv-x="950" 
d="M823 201h-694v65h694v-65zM803 985l-578 -270l578 -242v-70l-656 277v70l656 307v-72z" />
    <glyph glyph-name="greaterequal" unicode="&#x2265;" horiz-adv-x="950" 
d="M821 201h-694v65h694v-65zM805 750v-70l-658 -277v70l580 242l-580 272v70z" />
    <glyph glyph-name="lozenge" unicode="&#x25ca;" horiz-adv-x="962" 
d="M145 709l336 -629l334 629l-334 624zM494 1419l395 -696q8 -14 0 -29l-395 -700q-14 -18 -25 0l-397 700q-8 14 0 29l397 696q11 18 25 0z" />
    <glyph glyph-name="c_t" horiz-adv-x="1318" 
d="M1004 918v-701q0 -156 120 -156h136l8 -59q-76 -16 -158 -16q-190 0 -190 223v709h-435q-163 0 -229 -92t-66 -340q0 -246 62 -342t223 -95q121 0 203 23l10 -58q-106 -39 -227 -39q-197 0 -278 117q-81 116 -81 392t86 390t285 113h447v305h84v-305h274v-69h-274z" />
    <glyph glyph-name="f_f_y" horiz-adv-x="1906" 
d="M1444 0q-27 0 -35 25l-248 784q-37 109 -125 109h-237v-918h-84v918h-434v-918h-84v918h-146v59l146 10v162q0 139 51 209q50 70 160 70t202 -11l-4 -61h-164q-90 0 -126 -46t-35 -165v-158h434v199q0 141 50 210q50 68 175 68t199 -10l-4 -61h-174q-90 0 -126 -47
t-36 -164v-195h250q139 0 192 -156l197 -653q25 -74 35 -110h22l283 919h90l-344 -1073q-47 -141 -115 -227t-184 -115l-11 51q90 41 142 116q51 75 90 191l27 70h-29z" />
    <glyph glyph-name="f_t" horiz-adv-x="1128" 
d="M811 918v-701q0 -156 121 -156h135l8 -59q-76 -16 -155 -16q-193 0 -193 223v709h-446v-918h-84v918h-146v59l146 10v199q0 141 50 210q50 68 174 68t193 -10l-4 -61h-168q-90 0 -126 -47t-35 -164v-195h446v305h84v-305h276v-69h-276z" />
    <glyph glyph-name="f_y" horiz-adv-x="1388" 
d="M924 0q-27 0 -35 25l-248 784q-33 109 -125 109h-235v-918h-84v918h-146v59l146 10v199q0 141 50 210q50 68 175 68t199 -10l-5 -61h-174q-90 0 -126 -47t-35 -164v-195h249q139 0 191 -156l199 -653q25 -75 32 -110h23l282 919h91l-342 -1073q-47 -141 -115 -227
t-184 -115l-13 51q162 74 232 307l26 70h-28z" />
    <glyph glyph-name="s_t" horiz-adv-x="1388" 
d="M1071 918v-701q0 -156 121 -156h135l10 -59q-78 -16 -157 -16q-193 0 -193 223v709h-586q-73 0 -105 -4t-66 -18q-34 -15 -44 -51q-10 -37 -10 -115t30 -120t95 -53l250 -47q94 -18 138 -78t44 -178q0 -174 -73 -225q-74 -51 -242 -51t-307 24l8 59q135 -14 281 -12
t199 40q52 37 52 147t-34 150t-99 54l-250 47q-92 17 -134 77t-42 199t67 181t234 43h594v305h84v-305h277v-69h-277z" />
    <glyph glyph-name="t_t" horiz-adv-x="1134" 
d="M819 918v-701q0 -156 121 -156h135l10 -59q-76 -16 -157 -16q-190 0 -191 223v709h-458v-701q0 -156 120 -156h133l11 -59q-76 -16 -158 -16q-190 0 -190 223v709h-146v59l146 10v305h84v-305h458v305h82v-305h277v-69h-277z" />
    <glyph glyph-name="t_y" horiz-adv-x="1429" 
d="M965 0q-23 0 -33 25l-250 784q-31 109 -123 109h-280v-701q0 -156 120 -156h133l11 -59q-76 -16 -158 -16q-190 0 -190 223v709h-146v59l146 10v305h84v-305h294q139 0 189 -153l199 -656q25 -74 34 -110h21q20 61 28 88l254 831h91l-345 -1073q-44 -141 -112 -227
t-182 -115l-13 51q90 41 142 116q51 75 90 191l24 70h-28z" />
    <glyph glyph-name="brevecy" horiz-adv-x="598" 
d="M465 1417h67q4 -115 -59 -187t-172 -71q-109 0 -173 72t-60 186h67q0 -98 44 -151q44 -54 121 -54t121 54t44 151z" />
    </font>
</defs>
</svg>
