<?xml version="1.0" standalone="no"?>
<!DOCTYPE svg PUBLIC "-//W3C//DTD SVG 1.1//EN" "http://www.w3.org/Graphics/SVG/1.1/DTD/svg11.dtd" >
<svg xmlns="http://www.w3.org/2000/svg">
<metadata>
Created by FontPrep 20130207 at Wed Apr 12 17:38:23 2017
 By Dima Tsoy
Copyright (c) 2014, Natanael Gama (www.ndiscovered.com . info(at)ndiscovered.com)
</metadata>
<defs>
<font id="f666d4d55cc2b348182e954075608285" horiz-adv-x='1024' >
  <font-face 
    font-family="Exo2-MediumCondensed"
    font-weight="500"
    font-stretch="condensed"
    units-per-em="2048"
    panose-1="0 0 6 6 0 0 0 0 0 0"
    ascent="1638"
    descent="-410"
    x-height="999"
    cap-height="1413"
    bbox="-291 -569 2052 1921"
    underline-thickness="102"
    underline-position="-102"
    unicode-range="U+0020-FB02"
  />
<missing-glyph horiz-adv-x="993" 
 />
    <glyph glyph-name="fi" unicode="fi" horiz-adv-x="1056" 
d="M791 1425h94q53 0 53 -57v-115q0 -59 -53 -59h-94q-55 0 -56 59v115q1 57 56 57zM938 999v-999h-197v846h-358v-846h-195v846h-147v143l147 10v150q0 160 58 240q58 79 190 79q133 0 205 -14v-147h-135q-70 0 -96 -40t-27 -141v-127h555z" />
    <glyph glyph-name="fl" unicode="fl" horiz-adv-x="1155" 
d="M758 219v1090h-254q-68 2 -94 -39t-27 -144v-127h219v-153h-219v-846h-197v846h-147v143l147 10v150q0 158 58 239t192 80q375 0 518 -24v-1180q0 -129 97 -129h67l23 -127q-53 -26 -161 -26t-165 62t-57 175z" />
    <glyph glyph-name="f_f" unicode="ff" horiz-adv-x="1224" 
d="M1077 1307q-69 0 -95 -35t-26 -121v-152h236v-153h-236v-846h-198v846h-375v-846h-195v846h-147v143l147 10v152q0 141 64 218t188 77q125 0 203 -14l-16 -148h-121q-70 0 -96 -32t-27 -124v-129h375v175q0 145 58 220q58 74 207 74t230 -14l-16 -147h-160z" />
    <glyph glyph-name="f_f_i" unicode="ffi" horiz-adv-x="1609" 
d="M1343 1425h93q55 0 55 -57v-115q0 -59 -55 -59h-93q-57 0 -57 59v115q0 57 57 57zM1489 999v-999h-197v846h-354v-846h-199v846h-372v-846h-199v846h-127v143l127 8v154q0 141 63 218t189 77t205 -14l-17 -148h-121q-69 0 -95 -32t-25 -124v-129h372v150q1 158 59 239
q58 80 189 80t203 -14v-147h-131q-69 0 -95 -40t-26 -141v-127h551z" />
    <glyph glyph-name="f_f_l" unicode="ffl" horiz-adv-x="1730" 
d="M1329 219v1090h-252q-69 2 -95 -39t-26 -144v-127h218v-153h-218v-846h-198v846h-375v-846h-195v846h-147v143l147 10v152q0 141 64 218t188 77q125 0 203 -14l-16 -148h-121q-70 0 -96 -32t-27 -124v-129h375v150q0 158 58 239t192 80q377 0 518 -24v-1180
q0 -129 94 -129h72l22 -127q-54 -26 -162 -26t-166 62q-57 62 -57 175z" />
    <glyph glyph-name=".notdef" horiz-adv-x="993" 
 />
    <glyph glyph-name=".null" horiz-adv-x="0" 
 />
    <glyph glyph-name="nonmarkingreturn" horiz-adv-x="681" 
 />
    <glyph glyph-name="space" unicode=" " horiz-adv-x="364" 
 />
    <glyph glyph-name="exclam" unicode="!" horiz-adv-x="471" 
d="M213 254h47q39 0 54 -16t16 -56v-108q0 -42 -16 -58t-54 -16h-47q-41 0 -56 16t-16 58v108q-1 40 15 56t57 16zM137 1423h197v-612l-21 -375h-155l-21 375v612z" />
    <glyph glyph-name="quotedbl" unicode="&#x22;" horiz-adv-x="608" 
d="M498 971h-131l-13 442h156zM244 971h-133l-11 442h156z" />
    <glyph glyph-name="numbersign" unicode="#" horiz-adv-x="1150" 
d="M735 909h-264l-49 -354h264zM887 909l-49 -354h184l-25 -125h-176l-61 -430h-152l62 430h-264l-62 -430h-151l61 430h-195l23 125h188l49 354h-190l23 125h186l53 379h152l-54 -379h265l53 379h151l-53 -379h187l-25 -125h-180z" />
    <glyph glyph-name="dollar" unicode="$" horiz-adv-x="937" 
d="M510 594l-31 -428q109 2 144 40t35 154t-28 158q-26 42 -91 66zM289 1074q0 -116 28 -162q29 -44 99 -68l28 -10l27 421q-109 -1 -145 -33t-37 -148zM864 365q0 -236 -86 -313t-313 -77l-16 -231h-99l17 233q-137 8 -271 39l15 158l270 -8l35 461l-105 37
q-123 41 -175 138q-52 98 -52 242t20 218t72 112t118 51q65 12 175 13h16l13 196h98l-14 -200q125 -6 243 -39l-14 -150q-52 0 -240 8l-30 -454l92 -33q129 -43 180 -139t51 -262z" />
    <glyph glyph-name="percent" unicode="%" horiz-adv-x="1490" 
d="M1148 694q-76 0 -102 -62t-26 -232t27 -234t101 -64t102 65t28 233t-28 232q-28 62 -102 62zM1149 819q152 0 213 -96q61 -97 61 -325t-61 -323t-213 -95t-213 95q-62 95 -62 323t62 324t213 97zM469 1018q1 170 -27 234t-102 65q-74 0 -100 -65q-26 -64 -27 -232
q0 -168 27 -233q26 -65 100 -65t102 64q28 62 27 232zM455 0h-133l710 1413h133zM66 1020q0 228 61 324t214 96t214 -95t61 -325t-61 -324q-61 -96 -214 -96t-214 96t-61 324z" />
    <glyph glyph-name="ampersand" unicode="&#x26;" horiz-adv-x="1269" 
d="M492 156q182 0 299 141v356h-281q-113 0 -155 -54q-42 -55 -42 -199q-1 -144 37 -194t142 -50zM322 737q-191 23 -191 313q0 140 23 213q43 136 213 161q74 12 215 12t249 -23l-22 -153q-77 6 -229 6t-197 -42t-45 -182t38 -186q38 -47 144 -47h275l16 252h166v-252h192
l2 -156h-194v-370q0 -72 18 -101t72 -28h111l20 -146q-78 -27 -192 -26q-174 0 -209 163q-68 -92 -151 -130t-210 -38q-184 0 -261 85t-77 296q0 346 224 371v8z" />
    <glyph glyph-name="quotesingle" unicode="'" horiz-adv-x="354" 
d="M244 971h-133l-11 442h156z" />
    <glyph glyph-name="parenleft" unicode="(" horiz-adv-x="600" 
d="M266 646q0 -700 293 -892l-24 -92q-238 106 -349 343q-110 237 -110 636t110 636q111 237 349 341l24 -92q-293 -180 -293 -880z" />
    <glyph glyph-name="parenright" unicode=")" horiz-adv-x="600" 
d="M334 646q0 698 -293 880l25 92q238 -104 348 -341t110 -636t-110 -636t-348 -343l-25 92q293 194 293 892z" />
    <glyph glyph-name="asterisk" unicode="*" horiz-adv-x="743" 
d="M670 1122l-205 -65l-27 33v51l197 94zM303 1141l-2 -51l-25 -33l-204 67l37 111zM410 1083l172 -264l-90 -69l-121 254l-121 -252l-92 69l174 262l-17 332h113z" />
    <glyph glyph-name="plus" unicode="+" horiz-adv-x="909" 
d="M825 539h-299v-357h-145v357h-299v147h297v358h147v-358h299v-147z" />
    <glyph glyph-name="comma" unicode="," horiz-adv-x="395" 
d="M172 254h55q39 0 55 -15t13 -57l2 -131q-2 -178 -74 -325l-94 24q23 115 23 250q-55 0 -56 63v119q2 40 20 56t56 16z" />
    <glyph glyph-name="hyphen" unicode="-" horiz-adv-x="712" 
d="M606 442h-500v152h500v-152z" />
    <glyph glyph-name="period" unicode="." horiz-adv-x="401" 
d="M168 254h63q39 0 55 -16t17 -56v-108q0 -42 -15 -58t-57 -16h-63q-39 0 -54 16t-16 58v108q0 40 16 56t54 16z" />
    <glyph glyph-name="slash" unicode="/" horiz-adv-x="876" 
d="M193 -137h-158l649 1550h160z" />
    <glyph glyph-name="zero" unicode="0" horiz-adv-x="1017" 
d="M508 1262q-123 0 -170 -124t-47 -431t47 -431t170 -124t170 122t47 432t-47 433t-170 123zM509 1440q228 0 321 -169q94 -169 94 -564t-94 -565t-321 -169q-228 0 -322 169q-93 168 -93 564t93 565q94 169 322 169z" />
    <glyph glyph-name="one" unicode="1" horiz-adv-x="710" 
d="M537 0h-203v1094q0 74 10 127l-264 -105l-25 154l279 143h203v-1413z" />
    <glyph glyph-name="two" unicode="2" horiz-adv-x="935" 
d="M459 1438q180 0 269 -64t89 -246q0 -134 -40 -244t-150 -261l-297 -433q72 8 180 9h344v-199h-768v129q0 41 29 86l295 444q208 280 204 457q-2 88 -43 115q-88 58 -467 -4l-10 159q185 52 365 52z" />
    <glyph glyph-name="three" unicode="3" horiz-adv-x="925" 
d="M450 1440q178 0 262 -73t85 -241q0 -168 -36 -258t-126 -112v-8q104 -23 146 -110t46 -245q4 -219 -82 -319t-268 -100t-399 36l10 166q206 -20 322 -20t167 56q50 56 50 192t-41 197q-41 60 -156 61h-209v159h209q106 1 140 63t32 183t-40 157t-166 36t-285 -17l-13 160
q174 37 352 37z" />
    <glyph glyph-name="four" unicode="4" horiz-adv-x="1036" 
d="M973 502v-146l-146 -20h-6v-336h-192v336h-434q-80 0 -119 73t-8 158l301 846h198l-288 -831q-27 -80 36 -80h314v409l35 230h157v-639h152z" />
    <glyph glyph-name="five" unicode="5" horiz-adv-x="897" 
d="M817 424q0 -449 -381 -449q-172 0 -362 52l20 166q162 -35 294 -35t178 61t49 196t-21 177q-24 41 -49 64t-97 33q-73 11 -149 20l-104 10q-33 2 -54 26q-20 25 -20 62l29 606h632l-6 -176h-465l-12 -352l137 -15q211 -22 296 -122t85 -324z" />
    <glyph glyph-name="six" unicode="6" horiz-adv-x="956" 
d="M490 152q128 0 160 70t32 239q0 167 -37 233t-141 66q-60 0 -106 -22t-103 -81q0 -315 34 -410t161 -95zM559 926q180 0 249 -102t69 -354q0 -251 -78 -373q-79 -122 -311 -122q-232 1 -312 145t-80 539t74 572q65 156 219 191q66 16 190 16t224 -31l-12 -150
q-306 23 -379 -25q-104 -68 -115 -425q53 67 113 93t149 26z" />
    <glyph glyph-name="seven" unicode="7" horiz-adv-x="851" 
d="M696 1413q57 0 81 -36t7 -97l-344 -1280h-204l301 1130q8 41 41 109h-533l-8 174h659z" />
    <glyph glyph-name="eight" unicode="8" horiz-adv-x="1003" 
d="M291 402q0 -146 43 -197t169 -51t166 51t40 199t-39 198q-39 49 -167 48t-170 -51q-42 -51 -42 -197zM505 815q119 0 153 44t34 180q0 135 -36 183t-153 48q-116 0 -154 -48t-38 -182t38 -180q38 -45 156 -45zM877 1061q0 -301 -164 -324v-8q104 -12 147 -107t43 -283
q0 -187 -83 -273t-316 -88t-319 85q-85 87 -85 275t42 284t147 107v8q-164 23 -164 324q0 203 80 289t298 85t296 -86t78 -288z" />
    <glyph glyph-name="nine" unicode="9" 
d="M451 651q59 0 104 23t104 84q0 315 -32 410q-33 96 -156 96t-161 -74t-38 -235t40 -233t139 -71zM854 723q0 -313 -48 -475t-139 -217t-257 -55t-279 30l14 152q83 -6 241 -6t212 92q53 92 59 368q-55 -70 -115 -98t-151 -27q-309 0 -309 461q-2 252 87 371t287 119
t285 -89t105 -340q8 -110 8 -286z" />
    <glyph glyph-name="colon" unicode=":" horiz-adv-x="417" 
d="M170 254h63q41 0 57 -16t15 -56v-108q0 -42 -15 -58t-57 -16h-63q-39 0 -54 16t-16 58v108q0 40 16 56t54 16zM170 905h63q41 0 57 -16t15 -55v-111q0 -39 -15 -55t-57 -17h-63q-39 -1 -54 15t-16 57v111q0 41 16 56t54 15z" />
    <glyph glyph-name="semicolon" unicode=";" horiz-adv-x="419" 
d="M184 254h56q39 0 54 -15t13 -57l2 -131q-2 -174 -71 -325l-95 24q20 121 21 250q-55 0 -55 63v119q2 40 19 56t56 16zM182 905h64q39 0 54 -16t15 -55v-111q0 -39 -15 -55t-54 -17h-64q-41 -1 -56 15t-15 57v111q0 41 15 56t56 15z" />
    <glyph glyph-name="less" unicode="&#x3c;" horiz-adv-x="868" 
d="M762 885l-516 -275l516 -268v-158l-684 348v156l684 354v-157z" />
    <glyph glyph-name="equal" unicode="=" horiz-adv-x="966" 
d="M856 311h-745v148h745v-148zM856 743h-745v148h745v-148z" />
    <glyph glyph-name="greater" unicode="&#x3e;" horiz-adv-x="868" 
d="M791 688v-156l-685 -348v158l519 268l-519 275v157z" />
    <glyph glyph-name="question" unicode="?" horiz-adv-x="833" 
d="M377 254h49q39 0 54 -16t16 -56v-108q0 -42 -16 -58t-54 -16h-49q-39 0 -54 16t-16 58v108q-1 40 15 56t55 16zM436 1458q340 0 340 -317q0 -155 -99 -282q-42 -54 -84 -110q-103 -137 -110 -313h-166q-4 193 83 337q36 57 74 109q93 126 96 222t-39 141t-140 45
q-160 0 -325 -18l-9 143q19 4 63 13q144 30 316 30z" />
    <glyph glyph-name="at" unicode="@" horiz-adv-x="1210" 
d="M598 582v-43q0 -127 82 -127q59 0 126 34t112 93v159l-236 -8q-51 -2 -68 -25q-16 -24 -16 -83zM596 1204h240q136 0 202 -70t66 -231v-633h-148l-18 154q-47 -66 -128 -118t-176 -52t-157 64q-61 65 -61 186v102q0 102 48 158t142 55h312v78q0 82 -26 113t-93 30h-205
q-76 0 -116 -3t-80 -20t-55 -45t-33 -100t-17 -264q0 -192 3 -270t20 -139q16 -61 34 -88t70 -45t97 -20q46 -2 142 -3h443v-147q-456 -31 -656 -14q-82 7 -150 36t-100 69q-34 40 -57 123t-27 179q-35 663 73 803q30 40 89 68t132 36t190 8z" />
    <glyph glyph-name="A" unicode="A" horiz-adv-x="1048" 
d="M692 604l-121 537q-25 106 -24 114h-45q-2 -16 -25 -114l-123 -537h338zM424 1413h201q57 0 69 -55l344 -1358h-209l-96 426h-420l-96 -426h-209l344 1358q12 55 72 55z" />
    <glyph glyph-name="B" unicode="B" horiz-adv-x="1034" 
d="M748 396q0 146 -44 201q-44 54 -165 56h-209v-493l215 -2q119 0 161 46t42 192zM520 1255h-190v-444h207q106 0 146 46t40 178t-44 176t-159 44zM950 335q0 -196 -83 -274t-287 -77q-295 0 -449 16v1413q137 17 377 17t324 -77q86 -77 86 -292q0 -154 -46 -233t-149 -91
v-8q125 -12 176 -105t51 -289z" />
    <glyph glyph-name="C" unicode="C" horiz-adv-x="956" 
d="M549 1438q186 0 328 -41l-21 -158q-137 16 -307 16q-139 0 -193 -118q-53 -119 -53 -430t53 -431t193 -118q215 0 330 22l20 -155q-141 -49 -350 -50q-254 0 -358 164q-103 163 -103 567t103 568q104 164 358 164z" />
    <glyph glyph-name="D" unicode="D" horiz-adv-x="1105" 
d="M551 160q143 0 197 119q53 119 53 428t-53 428t-197 118l-217 -2v-1087q127 -4 217 -4zM551 1432q258 0 361 -158q104 -158 104 -568t-104 -567q-104 -158 -361 -157q-195 0 -420 18v1413q221 19 420 19z" />
    <glyph glyph-name="E" unicode="E" horiz-adv-x="940" 
d="M369 -4q-117 0 -183 69t-65 185v913q0 117 66 186q67 69 182 68q344 0 491 -16l-8 -160h-451q-45 0 -60 -29t-15 -102v-283h465v-165h-465v-361q0 -75 15 -103t60 -28h451l8 -158q-147 -16 -491 -16z" />
    <glyph glyph-name="F" unicode="F" horiz-adv-x="901" 
d="M426 1241q-54 0 -74 -29t-20 -102v-305h446v-166l-446 -2v-637h-207v1153q0 125 66 195q67 70 184 69q332 0 475 -18l-12 -158h-412z" />
    <glyph glyph-name="G" unicode="G" horiz-adv-x="1044" 
d="M944 815v-815h-149l-19 135q-132 -162 -326 -162q-194 -1 -277 177t-83 580t111 556t395 154q172 0 313 -43l-16 -156q-139 16 -273 16q-134 1 -193 -37q-60 -38 -91 -158t-31 -396t43 -395t153 -119t247 118v545h196z" />
    <glyph glyph-name="H" unicode="H" horiz-adv-x="1118" 
d="M989 1413v-1413h-205v666h-450v-666h-203v1413h203v-571h450v571h205z" />
    <glyph glyph-name="I" unicode="I" horiz-adv-x="462" 
d="M334 0h-203v1413h203v-1413z" />
    <glyph glyph-name="J" unicode="J" horiz-adv-x="577" 
d="M453 1413v-1104q-1 -159 -61 -243t-171 -84t-180 26l22 148h76q111 0 111 143v1114h203z" />
    <glyph glyph-name="K" unicode="K" horiz-adv-x="1005" 
d="M334 0h-203v1413h203v-434q0 -88 -15 -160h101l328 594h219l-320 -577q-25 -45 -78 -99v-6q66 -57 90 -108l328 -623h-225l-342 653h-101q14 -70 15 -145v-508z" />
    <glyph glyph-name="L" unicode="L" horiz-adv-x="856" 
d="M330 1413v-1110q0 -75 19 -103t75 -28h393l10 -158q-160 -18 -434 -18q-268 0 -268 278v1139h205z" />
    <glyph glyph-name="M" unicode="M" horiz-adv-x="1470" 
d="M1024 1413h213q78 0 82 -84l47 -1329h-199l-39 1243h-34l-189 -1005q-18 -70 -86 -70h-166q-70 0 -90 70l-190 1005h-33l-35 -1243h-199l44 1329q4 84 79 84h222q63 0 81 -70l156 -827q29 -156 35 -190h22l191 1017q18 70 88 70z" />
    <glyph glyph-name="N" unicode="N" horiz-adv-x="1183" 
d="M1055 1413v-1333q0 -80 -74 -80h-207q-68 0 -84 63l-282 963q-25 90 -58 197h-18v-197l2 -1026h-203v1333q0 80 74 80h203q70 0 86 -63l272 -938q8 -27 31 -101t32 -110h23v1212h203z" />
    <glyph glyph-name="O" unicode="O" horiz-adv-x="1112" 
d="M556 1257q-144 0 -199 -118q-54 -119 -54 -432t54 -433q55 -120 199 -118q144 0 199 118q54 118 54 432t-54 433q-55 118 -199 118zM88 707q0 413 104 573t364 160t364 -160t104 -574t-103 -573q-103 -160 -365 -160t-365 160t-103 574z" />
    <glyph glyph-name="P" unicode="P" horiz-adv-x="987" 
d="M334 713h201q106 0 146 56t40 216t-40 215t-146 55l-201 -2v-540zM518 1432q240 0 323 -94t83 -354q0 -259 -79 -353t-282 -94q-111 0 -229 14v-551h-203v1413q147 19 387 19z" />
    <glyph glyph-name="Q" unicode="Q" horiz-adv-x="1116" 
d="M430 -209l51 125q209 -94 480 -139l-66 -205q-217 55 -465 219zM558 1257q-144 0 -199 -118q-54 -119 -54 -432t54 -433q55 -120 199 -118q144 0 199 118q54 118 54 432t-54 433q-55 118 -199 118zM558 1440q260 0 364 -160t104 -574t-103 -573q-103 -160 -365 -160
t-364 160q-103 160 -104 574q0 413 104 573t364 160z" />
    <glyph glyph-name="R" unicode="R" horiz-adv-x="1034" 
d="M332 758h205q109 2 149 54t41 196q0 144 -41 196q-41 51 -149 51l-205 -2v-495zM332 582v-582h-201v1413q145 19 383 19t327 -88t89 -322q0 -172 -47 -257t-162 -103v-11q117 -43 151 -205l101 -446h-217l-90 440q-30 142 -129 142h-205z" />
    <glyph glyph-name="S" unicode="S" horiz-adv-x="937" 
d="M514 1438q158 0 309 -43l-14 -150q-231 10 -339 10q-108 1 -146 -31t-37 -150q0 -118 28 -162q29 -44 97 -68l219 -78q129 -43 180 -139t51 -262q0 -236 -87 -313t-291 -77t-388 41l13 152q289 -10 381 -9t128 40t37 158q-1 119 -27 161t-91 66l-228 80q-123 41 -175 138
q-52 98 -52 242t20 218t72 112t118 52q64 12 222 12z" />
    <glyph glyph-name="T" unicode="T" horiz-adv-x="976" 
d="M940 1231h-348v-1231h-207v1231h-348v182h903v-182z" />
    <glyph glyph-name="U" unicode="U" horiz-adv-x="1103" 
d="M983 1413v-868q0 -311 -96 -441t-331 -131q-235 0 -334 130t-99 442v868h203v-868q0 -219 49 -304t176 -85t177 86t50 303v868h205z" />
    <glyph glyph-name="V" unicode="V" horiz-adv-x="1024" 
d="M608 0h-192q-27 0 -47 16t-25 41l-324 1356h209l232 -1100q14 -49 31 -155h43q0 4 30 155l232 1100h209l-322 -1356q-18 -57 -76 -57z" />
    <glyph glyph-name="W" unicode="W" horiz-adv-x="1587" 
d="M1270 0h-221q-61 0 -76 61l-142 1039q-2 27 -11 80t-11 80h-31q-6 -31 -12 -86t-10 -74l-142 -1039q-4 -27 -26 -44t-49 -17h-222q-61 0 -75 59l-193 1354h217l129 -1077q8 -39 21 -180h35q8 90 24 180l137 1010q14 68 76 67h211q61 0 76 -67l137 -1012q16 -96 23 -178
h36q0 19 19 176l133 1081h213l-193 -1354q-14 -59 -73 -59z" />
    <glyph glyph-name="X" unicode="X" horiz-adv-x="1028" 
d="M530 655h-34l-248 -655h-219l299 731l-277 682h215l228 -602h38l228 602h219l-281 -682l301 -731h-221z" />
    <glyph glyph-name="Y" unicode="Y" horiz-adv-x="966" 
d="M584 0h-201v487l-375 926h215l207 -579q23 -53 47 -162h15q29 121 45 162l208 579h211l-372 -926v-487z" />
    <glyph glyph-name="Z" unicode="Z" horiz-adv-x="944" 
d="M868 174v-174h-790v174l565 1065h-555v174h770v-174l-565 -1065h575z" />
    <glyph glyph-name="bracketleft" unicode="[" horiz-adv-x="561" 
d="M500 1444h-152q-27 0 -26 -33v-1587q0 -33 26 -33h152v-129h-254q-109 0 -109 119v1673q0 51 31 85t78 34h254v-129z" />
    <glyph glyph-name="backslash" unicode="\" horiz-adv-x="878" 
d="M844 -137h-160l-649 1550h160z" />
    <glyph glyph-name="bracketright" unicode="]" horiz-adv-x="561" 
d="M59 1573h250q49 0 81 -34t32 -85v-1673q0 -51 -32 -85t-81 -34h-250v129h150q29 0 29 33v1587q0 33 -29 33h-150v129z" />
    <glyph glyph-name="asciicircum" unicode="^" horiz-adv-x="737" 
d="M688 803l-78 -47l-233 352h-15l-235 -352l-78 47l250 436h141z" />
    <glyph glyph-name="underscore" unicode="_" horiz-adv-x="729" 
d="M729 -150h-729v150h729v-150z" />
    <glyph glyph-name="grave" unicode="`" horiz-adv-x="555" 
d="M442 1188l-61 -92l-352 239l106 152z" />
    <glyph glyph-name="a" unicode="a" horiz-adv-x="919" 
d="M375 150q115 0 239 126v193h-262q-47 -2 -63 -33t-17 -94v-53q0 -75 25 -107t78 -32zM497 1026q167 0 241 -74t75 -256v-696h-156l-20 145q-125 -164 -305 -163q-117 0 -189 74t-71 208v105q0 119 63 185t178 64h301v78q-2 94 -32 128q-31 34 -116 34t-339 -24l-16 145
q219 47 386 47z" />
    <glyph glyph-name="b" unicode="b" horiz-adv-x="956" 
d="M676 506q0 204 -31 276t-135 72q-49 0 -94 -32t-109 -99l2 -555q91 -31 189 -28t138 83t40 283zM577 1026q159 0 231 -123t73 -396q0 -273 -81 -403q-82 -130 -308 -129q-226 0 -379 72v1387h196v-359q0 -119 -20 -219q129 170 288 170z" />
    <glyph glyph-name="c" unicode="c" horiz-adv-x="819" 
d="M471 1026q168 0 281 -51l-25 -127q-129 10 -239 10t-157 -76q-48 -76 -48 -282t48 -283q48 -76 177 -76t237 23l19 -133q-125 -55 -295 -56q-215 0 -304 118t-89 407q0 290 90 408t305 118z" />
    <glyph glyph-name="d" unicode="d" horiz-adv-x="958" 
d="M435 854q-83 0 -117 -70t-35 -277q-1 -208 33 -284t116 -76q57 0 96 24t121 97v539q-131 47 -214 47zM846 1434v-1434h-156l-14 131q-135 -156 -314 -156q-150 1 -218 133t-66 406q0 274 78 394q78 118 231 118t270 -86q-8 88 -8 193v301h197z" />
    <glyph glyph-name="e" unicode="e" horiz-adv-x="899" 
d="M464 858q-100 0 -140 -61t-41 -240h286q61 0 62 133q2 92 -32 130q-35 38 -135 38zM496 141q106 0 295 25l18 -131q-121 -59 -336 -59t-306 118q-91 119 -91 409q0 291 90 407t290 116t286 -84t85 -252q2 -137 -50 -212t-152 -75h-340q10 -158 58 -210q47 -52 153 -52z
" />
    <glyph glyph-name="f" unicode="f" horiz-adv-x="653" 
d="M506 1307q-68 0 -96 -35t-27 -121v-152h238v-153h-238v-846h-195v846h-147v143l147 10v175q0 147 58 221q58 73 208 73t226 -14l-16 -147h-158z" />
    <glyph glyph-name="g" unicode="g" horiz-adv-x="935" 
d="M672 -100q0 84 -25 106t-112 37l-218 37q-43 -49 -57 -85q-14 -37 -14 -109t39 -100t172 -28t174 29t41 113zM449 535q102 -1 141 37t39 134t-39 132t-141 36t-143 -36q-40 -37 -40 -131t40 -134q41 -38 143 -38zM811 707q0 -174 -79 -248t-283 -74q-82 0 -144 12
q-16 -43 -6 -93t49 -58l293 -58q121 -22 171 -90t50 -221t-88 -220t-314 -67t-317 65q-90 65 -90 228q0 91 30 141t107 99q-59 59 -54 159t63 154q-111 66 -111 256t80 262t281 72q127 0 200 -27h258l-12 -106l-113 -12q29 -66 29 -174z" />
    <glyph glyph-name="h" unicode="h" horiz-adv-x="970" 
d="M641 1026q109 0 165 -71t56 -205v-750h-196v692q0 96 -18 131t-68 35q-52 0 -112 -33t-157 -110v-715h-196v1434h196v-387q0 -109 -12 -193q182 172 342 172z" />
    <glyph glyph-name="i" unicode="i" horiz-adv-x="440" 
d="M317 0h-194v999h194v-999zM172 1425h94q55 0 56 -57v-115q0 -59 -56 -59h-94q-55 0 -55 59v115q0 57 55 57z" />
    <glyph glyph-name="j" unicode="j" horiz-adv-x="442" 
d="M319 999v-1009q0 -126 -48 -232t-132 -172l-108 86q92 139 92 318v1009h196zM176 1425h94q53 0 54 -57v-115q0 -59 -54 -59h-94q-55 0 -55 59v115q0 57 55 57z" />
    <glyph glyph-name="k" unicode="k" horiz-adv-x="876" 
d="M311 336v-336h-196v1434h196v-629q0 -78 -10 -170h80l231 364h224l-228 -362q-18 -33 -65 -74v-4q41 -35 65 -86l254 -473h-223l-258 492h-80q10 -88 10 -156z" />
    <glyph glyph-name="l" unicode="l" horiz-adv-x="516" 
d="M408 162h67l25 -154q-54 -26 -162 -26t-165 68q-56 69 -56 194v1190h196l-2 -1145q0 -127 97 -127z" />
    <glyph glyph-name="m" unicode="m" horiz-adv-x="1445" 
d="M633 692q4 166 -98 166q-50 0 -92 -29t-134 -114v-715h-194v999h161l11 -149q157 176 319 176t203 -168q153 168 307 168q109 0 165 -71t56 -205v-750h-194v692q-3 92 -23 129t-79 37t-122 -57q-24 -20 -98 -86v-715h-188v692z" />
    <glyph glyph-name="n" unicode="n" horiz-adv-x="970" 
d="M641 1026q109 0 165 -71t56 -205v-750h-196v692q0 96 -18 131t-68 35t-110 -34t-161 -111l2 -713h-196v999h168l10 -149q182 176 348 176z" />
    <glyph glyph-name="o" unicode="o" horiz-adv-x="948" 
d="M475 858q-113 0 -153 -75t-39 -283q0 -208 40 -285q41 -76 153 -76t152 76t40 285q0 210 -40 284t-153 74zM475 1026q217 0 306 -120t89 -408t-89 -406q-89 -119 -306 -119t-308 120t-91 406q0 287 91 407t308 120z" />
    <glyph glyph-name="p" unicode="p" horiz-adv-x="978" 
d="M542 147q82 0 118 70t36 274q0 203 -32 283t-107 80q-98 0 -248 -145v-508q151 -54 233 -54zM629 1026q272 0 272 -532q0 -281 -78 -400q-79 -119 -239 -119t-281 97q8 -100 6 -199v-281h-194v1407h161l15 -149q55 78 151 127t187 49z" />
    <glyph glyph-name="q" unicode="q" 
d="M281 500q1 -200 29 -277q28 -76 116 -76q60 0 108 29t113 90v565q-94 31 -193 27t-136 -81t-37 -277zM461 1026q87 0 199 -19t184 -55v-1360h-197l-2 328q0 117 17 199q-141 -145 -304 -146q-284 0 -282 525q0 272 82 400t303 128z" />
    <glyph glyph-name="r" unicode="r" horiz-adv-x="679" 
d="M578 840q-52 0 -108 -25t-159 -86v-729h-196v999h153l19 -149q172 176 329 176h39l-20 -186h-57z" />
    <glyph glyph-name="s" unicode="s" horiz-adv-x="851" 
d="M401 858q-77 0 -107 -16t-30 -78t14 -89q14 -26 31 -34q16 -8 64 -25l217 -69q104 -33 148 -93t44 -188q0 -176 -81 -232t-269 -56t-344 28l12 148q80 -10 242 -10t206 23q44 24 44 96t-34 93q-33 21 -85 37l-211 70q-104 33 -146 96t-42 209t71 203t265 54t346 -34
l-15 -143q-262 10 -340 10z" />
    <glyph glyph-name="t" unicode="t" horiz-adv-x="663" 
d="M381 846v-557q0 -72 20 -100t76 -27h111l22 -154q-80 -26 -196 -26q-225 1 -228 280v584h-149v143l149 10v293h195v-293h235v-153h-235z" />
    <glyph glyph-name="u" unicode="u" 
d="M840 999v-999h-158l-14 133q-170 -160 -334 -160q-223 0 -223 277v749h196v-692q-1 -92 19 -128t77 -36q86 0 242 131v725h195z" />
    <glyph glyph-name="v" unicode="v" horiz-adv-x="899" 
d="M537 0h-175q-51 0 -63 49l-279 950h209l168 -688q25 -90 41 -172h23q16 83 41 172l170 688h209l-279 -950q-20 -49 -65 -49z" />
    <glyph glyph-name="w" unicode="w" horiz-adv-x="1374" 
d="M1059 0h-180q-27 0 -51 17t-25 46l-84 658q-14 125 -23 160h-18q-16 -106 -23 -160l-84 -658q-3 -29 -25 -46t-52 -17h-175q-61 0 -73 55l-213 944h200l136 -720q16 -102 22 -154h21q4 27 13 78t13 76l86 659q2 27 22 44t48 17h188q29 0 48 -17t22 -46l84 -657
q2 -15 12 -69t15 -85h22q6 78 21 154l135 720h200l-213 -944q-10 -55 -69 -55z" />
    <glyph glyph-name="x" unicode="x" horiz-adv-x="892" 
d="M461 442h-25l-200 -442h-211l251 516l-233 483h211l180 -403h29l178 403h209l-234 -483l252 -516h-209z" />
    <glyph glyph-name="y" unicode="y" horiz-adv-x="894" 
d="M360 0q-51 0 -67 51l-273 948h211l177 -727q20 -76 26 -122h23q6 22 17 66t15 56l175 727h210l-296 -1046q-46 -158 -146 -264t-260 -109l-18 131q178 68 237 252l12 37h-43z" />
    <glyph glyph-name="z" unicode="z" horiz-adv-x="856" 
d="M778 162v-162h-700v162l479 676h-473v161h688v-161l-477 -676h483z" />
    <glyph glyph-name="braceleft" unicode="{" horiz-adv-x="548" 
d="M483 1448q-81 0 -109 -37t-28 -129v-354q2 -128 -32 -182t-128 -74q96 -35 130 -87t36 -161v-473q0 -92 30 -128t107 -36v-125q-324 -31 -323 275v518q0 92 -40 115q-13 9 -58 32v139q61 25 75 47t15 109v401q-1 306 325 275v-125z" />
    <glyph glyph-name="bar" unicode="|" horiz-adv-x="419" 
d="M279 -346h-140v1945h140v-1945z" />
    <glyph glyph-name="braceright" unicode="}" horiz-adv-x="550" 
d="M68 1448v125q326 31 325 -275v-401q1 -88 15 -110t75 -46v-139q-45 -23 -59 -32q-39 -25 -39 -115v-518q0 -305 -324 -275v125q78 0 108 36t30 128v473q2 109 35 161q34 52 131 87q-94 20 -128 74t-32 182v354q1 92 -29 129t-108 37z" />
    <glyph glyph-name="asciitilde" unicode="~" horiz-adv-x="862" 
d="M649 709h96q17 -125 -21 -191t-104 -62t-188 58q-124 53 -158 58t-47 -19q-12 -25 -12 -92h-96q-15 127 23 195t100 63q62 -4 185 -57q124 -54 161 -60t49 18t12 89z" />
    <glyph glyph-name="uni00A0" unicode="&#xa0;" horiz-adv-x="364" 
 />
    <glyph glyph-name="exclamdown" unicode="&#xa1;" horiz-adv-x="446" 
d="M322 -397h-197v602l20 375h156l21 -375v-602zM201 1016h47q39 0 54 -16t15 -58v-111q0 -39 -15 -55t-54 -16h-47q-41 0 -57 15q-15 15 -15 56v111q1 42 17 58t55 16z" />
    <glyph glyph-name="cent" unicode="&#xa2;" horiz-adv-x="843" 
d="M270 726q0 -184 34 -264q34 -79 120 -97l47 706q-113 -9 -157 -85t-44 -260zM76 724q0 280 89 398t304 117h18l17 174h98l-16 -182q96 -10 164 -41l-25 -133q-76 8 -154 12l-51 -713q112 1 223 21l19 -133q-113 -47 -258 -54l-17 -190h-96l17 193q-180 14 -256 133
q-76 118 -76 398z" />
    <glyph glyph-name="sterling" unicode="&#xa3;" horiz-adv-x="952" 
d="M874 176v-176h-780v176q139 82 125 371l-6 139h-127l-2 115h123l-14 264q-8 225 68 299q77 74 237 74t338 -21l-9 -164q-119 6 -292 7q-84 0 -116 -41t-26 -158l15 -260h315l-4 -115h-307l8 -139q6 -139 -22 -223t-95 -158q39 10 117 10h454z" />
    <glyph glyph-name="currency" unicode="&#xa4;" horiz-adv-x="976" 
d="M484 434q87 0 152 85q64 85 64 203t-63 202t-151 84t-152 -84t-64 -203t64 -203t150 -84zM817 719q0 -133 -63 -236l125 -151l-86 -86l-117 143q-84 -74 -190 -74t-189 72l-115 -139l-88 92l121 147q-59 105 -59 235t63 236l-119 148l82 86l113 -141q83 73 191 73
t192 -73l117 141l84 -86l-123 -150q61 -104 61 -237z" />
    <glyph glyph-name="yen" unicode="&#xa5;" horiz-adv-x="1038" 
d="M899 668v-117h-268l-10 -25v-90h278v-117h-278v-319h-203v319h-268v117h268v90l-10 25h-258l-5 117h213l-313 745h209l211 -553q11 -29 27 -86t22 -76h14q23 92 47 162l209 553h209l-313 -745h219z" />
    <glyph glyph-name="brokenbar" unicode="&#xa6;" horiz-adv-x="423" 
d="M281 -346h-140v819h140v-819zM281 780h-140v819h140v-819z" />
    <glyph glyph-name="section" unicode="&#xa7;" horiz-adv-x="905" 
d="M813 -66q0 -168 -82 -220t-263 -52t-364 25l17 155q176 -14 261 -14t113 2q29 2 57 13q48 19 51 90t-21 111t-72 77l-242 178q-122 77 -154 197t9 288h139q-6 -134 18 -206t101 -125l268 -197q53 -43 83 -77q30 -35 56 -99t25 -146zM94 1169q0 159 82 215t258 56t367 -25
l-13 -155q-142 12 -254 12t-145 -4t-59 -29t-28 -83q-1 -58 24 -96t75 -73l242 -180q123 -78 154 -199t-13 -289h-139q6 135 -18 209q-25 74 -103 125l-266 199q-82 66 -123 132t-41 185z" />
    <glyph glyph-name="dieresis" unicode="&#xa8;" horiz-adv-x="692" 
d="M463 1427h63q53 0 54 -55v-110q0 -55 -54 -56h-63q-53 0 -53 56v110q0 55 53 55zM168 1427h65q51 0 52 -55v-110q0 -55 -52 -56h-65q-49 0 -49 56v110q0 55 49 55z" />
    <glyph glyph-name="copyright" unicode="&#xa9;" horiz-adv-x="1366" 
d="M690 1157q133 0 225 -29l-14 -112q-95 8 -203 8t-143 -67t-35 -247t35 -246q35 -67 133 -67q150 0 232 13l12 -113q-98 -33 -258 -33t-233 100t-72 347q0 246 72 346q73 100 249 100zM683 1335q-206 0 -350 -180q-145 -180 -145 -448q0 -269 144 -449t351 -180
q206 0 350 180q145 180 145 448t-144 449q-144 180 -351 180zM684 1440q252 0 424 -208t172 -525t-172 -525t-424 -209q-252 0 -425 209q-173 208 -173 524t173 525t425 209z" />
    <glyph glyph-name="ordfeminine" unicode="&#xaa;" horiz-adv-x="727" 
d="M311 672q76 0 166 86v125l-174 -17q-41 -2 -55 -20t-15 -58v-30q1 -46 19 -66t59 -20zM406 1247q112 0 163 -52t52 -175v-461h-117l-15 115q-94 -129 -227 -129q-78 0 -124 47t-46 133v78q0 78 44 122t120 44h221v51q0 102 -94 102q-74 0 -250 -16l-16 111q177 30 289 30
z" />
    <glyph glyph-name="guillemotleft" unicode="&#xab;" horiz-adv-x="833" 
d="M756 874l-189 -360l191 -367l-105 -69l-264 414v45l262 405zM434 874l-188 -360l190 -367l-104 -69l-264 414v45l262 405z" />
    <glyph glyph-name="logicalnot" unicode="&#xac;" horiz-adv-x="974" 
d="M856 684v-414h-147v265h-598v149h745z" />
    <glyph glyph-name="softhyphen" unicode="&#xad;" horiz-adv-x="708" 
d="M606 442h-500v152h500v-152z" />
    <glyph glyph-name="registered" unicode="&#xae;" horiz-adv-x="888" 
d="M367 1004h90q49 2 67 19t18 69t-16 70q-18 17 -69 18h-90v-176zM459 938h-92v-213h-86v520q55 6 161 6q106 -1 147 -33q40 -32 40 -104q-1 -72 -21 -104q-20 -31 -71 -39v-4q49 -8 63 -78l45 -164h-92l-37 160q-16 53 -57 53zM139 982q0 -162 90 -276t216 -114t215 115
q90 115 90 277t-90 274q-90 114 -215 114q-126 0 -216 -114t-90 -276zM444 526q-154 0 -262 133t-106 323q0 190 107 322q107 134 261 134t262 -133t108 -323t-108 -323t-262 -133z" />
    <glyph glyph-name="macron" unicode="&#xaf;" horiz-adv-x="661" 
d="M571 1241h-479v145h479v-145z" />
    <glyph glyph-name="degree" unicode="&#xb0;" horiz-adv-x="583" 
d="M291 1034q41 0 71 41t29 103t-29 103q-28 40 -70 40t-71 -40t-29 -102t29 -104q29 -41 70 -41zM291 1440q89 0 155 -77t66 -185t-65 -186q-65 -79 -155 -79t-155 79q-65 78 -65 186t64 185q65 77 155 77z" />
    <glyph glyph-name="plusminus" unicode="&#xb1;" horiz-adv-x="964" 
d="M111 281h743v-148h-743v148zM854 813v-147h-299v-269h-147v269h-297v147h297v268h149v-268h297z" />
    <glyph glyph-name="twosuperior" unicode="&#xb2;" horiz-adv-x="714" 
d="M349 1599q128 0 190 -39q61 -40 61 -161t-127 -285l-188 -244q39 6 104 7l234 -3l-2 -137h-531v86q0 35 25 66l186 244q129 160 131 251q4 51 -22 68q-28 16 -110 16t-198 -14l-6 117q125 28 253 28z" />
    <glyph glyph-name="threesuperior" unicode="&#xb3;" horiz-adv-x="684" 
d="M347 1602q124 0 178 -42q55 -42 55 -146t-27 -158t-96 -66v-4q79 -12 109 -64t32 -168q2 -114 -56 -174t-182 -59q-124 0 -274 22l6 115q115 -8 204 -8t119 31q29 31 29 102t-25 104q-26 33 -95 33h-142v115l142 2q68 0 90 35t20 96q0 61 -26 83t-124 22t-178 -7l-6 113
q123 23 247 23z" />
    <glyph glyph-name="acute" unicode="&#xb4;" horiz-adv-x="552" 
d="M500 1335l-353 -239l-61 92l307 299z" />
    <glyph glyph-name="paragraph" unicode="&#xb6;" horiz-adv-x="980" 
d="M567 1438q160 0 264 -35v-1403h-145v1305q-61 6 -113 6v-1741h-143v842q-201 24 -289 142t-88 384q-1 266 117 384q118 116 397 116z" />
    <glyph glyph-name="periodcentered" unicode="&#xb7;" horiz-adv-x="417" 
d="M178 655h64q39 0 54 -16t15 -55v-111q0 -39 -15 -55t-54 -17h-64q-39 1 -55 17t-17 55v111q0 39 16 55t56 16z" />
    <glyph glyph-name="cedilla" unicode="&#xb8;" horiz-adv-x="401" 
d="M117 -178l20 92q121 12 169 -14t46 -119q-2 -133 -89 -204t-214 -50l33 104q53 -4 92 35t41 85t-17 58q-20 11 -81 13z" />
    <glyph glyph-name="onesuperior" unicode="&#xb9;" horiz-adv-x="493" 
d="M381 737h-150v627q0 55 5 84l-175 -57l-18 108l188 86h150v-848z" />
    <glyph glyph-name="ordmasculine" unicode="&#xba;" horiz-adv-x="731" 
d="M366 666q74 0 102 47t28 181t-28 182t-102 48q-75 0 -104 -49t-29 -181t29 -180t104 -48zM84 894q0 194 62 274t220 79q157 0 220 -80q63 -79 63 -273t-63 -272t-220 -79q-157 0 -220 78q-62 79 -62 273z" />
    <glyph glyph-name="guillemotright" unicode="&#xbb;" horiz-adv-x="833" 
d="M766 537v-45l-264 -414l-105 69l191 367l-189 360l105 68zM444 537v-45l-264 -414l-104 69l190 367l-188 360l104 68z" />
    <glyph glyph-name="onequarter" unicode="&#xbc;" horiz-adv-x="1449" 
d="M1309 0h-144v193h-293q-48 1 -72 37t1 102l190 516h146l-176 -492q-8 -16 0 -29t24 -14h180v236l27 135h117v-371h80v-106l-80 -12v-195zM1083 1413l-710 -1413h-135l710 1413h135zM236 565v627q0 41 6 84l-176 -57l-17 108l187 86h149v-848h-149z" />
    <glyph glyph-name="onehalf" unicode="&#xbd;" horiz-adv-x="1482" 
d="M1135 862q129 0 189 -40t60 -164t-127 -281l-186 -244q39 6 105 6l235 -2l-2 -137h-532v86q0 41 22 66l188 243q129 160 132 252q4 51 -22 67t-110 17q-84 0 -198 -14l-6 117q124 28 252 28zM356 0h-137l711 1413h137zM385 565h-149v627q0 41 6 84l-176 -57l-17 108
l187 86h149v-848z" />
    <glyph glyph-name="threequarters" unicode="&#xbe;" horiz-adv-x="1601" 
d="M1462 0h-143v193h-295q-49 1 -72 37t2 102l189 516h145l-178 -492q-4 -16 3 -29t24 -14h182v236l27 135h116v-371h80v-106l-80 -12v-195zM1247 1413l-710 -1413h-138l711 1413h137zM354 545q-126 0 -272 22l6 115q115 -8 203 -8t119 31q30 31 30 101t-24 104
q-25 34 -97 34l-141 4v107l141 6q68 2 90 36q21 34 21 94t-27 83q-42 35 -301 16l-6 113q115 20 243 20t182 -42t54 -144t-26 -157q-27 -54 -98 -66v-4q79 -12 111 -64t34 -168q2 -114 -57 -174t-185 -59z" />
    <glyph glyph-name="questiondown" unicode="&#xbf;" horiz-adv-x="825" 
d="M456 -264q112 0 310 18l8 -141q-29 -5 -61 -13q-125 -32 -318 -32q-342 0 -342 317q0 153 100 282q42 55 85 111q105 137 112 314h164q4 -204 -82 -339q-37 -57 -74 -109q-93 -129 -96 -224q-4 -94 39 -139t155 -45zM410 1026h47q39 0 54 -15t15 -57v-110q0 -42 -15 -58
t-54 -16h-47q-39 0 -55 16q-15 16 -15 58v110q0 39 15 56q16 16 55 16z" />
    <glyph glyph-name="Agrave" unicode="&#xc0;" horiz-adv-x="1048" 
d="M692 604l-121 537q-25 106 -24 114h-45q-2 -16 -25 -114l-123 -537h338zM424 1413h201q57 0 69 -55l344 -1358h-209l-96 426h-420l-96 -426h-209l344 1358q12 55 72 55zM557 1487l-352 239l106 152l307 -299z" />
    <glyph glyph-name="Aacute" unicode="&#xc1;" horiz-adv-x="1048" 
d="M692 604l-121 537q-25 106 -24 114h-45q-2 -16 -25 -114l-123 -537h338zM424 1413h201q57 0 69 -55l344 -1358h-209l-96 426h-420l-96 -426h-209l344 1358q12 55 72 55zM463 1487l-62 92l308 299l106 -152z" />
    <glyph glyph-name="Acircumflex" unicode="&#xc2;" horiz-adv-x="1048" 
d="M692 604l-121 537q-25 106 -24 114h-45q-2 -16 -25 -114l-123 -537h338zM424 1413h201q57 0 69 -55l344 -1358h-209l-96 426h-420l-96 -426h-209l344 1358q12 55 72 55zM303 1493l-63 84l215 264h143l215 -264l-68 -84l-213 197h-14z" />
    <glyph glyph-name="Atilde" unicode="&#xc3;" horiz-adv-x="1048" 
d="M692 604l-121 537q-25 106 -24 114h-45q-2 -16 -25 -114l-123 -537h338zM424 1413h201q57 0 69 -55l344 -1358h-209l-96 426h-420l-96 -426h-209l344 1358q12 55 72 55zM340 1563h-88q-12 123 27 187t100 58t140 -54q148 -90 179 -39q14 24 15 83h86q14 -118 -25 -182
t-103 -58q-65 6 -147 57q-82 50 -120 56t-51 -19q-13 -26 -13 -89z" />
    <glyph glyph-name="Adieresis" unicode="&#xc4;" horiz-adv-x="1048" 
d="M692 604l-121 537q-25 106 -24 114h-45q-2 -16 -25 -114l-123 -537h338zM424 1413h201q57 0 69 -55l344 -1358h-209l-96 426h-420l-96 -426h-209l344 1358q12 55 72 55zM705 1567h-64q-53 0 -53 55v111q0 55 53 55h64q53 0 53 -55v-111q0 -55 -53 -55zM412 1567h-66
q-49 0 -49 55v111q0 55 49 55h66q51 0 51 -55v-111q0 -55 -51 -55z" />
    <glyph glyph-name="Aring" unicode="&#xc5;" horiz-adv-x="1048" 
d="M692 604l-121 537q-25 106 -24 114h-45q-2 -16 -25 -114l-123 -537h338zM424 1413h201q57 0 69 -55l344 -1358h-209l-96 426h-420l-96 -426h-209l344 1358q12 55 72 55zM526 1800q-36 0 -60 -34t-24 -87t25 -85t61 -32t60 32t24 86t-24 87q-25 33 -62 33zM527 1462
q-79 0 -133 62t-54 155q0 91 54 155t132 64t133 -63t55 -155t-54 -156q-54 -62 -133 -62z" />
    <glyph glyph-name="AE" unicode="&#xc6;" horiz-adv-x="1519" 
d="M733 612v518q0 96 45 146h-16q-43 -35 -80 -125l-227 -539h278zM938 -4q-92 0 -148 72t-57 182v192h-350l-186 -442h-211l518 1182q59 137 148 185t280 48q324 0 510 -14l-10 -162h-410q-45 0 -72 -37t-26 -100v-273l446 -2v-165l-446 -3v-356q0 -71 22 -101t76 -30h410
l10 -160q-160 -16 -504 -16z" />
    <glyph glyph-name="Ccedilla" unicode="&#xc7;" horiz-adv-x="956" 
d="M428 -203l21 92q121 11 169 -15t46 -118q-2 -134 -90 -204t-214 -50l33 105q53 -4 92 35t41 85t-17 57q-20 11 -81 13zM549 1438q186 0 328 -41l-21 -158q-137 16 -307 16q-139 0 -193 -118q-53 -119 -53 -430t53 -431t193 -118q215 0 330 22l20 -155q-141 -49 -350 -50
q-254 0 -358 164q-103 163 -103 567t103 568q104 164 358 164z" />
    <glyph glyph-name="Egrave" unicode="&#xc8;" horiz-adv-x="940" 
d="M369 -4q-117 0 -183 69t-65 185v913q0 117 66 186q67 69 182 68q344 0 491 -16l-8 -160h-451q-45 0 -60 -29t-15 -102v-283h465v-165h-465v-361q0 -75 15 -103t60 -28h451l8 -158q-147 -16 -491 -16zM547 1528l-352 239l106 152l307 -299z" />
    <glyph glyph-name="Eacute" unicode="&#xc9;" horiz-adv-x="940" 
d="M369 -4q-117 0 -183 69t-65 185v913q0 117 66 186q67 69 182 68q344 0 491 -16l-8 -160h-451q-45 0 -60 -29t-15 -102v-283h465v-165h-465v-361q0 -75 15 -103t60 -28h451l8 -158q-147 -16 -491 -16zM453 1528l-62 92l307 299l107 -152z" />
    <glyph glyph-name="Ecircumflex" unicode="&#xca;" horiz-adv-x="940" 
d="M369 -4q-117 0 -183 69t-65 185v913q0 117 66 186q67 69 182 68q344 0 491 -16l-8 -160h-451q-45 0 -60 -29t-15 -102v-283h465v-165h-465v-361q0 -75 15 -103t60 -28h451l8 -158q-147 -16 -491 -16zM293 1532l-64 84l215 264h144l215 -264l-68 -84l-213 197h-14z" />
    <glyph glyph-name="Edieresis" unicode="&#xcb;" horiz-adv-x="940" 
d="M369 -4q-117 0 -183 69t-65 185v913q0 117 66 186q67 69 182 68q344 0 491 -16l-8 -160h-451q-45 0 -60 -29t-15 -102v-283h465v-165h-465v-361q0 -75 15 -103t60 -28h451l8 -158q-147 -16 -491 -16zM694 1608h-63q-53 0 -53 55v111q0 55 53 55h63q53 0 54 -55v-111
q-1 -55 -54 -55zM401 1608h-65q-49 0 -49 55v111q0 55 49 55h65q51 0 52 -55v-111q-1 -55 -52 -55z" />
    <glyph glyph-name="Igrave" unicode="&#xcc;" horiz-adv-x="462" 
d="M334 0h-203v1413h203v-1413zM324 1579l-62 -92l-352 239l106 152z" />
    <glyph glyph-name="Iacute" unicode="&#xcd;" horiz-adv-x="462" 
d="M334 0h-203v1413h203v-1413zM520 1726l-352 -239l-62 92l308 299z" />
    <glyph glyph-name="Icircumflex" unicode="&#xce;" horiz-adv-x="462" 
d="M334 0h-203v1413h203v-1413zM520 1577l-67 -84l-213 197h-15l-215 -197l-63 84l215 264h143z" />
    <glyph glyph-name="Idieresis" unicode="&#xcf;" horiz-adv-x="462" 
d="M334 0h-203v1413h203v-1413zM346 1788h64q53 0 53 -55v-111q0 -55 -53 -55h-64q-53 0 -53 55v111q0 55 53 55zM51 1788h66q51 0 51 -55v-111q0 -55 -51 -55h-66q-49 0 -49 55v111q0 55 49 55z" />
    <glyph glyph-name="Eth" unicode="&#xd0;" horiz-adv-x="1114" 
d="M344 805h221v-113h-221v-528q127 -4 217 -4q143 0 197 119q53 119 53 428t-53 428t-197 118l-217 -2v-446zM561 1432q257 0 361 -158t104 -568t-103 -567q-103 -158 -362 -157q-197 0 -422 18v692h-104v113h104v608q225 19 422 19z" />
    <glyph glyph-name="Ntilde" unicode="&#xd1;" horiz-adv-x="1183" 
d="M1055 1413v-1333q0 -80 -74 -80h-207q-68 0 -84 63l-282 963q-25 90 -58 197h-18v-197l2 -1026h-203v1333q0 80 74 80h203q70 0 86 -63l272 -938q8 -27 31 -101t32 -110h23v1212h203zM778 1798h86q14 -118 -24 -182t-104 -58q-64 6 -146 57q-144 88 -171 37
q-13 -26 -13 -89h-89q-12 123 27 187q38 64 100 58t141 -54q148 -90 179 -39q14 24 14 83z" />
    <glyph glyph-name="Ograve" unicode="&#xd2;" horiz-adv-x="1112" 
d="M556 1257q-144 0 -199 -118q-54 -119 -54 -432t54 -433q55 -120 199 -118q144 0 199 118q54 118 54 432t-54 433q-55 118 -199 118zM88 707q0 413 104 573t364 160t364 -160t104 -574t-103 -573q-103 -160 -365 -160t-365 160t-103 574zM645 1579l-61 -92l-353 239
l107 152z" />
    <glyph glyph-name="Oacute" unicode="&#xd3;" horiz-adv-x="1112" 
d="M556 1257q-144 0 -199 -118q-54 -119 -54 -432t54 -433q55 -120 199 -118q144 0 199 118q54 118 54 432t-54 433q-55 118 -199 118zM88 707q0 413 104 573t364 160t364 -160t104 -574t-103 -573q-103 -160 -365 -160t-365 160t-103 574zM844 1726l-352 -239l-62 92
l307 299z" />
    <glyph glyph-name="Ocircumflex" unicode="&#xd4;" horiz-adv-x="1112" 
d="M556 1257q-144 0 -199 -118q-54 -119 -54 -432t54 -433q55 -120 199 -118q144 0 199 118q54 118 54 432t-54 433q-55 118 -199 118zM88 707q0 413 104 573t364 160t364 -160t104 -574t-103 -573q-103 -160 -365 -160t-365 160t-103 574zM842 1577l-68 -84l-213 197h-14
l-215 -197l-64 84l215 264h144z" />
    <glyph glyph-name="Otilde" unicode="&#xd5;" horiz-adv-x="1112" 
d="M556 1257q-144 0 -199 -118q-54 -119 -54 -432t54 -433q55 -120 199 -118q144 0 199 118q54 118 54 432t-54 433q-55 118 -199 118zM88 707q0 413 104 573t364 160t364 -160t104 -574t-103 -573q-103 -160 -365 -160t-365 160t-103 574zM739 1798h86q13 -118 -25 -182
t-102 -58t-147 57q-144 88 -171 37q-13 -26 -13 -89h-88q-12 123 26 187q39 64 101 58t140 -54q148 -90 179 -39q14 24 14 83z" />
    <glyph glyph-name="Odieresis" unicode="&#xd6;" horiz-adv-x="1112" 
d="M556 1257q-144 0 -199 -118q-54 -119 -54 -432t54 -433q55 -120 199 -118q144 0 199 118q54 118 54 432t-54 433q-55 118 -199 118zM88 707q0 413 104 573t364 160t364 -160t104 -574t-103 -573q-103 -160 -365 -160t-365 160t-103 574zM670 1788h63q53 0 53 -55v-111
q0 -55 -53 -55h-63q-53 0 -54 55v111q1 55 54 55zM375 1788h65q51 0 52 -55v-111q0 -55 -52 -55h-65q-49 0 -49 55v111q0 55 49 55z" />
    <glyph glyph-name="multiply" unicode="&#xd7;" horiz-adv-x="800" 
d="M506 594l244 -270l-95 -117l-249 276l-250 -276l-97 117l246 270l-246 270l97 117l250 -276l249 276l95 -117z" />
    <glyph glyph-name="Oslash" unicode="&#xd8;" horiz-adv-x="1110" 
d="M557 156q143 0 198 118q54 118 54 418t-43 420l-348 -917q51 -39 139 -39zM303 722q0 -298 43 -419l348 916q-51 39 -137 38q-145 0 -200 -118q-54 -119 -54 -417zM1024 707q0 -414 -103 -574t-364 -160q-125 0 -211 33l-47 -127l-98 43l53 139q-88 76 -127 231t-39 415
q0 413 103 573t366 160q123 0 209 -33l49 131l96 -41l-55 -143q90 -76 129 -231t39 -416z" />
    <glyph glyph-name="Ugrave" unicode="&#xd9;" horiz-adv-x="1103" 
d="M983 1413v-868q0 -311 -96 -441t-331 -131q-235 0 -334 130t-99 442v868h203v-868q0 -219 49 -304t176 -85t177 86t50 303v868h205zM645 1579l-61 -92l-353 239l107 152z" />
    <glyph glyph-name="Uacute" unicode="&#xda;" horiz-adv-x="1103" 
d="M983 1413v-868q0 -311 -96 -441t-331 -131q-235 0 -334 130t-99 442v868h203v-868q0 -219 49 -304t176 -85t177 86t50 303v868h205zM844 1726l-352 -239l-62 92l307 299z" />
    <glyph glyph-name="Ucircumflex" unicode="&#xdb;" horiz-adv-x="1103" 
d="M983 1413v-868q0 -311 -96 -441t-331 -131q-235 0 -334 130t-99 442v868h203v-868q0 -219 49 -304t176 -85t177 86t50 303v868h205zM842 1577l-68 -84l-213 197h-14l-215 -197l-64 84l215 264h144z" />
    <glyph glyph-name="Udieresis" unicode="&#xdc;" horiz-adv-x="1103" 
d="M983 1413v-868q0 -311 -96 -441t-331 -131q-235 0 -334 130t-99 442v868h203v-868q0 -219 49 -304t176 -85t177 86t50 303v868h205zM670 1788h63q53 0 53 -55v-111q0 -55 -53 -55h-63q-53 0 -54 55v111q1 55 54 55zM375 1788h65q51 0 52 -55v-111q0 -55 -52 -55h-65
q-49 0 -49 55v111q0 55 49 55z" />
    <glyph glyph-name="Yacute" unicode="&#xdd;" horiz-adv-x="966" 
d="M584 0h-201v487l-375 926h215l207 -579q23 -53 47 -162h15q29 121 45 162l208 579h211l-372 -926v-487zM420 1487l-62 92l308 299l106 -152z" />
    <glyph glyph-name="Thorn" unicode="&#xde;" horiz-adv-x="991" 
d="M334 438h201q109 0 147 56t39 221q0 164 -39 220t-147 56l-201 -2v-551zM539 1167q221 0 303 -94t82 -358q0 -265 -79 -359t-282 -94q-94 0 -229 12v-274h-203v1413h203v-248q55 2 205 2z" />
    <glyph glyph-name="germandbls" unicode="&#xdf;" horiz-adv-x="1140" 
d="M1092 260q0 -166 -71 -224q-120 -98 -501 -36l15 150q92 -10 197 -10t137 24q32 23 32 93t-20 95t-82 64l-154 98q-129 82 -129 234q0 89 32 131q32 43 43 56t52 46t71 61q68 64 68 142t-34 106t-158 29q-125 0 -166 -45t-41 -180v-1094h-197v844h-147v153l147 2v117
q0 221 90 293t306 72q216 1 301 -59q84 -60 84 -222q0 -84 -29 -150t-126 -141q-98 -75 -105 -112q-17 -76 12 -105q29 -30 90 -67l145 -97q78 -45 108 -102t30 -166z" />
    <glyph glyph-name="agrave" unicode="&#xe0;" horiz-adv-x="919" 
d="M375 150q115 0 239 126v193h-262q-47 -2 -63 -33t-17 -94v-53q0 -75 25 -107t78 -32zM497 1026q167 0 241 -74t75 -256v-696h-156l-20 145q-125 -164 -305 -163q-117 0 -189 74t-71 208v105q0 119 63 185t178 64h301v78q-2 94 -32 128q-31 34 -116 34t-339 -24l-16 145
q219 47 386 47zM479 1120l-352 240l106 151l308 -299z" />
    <glyph glyph-name="aacute" unicode="&#xe1;" horiz-adv-x="919" 
d="M375 150q115 0 239 126v193h-262q-47 -2 -63 -33t-17 -94v-53q0 -75 25 -107t78 -32zM497 1026q167 0 241 -74t75 -256v-696h-156l-20 145q-125 -164 -305 -163q-117 0 -189 74t-71 208v105q0 119 63 185t178 64h301v78q-2 94 -32 128q-31 34 -116 34t-339 -24l-16 145
q219 47 386 47zM387 1120l-61 92l307 299l106 -151z" />
    <glyph glyph-name="acircumflex" unicode="&#xe2;" horiz-adv-x="919" 
d="M375 150q115 0 239 126v193h-262q-47 -2 -63 -33t-17 -94v-53q0 -75 25 -107t78 -32zM497 1026q167 0 241 -74t75 -256v-696h-156l-20 145q-125 -164 -305 -163q-117 0 -189 74t-71 208v105q0 119 63 185t178 64h301v78q-2 94 -32 128q-31 34 -116 34t-339 -24l-16 145
q219 47 386 47zM227 1124l-63 84l215 265h143l215 -265l-67 -84l-213 197h-15z" />
    <glyph glyph-name="atilde" unicode="&#xe3;" horiz-adv-x="919" 
d="M375 150q115 0 239 126v193h-262q-47 -2 -63 -33t-17 -94v-53q0 -75 25 -107t78 -32zM497 1026q167 0 241 -74t75 -256v-696h-156l-20 145q-125 -164 -305 -163q-117 0 -189 74t-71 208v105q0 119 63 185t178 64h301v78q-2 94 -32 128q-31 34 -116 34t-339 -24l-16 145
q219 47 386 47zM262 1194h-88q-12 124 27 188t100 58t140 -54q147 -91 180 -39q14 24 14 83h86q14 -117 -25 -182q-39 -64 -103 -58q-65 6 -147 56t-120 56t-50 -19q-14 -26 -14 -89z" />
    <glyph glyph-name="adieresis" unicode="&#xe4;" horiz-adv-x="919" 
d="M375 150q115 0 239 126v193h-262q-47 -2 -63 -33t-17 -94v-53q0 -75 25 -107t78 -32zM497 1026q167 0 241 -74t75 -256v-696h-156l-20 145q-125 -164 -305 -163q-117 0 -189 74t-71 208v105q0 119 63 185t178 64h301v78q-2 94 -32 128q-31 34 -116 34t-339 -24l-16 145
q219 47 386 47zM629 1200h-64q-53 0 -53 55v111q0 55 53 55h64q53 0 53 -55v-111q0 -55 -53 -55zM336 1200h-66q-49 0 -49 55v111q0 55 49 55h66q51 0 51 -55v-111q0 -55 -51 -55z" />
    <glyph glyph-name="aring" unicode="&#xe5;" horiz-adv-x="919" 
d="M375 150q115 0 239 126v193h-262q-47 -2 -63 -33t-17 -94v-53q0 -75 25 -107t78 -32zM497 1026q167 0 241 -74t75 -256v-696h-156l-20 145q-125 -164 -305 -163q-117 0 -189 74t-71 208v105q0 119 63 185t178 64h301v78q-2 94 -32 128q-31 34 -116 34t-339 -24l-16 145
q219 47 386 47zM449 1432q-37 0 -61 -34t-24 -87t26 -85q24 -32 60 -32t60 32t25 86q-1 54 -25 87t-61 33zM637 1311q0 -93 -54 -155t-133 -62t-134 62q-54 62 -54 154t54 156t132 64t134 -64q55 -64 55 -155z" />
    <glyph glyph-name="ae" unicode="&#xe6;" horiz-adv-x="1435" 
d="M375 150q121 0 252 145q-10 70 -15 174h-260q-47 -2 -63 -33t-17 -94v-53q0 -75 25 -107t78 -32zM1112 557q57 0 57 133q0 92 -34 130q-35 38 -134 38t-141 -62q-41 -63 -43 -239h295zM1169 403h-348q7 -157 57 -209t153 -52t296 24l16 -131q-117 -59 -329 -60
q-144 -1 -230 49t-127 158q-49 -80 -132 -140t-197 -60t-185 74q-72 74 -71 208v105q0 119 63 185t178 64h301v78q0 92 -31 127q-32 35 -117 35t-339 -24l-16 145q219 47 390 47t240 -76q87 76 269 76q358 0 354 -336q0 -287 -195 -287z" />
    <glyph glyph-name="ccedilla" unicode="&#xe7;" horiz-adv-x="819" 
d="M348 -203l21 92q121 11 169 -15t46 -118q-2 -134 -89 -204t-214 -50l32 105q53 -4 91 35t41 85t-16 57q-20 11 -81 13zM471 1026q168 0 281 -51l-25 -127q-129 10 -239 10t-157 -76q-48 -76 -48 -282t48 -283q48 -76 177 -76t237 23l19 -133q-125 -55 -295 -56
q-215 0 -304 118t-89 407q0 290 90 408t305 118z" />
    <glyph glyph-name="egrave" unicode="&#xe8;" horiz-adv-x="899" 
d="M464 858q-100 0 -140 -61t-41 -240h286q61 0 62 133q2 92 -32 130q-35 38 -135 38zM496 141q106 0 295 25l18 -131q-121 -59 -336 -59t-306 118q-91 119 -91 409q0 291 90 407t290 116t286 -84t85 -252q2 -137 -50 -212t-152 -75h-340q10 -158 58 -210q47 -52 153 -52z
M485 1120l-352 240l107 151l307 -299z" />
    <glyph glyph-name="eacute" unicode="&#xe9;" horiz-adv-x="899" 
d="M464 858q-100 0 -140 -61t-41 -240h286q61 0 62 133q2 92 -32 130q-35 38 -135 38zM496 141q106 0 295 25l18 -131q-121 -59 -336 -59t-306 118q-91 119 -91 409q0 291 90 407t290 116t286 -84t85 -252q2 -137 -50 -212t-152 -75h-340q10 -158 58 -210q47 -52 153 -52z
M391 1120l-61 92l307 299l106 -151z" />
    <glyph glyph-name="ecircumflex" unicode="&#xea;" horiz-adv-x="899" 
d="M464 858q-100 0 -140 -61t-41 -240h286q61 0 62 133q2 92 -32 130q-35 38 -135 38zM496 141q106 0 295 25l18 -131q-121 -59 -336 -59t-306 118q-91 119 -91 409q0 291 90 407t290 116t286 -84t85 -252q2 -137 -50 -212t-152 -75h-340q10 -158 58 -210q47 -52 153 -52z
M231 1124l-63 84l215 265h143l215 -265l-67 -84l-213 197h-15z" />
    <glyph glyph-name="edieresis" unicode="&#xeb;" horiz-adv-x="899" 
d="M464 858q-100 0 -140 -61t-41 -240h286q61 0 62 133q2 92 -32 130q-35 38 -135 38zM496 141q106 0 295 25l18 -131q-121 -59 -336 -59t-306 118q-91 119 -91 409q0 291 90 407t290 116t286 -84t85 -252q2 -137 -50 -212t-152 -75h-340q10 -158 58 -210q47 -52 153 -52z
M633 1200h-64q-53 0 -53 55v111q0 55 53 55h64q53 0 53 -55v-111q0 -55 -53 -55zM340 1200h-66q-49 0 -49 55v111q0 55 49 55h66q51 0 51 -55v-111q0 -55 -51 -55z" />
    <glyph glyph-name="igrave" unicode="&#xec;" horiz-adv-x="442" 
d="M319 0h-196v999h196v-999zM313 1212l-61 -92l-352 240l106 151z" />
    <glyph glyph-name="iacute" unicode="&#xed;" horiz-adv-x="442" 
d="M319 0h-196v999h196v-999zM510 1360l-352 -240l-62 92l307 299z" />
    <glyph glyph-name="icircumflex" unicode="&#xee;" horiz-adv-x="442" 
d="M319 0h-196v999h196v-999zM510 1208l-68 -84l-213 197h-14l-215 -197l-63 84l215 265h143z" />
    <glyph glyph-name="idieresis" unicode="&#xef;" horiz-adv-x="442" 
d="M319 0h-196v999h196v-999zM336 1421h63q53 0 54 -55v-111q0 -55 -54 -55h-63q-53 0 -53 55v111q0 55 53 55zM41 1421h65q51 0 52 -55v-111q0 -55 -52 -55h-65q-49 0 -49 55v111q0 55 49 55z" />
    <glyph glyph-name="eth" unicode="&#xf0;" horiz-adv-x="935" 
d="M470 139q104 -1 138 103t33 348q0 49 -4 131q-76 31 -174 31t-138 -75t-40 -237t41 -231q40 -70 144 -70zM846 580q0 -299 -86 -453t-291 -154t-298 114q-93 115 -93 355t80 359t262 119q117 0 205 -58q-27 195 -103 297l-121 -115l-69 86l110 105q-90 57 -243 51l20 144
q203 12 344 -78l119 112l68 -90l-101 -96q197 -211 197 -698z" />
    <glyph glyph-name="ntilde" unicode="&#xf1;" horiz-adv-x="970" 
d="M641 1026q109 0 165 -71t56 -205v-750h-196v692q0 96 -18 131t-68 35t-110 -34t-161 -111l2 -713h-196v999h168l10 -149q182 176 348 176zM313 1194h-88q-12 124 27 188t100 58q60 -6 140 -54q147 -90 180 -39q14 24 14 83h86q14 -117 -24 -182q-38 -64 -104 -58
q-64 6 -146 56t-120 56t-52 -19q-14 -26 -13 -89z" />
    <glyph glyph-name="ograve" unicode="&#xf2;" horiz-adv-x="948" 
d="M475 858q-113 0 -153 -75t-39 -283q0 -208 40 -285q41 -76 153 -76t152 76t40 285q0 210 -40 284t-153 74zM475 1026q217 0 306 -120t89 -408t-89 -406q-89 -119 -306 -119t-308 120t-91 406q0 287 91 407t308 120zM563 1212l-61 -92l-352 240l106 151z" />
    <glyph glyph-name="oacute" unicode="&#xf3;" horiz-adv-x="948" 
d="M475 858q-113 0 -153 -75t-39 -283q0 -208 40 -285q41 -76 153 -76t152 76t40 285q0 210 -40 284t-153 74zM475 1026q217 0 306 -120t89 -408t-89 -406q-89 -119 -306 -119t-308 120t-91 406q0 287 91 407t308 120zM762 1360l-352 -240l-62 92l307 299z" />
    <glyph glyph-name="ocircumflex" unicode="&#xf4;" horiz-adv-x="948" 
d="M475 858q-113 0 -153 -75t-39 -283q0 -208 40 -285q41 -76 153 -76t152 76t40 285q0 210 -40 284t-153 74zM475 1026q217 0 306 -120t89 -408t-89 -406q-89 -119 -306 -119t-308 120t-91 406q0 287 91 407t308 120zM760 1208l-68 -84l-213 197h-14l-215 -197l-64 84
l215 265h144z" />
    <glyph glyph-name="otilde" unicode="&#xf5;" horiz-adv-x="948" 
d="M475 858q-113 0 -153 -75t-39 -283q0 -208 40 -285q41 -76 153 -76t152 76t40 285q0 210 -40 284t-153 74zM475 1026q217 0 306 -120t89 -408t-89 -406q-89 -119 -306 -119t-308 120t-91 406q0 287 91 407t308 120zM657 1430h86q13 -117 -25 -182q-38 -64 -102 -58
t-147 56q-82 50 -120 56t-51 -19q-13 -26 -13 -89h-88q-11 124 27 188t100 58t140 -54q79 -48 122 -56q43 -7 57 17t14 83z" />
    <glyph glyph-name="odieresis" unicode="&#xf6;" horiz-adv-x="948" 
d="M475 858q-113 0 -153 -75t-39 -283q0 -208 40 -285q41 -76 153 -76t152 76t40 285q0 210 -40 284t-153 74zM475 1026q217 0 306 -120t89 -408t-89 -406q-89 -119 -306 -119t-308 120t-91 406q0 287 91 407t308 120zM588 1421h63q53 0 54 -55v-111q0 -55 -54 -55h-63
q-53 0 -53 55v111q0 55 53 55zM293 1421h65q51 0 52 -55v-111q0 -55 -52 -55h-65q-49 0 -49 55v111q0 55 49 55z" />
    <glyph glyph-name="divide" unicode="&#xf7;" horiz-adv-x="929" 
d="M438 360h49q39 0 55 -16t15 -57v-92q0 -41 -14 -57t-56 -15h-49q-39 0 -54 15t-15 57v92q0 41 15 57t54 16zM838 530h-746v148h746v-148zM438 1083h49q39 0 55 -16t15 -57v-95q0 -39 -14 -54t-56 -15h-49q-39 0 -54 15t-15 54v95q0 41 15 57t54 16z" />
    <glyph glyph-name="oslash" unicode="&#xf8;" horiz-adv-x="948" 
d="M475 139q113 0 153 76t40 283t-39 282l-240 -626q35 -15 86 -15zM475 858q-113 0 -153 -74t-39 -277q0 -202 34 -280l236 621q-37 10 -78 10zM475 -27q-78 0 -147 17l-58 -150l-84 43l56 144q-166 102 -166 471q0 288 91 408t308 120q82 0 139 -14l56 143l86 -43
l-51 -137q166 -96 165 -477q0 -287 -89 -406t-306 -119z" />
    <glyph glyph-name="ugrave" unicode="&#xf9;" 
d="M840 999v-999h-158l-14 133q-170 -160 -334 -160q-223 0 -223 277v749h196v-692q-1 -92 19 -128t77 -36q86 0 242 131v725h195zM510 1128l-352 240l106 152l307 -299z" />
    <glyph glyph-name="uacute" unicode="&#xfa;" 
d="M840 999v-999h-158l-14 133q-170 -160 -334 -160q-223 0 -223 277v749h196v-692q-1 -92 19 -128t77 -36q86 0 242 131v725h195zM418 1128l-62 93l308 299l106 -152z" />
    <glyph glyph-name="ucircumflex" unicode="&#xfb;" 
d="M840 999v-999h-158l-14 133q-170 -160 -334 -160q-223 0 -223 277v749h196v-692q-1 -92 19 -128t77 -36q86 0 242 131v725h195zM258 1135l-63 84l215 264h143l215 -264l-68 -84l-213 196h-14z" />
    <glyph glyph-name="udieresis" unicode="&#xfc;" 
d="M840 999v-999h-158l-14 133q-170 -160 -334 -160q-223 0 -223 277v749h196v-692q-1 -92 19 -128t77 -36q86 0 242 131v725h195zM659 1208h-63q-53 0 -53 56v110q0 55 53 56h63q53 0 54 -56v-110q-1 -56 -54 -56zM367 1208h-66q-49 0 -49 56v110q0 55 49 56h66
q51 0 51 -56v-110q0 -56 -51 -56z" />
    <glyph glyph-name="yacute" unicode="&#xfd;" horiz-adv-x="894" 
d="M360 0q-51 0 -67 51l-273 948h211l177 -727q20 -76 26 -122h23q6 22 17 66t15 56l175 727h210l-296 -1046q-46 -158 -146 -264t-260 -109l-18 131q178 68 237 252l12 37h-43zM387 1120l-61 92l307 299l106 -151z" />
    <glyph glyph-name="thorn" unicode="&#xfe;" horiz-adv-x="956" 
d="M520 137q84 0 121 77t37 281q0 205 -36 283t-122 78t-209 -129v-524q125 -66 209 -66zM588 1024q158 0 226 -126t67 -410q0 -284 -71 -399q-70 -116 -224 -116t-281 76q6 -88 6 -176v-281h-196v1842h196v-334q0 -98 -6 -197q125 121 283 121z" />
    <glyph glyph-name="ydieresis" unicode="&#xff;" horiz-adv-x="894" 
d="M360 0q-51 0 -67 51l-273 948h211l177 -727q20 -76 26 -122h23q6 22 17 66t15 56l175 727h210l-296 -1046q-46 -158 -146 -264t-260 -109l-18 131q178 68 237 252l12 37h-43zM629 1200h-64q-53 0 -53 55v111q0 55 53 55h64q53 0 53 -55v-111q0 -55 -53 -55zM336 1200h-66
q-49 0 -49 55v111q0 55 49 55h66q51 0 51 -55v-111q0 -55 -51 -55z" />
    <glyph glyph-name="Amacron" unicode="&#x100;" horiz-adv-x="1048" 
d="M692 604l-121 537q-25 106 -24 114h-45q-2 -16 -25 -114l-123 -537h338zM424 1413h201q57 0 69 -55l344 -1358h-209l-96 426h-420l-96 -426h-209l344 1358q12 55 72 55zM766 1602h-479v145h479v-145z" />
    <glyph glyph-name="amacron" unicode="&#x101;" horiz-adv-x="919" 
d="M375 150q115 0 239 126v193h-262q-47 -2 -63 -33t-17 -94v-53q0 -75 25 -107t78 -32zM497 1026q167 0 241 -74t75 -256v-696h-156l-20 145q-125 -164 -305 -163q-117 0 -189 74t-71 208v105q0 119 63 185t178 64h301v78q-2 94 -32 128q-31 34 -116 34t-339 -24l-16 145
q219 47 386 47zM688 1235h-479v145h479v-145z" />
    <glyph glyph-name="Abreve" unicode="&#x102;" horiz-adv-x="1048" 
d="M692 604l-121 537q-25 106 -24 114h-45q-2 -16 -25 -114l-123 -537h338zM424 1413h201q57 0 69 -55l344 -1358h-209l-96 426h-420l-96 -426h-209l344 1358q12 55 72 55zM524 1524q-128 0 -200 77t-62 199l96 15q0 -145 166 -146q80 0 122 38t42 108l96 -15
q10 -124 -62 -200t-198 -76z" />
    <glyph glyph-name="abreve" unicode="&#x103;" horiz-adv-x="919" 
d="M375 150q115 0 239 126v193h-262q-47 -2 -63 -33t-17 -94v-53q0 -75 25 -107t78 -32zM497 1026q167 0 241 -74t75 -256v-696h-156l-20 145q-125 -164 -305 -163q-117 0 -189 74t-71 208v105q0 119 63 185t178 64h301v78q-2 94 -32 128q-31 34 -116 34t-339 -24l-16 145
q219 47 386 47zM449 1155q-127 0 -200 77t-63 200l97 14q0 -145 166 -146q79 0 121 38t42 108l97 -14q11 -123 -61 -200t-199 -77z" />
    <glyph glyph-name="Aogonek" unicode="&#x104;" horiz-adv-x="1048" 
d="M692 604l-121 537q-25 106 -24 114h-45q-2 -16 -25 -114l-123 -537h338zM424 1413h201q57 0 69 -55l344 -1358h2q-76 -121 -106 -209q-30 -87 6 -111q34 -24 104 7l25 -82q-168 -70 -239 -16q-72 54 -34 175t156 236h-123l-96 426h-420l-96 -426h-209l344 1358
q12 55 72 55z" />
    <glyph glyph-name="aogonek" unicode="&#x105;" horiz-adv-x="919" 
d="M375 150q115 0 239 126v193h-262q-47 -2 -63 -33t-17 -94v-53q0 -75 25 -107t78 -32zM72 369q0 119 63 185t178 64h301v78q-2 94 -32 128q-31 34 -116 34t-339 -24l-16 145q219 47 386 47t241 -74t75 -256v-696q-76 -121 -106 -209q-30 -87 5 -111t105 7l25 -82
q-168 -70 -239 -16t-34 175t156 236h-68l-20 145q-125 -164 -305 -163q-117 0 -189 74t-71 208v105z" />
    <glyph glyph-name="Cacute" unicode="&#x106;" horiz-adv-x="956" 
d="M549 1438q186 0 328 -41l-21 -158q-137 16 -307 16q-139 0 -193 -118q-53 -119 -53 -430t53 -431t193 -118q215 0 330 22l20 -155q-141 -49 -350 -50q-254 0 -358 164q-103 163 -103 567t103 568q104 164 358 164zM829 1726l-352 -239l-61 92l307 299z" />
    <glyph glyph-name="cacute" unicode="&#x107;" horiz-adv-x="819" 
d="M471 1026q168 0 281 -51l-25 -127q-129 10 -239 10t-157 -76q-48 -76 -48 -282t48 -283q48 -76 177 -76t237 23l19 -133q-125 -55 -295 -56q-215 0 -304 118t-89 407q0 290 90 408t305 118zM729 1360l-352 -240l-62 92l308 299z" />
    <glyph glyph-name="Cdotaccent" unicode="&#x10a;" horiz-adv-x="956" 
d="M549 1438q186 0 328 -41l-21 -158q-137 16 -307 16q-139 0 -193 -118q-53 -119 -53 -430t53 -431t193 -118q215 0 330 22l20 -155q-141 -49 -350 -50q-254 0 -358 164q-103 163 -103 567t103 568q104 164 358 164zM508 1778h63q55 0 56 -58v-114q0 -59 -56 -60h-63
q-55 0 -55 60v114q0 58 55 58z" />
    <glyph glyph-name="cdotaccent" unicode="&#x10b;" horiz-adv-x="819" 
d="M471 1026q168 0 281 -51l-25 -127q-129 10 -239 10t-157 -76q-48 -76 -48 -282t48 -283q48 -76 177 -76t237 23l19 -133q-125 -55 -295 -56q-215 0 -304 118t-89 407q0 290 90 408t305 118zM408 1411h63q55 0 55 -57v-115q0 -59 -55 -59h-63q-55 0 -56 59v115q1 57 56 57
z" />
    <glyph glyph-name="Ccaron" unicode="&#x10c;" horiz-adv-x="956" 
d="M549 1438q186 0 328 -41l-21 -158q-137 16 -307 16q-139 0 -193 -118q-53 -119 -53 -430t53 -431t193 -118q215 0 330 22l20 -155q-141 -49 -350 -50q-254 0 -358 164q-103 163 -103 567t103 568q104 164 358 164zM827 1786l-243 -264h-86l-242 264l63 84l216 -172h12
l215 172z" />
    <glyph glyph-name="ccaron" unicode="&#x10d;" horiz-adv-x="819" 
d="M471 1026q168 0 281 -51l-25 -127q-129 10 -239 10t-157 -76q-48 -76 -48 -282t48 -283q48 -76 177 -76t237 23l19 -133q-125 -55 -295 -56q-215 0 -304 118t-89 407q0 290 90 408t305 118zM727 1417l-244 -264h-86l-241 264l63 84l215 -172h12l216 172z" />
    <glyph glyph-name="Dcaron" unicode="&#x10e;" horiz-adv-x="1105" 
d="M551 160q143 0 197 119q53 119 53 428t-53 428t-197 118l-217 -2v-1087q127 -4 217 -4zM551 1432q258 0 361 -158q104 -158 104 -568t-104 -567q-104 -158 -361 -157q-195 0 -420 18v1413q221 19 420 19zM522 1522l-241 264l63 84l215 -172h12l215 172l66 -84l-244 -264
h-86z" />
    <glyph glyph-name="dcaron" unicode="&#x10f;" horiz-adv-x="958" 
d="M435 854q-83 0 -117 -70t-35 -277q-1 -208 33 -284t116 -76q57 0 96 24t121 97v539q-131 47 -214 47zM649 1434h197v-1434h-156l-14 131q-135 -156 -314 -156q-150 1 -218 133t-66 406q0 274 78 394q78 118 231 118t270 -86q-8 88 -8 193v301zM958 1243q-49 0 -49 49v92
q2 55 68 56h51q35 0 48 -12t11 -44l3 -102q-2 -139 -66 -252l-86 21q20 94 20 192z" />
    <glyph glyph-name="Dcroat" unicode="&#x110;" horiz-adv-x="1114" 
d="M344 805h221v-113h-221v-528q127 -4 217 -4q143 0 197 119q53 119 53 428t-53 428t-197 118l-217 -2v-446zM561 1432q257 0 361 -158t104 -568t-103 -567q-103 -158 -362 -157q-197 0 -422 18v692h-104v113h104v608q225 19 422 19z" />
    <glyph glyph-name="dcroat" unicode="&#x111;" 
d="M435 854q-83 0 -117 -70t-35 -277q-1 -208 33 -284t116 -76q57 0 96 24t121 97v539q-131 47 -214 47zM950 1167h-104v-1167h-156l-14 131q-135 -156 -314 -156q-150 1 -218 133t-66 406q0 274 78 394q78 118 231 118t270 -86q-8 88 -8 193v34h-235v113h235v154h197v-154
h104v-113z" />
    <glyph glyph-name="Emacron" unicode="&#x112;" horiz-adv-x="940" 
d="M369 -4q-117 0 -183 69t-65 185v913q0 117 66 186q67 69 182 68q344 0 491 -16l-8 -160h-451q-45 0 -60 -29t-15 -102v-283h465v-165h-465v-361q0 -75 15 -103t60 -28h451l8 -158q-147 -16 -491 -16zM756 1642h-480v146h480v-146z" />
    <glyph glyph-name="emacron" unicode="&#x113;" horiz-adv-x="899" 
d="M464 858q-100 0 -140 -61t-41 -240h286q61 0 62 133q2 92 -32 130q-35 38 -135 38zM496 141q106 0 295 25l18 -131q-121 -59 -336 -59t-306 118q-91 119 -91 409q0 291 90 407t290 116t286 -84t85 -252q2 -137 -50 -212t-152 -75h-340q10 -158 58 -210q47 -52 153 -52z
M694 1235h-479v145h479v-145z" />
    <glyph glyph-name="Edotaccent" unicode="&#x116;" horiz-adv-x="940" 
d="M369 -4q-117 0 -183 69t-65 185v913q0 117 66 186q67 69 182 68q344 0 491 -16l-8 -160h-451q-45 0 -60 -29t-15 -102v-283h465v-165h-465v-361q0 -75 15 -103t60 -28h451l8 -158q-147 -16 -491 -16zM547 1587h-64q-55 0 -55 60v114q0 57 55 58h64q55 0 55 -58v-114
q0 -60 -55 -60z" />
    <glyph glyph-name="edotaccent" unicode="&#x117;" horiz-adv-x="899" 
d="M464 858q-100 0 -140 -61t-41 -240h286q61 0 62 133q2 92 -32 130q-35 38 -135 38zM496 141q106 0 295 25l18 -131q-121 -59 -336 -59t-306 118q-91 119 -91 409q0 291 90 407t290 116t286 -84t85 -252q2 -137 -50 -212t-152 -75h-340q10 -158 58 -210q47 -52 153 -52z
M485 1180h-63q-55 0 -55 59v115q0 57 55 57h63q55 0 56 -57v-115q-1 -59 -56 -59z" />
    <glyph glyph-name="Eogonek" unicode="&#x118;" horiz-adv-x="940" 
d="M369 -4q-117 0 -183 69t-65 185v913q0 117 66 186q67 69 182 68q344 0 491 -16l-8 -160h-451q-45 0 -60 -29t-15 -102v-283h465v-165h-465v-361q0 -75 15 -103t60 -28h451l8 -158h2q-76 -121 -106 -209q-30 -87 6 -111q34 -24 104 7l25 -82q-168 -69 -239 -15t-36 173
q39 119 150 229q-127 -8 -397 -8z" />
    <glyph glyph-name="eogonek" unicode="&#x119;" horiz-adv-x="899" 
d="M464 858q-100 0 -140 -61t-41 -240h286q61 0 62 133q2 92 -32 130q-35 38 -135 38zM76 503q0 291 90 407t290 116t286 -84t85 -252q2 -137 -50 -212t-152 -75h-340q10 -157 58 -209q47 -52 153 -52t295 24l18 -131q-76 -121 -106 -209t5 -112t105 7l25 -81
q-168 -70 -239 -16t-40 162t123 210q-100 -20 -205 -21q-219 0 -310 119t-91 409z" />
    <glyph glyph-name="Ecaron" unicode="&#x11a;" horiz-adv-x="940" 
d="M369 -4q-117 0 -183 69t-65 185v913q0 117 66 186q67 69 182 68q344 0 491 -16l-8 -160h-451q-45 0 -60 -29t-15 -102v-283h465v-165h-465v-361q0 -75 15 -103t60 -28h451l8 -158q-147 -16 -491 -16zM473 1561l-242 264l64 84l215 -172h12l215 172l66 -84l-244 -264h-86z
" />
    <glyph glyph-name="ecaron" unicode="&#x11b;" horiz-adv-x="899" 
d="M464 858q-100 0 -140 -61t-41 -240h286q61 0 62 133q2 92 -32 130q-35 38 -135 38zM496 141q106 0 295 25l18 -131q-121 -59 -336 -59t-306 118q-91 119 -91 409q0 291 90 407t290 116t286 -84t85 -252q2 -137 -50 -212t-152 -75h-340q10 -158 58 -210q47 -52 153 -52z
M412 1153l-242 264l63 84l216 -172h12l215 172l65 -84l-243 -264h-86z" />
    <glyph glyph-name="Gbreve" unicode="&#x11e;" horiz-adv-x="1044" 
d="M944 815v-815h-149l-19 135q-132 -162 -326 -162q-194 -1 -277 177t-83 580t111 556t395 154q172 0 313 -43l-16 -156q-139 16 -273 16q-134 1 -193 -37q-60 -38 -91 -158t-31 -396t43 -395t153 -119t247 118v545h196zM549 1524q-127 0 -200 77t-62 199l96 15
q0 -145 166 -146q80 0 122 38t42 108l96 -15q11 -124 -61 -200t-199 -76z" />
    <glyph glyph-name="gbreve" unicode="&#x11f;" horiz-adv-x="935" 
d="M672 -100q0 84 -25 106t-112 37l-218 37q-43 -49 -57 -85q-14 -37 -14 -109t39 -100t172 -28t174 29t41 113zM449 535q102 -1 141 37t39 134t-39 132t-141 36t-143 -36q-40 -37 -40 -131t40 -134q41 -38 143 -38zM811 707q0 -174 -79 -248t-283 -74q-82 0 -144 12
q-16 -43 -6 -93t49 -58l293 -58q121 -22 171 -90t50 -221t-88 -220t-314 -67t-317 65q-90 65 -90 228q0 91 30 141t107 99q-59 59 -54 159t63 154q-111 66 -111 256t80 262t281 72q127 0 200 -27h258l-12 -106l-113 -12q29 -66 29 -174zM455 1155q-127 0 -200 77t-62 200
l96 14q0 -145 166 -146q80 0 122 38t41 108l97 -14q11 -123 -61 -200t-199 -77z" />
    <glyph glyph-name="Gdotaccent" unicode="&#x120;" horiz-adv-x="1044" 
d="M944 815v-815h-149l-19 135q-132 -162 -326 -162q-194 -1 -277 177t-83 580t111 556t395 154q172 0 313 -43l-16 -156q-139 16 -273 16q-134 1 -193 -37q-60 -38 -91 -158t-31 -396t43 -395t153 -119t247 118v545h196zM580 1546h-64q-55 0 -55 60v114q0 57 55 58h64
q55 0 55 -58v-114q0 -60 -55 -60z" />
    <glyph glyph-name="gdotaccent" unicode="&#x121;" horiz-adv-x="935" 
d="M672 -100q0 84 -25 106t-112 37l-218 37q-43 -49 -57 -85q-14 -37 -14 -109t39 -100t172 -28t174 29t41 113zM449 535q102 -1 141 37t39 134t-39 132t-141 36t-143 -36q-40 -37 -40 -131t40 -134q41 -38 143 -38zM811 707q0 -174 -79 -248t-283 -74q-82 0 -144 12
q-16 -43 -6 -93t49 -58l293 -58q121 -22 171 -90t50 -221t-88 -220t-314 -67t-317 65q-90 65 -90 228q0 91 30 141t107 99q-59 59 -54 159t63 154q-111 66 -111 256t80 262t281 72q127 0 200 -27h258l-12 -106l-113 -12q29 -66 29 -174zM487 1180h-63q-55 0 -55 59v115
q0 57 55 57h63q55 0 56 -57v-115q-1 -59 -56 -59z" />
    <glyph glyph-name="Gcommaaccent" unicode="&#x122;" horiz-adv-x="1044" 
d="M520 -119h51q37 0 49 -13t13 -48v-111q-2 -154 -66 -276l-84 22q20 119 21 211q-51 0 -51 53v101q2 35 17 48t50 13zM944 815v-815h-149l-19 135q-132 -162 -326 -162q-194 -1 -277 177t-83 580t111 556t395 154q172 0 313 -43l-16 -156q-139 16 -273 16q-134 1 -193 -37
q-60 -38 -91 -158t-31 -396t43 -395t153 -119t247 118v545h196z" />
    <glyph glyph-name="gcommaaccent" unicode="&#x123;" horiz-adv-x="935" 
d="M672 -100q0 84 -25 106t-112 37l-218 37q-43 -49 -57 -85q-14 -37 -14 -109t39 -100t172 -28t174 29t41 113zM449 535q102 -1 141 37t39 134t-39 132t-141 36t-143 -36q-40 -37 -40 -131t40 -134q41 -38 143 -38zM811 707q0 -174 -79 -248t-283 -74q-82 0 -144 12
q-16 -43 -6 -93t49 -58l293 -58q121 -22 171 -90t50 -221t-88 -220t-314 -67t-317 65q-90 65 -90 228q0 91 30 141t107 99q-59 59 -54 159t63 154q-111 66 -111 256t80 262t281 72q127 0 200 -27h258l-12 -106l-113 -12q29 -66 29 -174zM504 1139h-51q-37 0 -50 13
q-12 13 -12 48v111q2 154 66 276l84 -22q-20 -119 -21 -211q51 0 51 -54v-100q-2 -35 -17 -48t-50 -13z" />
    <glyph glyph-name="Hbar" unicode="&#x126;" horiz-adv-x="1128" 
d="M791 1061h-451v-219h451v219zM1098 1061h-103v-1061h-204v666h-451v-666h-203v1061h-110v106h110v246h203v-246h451v246h204v-246h103v-106z" />
    <glyph glyph-name="hbar" unicode="&#x127;" horiz-adv-x="976" 
d="M647 1026q109 0 165 -71t56 -205v-750h-196v692q0 96 -18 131t-68 35q-52 0 -112 -33t-157 -110v-715h-196v1167h-117v113h117v154h196v-154h222v-113h-222v-120q0 -109 -12 -193q182 172 342 172z" />
    <glyph glyph-name="Imacron" unicode="&#x12a;" horiz-adv-x="462" 
d="M334 0h-203v1413h203v-1413zM471 1602h-479v145h479v-145z" />
    <glyph glyph-name="imacron" unicode="&#x12b;" horiz-adv-x="442" 
d="M319 0h-196v999h196v-999zM461 1235h-479v145h479v-145z" />
    <glyph glyph-name="Iogonek" unicode="&#x12e;" horiz-adv-x="462" 
d="M131 0v1413h203v-1413h-25q-75 -121 -105 -209q-30 -87 4 -111t105 7l25 -82q-168 -70 -239 -16t-34 175t156 236h-90z" />
    <glyph glyph-name="iogonek" unicode="&#x12f;" horiz-adv-x="442" 
d="M123 0v999h196v-999h-18q-76 -121 -106 -209q-30 -87 5 -111t105 7l25 -82q-168 -70 -239 -16t-34 175t156 236h-90zM254 1180h-64q-55 0 -55 59v115q0 57 55 57h64q55 0 55 -57v-115q0 -59 -55 -59z" />
    <glyph glyph-name="Idotaccent" unicode="&#x130;" horiz-adv-x="462" 
d="M334 0h-203v1413h203v-1413zM201 1778h63q55 0 55 -58v-114q0 -59 -55 -60h-63q-55 0 -56 60v114q1 58 56 58z" />
    <glyph glyph-name="dotlessi" unicode="&#x131;" horiz-adv-x="442" 
d="M319 0h-196v999h196v-999z" />
    <glyph glyph-name="IJ" unicode="&#x132;" horiz-adv-x="1040" 
d="M915 1413v-1104q0 -159 -60 -243t-171 -84t-180 26l22 148h76q111 0 111 143v1114h202zM334 0h-203v1413h203v-1413z" />
    <glyph glyph-name="ij" unicode="&#x133;" horiz-adv-x="882" 
d="M760 999v-1009q0 -126 -48 -232t-132 -172l-109 86q92 139 92 318v1009h197zM317 0h-194v999h194v-999zM616 1425h95q53 0 53 -57v-115q0 -59 -53 -59h-95q-55 0 -55 59v115q0 57 55 57zM172 1425h94q55 0 56 -57v-115q0 -59 -56 -59h-94q-55 0 -55 59v115q0 57 55 57z
" />
    <glyph glyph-name="Kcommaaccent" unicode="&#x136;" horiz-adv-x="1005" 
d="M506 -119h51q37 0 49 -13t12 -48v-111q-2 -154 -65 -276l-84 22q20 119 20 211q-51 0 -51 53v101q2 35 18 48t50 13zM334 0h-203v1413h203v-434q0 -88 -15 -160h101l328 594h219l-320 -577q-25 -45 -78 -99v-6q66 -57 90 -108l328 -623h-225l-342 653h-101
q14 -70 15 -145v-508z" />
    <glyph glyph-name="kcommaaccent" unicode="&#x137;" horiz-adv-x="876" 
d="M449 -119h51q37 0 49 -13t12 -48v-111q-2 -154 -65 -276l-84 22q20 119 20 211q-51 0 -51 53v101q2 35 17 48q16 13 51 13zM311 336v-336h-196v1434h196v-629q0 -78 -10 -170h80l231 364h224l-228 -362q-18 -33 -65 -74v-4q41 -35 65 -86l254 -473h-223l-258 492h-80
q10 -88 10 -156z" />
    <glyph glyph-name="Lacute" unicode="&#x139;" horiz-adv-x="856" 
d="M330 1413v-1110q0 -75 19 -103t75 -28h393l10 -158q-160 -18 -434 -18q-268 0 -268 278v1139h205zM520 1726l-352 -239l-62 92l308 299z" />
    <glyph glyph-name="lacute" unicode="&#x13a;" horiz-adv-x="516" 
d="M408 162h67l25 -154q-54 -26 -162 -26t-165 68q-56 69 -56 194v1190h196l-2 -1145q0 -127 97 -127zM508 1769l-352 -239l-62 92l307 299z" />
    <glyph glyph-name="Lcommaaccent" unicode="&#x13b;" horiz-adv-x="856" 
d="M461 -121h51q37 0 49 -13t12 -48v-111q-2 -154 -65 -276l-84 22q20 119 20 211q-51 0 -51 53v101q1 35 17 48t51 13zM330 1413v-1110q0 -75 19 -103t75 -28h393l10 -158q-160 -18 -434 -18q-268 0 -268 278v1139h205z" />
    <glyph glyph-name="lcommaaccent" unicode="&#x13c;" horiz-adv-x="516" 
d="M266 -121h51q37 0 49 -13t13 -48v-111q-2 -154 -66 -276l-84 22q20 119 21 211q-51 0 -51 53v101q2 35 17 48t50 13zM408 162h67l25 -154q-54 -26 -162 -26t-165 68q-56 69 -56 194v1190h196l-2 -1145q0 -127 97 -127z" />
    <glyph glyph-name="Lcaron" unicode="&#x13d;" horiz-adv-x="856" 
d="M330 1413v-1110q0 -75 19 -103t75 -28h393l10 -158q-160 -18 -434 -18q-268 0 -268 278v1139h205zM561 1415h51q38 0 50 -13t12 -48v-111q-2 -154 -66 -276l-84 22q20 119 21 211q-51 0 -51 53v101q2 35 17 48t50 13z" />
    <glyph glyph-name="lcaron" unicode="&#x13e;" horiz-adv-x="516" 
d="M408 162h67l25 -154q-54 -26 -162 -26t-165 68q-56 69 -56 194v1190h196l-2 -1145q0 -127 97 -127zM444 1440h52q35 0 48 -12t11 -44l2 -102q-2 -139 -65 -252l-86 21q20 94 20 192q-49 0 -49 49v92q1 56 67 56z" />
    <glyph glyph-name="Ldot" unicode="&#x13f;" horiz-adv-x="856" 
d="M696 696h-63q-55 0 -55 58v114q0 59 55 60h63q55 0 56 -60v-114q-1 -58 -56 -58zM330 1413v-1110q0 -75 19 -103t75 -28h393l10 -158q-160 -18 -434 -18q-268 0 -268 278v1139h205z" />
    <glyph glyph-name="ldot" unicode="&#x140;" horiz-adv-x="555" 
d="M524 682h-63q-55 0 -55 59v115q0 57 55 57h63q53 0 54 -57v-115q-1 -59 -54 -59zM408 162h67l25 -154q-54 -26 -162 -26t-165 68q-56 69 -56 194v1190h196l-2 -1145q0 -127 97 -127z" />
    <glyph glyph-name="Lslash" unicode="&#x141;" horiz-adv-x="868" 
d="M403 -4q-266 0 -266 278v398l-110 -54v125l110 54v616h203v-518l180 88v-125l-180 -88v-467q0 -75 20 -103t76 -28h391l13 -158q-160 -18 -437 -18z" />
    <glyph glyph-name="lslash" unicode="&#x142;" horiz-adv-x="565" 
d="M152 244v424l-125 -62v127l125 62v639h196v-543l168 82v-127l-170 -82v-475q0 -127 98 -127h68l23 -154q-53 -26 -161 -26t-165 68q-57 69 -57 194z" />
    <glyph glyph-name="Nacute" unicode="&#x143;" horiz-adv-x="1183" 
d="M1055 1413v-1333q0 -80 -74 -80h-207q-68 0 -84 63l-282 963q-25 90 -58 197h-18v-197l2 -1026h-203v1333q0 80 74 80h203q70 0 86 -63l272 -938q8 -27 31 -101t32 -110h23v1212h203zM883 1726l-353 -239l-61 92l307 299z" />
    <glyph glyph-name="nacute" unicode="&#x144;" horiz-adv-x="970" 
d="M641 1026q109 0 165 -71t56 -205v-750h-196v692q0 96 -18 131t-68 35t-110 -34t-161 -111l2 -713h-196v999h168l10 -149q182 176 348 176zM436 1120l-61 92l307 299l106 -151z" />
    <glyph glyph-name="Ncommaaccent" unicode="&#x145;" horiz-adv-x="1183" 
d="M547 -119h51q37 0 49 -13t12 -48v-111q-2 -154 -65 -276l-84 22q20 119 20 211q-51 0 -51 53v101q1 35 17 48t51 13zM1055 1413v-1333q0 -80 -74 -80h-207q-68 0 -84 63l-282 963q-25 90 -58 197h-18v-197l2 -1026h-203v1333q0 80 74 80h203q70 0 86 -63l272 -938
q8 -27 31 -101t32 -110h23v1212h203z" />
    <glyph glyph-name="ncommaaccent" unicode="&#x146;" horiz-adv-x="970" 
d="M459 -119h51q37 0 49 -13t12 -48v-111q0 -150 -65 -276l-84 22q20 119 20 211q-51 0 -51 53v101q1 35 17 48t51 13zM641 1026q109 0 165 -71t56 -205v-750h-196v692q0 96 -18 131t-68 35t-110 -34t-161 -111l2 -713h-196v999h168l10 -149q182 176 348 176z" />
    <glyph glyph-name="Ncaron" unicode="&#x147;" horiz-adv-x="1183" 
d="M1055 1413v-1333q0 -80 -74 -80h-207q-68 0 -84 63l-282 963q-25 90 -58 197h-18v-197l2 -1026h-203v1333q0 80 74 80h203q70 0 86 -63l272 -938q8 -27 31 -101t32 -110h23v1212h203zM881 1786l-244 -264h-86l-242 264l64 84l215 -172h12l215 172z" />
    <glyph glyph-name="ncaron" unicode="&#x148;" horiz-adv-x="970" 
d="M641 1026q109 0 165 -71t56 -205v-750h-196v692q0 96 -18 131t-68 35t-110 -34t-161 -111l2 -713h-196v999h168l10 -149q182 176 348 176zM459 1153l-242 264l64 84l215 -172h12l215 172l65 -84l-243 -264h-86z" />
    <glyph glyph-name="Eng" unicode="&#x14a;" horiz-adv-x="1183" 
d="M1055 1413v-1567q0 -135 -65 -211q-65 -75 -166 -75t-175 28l23 129h76q117 0 116 146v137h-92q-35 0 -53 57l-311 944q-6 17 -28 93t-34 112h-16q4 -35 4 -207v-999h-203v1333q0 80 74 80h174q66 0 86 -63l297 -897q10 -25 35 -103t39 -117h18q-4 74 -4 224v956h205z
" />
    <glyph glyph-name="eng" unicode="&#x14b;" horiz-adv-x="970" 
d="M639 1026q223 0 223 -276v-881q0 -139 -55 -213t-159 -74t-173 29l21 127h67q102 0 103 147v807q0 84 -18 118t-66 34q-98 0 -273 -135l2 -709h-196v999h153l17 -161q184 188 354 188z" />
    <glyph glyph-name="Omacron" unicode="&#x14c;" horiz-adv-x="1112" 
d="M556 1257q-144 0 -199 -118q-54 -119 -54 -432t54 -433q55 -120 199 -118q144 0 199 118q54 118 54 432t-54 433q-55 118 -199 118zM88 707q0 413 104 573t364 160t364 -160t104 -574t-103 -573q-103 -160 -365 -160t-365 160t-103 574zM795 1602h-480v145h480v-145z" />
    <glyph glyph-name="omacron" unicode="&#x14d;" horiz-adv-x="948" 
d="M475 858q-113 0 -153 -75t-39 -283q0 -208 40 -285q41 -76 153 -76t152 76t40 285q0 210 -40 284t-153 74zM475 1026q217 0 306 -120t89 -408t-89 -406q-89 -119 -306 -119t-308 120t-91 406q0 287 91 407t308 120zM713 1235h-480v145h480v-145z" />
    <glyph glyph-name="Ohungarumlaut" unicode="&#x150;" horiz-adv-x="1112" 
d="M556 1257q-144 0 -199 -118q-54 -119 -54 -432t54 -433q55 -120 199 -118q144 0 199 118q54 118 54 432t-54 433q-55 118 -199 118zM88 707q0 413 104 573t364 160t364 -160t104 -574t-103 -573q-103 -160 -365 -160t-365 160t-103 574zM920 1804l-240 -329l-80 65
l180 363zM625 1804l-238 -329l-84 65l182 363z" />
    <glyph glyph-name="ohungarumlaut" unicode="&#x151;" horiz-adv-x="948" 
d="M475 858q-113 0 -153 -75t-39 -283q0 -208 40 -285q41 -76 153 -76t152 76t40 285q0 210 -40 284t-153 74zM475 1026q217 0 306 -120t89 -408t-89 -406q-89 -119 -306 -119t-308 120t-91 406q0 287 91 407t308 120zM838 1438l-240 -330l-80 66l180 362zM543 1438
l-238 -330l-84 66l182 362z" />
    <glyph glyph-name="OE" unicode="&#x152;" horiz-adv-x="1536" 
d="M303 709q0 -315 54 -435t200 -118q106 0 186 28q-10 47 -10 90v865q0 43 10 90q-90 29 -186 28q-145 0 -200 -116q-54 -117 -54 -432zM946 -4q-66 0 -121 43q-115 -66 -268 -66q-262 0 -366 160q-103 160 -103 574q0 413 103 573t366 160q154 0 281 -64q53 41 127 41
q344 0 493 -16l-10 -160h-414q-56 0 -76 -29t-20 -102v-281l448 -2v-165l-448 -3v-358q0 -75 20 -103t76 -28h414l10 -158q-156 -16 -512 -16z" />
    <glyph glyph-name="oe" unicode="&#x153;" horiz-adv-x="1488" 
d="M1042 858q-94 0 -132 -62t-42 -227v-10h279q43 0 61 36t14 115q-4 80 -44 114q-42 34 -136 34zM470 858q-108 0 -148 -75t-39 -283q-1 -208 39 -285q40 -76 148 -76q108 -1 150 63t48 236l-2 70v59q-4 167 -46 229t-150 62zM1084 141q106 0 294 25l19 -131
q-119 -59 -328 -59t-299 102q-90 -104 -301 -104t-302 119q-91 120 -91 406q0 287 91 407t300 120t297 -100q88 100 274 100q381 0 381 -313q-2 -170 -60 -235t-200 -64h-289q8 -164 58 -218t156 -55z" />
    <glyph glyph-name="Racute" unicode="&#x154;" horiz-adv-x="1034" 
d="M332 758h205q109 2 149 54t41 196q0 144 -41 196q-41 51 -149 51l-205 -2v-495zM332 582v-582h-201v1413q145 19 383 19t327 -88t89 -322q0 -172 -47 -257t-162 -103v-11q117 -43 151 -205l101 -446h-217l-90 440q-30 142 -129 142h-205zM477 1487l-61 92l307 299
l106 -152z" />
    <glyph glyph-name="racute" unicode="&#x155;" horiz-adv-x="679" 
d="M616 1026h39l-20 -186h-57q-52 0 -108 -25t-159 -86v-729h-196v999h153l19 -149q172 176 329 176zM322 1120l-62 92l307 299l107 -151z" />
    <glyph glyph-name="Rcommaaccent" unicode="&#x156;" horiz-adv-x="1034" 
d="M518 -119h51q37 0 49 -13t13 -48v-111q-2 -154 -66 -276l-84 22q20 119 21 211q-51 0 -51 53v101q2 35 17 48t50 13zM332 758h205q109 2 149 54t41 196q0 144 -41 196q-41 51 -149 51l-205 -2v-495zM332 582v-582h-201v1413q145 19 383 19t327 -88t89 -322
q0 -172 -47 -257t-162 -103v-11q117 -43 151 -205l101 -446h-217l-90 440q-30 142 -129 142h-205z" />
    <glyph glyph-name="rcommaaccent" unicode="&#x157;" horiz-adv-x="679" 
d="M172 -119h51q37 0 49 -13t13 -48v-111q-2 -154 -66 -276l-84 22q20 119 21 211q-51 0 -52 53v101q2 35 18 48t50 13zM578 840q-52 0 -108 -25t-159 -86v-729h-196v999h153l19 -149q172 176 329 176h39l-20 -186h-57z" />
    <glyph glyph-name="Rcaron" unicode="&#x158;" horiz-adv-x="1034" 
d="M332 758h205q109 2 149 54t41 196q0 144 -41 196q-41 51 -149 51l-205 -2v-495zM332 582v-582h-201v1413q145 19 383 19t327 -88t89 -322q0 -172 -47 -257t-162 -103v-11q117 -43 151 -205l101 -446h-217l-90 440q-30 142 -129 142h-205zM498 1522l-242 264l63 84
l216 -172h12l215 172l65 -84l-243 -264h-86z" />
    <glyph glyph-name="rcaron" unicode="&#x159;" horiz-adv-x="679" 
d="M616 1026h39l-20 -186h-57q-52 0 -108 -25t-159 -86v-729h-196v999h153l19 -149q172 176 329 176zM342 1153l-242 264l64 84l215 -172h12l215 172l66 -84l-244 -264h-86z" />
    <glyph glyph-name="Sacute" unicode="&#x15a;" horiz-adv-x="937" 
d="M514 1438q158 0 309 -43l-14 -150q-231 10 -339 10q-108 1 -146 -31t-37 -150q0 -118 28 -162q29 -44 97 -68l219 -78q129 -43 180 -139t51 -262q0 -236 -87 -313t-291 -77t-388 41l13 152q289 -10 381 -9t128 40t37 158q-1 119 -27 161t-91 66l-228 80q-123 41 -175 138
q-52 98 -52 242t20 218t72 112t118 52q64 12 222 12zM768 1726l-352 -239l-62 92l308 299z" />
    <glyph glyph-name="sacute" unicode="&#x15b;" horiz-adv-x="851" 
d="M401 858q-77 0 -107 -16t-30 -78t14 -89q14 -26 31 -34q16 -8 64 -25l217 -69q104 -33 148 -93t44 -188q0 -176 -81 -232t-269 -56t-344 28l12 148q80 -10 242 -10t206 23q44 24 44 96t-34 93q-33 21 -85 37l-211 70q-104 33 -146 96t-42 209t71 203t265 54t346 -34
l-15 -143q-262 10 -340 10zM735 1360l-352 -240l-61 92l307 299z" />
    <glyph glyph-name="Scedilla" unicode="&#x15e;" horiz-adv-x="937" 
d="M369 -203l20 92q121 11 169 -15t46 -118q-2 -134 -89 -204t-214 -50l33 105q53 -4 91 35t41 85t-16 57q-20 11 -81 13zM514 1438q158 0 309 -43l-14 -150q-231 10 -339 10q-108 1 -146 -31t-37 -150q0 -118 28 -162q29 -44 97 -68l219 -78q129 -43 180 -139t51 -262
q0 -236 -87 -313t-291 -77t-388 41l13 152q289 -10 381 -9t128 40t37 158q-1 119 -27 161t-91 66l-228 80q-123 41 -175 138q-52 98 -52 242t20 218t72 112t118 52q64 12 222 12z" />
    <glyph glyph-name="scedilla" unicode="&#x15f;" horiz-adv-x="851" 
d="M309 -201l21 92q121 11 169 -15t46 -118q-2 -134 -89 -204t-214 -50l32 105q53 -2 93 36q39 38 41 84t-18 57t-81 13zM401 858q-77 0 -107 -16t-30 -78t14 -89q14 -26 31 -34q16 -8 64 -25l217 -69q104 -33 148 -93t44 -188q0 -176 -81 -232t-269 -56t-344 28l12 148
q80 -10 242 -10t206 23q44 24 44 96t-34 93q-33 21 -85 37l-211 70q-104 33 -146 96t-42 209t71 203t265 54t346 -34l-15 -143q-262 10 -340 10z" />
    <glyph glyph-name="Scaron" unicode="&#x160;" horiz-adv-x="937" 
d="M514 1438q158 0 309 -43l-14 -150q-231 10 -339 10q-108 1 -146 -31t-37 -150q0 -118 28 -162q29 -44 97 -68l219 -78q129 -43 180 -139t51 -262q0 -236 -87 -313t-291 -77t-388 41l13 152q289 -10 381 -9t128 40t37 158q-1 119 -27 161t-91 66l-228 80q-123 41 -175 138
q-52 98 -52 242t20 218t72 112t118 52q64 12 222 12zM768 1786l-244 -264h-86l-241 264l63 84l215 -172h12l215 172z" />
    <glyph glyph-name="scaron" unicode="&#x161;" horiz-adv-x="851" 
d="M401 858q-77 0 -107 -16t-30 -78t14 -89q14 -26 31 -34q16 -8 64 -25l217 -69q104 -33 148 -93t44 -188q0 -176 -81 -232t-269 -56t-344 28l12 148q80 -10 242 -10t206 23q44 24 44 96t-34 93q-33 21 -85 37l-211 70q-104 33 -146 96t-42 209t71 203t265 54t346 -34
l-15 -143q-262 10 -340 10zM733 1417l-244 -264h-86l-241 264l63 84l215 -172h13l215 172z" />
    <glyph glyph-name="Tcedilla" unicode="&#x162;" horiz-adv-x="976" 
d="M395 -178l21 92q121 12 169 -14t46 -119q-2 -133 -89 -204t-214 -50l32 104q53 -4 93 35q39 39 41 85q2 45 -18 57t-81 14zM940 1413v-182h-348v-1231h-207v1231h-348v182h903z" />
    <glyph glyph-name="tcedilla" unicode="&#x163;" horiz-adv-x="663" 
d="M332 -197l20 93q121 12 169 -15t46 -119q-2 -134 -89 -204t-214 -50l33 105q53 -2 91 36t41 84t-16 57q-20 11 -81 13zM381 846v-557q0 -72 20 -100t76 -27h111l22 -154q-80 -26 -196 -26q-225 1 -228 280v584h-149v143l149 10v293h195v-293h235v-153h-235z" />
    <glyph glyph-name="Tcaron" unicode="&#x164;" horiz-adv-x="976" 
d="M940 1231h-348v-1231h-207v1231h-348v182h903v-182zM449 1522l-242 264l63 84l215 -172h13l215 172l65 -84l-243 -264h-86z" />
    <glyph glyph-name="tcaron" unicode="&#x165;" horiz-adv-x="663" 
d="M381 999h235v-153h-235v-557q0 -72 20 -100t76 -27h111l22 -154q-80 -26 -196 -26q-225 1 -228 280v584h-149v143l149 10v293h195v-293zM524 1587h51q37 0 49 -13t13 -48v-111q-2 -154 -66 -276l-84 22q20 119 21 211q-51 0 -51 53v101q2 35 17 48t50 13z" />
    <glyph glyph-name="Tbar" unicode="&#x166;" horiz-adv-x="976" 
d="M592 1231v-371h219v-112h-219v-748h-207v748h-221v112h221v371h-348v182h903v-182h-348z" />
    <glyph glyph-name="tbar" unicode="&#x167;" horiz-adv-x="663" 
d="M381 846v-187h192v-108h-192v-262q0 -72 20 -100t76 -27h111l22 -154q-80 -26 -196 -26q-225 1 -228 280v289h-102v108h102v187h-149v143l149 10v293h195v-293h235v-153h-235z" />
    <glyph glyph-name="Umacron" unicode="&#x16a;" horiz-adv-x="1103" 
d="M983 1413v-868q0 -311 -96 -441t-331 -131q-235 0 -334 130t-99 442v868h203v-868q0 -219 49 -304t176 -85t177 86t50 303v868h205zM795 1602h-480v145h480v-145z" />
    <glyph glyph-name="umacron" unicode="&#x16b;" 
d="M840 999v-999h-158l-14 133q-170 -160 -334 -160q-223 0 -223 277v749h196v-692q-1 -92 19 -128t77 -36q86 0 242 131v725h195zM721 1243h-479v146h479v-146z" />
    <glyph glyph-name="Uring" unicode="&#x16e;" horiz-adv-x="1103" 
d="M983 1413v-868q0 -311 -96 -441t-331 -131q-235 0 -334 130t-99 442v868h203v-868q0 -219 49 -304t176 -85t177 86t50 303v868h205zM555 1800q-37 0 -61 -34t-23 -87q0 -53 25 -85q24 -32 60 -32t60 32t25 86q-1 54 -25 87t-61 33zM555 1898q78 0 133 -63t55 -155
t-54 -155t-133 -63t-133 62t-54 155q0 91 54 155t132 64z" />
    <glyph glyph-name="uring" unicode="&#x16f;" 
d="M840 999v-999h-158l-14 133q-170 -160 -334 -160q-223 0 -223 277v749h196v-692q-1 -92 19 -128t77 -36q86 0 242 131v725h195zM479 1442q-37 0 -61 -34t-23 -87q0 -53 25 -85q24 -32 60 -32t61 32t25 86t-25 87t-62 33zM480 1104q-79 0 -133 62t-54 154t54 156t132 64
t133 -63q56 -63 56 -155t-54 -156q-54 -62 -134 -62z" />
    <glyph glyph-name="Uhungarumlaut" unicode="&#x170;" horiz-adv-x="1103" 
d="M983 1413v-868q0 -311 -96 -441t-331 -131q-235 0 -334 130t-99 442v868h203v-868q0 -219 49 -304t176 -85t177 86t50 303v868h205zM920 1804l-240 -329l-80 65l180 363zM625 1804l-238 -329l-84 65l182 363z" />
    <glyph glyph-name="uhungarumlaut" unicode="&#x171;" 
d="M645 999h195v-999h-158l-14 133q-170 -160 -334 -160q-223 0 -223 277v749h196v-692q-1 -92 19 -128t77 -36q86 0 242 131v725zM526 1182l181 362l139 -98l-240 -330zM313 1116l-84 66l183 362l139 -98z" />
    <glyph glyph-name="Uogonek" unicode="&#x172;" horiz-adv-x="1103" 
d="M983 1413v-868q0 -293 -84 -424t-283 -146q-72 -115 -102 -203t6 -112q35 -24 105 8l24 -82q-169 -70 -239 -16t-34 173q36 118 148 230q-219 9 -310 141t-91 431v868h203v-868q0 -219 49 -304t176 -85t177 86t50 303v868h205z" />
    <glyph glyph-name="uogonek" unicode="&#x173;" 
d="M334 -27q-223 0 -223 277v749h196v-692q-1 -92 19 -128t77 -36q86 0 242 131v725h195v-999h6q-76 -121 -106 -209q-30 -87 5 -111t105 7l24 -82q-168 -70 -238 -16t-34 175q37 121 156 236h-76l-14 133q-170 -160 -334 -160z" />
    <glyph glyph-name="Wcircumflex" unicode="&#x174;" horiz-adv-x="1587" 
d="M1270 0h-221q-61 0 -76 61l-142 1039q-2 27 -11 80t-11 80h-31q-6 -31 -12 -86t-10 -74l-142 -1039q-4 -27 -26 -44t-49 -17h-222q-61 0 -75 59l-193 1354h217l129 -1077q8 -39 21 -180h35q8 90 24 180l137 1010q14 68 76 67h211q61 0 76 -67l137 -1012q16 -96 23 -178
h36q0 19 19 176l133 1081h213l-193 -1354q-14 -59 -73 -59zM1083 1575l-67 -84l-213 197h-15l-215 -197l-63 84l215 264h143z" />
    <glyph glyph-name="wcircumflex" unicode="&#x175;" horiz-adv-x="1374" 
d="M1059 0h-180q-27 0 -51 17t-25 46l-84 658q-14 125 -23 160h-18q-16 -106 -23 -160l-84 -658q-3 -29 -25 -46t-52 -17h-175q-61 0 -73 55l-213 944h200l136 -720q16 -102 22 -154h21q4 27 13 78t13 76l86 659q2 27 22 44t48 17h188q29 0 48 -17t22 -46l84 -657
q2 -15 12 -69t15 -85h22q6 78 21 154l135 720h200l-213 -944q-10 -55 -69 -55zM977 1208l-68 -84l-213 197h-14l-215 -197l-64 84l215 265h144z" />
    <glyph glyph-name="Ycircumflex" unicode="&#x176;" horiz-adv-x="966" 
d="M584 0h-201v487l-375 926h215l207 -579q23 -53 47 -162h15q29 121 45 162l208 579h211l-372 -926v-487zM260 1493l-63 84l215 264h143l215 -264l-68 -84l-213 197h-14z" />
    <glyph glyph-name="ycircumflex" unicode="&#x177;" horiz-adv-x="894" 
d="M360 0q-51 0 -67 51l-273 948h211l177 -727q20 -76 26 -122h23q6 22 17 66t15 56l175 727h210l-296 -1046q-46 -158 -146 -264t-260 -109l-18 131q178 68 237 252l12 37h-43zM229 1124l-63 84l215 265h143l215 -265l-67 -84l-213 197h-15z" />
    <glyph glyph-name="Ydieresis" unicode="&#x178;" horiz-adv-x="966" 
d="M584 0h-201v487l-375 926h215l207 -579q23 -53 47 -162h15q29 121 45 162l208 579h211l-372 -926v-487zM662 1567h-64q-53 0 -53 55v111q0 55 53 55h64q53 0 53 -55v-111q0 -55 -53 -55zM369 1567h-66q-49 0 -49 55v111q0 55 49 55h66q51 0 51 -55v-111q0 -55 -51 -55z
" />
    <glyph glyph-name="Zacute" unicode="&#x179;" horiz-adv-x="944" 
d="M868 174v-174h-790v174l565 1065h-555v174h770v-174l-565 -1065h575zM414 1487l-62 92l307 299l107 -152z" />
    <glyph glyph-name="zacute" unicode="&#x17a;" horiz-adv-x="856" 
d="M778 162v-162h-700v162l479 676h-473v161h688v-161l-477 -676h483zM369 1120l-62 92l307 299l107 -151z" />
    <glyph glyph-name="Zdotaccent" unicode="&#x17b;" horiz-adv-x="944" 
d="M868 174v-174h-790v174l565 1065h-555v174h770v-174l-565 -1065h575zM508 1546h-64q-55 0 -55 60v114q0 57 55 58h64q55 0 55 -58v-114q0 -60 -55 -60z" />
    <glyph glyph-name="zdotaccent" unicode="&#x17c;" horiz-adv-x="856" 
d="M778 162v-162h-700v162l479 676h-473v161h688v-161l-477 -676h483zM463 1180h-64q-55 0 -55 59v115q0 57 55 57h64q55 0 55 -57v-115q0 -59 -55 -59z" />
    <glyph glyph-name="Zcaron" unicode="&#x17d;" horiz-adv-x="944" 
d="M868 174v-174h-790v174l565 1065h-555v174h770v-174l-565 -1065h575zM434 1522l-241 264l63 84l215 -172h12l215 172l66 -84l-244 -264h-86z" />
    <glyph glyph-name="zcaron" unicode="&#x17e;" horiz-adv-x="856" 
d="M778 162v-162h-700v162l479 676h-473v161h688v-161l-477 -676h483zM389 1153l-242 264l64 84l215 -172h12l215 172l66 -84l-244 -264h-86z" />
    <glyph glyph-name="florin" unicode="&#x192;" horiz-adv-x="765" 
d="M600 1270q-61 0 -88 -31t-33 -123l-22 -295h217l-15 -155h-213l-51 -676q-12 -145 -73 -220q-60 -75 -186 -75t-197 14l26 150h109q63 0 92 35t33 118l49 654h-166l8 147l170 8l25 318q10 141 79 219q68 78 192 78t192 -17l-27 -149h-121z" />
    <glyph glyph-name="Scommaaccent" unicode="&#x218;" horiz-adv-x="937" 
d="M442 -119h52q37 0 49 -13t12 -48v-111q-2 -154 -66 -276l-83 22q20 119 20 211q-51 0 -51 53v101q2 35 17 48t50 13zM514 1438q158 0 309 -43l-14 -150q-231 10 -339 10q-108 1 -146 -31t-37 -150q0 -118 28 -162q29 -44 97 -68l219 -78q129 -43 180 -139t51 -262
q0 -236 -87 -313t-291 -77t-388 41l13 152q289 -10 381 -9t128 40t37 158q-1 119 -27 161t-91 66l-228 80q-123 41 -175 138q-52 98 -52 242t20 218t72 112t118 52q64 12 222 12z" />
    <glyph glyph-name="scommaaccent" unicode="&#x219;" horiz-adv-x="851" 
d="M406 -119h51q37 0 49 -13t12 -48v-111q-2 -154 -65 -276l-84 22q20 119 20 211q-51 0 -51 53v101q2 35 17 48q16 13 51 13zM401 858q-77 0 -107 -16t-30 -78t14 -89q14 -26 31 -34q16 -8 64 -25l217 -69q104 -33 148 -93t44 -188q0 -176 -81 -232t-269 -56t-344 28
l12 148q80 -10 242 -10t206 23q44 24 44 96t-34 93q-33 21 -85 37l-211 70q-104 33 -146 96t-42 209t71 203t265 54t346 -34l-15 -143q-262 10 -340 10z" />
    <glyph glyph-name="uni021A" unicode="&#x21a;" horiz-adv-x="976" 
d="M442 -119h52q37 0 49 -13t12 -48v-111q-2 -154 -66 -276l-83 22q20 119 20 211q-51 0 -51 53v101q2 35 17 48t50 13zM940 1231h-348v-1231h-207v1231h-348v182h903v-182z" />
    <glyph glyph-name="uni021B" unicode="&#x21b;" horiz-adv-x="663" 
d="M354 -119h52q37 0 49 -13t12 -48v-111q-2 -154 -66 -276l-84 22q20 119 21 211q-51 0 -51 53v101q2 35 17 48t50 13zM381 846v-557q0 -72 20 -100t76 -27h111l22 -154q-80 -26 -196 -26q-225 1 -228 280v584h-149v143l149 10v293h195v-293h235v-153h-235z" />
    <glyph glyph-name="circumflex" unicode="&#x2c6;" horiz-adv-x="720" 
d="M649 1198l-67 -84l-213 197h-15l-215 -197l-63 84l215 264h143z" />
    <glyph glyph-name="caron" unicode="&#x2c7;" horiz-adv-x="718" 
d="M647 1407l-244 -264h-86l-241 264l63 84l215 -172h13l215 172z" />
    <glyph glyph-name="breve" unicode="&#x2d8;" horiz-adv-x="634" 
d="M483 1430l97 -15q10 -123 -62 -200t-199 -77t-199 78q-72 76 -63 199l97 15q0 -145 165 -146q80 0 122 38t42 108z" />
    <glyph glyph-name="dotaccent" unicode="&#x2d9;" horiz-adv-x="378" 
d="M158 1407h63q55 0 55 -57v-115q0 -59 -55 -59h-63q-55 0 -56 59v115q1 57 56 57z" />
    <glyph glyph-name="ring" unicode="&#x2da;" horiz-adv-x="505" 
d="M252 1423q-37 1 -61 -33q-23 -34 -23 -87t25 -85t61 -32t60 32t24 86t-24 86t-62 33zM252 1522q78 0 133 -64t55 -155q0 -93 -54 -155t-133 -62t-133 62t-54 154t54 156t132 64z" />
    <glyph glyph-name="ogonek" unicode="&#x2db;" horiz-adv-x="417" 
d="M236 4l83 -4q-75 -121 -105 -209t5 -112t105 8l24 -82q-168 -70 -238 -16t-35 175q36 121 161 240z" />
    <glyph glyph-name="tilde" unicode="&#x2dc;" horiz-adv-x="710" 
d="M170 1192h-88q-12 124 26 188t100 58t141 -54t122 -56q43 -7 57 17t15 82h86q14 -117 -25 -181t-103 -58q-65 6 -147 56t-120 56t-51 -19q-13 -26 -13 -89z" />
    <glyph glyph-name="hungarumlaut" unicode="&#x2dd;" horiz-adv-x="794" 
d="M700 1413l-239 -330l-80 66l180 362zM406 1413l-238 -330l-84 66l182 362z" />
    <glyph glyph-name="Delta" unicode="&#x394;" horiz-adv-x="1046" 
d="M524 1214l-37 -165l-221 -883h510l-215 885q-10 31 -22 94q-13 63 -15 69zM1016 0h-985v82l393 1331h201l391 -1331v-82z" />
    <glyph glyph-name="Omega" unicode="&#x3a9;" horiz-adv-x="1189" 
d="M595 1440q255 0 367 -165t111 -509q0 -219 -51 -353t-174 -249q57 16 113 16h145l2 -180h-436l-2 172q109 104 150 232q42 128 42 372t-61 364t-209 120t-207 -120t-59 -369t43 -369t149 -230v-172h-434v180h145q55 0 111 -16q-123 117 -174 253t-51 351q0 342 112 507
q113 165 368 165z" />
    <glyph glyph-name="mu" unicode="&#x3bc;" horiz-adv-x="999" 
d="M864 999v-999h-153l-19 139q-135 -166 -297 -166q-53 0 -104 21q10 -66 10 -119v-283h-172v1407h199v-692q-2 -145 112 -145q88 0 228 106v731h196z" />
    <glyph glyph-name="pi" unicode="&#x3c0;" horiz-adv-x="1069" 
d="M885 840v-840h-197v840h-309v-840h-197v840h-139v159h983l-2 -159h-139z" />
    <glyph glyph-name="uni0401" unicode="&#x401;" horiz-adv-x="937" 
d="M367 -4q-117 0 -182 69t-64 185v913q0 117 65 186q66 69 181 68q344 0 493 -16l-10 -160h-449q-47 0 -62 -29t-15 -102v-283h464v-165h-464v-361q0 -75 15 -103t62 -28h449l10 -158q-150 -16 -493 -16zM690 1608h-63q-53 0 -54 53v113q0 53 54 53h63q53 0 53 -53v-113
q0 -53 -53 -53zM397 1608h-65q-49 0 -49 53v113q0 53 49 53h65q51 0 52 -53v-113q-1 -53 -52 -53z" />
    <glyph glyph-name="uni0402" unicode="&#x402;" horiz-adv-x="1249" 
d="M882 909q148 0 228 -92t80 -350t-111 -373t-317 -104l-19 149q135 12 191 78q55 66 55 240t-34 225t-130 51t-233 -94v-639h-207v1231h-348v182h903v-182h-348v-424q142 102 290 102z" />
    <glyph glyph-name="uni0403" unicode="&#x403;" horiz-adv-x="862" 
d="M356 1417q332 0 478 -18l-11 -158h-397q-56 0 -76 -30t-20 -111v-1100h-205v1139q-1 123 65 201t166 77zM776 1726l-352 -239l-62 92l308 299z" />
    <glyph glyph-name="uni0404" unicode="&#x404;" horiz-adv-x="960" 
d="M559 1438q186 0 330 -41l-19 -160q-139 16 -313 16q-133 0 -191 -94t-67 -330l471 -2v-159h-473q2 -287 59 -398t201 -110q207 0 322 20l18 -155q-135 -49 -338 -50q-260 0 -365 164q-106 163 -106 567t106 568t365 164z" />
    <glyph glyph-name="uni0405" unicode="&#x405;" horiz-adv-x="937" 
d="M514 1438q158 0 309 -43l-14 -150q-231 10 -339 10q-108 1 -146 -31t-37 -150q0 -118 28 -162q29 -44 97 -68l219 -78q129 -43 180 -139t51 -262q0 -236 -87 -313t-291 -77t-388 41l13 152q289 -10 381 -9t128 40t37 158q-1 119 -27 161t-91 66l-228 80q-123 41 -175 138
q-52 98 -52 242t20 218t72 112t118 52q64 12 222 12z" />
    <glyph glyph-name="uni0406" unicode="&#x406;" horiz-adv-x="462" 
d="M334 0h-203v1413h203v-1413z" />
    <glyph glyph-name="uni0407" unicode="&#x407;" horiz-adv-x="460" 
d="M334 0h-203v1413h203v-1413zM346 1786h64q53 0 53 -55v-111q0 -55 -53 -55h-64q-51 0 -51 55v111q0 55 51 55zM53 1786h66q49 0 49 -55v-111q0 -55 -49 -55h-66q-51 0 -51 55v111q0 55 51 55z" />
    <glyph glyph-name="uni0408" unicode="&#x408;" horiz-adv-x="577" 
d="M453 1413v-1104q-1 -159 -61 -243t-171 -84t-180 26l22 148h76q111 0 111 143v1114h203z" />
    <glyph glyph-name="uni0409" unicode="&#x409;" horiz-adv-x="1611" 
d="M954 162h197q119 0 155 50t36 206t-36 211t-155 55h-197v-522zM557 1413h397v-559h197q221 0 308 -96t87 -343t-81 -339t-279 -92q-281 0 -432 16l2 14v1233h-181q-47 0 -67 -35t-25 -104q-23 -303 -31 -403q-20 -271 -75 -431q-45 -143 -122 -206t-208 -72l-14 141
q100 43 151 179t67 282q15 147 32 457l4 84q12 274 270 274z" />
    <glyph glyph-name="uni040A" unicode="&#x40a;" horiz-adv-x="1615" 
d="M961 162h196q121 0 156 49t35 205t-36 212t-155 56h-196v-522zM961 852h196q221 0 308 -96t87 -343t-81 -338t-279 -91q-283 0 -432 16v684h-426v-684h-203v1413h203v-561h426v561h201v-561z" />
    <glyph glyph-name="uni040B" unicode="&#x40b;" horiz-adv-x="1271" 
d="M908 909q150 0 218 -79q66 -79 66 -244v-586h-201v545q0 104 -30 144q-31 40 -113 40q-121 0 -256 -94v-635h-207v1231h-348v182h903v-182h-348v-428q166 106 316 106z" />
    <glyph glyph-name="uni040C" unicode="&#x40c;" horiz-adv-x="1019" 
d="M424 653h-105q14 -70 15 -145v-508h-203v1413h203v-434q0 -70 -15 -160h99q94 0 152 88t103 245t70 261h205q-91 -340 -132 -440q-41 -101 -65 -128q-63 -72 -97 -86q-33 -14 -68 -18v-8q47 -6 83 -22q53 -24 108 -113t119 -310q63 -221 83 -288h-215q-106 385 -121 428
q-63 180 -156 213q-29 12 -63 12zM461 1487l-62 92l308 299l106 -152z" />
    <glyph glyph-name="uni040D" unicode="&#x40d;" horiz-adv-x="1159" 
d="M1028 0h-197v954q0 111 11 187h-11q-27 -96 -59 -178l-393 -963h-248v1413h195v-946q0 -82 -11 -188h11q31 100 61 176l391 958h250v-1413zM692 1579l-61 -92l-352 239l106 152z" />
    <glyph glyph-name="uni040E" unicode="&#x40e;" 
d="M403 410q-55 0 -85 24t-46 78l-252 901h209l207 -801q6 -31 27 -30h55l219 831h209l-295 -1063q-53 -170 -115 -262t-170 -102t-229 30l23 150q166 -14 205 12t79 172l21 60h-62zM477 1524q-127 0 -199 77t-63 199l96 15q0 -145 166 -146q80 0 122 38t42 108l96 -15
q11 -124 -61 -200t-199 -76z" />
    <glyph glyph-name="uni040F" unicode="&#x40f;" horiz-adv-x="1126" 
d="M995 1413v-1413h-348l-8 -309h-139l-11 309h-358v1413h203v-1247h457v1247h204z" />
    <glyph glyph-name="uni0410" unicode="&#x410;" horiz-adv-x="1048" 
d="M692 604l-121 537q-25 106 -24 114h-45q-2 -16 -25 -114l-123 -537h338zM424 1413h201q57 0 69 -55l344 -1358h-209l-96 426h-420l-96 -426h-209l344 1358q12 55 72 55z" />
    <glyph glyph-name="uni0411" unicode="&#x411;" horiz-adv-x="997" 
d="M334 158h198q119 0 154 46t35 196t-35 202t-154 51h-198v-495zM336 813h196q218 0 306 -92t88 -328q0 -139 -26 -223t-87 -124t-131 -52t-222 -12t-325 18h-4v1413q215 14 368 14t361 -14l-16 -172h-508v-428z" />
    <glyph glyph-name="uni0412" unicode="&#x412;" horiz-adv-x="1034" 
d="M748 396q0 146 -44 201q-44 54 -165 56h-209v-493l215 -2q119 0 161 46t42 192zM520 1255h-190v-444h207q106 0 146 46t40 178t-44 176t-159 44zM950 335q0 -196 -83 -274t-287 -77q-295 0 -449 16v1413q137 17 377 17t324 -77q86 -77 86 -292q0 -154 -46 -233t-149 -91
v-8q125 -12 176 -105t51 -289z" />
    <glyph glyph-name="uni0413" unicode="&#x413;" horiz-adv-x="862" 
d="M356 1417q332 0 478 -18l-11 -158h-397q-56 0 -76 -30t-20 -111v-1100h-205v1139q-1 123 65 201t166 77z" />
    <glyph glyph-name="uni0414" unicode="&#x414;" horiz-adv-x="1181" 
d="M788 166v1081h-178q-59 -1 -82 -31t-28 -108q-20 -314 -58 -534t-110 -408h456zM1135 166v-475h-140l-16 309h-786l-19 -309h-139v475h104q133 365 164 973q8 129 79 201t191 73h416v-1247h146z" />
    <glyph glyph-name="uni0415" unicode="&#x415;" horiz-adv-x="937" 
d="M367 -4q-117 0 -182 69t-64 185v913q0 117 65 186q66 69 181 68q344 0 493 -16l-10 -160h-449q-47 0 -62 -29t-15 -102v-283h464v-165h-464v-361q0 -75 15 -103t62 -28h449l10 -158q-150 -16 -493 -16z" />
    <glyph glyph-name="uni0416" unicode="&#x416;" horiz-adv-x="1529" 
d="M952 653h-100q12 -74 12 -145v-508h-194v508q0 59 14 145h-106q-60 1 -86 -27q-25 -28 -41 -47t-50 -98t-61 -173q-26 -95 -49 -174t-39 -134h-211q111 397 139 475q74 195 185 240q31 14 67 18v8q-70 8 -106 43q-36 34 -55 56t-52 96q-33 73 -63 176q-30 102 -50 178
t-34 123h204q100 -348 127 -416q82 -168 177 -178h104q-14 72 -14 160v434h194v-434q0 -82 -12 -160h94q96 0 158 132q49 106 93 263q44 158 56 199h207q-12 -43 -57 -207q-81 -294 -141 -363q-61 -69 -96 -84q-35 -14 -70 -18v-8q106 -11 171 -99t124 -283q58 -195 98 -351
h-213q-14 51 -43 151t-60 211t-55 153q-60 107 -96 123q-35 15 -70 15z" />
    <glyph glyph-name="uni0417" unicode="&#x417;" horiz-adv-x="915" 
d="M432 1430q198 0 282 -77q83 -77 83 -292q0 -154 -45 -233t-146 -91v-8q121 -14 173 -107t52 -288q-1 -195 -83 -273q-82 -77 -304 -77t-391 49l17 147q213 -28 342 -28t170 47t41 195t-43 202q-43 55 -160 55h-205v162h205q100 0 137 46t37 179q0 134 -40 180t-140 46
t-316 -25l-14 158q150 33 348 33z" />
    <glyph glyph-name="uni0418" unicode="&#x418;" horiz-adv-x="1159" 
d="M1028 0h-197v954q0 111 11 187h-11q-27 -96 -59 -178l-393 -963h-248v1413h195v-946q0 -82 -11 -188h11q31 100 61 176l391 958h250v-1413z" />
    <glyph glyph-name="uni0419" unicode="&#x419;" horiz-adv-x="1159" 
d="M1028 0h-197v954q0 111 11 187h-11q-27 -96 -59 -178l-393 -963h-248v1413h195v-946q0 -82 -11 -188h11q31 100 61 176l391 958h250v-1413zM717 1810h145q10 -122 -62 -204t-198 -82q-127 0 -200 82t-62 204h145q0 -178 116 -178t116 178z" />
    <glyph glyph-name="uni041A" unicode="&#x41a;" horiz-adv-x="1019" 
d="M424 653h-105q14 -70 15 -145v-508h-203v1413h203v-434q0 -70 -15 -160h99q94 0 152 88t103 245t70 261h205q-91 -340 -132 -440q-41 -101 -65 -128q-63 -72 -97 -86q-33 -14 -68 -18v-8q47 -6 83 -22q53 -24 108 -113t119 -310q63 -221 83 -288h-215q-106 385 -121 428
q-63 180 -156 213q-29 12 -63 12z" />
    <glyph glyph-name="uni041B" unicode="&#x41b;" horiz-adv-x="1095" 
d="M965 1413v-1413h-203v1247h-178q-100 0 -109 -139q-29 -457 -52 -602q-23 -146 -56 -234q-98 -283 -338 -276l-15 160q127 39 164 171t56 296t40 522q16 268 256 268h435z" />
    <glyph glyph-name="uni041C" unicode="&#x41c;" horiz-adv-x="1470" 
d="M1024 1413h213q78 0 82 -84l47 -1329h-205l-37 1243h-30l-189 -1005q-18 -70 -86 -70h-166q-70 0 -90 70l-190 1005h-27l-35 -1243h-205l44 1329q4 84 79 84h222q63 0 81 -70l156 -827q29 -156 35 -190h22l191 1017q18 70 88 70z" />
    <glyph glyph-name="uni041D" unicode="&#x41d;" horiz-adv-x="1118" 
d="M989 1413v-1413h-205v666h-450v-666h-203v1413h203v-571h450v571h205z" />
    <glyph glyph-name="uni041E" unicode="&#x41e;" horiz-adv-x="1112" 
d="M556 1257q-144 0 -199 -118q-54 -119 -54 -432t54 -433q55 -120 199 -118q144 0 199 118q54 118 54 432t-54 433q-55 118 -199 118zM88 707q0 413 104 573t364 160t364 -160t104 -574t-103 -573q-103 -160 -365 -160t-365 160t-103 574z" />
    <glyph glyph-name="uni041F" unicode="&#x41f;" horiz-adv-x="1118" 
d="M987 1413v-1413h-203v1247h-450v-1247h-203v1413h856z" />
    <glyph glyph-name="uni0420" unicode="&#x420;" horiz-adv-x="987" 
d="M336 713h199q106 0 146 56t40 216t-40 215t-146 55l-199 -2v-540zM518 1432q240 0 323 -94t83 -354q0 -259 -79 -353t-282 -94q-109 0 -227 14v-551h-205v1413q147 19 387 19z" />
    <glyph glyph-name="uni0421" unicode="&#x421;" 
d="M549 1438q186 0 328 -41l-21 -158q-137 16 -307 16q-139 0 -193 -118q-53 -119 -53 -430t53 -431t193 -118q215 0 330 22l20 -155q-141 -49 -350 -50q-254 0 -358 164q-103 163 -103 567t103 568q104 164 358 164z" />
    <glyph glyph-name="uni0422" unicode="&#x422;" horiz-adv-x="976" 
d="M940 1231h-348v-1231h-207v1231h-348v182h903v-182z" />
    <glyph glyph-name="uni0423" unicode="&#x423;" 
d="M403 410q-55 0 -85 24t-46 78l-252 901h209l207 -801q6 -31 27 -30h55l219 831h209l-295 -1063q-53 -170 -115 -262t-170 -102t-229 30l23 150q166 -14 205 12t79 172l21 60h-62z" />
    <glyph glyph-name="uni0424" unicode="&#x424;" horiz-adv-x="1359" 
d="M1090 725q0 232 -67 324t-249 106v-856q182 14 249 104t67 322zM270 724q0 -232 67 -322t249 -105v860q-182 -14 -249 -107q-67 -94 -67 -326zM1298 725q0 -315 -115 -450q-116 -134 -401 -150v-197h-204v197q-287 16 -402 149q-115 134 -115 450t115 452t402 151v197
h202l2 -197q285 -16 401 -151q115 -136 115 -451z" />
    <glyph glyph-name="uni0425" unicode="&#x425;" horiz-adv-x="1024" 
d="M522 655h-20l-256 -655h-219l299 731l-277 682h215l238 -602h22l234 602h219l-281 -682l301 -731h-219z" />
    <glyph glyph-name="uni0426" unicode="&#x426;" horiz-adv-x="1163" 
d="M1116 166v-475h-139l-19 309h-827v1413h203v-1247h434v1247h205v-1247h143z" />
    <glyph glyph-name="uni0427" unicode="&#x427;" horiz-adv-x="1056" 
d="M360 508q-270 0 -270 323v582h203v-541q-2 -96 31 -139t110 -43q131 0 289 96v627h203v-1413h-203v629q-174 -121 -363 -121z" />
    <glyph glyph-name="uni0428" unicode="&#x428;" horiz-adv-x="1566" 
d="M1436 1413v-1413h-1305v1413h199v-1247h354v1247h199v-1247h356v1247h197z" />
    <glyph glyph-name="uni0429" unicode="&#x429;" horiz-adv-x="1615" 
d="M1569 166v-475h-137l-19 309h-1282v1413h199v-1247h350v1247h199v-1247h352v1247h196v-1247h142z" />
    <glyph glyph-name="uni042A" unicode="&#x42a;" horiz-adv-x="1241" 
d="M592 162h190q119 0 154 49t35 205t-36 212t-153 56h-190v-522zM592 854h190q222 0 308 -96t86 -344t-80 -339t-279 -91q-281 0 -430 16v1231h-350v182h555v-559z" />
    <glyph glyph-name="uni042B" unicode="&#x42b;" horiz-adv-x="1437" 
d="M334 162h196q119 0 154 49t35 205t-36 212t-153 56h-196v-522zM1307 1413v-1413h-201v1413h201zM334 854h196q222 0 308 -96t86 -344t-80 -339t-279 -91q-281 0 -430 16h-4v1413h203v-559z" />
    <glyph glyph-name="uni042C" unicode="&#x42c;" horiz-adv-x="989" 
d="M334 162h196q119 0 154 49t35 205t-36 212t-153 56h-196v-522zM334 854h196q222 0 308 -96t86 -344t-80 -339t-279 -91q-281 0 -430 16h-4v1413h203v-559z" />
    <glyph glyph-name="uni042D" unicode="&#x42d;" horiz-adv-x="960" 
d="M401 1438q259 0 365 -164t106 -567t-105 -567t-366 -165q-203 0 -338 50l19 155q119 -20 321 -20q143 0 201 110q57 111 60 398h-471v159l469 2q-8 236 -66 330t-193 94q-174 0 -313 -16l-18 160q143 41 329 41z" />
    <glyph glyph-name="uni042E" unicode="&#x42e;" horiz-adv-x="1564" 
d="M1008 156q141 0 196 118q56 118 56 432t-56 433t-196 119q-141 0 -193 -118q-51 -118 -51 -433t51 -434q52 -117 193 -117zM1020 1440q246 0 350 -160t104 -574t-104 -573q-104 -160 -354 -160q-250 1 -348 149t-105 529h-229v-651h-203v1413h203v-596h231
q10 347 110 485q99 138 345 138z" />
    <glyph glyph-name="uni042F" unicode="&#x42f;" horiz-adv-x="1026" 
d="M692 741v512l-205 2q-104 0 -142 -51t-38 -194q0 -144 41 -206t144 -63h200zM483 1432q266 0 414 -19v-1413h-205v567l-198 -2q-53 0 -85 -33t-47 -108l-86 -424h-215l95 432q37 162 170 201l-2 10q-119 19 -169 111q-51 92 -51 290t87 292q87 96 292 96z" />
    <glyph glyph-name="uni0430" unicode="&#x430;" horiz-adv-x="927" 
d="M379 150q117 0 239 129v190h-262q-47 -2 -63 -33t-17 -94v-53q0 -75 24 -107t79 -32zM501 1026q167 0 241 -74t73 -256v-696h-153l-21 145q-125 -164 -307 -163q-115 0 -187 74t-71 208v105q0 119 63 185t178 64h301v78q-2 92 -33 127q-32 35 -116 35t-338 -24l-16 145
q219 47 386 47z" />
    <glyph glyph-name="uni0431" unicode="&#x431;" horiz-adv-x="964" 
d="M494 801q-108 0 -147 -73q-38 -74 -38 -256t40 -256q39 -74 143 -75q104 0 144 75t40 264t-37 255t-145 66zM883 489q0 -256 -86 -385t-308 -129t-305 136q-52 84 -67 205q-15 120 -15 286q0 350 59 527q58 177 238 245q27 10 173 43t227 94l47 -155q-64 -48 -122 -68
t-133 -34t-126 -31q-160 -57 -199 -310q-12 -82 -18 -147h4q43 94 108 148q66 54 195 55q178 0 253 -112t75 -368z" />
    <glyph glyph-name="uni0432" unicode="&#x432;" horiz-adv-x="921" 
d="M301 141h182q94 0 129 30t35 118t-37 122t-133 33h-176v-303zM301 586h176q88 0 122 28t34 108q0 78 -38 106t-134 28l-160 2v-272zM846 233q0 -137 -75 -192t-293 -55t-361 12v999q127 13 338 13t285 -56t75 -211q0 -109 -41 -164t-133 -63v-6q109 -10 157 -75t48 -202z
" />
    <glyph glyph-name="uni0433" unicode="&#x433;" horiz-adv-x="788" 
d="M307 1006q317 0 453 -19l-8 -139h-359q-84 0 -84 -117v-731h-196v784q-1 222 194 222z" />
    <glyph glyph-name="uni0434" unicode="&#x434;" horiz-adv-x="1005" 
d="M647 160v686h-129q-84 0 -90 -117q-25 -344 -121 -569h340zM956 160v-455h-125l-16 295h-627l-14 -295h-129v455h90q96 258 117 602q12 238 233 237h351v-839h120z" />
    <glyph glyph-name="uni0435" unicode="&#x435;" horiz-adv-x="905" 
d="M571 557q63 0 64 133q0 94 -34 131t-133 37t-140 -62t-43 -239h286zM80 503q0 291 90 407t290 116t286 -84t86 -236q-2 -302 -203 -303h-342q10 -157 58 -209q49 -52 153 -52t297 24l16 -131q-119 -59 -334 -59t-306 118q-91 119 -91 409z" />
    <glyph glyph-name="uni0436" unicode="&#x436;" horiz-adv-x="1335" 
d="M1282 18q0 -6 6 -18h-198q-94 299 -121 352q-47 90 -121 92h-103q10 -55 11 -94v-350h-172v350q0 39 10 94h-109q-70 -2 -111 -78t-128 -366h-199q95 333 137 403q61 98 176 115v6q-83 12 -120 56q-16 18 -28 31q-11 13 -26 45q-14 32 -30 68t-29 84q-11 48 -29 104
t-26 87h194q82 -266 111 -319q47 -86 117 -86h98q-8 49 -8 115v290h172v-290q0 -70 -11 -115h95q80 0 131 113q25 55 96 292h197q-8 -31 -26 -87t-33 -114q-16 -58 -29 -84t-27 -58t-41 -63q-50 -57 -133 -69v-6q121 -16 173 -110t132 -377q2 -7 2 -13z" />
    <glyph glyph-name="uni0437" unicode="&#x437;" horiz-adv-x="843" 
d="M382 1018q186 0 268 -54q83 -54 83 -214q0 -111 -39 -167t-129 -67v-6q105 -10 153 -72t48 -206q0 -142 -82 -196t-284 -54t-345 32l15 150q184 -16 304 -16t154 27q35 28 35 114t-37 117t-135 30h-215v146h213q88 0 120 30t32 109q0 81 -37 105t-164 24t-238 -16
l-14 149q108 35 294 35z" />
    <glyph glyph-name="uni0438" unicode="&#x438;" horiz-adv-x="974" 
d="M858 0h-176v598q0 37 8 156h-6q-12 -39 -59 -140l-318 -614h-190v999h176v-600q0 -86 -8 -153h6q14 45 57 137l320 616h190v-999z" />
    <glyph glyph-name="uni0439" unicode="&#x439;" horiz-adv-x="974" 
d="M858 0h-176v598q0 37 8 156h-6q-12 -39 -59 -140l-318 -614h-190v999h176v-600q0 -86 -8 -153h6q14 45 57 137l320 616h190v-999zM604 1442h146q10 -123 -62 -205t-199 -82t-199 82t-63 205h146q-1 -178 115 -178t116 178z" />
    <glyph glyph-name="uni043A" unicode="&#x43a;" horiz-adv-x="907" 
d="M313 350v-350h-196v999h196v-288q0 -66 -10 -115h82q94 0 137 78t76 196t37 129h199q-93 -314 -142 -388q-49 -73 -151 -89v-4q121 -16 172 -104t131 -359q10 -37 16 -55h-205q-86 289 -118 350q-51 90 -140 92h-94q10 -55 10 -92z" />
    <glyph glyph-name="uni043B" unicode="&#x43b;" horiz-adv-x="952" 
d="M836 999v-999h-199v846h-133q-46 0 -66 -27t-26 -96q-41 -387 -70 -506q-55 -233 -293 -227l-20 151q67 18 95 46t42 85q31 117 61 486q11 123 67 182t167 59h375z" />
    <glyph glyph-name="uni043C" unicode="&#x43c;" horiz-adv-x="1261" 
d="M864 999h197q70 0 69 -73l31 -926h-180l-27 850h-26l-156 -674q-16 -63 -74 -63h-139q-57 0 -76 63l-153 674h-27l-24 -850h-179l29 926q0 74 72 73h192q53 0 76 -63l123 -551q20 -94 26 -143h23q14 88 27 143l123 551q18 63 73 63z" />
    <glyph glyph-name="uni043D" unicode="&#x43d;" horiz-adv-x="978" 
d="M860 999v-999h-192v455h-357v-455h-194v999h194v-393h357v393h192z" />
    <glyph glyph-name="uni043E" unicode="&#x43e;" 
d="M672 499q0 207 -41 283t-153 76t-152 -75t-39 -283q0 -208 40 -285q39 -76 151 -76t153 76t41 284zM80 499q0 287 91 407t307 120t306 -121t90 -407t-90 -405q-90 -120 -306 -120t-307 120t-91 406z" />
    <glyph glyph-name="uni043F" unicode="&#x43f;" horiz-adv-x="962" 
d="M844 999v-999h-193v840h-342v-840h-192v999h727z" />
    <glyph glyph-name="uni0440" unicode="&#x440;" horiz-adv-x="985" 
d="M547 147q82 0 118 71q35 71 35 274q0 202 -32 282t-98 80t-122 -35t-135 -110v-508q152 -54 234 -54zM631 1026q272 0 272 -532q0 -281 -78 -400q-77 -119 -237 -119t-281 97q8 -100 6 -199v-281h-196v1407h164l14 -149q55 78 151 127t185 49z" />
    <glyph glyph-name="uni0441" unicode="&#x441;" horiz-adv-x="825" 
d="M475 1026q168 0 281 -51l-25 -127q-133 10 -223 10q-125 0 -173 -76t-48 -282t48 -283q48 -76 177 -76t238 23l16 -133q-123 -55 -293 -56q-215 0 -304 118t-89 407q0 290 90 408t305 118z" />
    <glyph glyph-name="uni0442" unicode="&#x442;" horiz-adv-x="831" 
d="M791 838h-277v-838h-195v838h-278v161h750v-161z" />
    <glyph glyph-name="uni0443" unicode="&#x443;" horiz-adv-x="903" 
d="M365 0q-51 0 -68 51l-272 948h211l174 -727q20 -63 28 -122h21q4 10 35 122l174 727h211l-299 -1046q-59 -209 -158 -295q-121 -104 -346 -68l18 140q132 -12 194 42t107 191l13 37h-43z" />
    <glyph glyph-name="uni0444" unicode="&#x444;" horiz-adv-x="1208" 
d="M942 500q0 184 -55 262q-56 78 -199 92v-709q142 15 198 93t56 262zM266 498q0 -184 56 -261t200 -92v709q-144 -14 -200 -93t-56 -263zM1130 500q0 -264 -100 -385t-336 -138v-385h-180v388q-236 16 -336 137t-100 383t100 384t336 138v412h180v-410q236 -16 336 -138
t100 -386z" />
    <glyph glyph-name="uni0445" unicode="&#x445;" horiz-adv-x="905" 
d="M459 442h-10l-207 -442h-211l252 516l-234 483h209l188 -403h15l184 403h211l-233 -483l251 -516h-208z" />
    <glyph glyph-name="uni0446" unicode="&#x446;" horiz-adv-x="1009" 
d="M961 160v-455h-130l-18 295h-696v999h194v-839h332v839h195l-2 -839h125z" />
    <glyph glyph-name="uni0447" unicode="&#x447;" horiz-adv-x="905" 
d="M590 0v406q-156 -66 -287 -66q-221 0 -221 221v438h192v-370q0 -70 20 -99t75 -28q113 0 221 61v436h196l-2 -999h-194z" />
    <glyph glyph-name="uni0448" unicode="&#x448;" horiz-adv-x="1355" 
d="M1237 999v-999h-1120v999h190v-839h283v839h174v-839h285v839h188z" />
    <glyph glyph-name="uni0449" unicode="&#x449;" horiz-adv-x="1411" 
d="M1362 160v-455h-129l-19 295h-1097v999h190v-839h283v839h174v-839h285v839h188v-839h125z" />
    <glyph glyph-name="uni044A" unicode="&#x44a;" horiz-adv-x="1054" 
d="M502 143h147q84 0 114 34t30 132t-30 133t-114 35h-147v-334zM502 623h147q197 0 271 -69t74 -250t-72 -249t-242 -67q-236 0 -369 12v844h-272v155h463v-376z" />
    <glyph glyph-name="uni044B" unicode="&#x44b;" horiz-adv-x="1236" 
d="M307 143h152q86 0 118 34q31 34 31 131t-30 133q-31 36 -119 36h-152v-334zM1120 999v-999h-198v999h198zM307 623h152q199 0 273 -69t75 -250q0 -181 -72 -249t-241 -67q-238 0 -371 12h-6v999h190v-376z" />
    <glyph glyph-name="uni044C" unicode="&#x44c;" horiz-adv-x="864" 
d="M307 143h152q85 0 115 34t30 131t-31 133t-114 36h-152v-334zM307 623h152q197 0 271 -69t73 -250q0 -181 -71 -249t-238 -67q-238 0 -371 12h-6v999h190v-376z" />
    <glyph glyph-name="uni044D" unicode="&#x44d;" horiz-adv-x="860" 
d="M365 1014q229 0 322 -116t93 -402t-93 -403q-93 -116 -322 -116q-180 0 -302 43l17 140q128 -12 266 -12t184 58q46 60 52 228h-406v150h404q-8 152 -56 208t-159 56q-162 0 -277 -10l-16 137q111 39 293 39z" />
    <glyph glyph-name="uni044E" unicode="&#x44e;" horiz-adv-x="1343" 
d="M1059 503q0 203 -42 279t-154 76q-113 0 -151 -75t-38 -281t38 -280q38 -75 151 -75q112 0 154 76t42 280zM878 1026q208 0 296 -112t88 -410t-87 -411q-87 -111 -299 -111t-296 98t-93 358h-174v-438h-196v999h196v-407h176q10 248 95 341t294 93z" />
    <glyph glyph-name="uni044F" unicode="&#x44f;" horiz-adv-x="915" 
d="M608 512v340h-178q-88 0 -112 -33t-24 -134t24 -137t108 -36h182zM426 1012q256 0 375 -15v-997h-193v365h-192q-88 0 -105 -97l-59 -268h-201l72 301q25 106 156 127v8q-96 18 -137 85q-40 67 -40 207t71 212t253 72z" />
    <glyph glyph-name="uni0451" unicode="&#x451;" horiz-adv-x="905" 
d="M571 557q63 0 64 133q0 94 -34 131t-133 37t-140 -62t-43 -239h286zM80 503q0 291 90 407t290 116t286 -84t86 -236q-2 -302 -203 -303h-342q10 -157 58 -209q49 -52 153 -52t297 24l16 -131q-119 -59 -334 -59t-306 118q-91 119 -91 409zM647 1200h-63q-51 0 -52 53v111
q0 55 52 55h63q53 0 53 -55v-111q0 -53 -53 -53zM354 1200h-63q-51 0 -51 53v111q0 55 51 55h63q51 0 52 -55v-111q-1 -53 -52 -53z" />
    <glyph glyph-name="uni0452" unicode="&#x452;" horiz-adv-x="985" 
d="M682 827q221 0 225 -274v-563q0 -124 -48 -230t-132 -174l-111 86q92 133 93 316v508q0 86 -26 120t-91 35q-90 0 -238 -116v-535h-196v1006h-119v112h119v316h196l2 -316h277v-112h-277v-156q0 -86 -10 -168q170 145 336 145z" />
    <glyph glyph-name="uni0453" unicode="&#x453;" horiz-adv-x="788" 
d="M307 1006q317 0 453 -19l-8 -139h-359q-84 0 -84 -117v-731h-196v784q-1 222 194 222zM741 1360l-352 -240l-61 92l307 299z" />
    <glyph glyph-name="uni0454" unicode="&#x454;" horiz-adv-x="860" 
d="M496 -23q-229 0 -323 116q-93 116 -93 403q0 286 93 402t323 116q184 0 292 -39l-16 -137q-115 10 -251 11t-183 -56t-55 -209h403v-150h-405q6 -166 53 -226t162 -61q155 1 284 13l19 -140q-123 -43 -303 -43z" />
    <glyph glyph-name="uni0455" unicode="&#x455;" horiz-adv-x="858" 
d="M407 858q-79 0 -109 -16t-30 -88t22 -94t87 -44l215 -69q104 -33 148 -93t44 -188q0 -176 -80 -232t-268 -56q-190 0 -344 28l10 148q82 -10 244 -10t205 23q43 24 43 96t-31 93q-31 20 -86 37l-213 70q-104 33 -145 96t-41 209t72 203t264 54q194 -3 346 -34l-17 -143
q-256 10 -336 10z" />
    <glyph glyph-name="uni0456" unicode="&#x456;" horiz-adv-x="446" 
d="M322 0h-197v999h197v-999zM176 1425h94q55 0 56 -57v-115q0 -59 -56 -59h-94q-55 0 -55 59v115q0 57 55 57z" />
    <glyph glyph-name="uni0457" unicode="&#x457;" horiz-adv-x="444" 
d="M322 0h-197v999h197v-999zM338 1419h63q53 0 54 -55v-111q0 -53 -54 -53h-63q-51 0 -51 53v111q0 55 51 55zM45 1419h64q51 0 51 -55v-111q0 -53 -51 -53h-64q-51 0 -51 53v111q0 55 51 55z" />
    <glyph glyph-name="uni0458" unicode="&#x458;" horiz-adv-x="446" 
d="M322 999v-1009q0 -264 -181 -404l-108 86q92 133 92 318v1009h197zM178 1425h94q53 0 54 -57v-115q0 -59 -54 -59h-94q-55 0 -55 59v115q0 57 55 57z" />
    <glyph glyph-name="uni0459" unicode="&#x459;" horiz-adv-x="1359" 
d="M797 143h161q82 0 112 33t30 133t-30 136t-118 36h-155v-338zM797 625h155q199 0 273 -69q73 -69 73 -252t-68 -250t-241 -66q-242 0 -379 12v850h-94q-45 0 -64 -20t-24 -74q-33 -408 -71 -536q-39 -128 -121 -180t-181 -46l-12 135q33 15 49 23t42 36t48 88t35 166
q14 106 33 351q18 207 207 206h340v-374z" />
    <glyph glyph-name="uni045A" unicode="&#x45a;" horiz-adv-x="1366" 
d="M801 143h155q86 0 118 34t32 132t-31 134t-119 36h-155v-336zM801 623h155q199 0 274 -68t75 -250t-72 -250t-244 -67q-238 0 -373 12v479h-319v-479h-180v999h180v-376h319v376h185v-376z" />
    <glyph glyph-name="uni045B" unicode="&#x45b;" horiz-adv-x="985" 
d="M682 827q225 0 225 -274v-553h-198v496q0 88 -25 122q-26 34 -104 33q-78 0 -226 -116v-535h-196v1006h-119v112h119v316h196l2 -316h277v-112h-277v-156q0 -86 -10 -168q170 145 336 145z" />
    <glyph glyph-name="uni045C" unicode="&#x45c;" horiz-adv-x="907" 
d="M313 350v-350h-196v999h196v-288q0 -66 -10 -115h82q94 0 137 78t76 196t37 129h199q-93 -314 -142 -388q-49 -73 -151 -89v-4q121 -16 172 -104t131 -359q10 -37 16 -55h-205q-86 289 -118 350q-51 90 -140 92h-94q10 -55 10 -92zM403 1120l-61 92l307 299l107 -151z
" />
    <glyph glyph-name="uni045D" unicode="&#x45d;" horiz-adv-x="974" 
d="M858 0h-176v598q0 37 8 156h-6q-12 -39 -59 -140l-318 -614h-190v999h176v-600q0 -86 -8 -153h6q14 45 57 137l320 616h190v-999zM582 1212l-62 -92l-352 240l106 151z" />
    <glyph glyph-name="uni045E" unicode="&#x45e;" horiz-adv-x="903" 
d="M365 0q-51 0 -68 51l-272 948h211l174 -727q20 -63 28 -122h21q4 10 35 122l174 727h211l-299 -1046q-59 -209 -158 -295q-121 -104 -346 -68l18 140q132 -12 194 42t107 191l13 37h-43zM446 1155q-128 0 -200 83t-62 206h146q0 -180 116 -180t115 180h146
q10 -125 -62 -207t-199 -82z" />
    <glyph glyph-name="uni045F" unicode="&#x45f;" horiz-adv-x="972" 
d="M854 999v-999h-289l-14 -338h-131l-17 338h-286v999h192l6 -839h344v839h195z" />
    <glyph glyph-name="uni0490" unicode="&#x490;" horiz-adv-x="876" 
d="M846 1724v-342l-10 -141h-410q-56 0 -76 -30t-20 -111v-1100h-205v1139q-1 123 65 201t166 77q227 0 338 -10l19 317h133z" />
    <glyph glyph-name="uni0491" unicode="&#x491;" horiz-adv-x="794" 
d="M393 848q-82 0 -82 -117v-731h-196v784q0 221 192 222q207 0 307 -7l19 299h129l2 -311l-12 -139h-359z" />
    <glyph glyph-name="uni04B0" unicode="&#x4b0;" horiz-adv-x="983" 
d="M594 449v-449h-201v449h-237v120h206l-344 844h215l209 -579q8 -23 47 -164h13q29 121 45 161l209 582h211l-340 -844h204l3 -120h-240z" />
    <glyph glyph-name="uni04B1" unicode="&#x4b1;" horiz-adv-x="987" 
d="M831 160v-125h-237v-443h-201v443h-239v125h206l-342 839h213l209 -573q10 -25 47 -162h15q18 100 45 162l207 573h213l-340 -839h204z" />
    <glyph glyph-name="uni04B6" unicode="&#x4b6;" horiz-adv-x="1112" 
d="M1067 141v-450h-139l-19 309h-184v616q-176 -109 -360 -108q-141 0 -208 79t-67 244v582h205v-541q-4 -98 30 -142t113 -44q133 0 287 98v629h205v-1272h137z" />
    <glyph glyph-name="uni04B7" unicode="&#x4b7;" horiz-adv-x="958" 
d="M909 160v-455h-129l-18 295h-172v406q-156 -66 -287 -66q-221 0 -221 221v438h192v-370q0 -70 20 -99t75 -28q113 0 221 61v436h196l-2 -839h125z" />
    <glyph glyph-name="uni04BA" unicode="&#x4ba;" horiz-adv-x="1058" 
d="M692 905q141 0 209 -80t68 -243v-582h-203v541q0 100 -33 143t-112 43q-141 0 -287 -96v-631h-203v1413h203v-612q86 51 187 77t171 27z" />
    <glyph glyph-name="uni04C0" unicode="&#x4c0;" horiz-adv-x="466" 
d="M336 0h-205v1413h205v-1413z" />
    <glyph glyph-name="Wgrave" unicode="&#x1e80;" horiz-adv-x="1587" 
d="M1270 0h-221q-61 0 -76 61l-142 1039q-2 27 -11 80t-11 80h-31q-6 -31 -12 -86t-10 -74l-142 -1039q-4 -27 -26 -44t-49 -17h-222q-61 0 -75 59l-193 1354h217l129 -1077q8 -39 21 -180h35q8 90 24 180l137 1010q14 68 76 67h211q61 0 76 -67l137 -1012q16 -96 23 -178
h36q0 19 19 176l133 1081h213l-193 -1354q-14 -59 -73 -59zM887 1577l-62 -92l-352 239l107 152z" />
    <glyph glyph-name="wgrave" unicode="&#x1e81;" horiz-adv-x="1374" 
d="M1059 0h-180q-27 0 -51 17t-25 46l-84 658q-14 125 -23 160h-18q-16 -106 -23 -160l-84 -658q-3 -29 -25 -46t-52 -17h-175q-61 0 -73 55l-213 944h200l136 -720q16 -102 22 -154h21q4 27 13 78t13 76l86 659q2 27 22 44t48 17h188q29 0 48 -17t22 -46l84 -657
q2 -15 12 -69t15 -85h22q6 78 21 154l135 720h200l-213 -944q-10 -55 -69 -55zM780 1212l-61 -92l-352 240l106 151z" />
    <glyph glyph-name="Wacute" unicode="&#x1e82;" horiz-adv-x="1587" 
d="M1270 0h-221q-61 0 -76 61l-142 1039q-2 27 -11 80t-11 80h-31q-6 -31 -12 -86t-10 -74l-142 -1039q-4 -27 -26 -44t-49 -17h-222q-61 0 -75 59l-193 1354h217l129 -1077q8 -39 21 -180h35q8 90 24 180l137 1010q14 68 76 67h211q61 0 76 -67l137 -1012q16 -96 23 -178
h36q0 19 19 176l133 1081h213l-193 -1354q-14 -59 -73 -59zM1083 1724l-352 -239l-61 92l307 299z" />
    <glyph glyph-name="wacute" unicode="&#x1e83;" horiz-adv-x="1374" 
d="M1059 0h-180q-27 0 -51 17t-25 46l-84 658q-14 125 -23 160h-18q-16 -106 -23 -160l-84 -658q-3 -29 -25 -46t-52 -17h-175q-61 0 -73 55l-213 944h200l136 -720q16 -102 22 -154h21q4 27 13 78t13 76l86 659q2 27 22 44t48 17h188q29 0 48 -17t22 -46l84 -657
q2 -15 12 -69t15 -85h22q6 78 21 154l135 720h200l-213 -944q-10 -55 -69 -55zM979 1360l-352 -240l-62 92l307 299z" />
    <glyph glyph-name="Wdieresis" unicode="&#x1e84;" horiz-adv-x="1587" 
d="M1270 0h-221q-61 0 -76 61l-142 1039q-2 27 -11 80t-11 80h-31q-6 -31 -12 -86t-10 -74l-142 -1039q-4 -27 -26 -44t-49 -17h-222q-61 0 -75 59l-193 1354h217l129 -1077q8 -39 21 -180h35q8 90 24 180l137 1010q14 68 76 67h211q61 0 76 -67l137 -1012q16 -96 23 -178
h36q0 19 19 176l133 1081h213l-193 -1354q-14 -59 -73 -59zM909 1786h64q53 0 53 -55v-111q0 -55 -53 -55h-64q-53 0 -53 55v111q0 55 53 55zM614 1786h66q51 0 51 -55v-111q0 -55 -51 -55h-66q-49 0 -49 55v111q0 55 49 55z" />
    <glyph glyph-name="wdieresis" unicode="&#x1e85;" horiz-adv-x="1374" 
d="M1059 0h-180q-27 0 -51 17t-25 46l-84 658q-14 125 -23 160h-18q-16 -106 -23 -160l-84 -658q-3 -29 -25 -46t-52 -17h-175q-61 0 -73 55l-213 944h200l136 -720q16 -102 22 -154h21q4 27 13 78t13 76l86 659q2 27 22 44t48 17h188q29 0 48 -17t22 -46l84 -657
q2 -15 12 -69t15 -85h22q6 78 21 154l135 720h200l-213 -944q-10 -55 -69 -55zM805 1421h63q53 0 54 -55v-111q0 -55 -54 -55h-63q-53 0 -53 55v111q0 55 53 55zM510 1421h65q51 0 52 -55v-111q0 -55 -52 -55h-65q-49 0 -49 55v111q0 55 49 55z" />
    <glyph glyph-name="Ygrave" unicode="&#x1ef2;" horiz-adv-x="966" 
d="M584 0h-201v487l-375 926h215l207 -579q23 -53 47 -162h15q29 121 45 162l208 579h211l-372 -926v-487zM512 1487l-352 239l106 152l307 -299z" />
    <glyph glyph-name="ygrave" unicode="&#x1ef3;" horiz-adv-x="894" 
d="M360 0q-51 0 -67 51l-273 948h211l177 -727q20 -76 26 -122h23q6 22 17 66t15 56l175 727h210l-296 -1046q-46 -158 -146 -264t-260 -109l-18 131q178 68 237 252l12 37h-43zM481 1120l-352 240l107 151l307 -299z" />
    <glyph glyph-name="endash" unicode="&#x2013;" horiz-adv-x="952" 
d="M846 442h-740v152h740v-152z" />
    <glyph glyph-name="emdash" unicode="&#x2014;" horiz-adv-x="1449" 
d="M1343 442h-1237v152h1237v-152z" />
    <glyph glyph-name="quoteleft" unicode="&#x2018;" horiz-adv-x="376" 
d="M219 1006h-55q-41 0 -55 14t-13 53l-2 119q2 164 72 301l94 -25q-23 -119 -22 -229q59 0 55 -57v-109q-3 -39 -19 -53t-55 -14z" />
    <glyph glyph-name="quoteright" unicode="&#x2019;" horiz-adv-x="372" 
d="M156 1479h57q39 -1 53 -15t13 -51l2 -121q-2 -160 -72 -301l-94 25q23 123 22 229q-55 0 -55 58v110q2 37 20 51t54 15z" />
    <glyph glyph-name="quotesinglbase" unicode="&#x201a;" horiz-adv-x="397" 
d="M172 236h55q41 0 55 -14t13 -52l2 -121q-2 -164 -72 -301l-94 25q23 123 23 229q-57 0 -58 57v111q2 38 20 52t56 14z" />
    <glyph glyph-name="quotedblleft" unicode="&#x201c;" horiz-adv-x="665" 
d="M508 1006h-57q-41 0 -56 14q-14 14 -12 51l-2 121q2 164 72 301l96 -25q-23 -119 -23 -229q55 0 56 -57v-111q-4 -35 -20 -50t-54 -15zM221 1006h-59q-39 0 -53 14t-13 51l-2 121q2 164 72 301l96 -25q-23 -104 -22 -229q55 0 55 -57v-111q-5 -35 -21 -50t-53 -15z" />
    <glyph glyph-name="quotedblright" unicode="&#x201d;" horiz-adv-x="659" 
d="M444 1479h56q39 -1 53 -15t14 -51v-121q-2 -166 -71 -301l-95 25q23 106 23 229q-55 0 -55 58v110q2 37 19 51t56 15zM156 1479h57q39 -1 53 -15t13 -51l2 -121q-2 -160 -72 -301l-94 25q23 123 22 229q-55 0 -55 58v110q2 37 20 51t54 15z" />
    <glyph glyph-name="quotedblbase" unicode="&#x201e;" horiz-adv-x="684" 
d="M457 236h55q41 0 55 -14t13 -52l2 -121q-2 -164 -72 -301l-94 25q23 123 22 229q-55 0 -55 57v111q1 38 19 52t55 14zM170 236h55q39 0 55 -14t13 -52l2 -121q-2 -164 -72 -301l-94 25q23 123 23 229q-55 0 -56 57v111q2 38 18 52t56 14z" />
    <glyph glyph-name="dagger" unicode="&#x2020;" horiz-adv-x="770" 
d="M711 999v-172l-213 23v149h213zM59 999h213v-149l-213 -23v172zM473 -225h-176l10 1102v114l-10 424h178l-10 -424v-114z" />
    <glyph glyph-name="daggerdbl" unicode="&#x2021;" horiz-adv-x="831" 
d="M741 190h-213v150l213 22v-172zM301 190h-211v172l211 -22v-150zM528 999h213v-172l-213 23v149zM90 999h211v-149l-211 -23v172zM496 995v-805l8 -415h-176l10 415v805l-10 420h176z" />
    <glyph glyph-name="bullet" unicode="&#x2022;" horiz-adv-x="612" 
d="M299 741h20q88 0 122 -39t34 -137v-26q0 -105 -34 -145t-122 -40h-20q-92 0 -128 40t-36 145v26q0 98 36 137t128 39z" />
    <glyph glyph-name="ellipsis" unicode="&#x2026;" horiz-adv-x="1470" 
d="M1239 254h64q39 0 54 -16t15 -56v-108q0 -42 -15 -58t-54 -16h-64q-41 0 -56 16t-16 58v108q-1 40 15 56t57 16zM705 254h61q41 0 56 -16t16 -56v-108q0 -42 -16 -58t-56 -16h-61q-41 0 -57 16q-15 16 -15 58v108q0 41 15 57q16 15 57 15zM168 254h63q39 0 55 -16t17 -56
v-108q0 -42 -15 -58t-57 -16h-63q-39 0 -54 16t-16 58v108q0 40 16 56t54 16z" />
    <glyph glyph-name="perthousand" unicode="&#x2030;" horiz-adv-x="2119" 
d="M1907 399q1 171 -27 233t-102 62t-102 -63t-28 -231t28 -234q28 -64 102 -64t102 64t27 233zM1148 694q-76 0 -102 -62t-26 -232t27 -234t101 -64t102 65t28 233t-28 232q-28 62 -102 62zM1778 819q152 0 213 -96q61 -97 61 -325t-61 -323t-213 -95t-213 95t-61 323
t60 324q62 96 214 97zM1149 819q152 0 213 -96q61 -97 61 -325t-61 -323t-213 -95t-213 95q-62 95 -62 323t62 324t213 97zM213 1020q0 -170 27 -234q26 -64 100 -63q74 0 102 62q28 61 27 233q1 172 -27 236t-102 63q-74 1 -100 -63t-27 -234zM455 0h-133l710 1413h133z
M66 1020q0 228 61 324t214 96t214 -95t61 -325t-61 -324q-61 -96 -214 -96t-214 96t-61 324z" />
    <glyph glyph-name="guilsinglleft" unicode="&#x2039;" horiz-adv-x="526" 
d="M440 874l-188 -360l190 -367l-102 -69l-266 414v45l264 405z" />
    <glyph glyph-name="guilsinglright" unicode="&#x203a;" horiz-adv-x="530" 
d="M453 537v-45l-265 -414l-104 69l190 367l-188 360l102 68z" />
    <glyph glyph-name="fraction" unicode="&#x2044;" horiz-adv-x="264" 
d="M-156 0h-135l711 1413h135z" />
    <glyph glyph-name="Euro" unicode="&#x20ac;" horiz-adv-x="1048" 
d="M74 528v121h123v58q0 57 2 86h-125v120h131q27 266 137 396q111 129 330 129q152 0 280 -41l-20 -162q-117 29 -273 18q-109 -8 -165 -90t-74 -250h391l-12 -120h-387l-2 -91v-53h346l-11 -121h-329q16 -186 73 -275t170 -93q168 -9 295 22l19 -157q-125 -49 -301 -50
q-225 1 -336 137t-133 416h-129z" />
    <glyph glyph-name="trademark" unicode="&#x2122;" horiz-adv-x="1613" 
d="M1159 743h-94q-41 0 -57 45l-117 529h-17l-24 -670h-125l25 723q4 55 49 55h135q39 0 55 -45l94 -432q6 -31 21 -110h16q4 14 9 53t12 59l94 430q12 45 53 45h139q51 0 52 -55l24 -723h-127l-26 670h-17l-116 -529q-16 -45 -58 -45zM653 1425v-116h-207v-662h-139v662
h-205v116h551z" />
    <glyph glyph-name="partialdiff" unicode="&#x2202;" horiz-adv-x="952" 
d="M444 152q115 0 161 130t61 386q-92 88 -193 88q-190 0 -201 -289q-4 -143 38 -229t134 -86zM203 1288v152q199 2 319 -25t204 -109q85 -82 117 -228q32 -148 23 -388q-12 -352 -113 -533t-313 -182q-106 0 -183 42t-115 115q-74 142 -66 341t95 326t246 124t253 -126
q2 151 -16 241q-37 188 -212 230q-87 20 -239 20z" />
    <glyph glyph-name="emptyset" unicode="&#x2205;" horiz-adv-x="1402" 
d="M735 350h-80q-14 0 -14 -16v-76q0 -14 14 -14h80q16 0 17 14v76q-1 16 -17 16zM702 1116q-104 0 -249 -22l6 -93q123 19 251 19t128 -94q0 -75 -100 -178q-38 -39 -68 -107t-31 -147h111q0 72 29 132q30 60 67 95t66 89q30 54 30 116q0 190 -240 190zM702 1296
q248 0 423 -175t175 -423t-175 -424t-423 -176t-424 176t-176 424t176 423t424 175z" />
    <glyph glyph-name="product" unicode="&#x220f;" horiz-adv-x="1187" 
d="M1130 1245h-155v-1454h-197v1454h-366v-1454h-197v1454h-158v168h1073v-168z" />
    <glyph glyph-name="summation" unicode="&#x2211;" horiz-adv-x="987" 
d="M891 1247h-574l254 -540l-276 -775h612v-165h-831v165l276 775l-256 540v166h795v-166z" />
    <glyph glyph-name="minus" unicode="&#x2212;" horiz-adv-x="966" 
d="M856 530h-745v148h745v-148z" />
    <glyph glyph-name="radical" unicode="&#x221a;" horiz-adv-x="948" 
d="M504 0h-232q-16 0 -20 16l-209 983h162l172 -866h22l361 1661h162l-396 -1778q-6 -16 -22 -16z" />
    <glyph glyph-name="infinity" unicode="&#x221e;" horiz-adv-x="1282" 
d="M911 477q117 -1 117 147t-110 148q-48 0 -88 -28t-56 -50t-53 -82q81 -135 190 -135zM375 477q55 0 96 35t92 109q-35 55 -54 81t-57 48q-38 23 -85 22q-113 0 -113 -148t121 -147zM958 918q102 0 169 -72t67 -213t-73 -221t-183 -80q-156 0 -295 174
q-147 -174 -303 -174q-106 0 -180 81t-74 221t71 212t179 72q168 0 307 -185q149 185 315 185z" />
    <glyph glyph-name="integral" unicode="&#x222b;" horiz-adv-x="598" 
d="M378 1462q106 0 175 -8l-14 -141h-105q-49 0 -69 -35t-19 -123l78 -1337q8 -139 -39 -206t-169 -67t-169 9l12 141h103q49 0 69 37t19 125l-76 1333q-8 133 44 203q54 69 160 69z" />
    <glyph glyph-name="approxequal" unicode="&#x2248;" horiz-adv-x="968" 
d="M721 518h131q40 -256 -178 -254q-58 2 -188 58t-173 59q-43 2 -54 -21t-11 -90h-129q-23 137 27 201q51 63 149 59q51 -2 182 -59t175 -59t57 19q12 22 12 87zM721 911h131q40 -260 -178 -256q-58 1 -188 59t-172 60t-54 -20t-12 -90h-129q-23 134 27 198t149 60
q51 -4 182 -60t176 -57q45 -2 57 18q11 20 11 88z" />
    <glyph glyph-name="notequal" unicode="&#x2260;" horiz-adv-x="966" 
d="M856 459v-148h-508l-127 -252l-51 29l113 223h-172v148h245l144 284h-389v148h462l113 223l53 -31l-98 -192h215v-148h-289l-143 -284h432z" />
    <glyph glyph-name="lessequal" unicode="&#x2264;" horiz-adv-x="917" 
d="M817 152h-721v145h721v-145zM807 948l-522 -203l522 -186v-158l-692 265v157l692 283v-158z" />
    <glyph glyph-name="greaterequal" unicode="&#x2265;" horiz-adv-x="917" 
d="M821 152h-721v145h721v-145zM803 823v-157l-692 -265v158l524 186l-524 203v158z" />
    <glyph glyph-name="lozenge" unicode="&#x25ca;" horiz-adv-x="937" 
d="M203 709l268 -514l264 514l-264 510zM485 1415l406 -688q10 -18 0 -37l-406 -692q-16 -25 -30 0l-410 692q-8 18 0 37l410 688q14 25 30 0z" />
    <glyph glyph-name="c_t" horiz-adv-x="1415" 
d="M1133 846v-557q0 -72 20 -100t76 -27h110l21 -154q-80 -26 -194 -26q-230 1 -230 280v584h-432q-125 0 -173 -73t-48 -277t48 -279q48 -76 175 -76t227 23l19 -133q-121 -55 -281 -56q-217 0 -306 118q-89 119 -89 397t97 394t298 115h465v293h197v-293h237v-153h-237z
" />
    <glyph glyph-name="f_f_y" horiz-adv-x="2064" 
d="M1530 0q-51 0 -68 51l-198 711q-18 84 -82 84h-226v-846h-196v846h-377v-846h-195v846h-147v143l147 10v152q0 141 64 218t188 77q125 0 203 -14l-16 -148h-121q-70 0 -96 -32t-27 -124v-129h377v175q0 145 58 220q58 74 208 74t227 -14l-16 -147h-158q-67 0 -95 -35
t-28 -121v-152h265q176 0 231 -194l123 -533q20 -63 29 -122h24l205 849h211l-299 -1046q-47 -155 -147 -263t-259 -110l-16 131q178 68 238 252l14 37h-45z" />
    <glyph glyph-name="f_t" horiz-adv-x="1230" 
d="M946 846v-557q0 -72 22 -100t76 -27h109l23 -154q-80 -26 -196 -26q-228 1 -228 280v584h-369v-846h-195v846h-147v143l147 10v175q0 147 58 221q58 73 200 73q144 0 218 -14l-17 -147h-141q-68 0 -96 -35t-27 -121v-152h369v293h194v-293h238v-153h-238z" />
    <glyph glyph-name="f_y" horiz-adv-x="1490" 
d="M956 0q-51 0 -67 51l-199 711q-18 84 -82 84h-225v-846h-195v846h-147v143l147 10v175q0 147 58 221q58 73 208 73t226 -14l-16 -147h-158q-68 0 -96 -35t-27 -121v-152h264q180 0 232 -194l122 -533q20 -63 29 -122h25l35 116l170 733h210l-299 -1046
q-47 -158 -146 -264t-259 -109l-16 131q178 68 237 252l14 37h-45z" />
    <glyph glyph-name="s_t" horiz-adv-x="1447" 
d="M1163 846v-557q1 -72 21 -100t78 -27h108l23 -154q-79 -26 -195 -26q-228 1 -229 280v584h-537q-106 0 -137 -16t-31 -72q0 -57 14 -83t31 -34q16 -8 64 -25l217 -69q104 -33 148 -93t44 -188q0 -176 -81 -232t-269 -56t-344 28l12 148q80 -10 242 -10t206 23
q44 24 44 96t-34 93q-33 21 -85 37l-211 70q-104 33 -146 96t-42 201t72 190t253 49h570v293h194v-293h238v-153h-238z" />
    <glyph glyph-name="t_t" horiz-adv-x="1263" 
d="M981 846v-557q0 -72 20 -100t76 -27h111l20 -154q-80 -26 -196 -26q-226 1 -228 280v584h-403v-557q0 -72 20 -100t76 -27h111l22 -154q-80 -26 -196 -26q-225 1 -228 280v584h-149v143l149 10v293h195v-293h403v293h197v-293h238v-153h-238z" />
    <glyph glyph-name="t_y" horiz-adv-x="1523" 
d="M987 0q-53 0 -65 51l-201 711q-18 84 -82 84h-258v-557q0 -72 20 -100t76 -27h111l22 -154q-80 -26 -196 -26q-225 1 -228 280v584h-149v143l149 10v293h195v-293h297q180 0 231 -192l123 -535q20 -63 29 -122h20q6 20 20 62q13 42 17 58l172 729h213l-301 -1046
q-45 -155 -145 -263t-260 -110l-17 131q182 68 238 252l12 37h-43z" />
    <glyph glyph-name="brevecy" horiz-adv-x="634" 
d="M434 1425h146q10 -123 -62 -205t-199 -81q-127 0 -199 82t-63 204h146q-1 -178 115 -178t116 178z" />
    </font>
</defs>
</svg>
