<?xml version="1.0" encoding="iso-8859-1"?>
<!-- Generator: Adobe Illustrator 19.0.0, SVG Export Plug-In . SVG Version: 6.00 Build 0)  -->
<svg xmlns="http://www.w3.org/2000/svg"  version="1.1" id="Layer_1" x="0px" y="0px" viewBox="0 0 512 512" style="enable-background:new 0 0 512 512;" xml:space="preserve" width="512px" height="512px">
<g>
	<g>
		<path d="M304.959,285.207c-4.913,1.776-7.454,7.198-5.678,12.112c1.777,4.913,7.202,7.454,12.112,5.677    c28.086-10.157,52.244-29.766,68.023-55.212c2.807-4.524,3.6-10.049,2.18-15.159c-1.388-4.993-4.806-9.212-9.384-11.629    c18.872-39.954,28.818-84.107,28.818-128.304c0-14.929-7.775-28.881-22.584-40.716l0.994-1.945    c2.289-4.476,2.676-9.562,1.09-14.325c-1.603-4.809-5.013-8.694-9.605-10.939l-12.436-6.079    C352.41,6.926,339.946-0.461,326.274,0.022h-0.001c-17.813,0.614-32.525,14.803-33.492,32.302    c-0.518,9.391,2.773,18.345,9.269,25.208c6.559,6.932,15.842,10.907,25.464,10.907c1.386,0,2.788-0.087,4.197-0.26l13.918,6.805    c2.68,1.309,5.531,1.93,8.345,1.93c6,0,11.825-2.825,15.442-7.794c6.84,6.124,12.697,14.116,12.697,23.571    c0,41.208-9.234,82.372-26.748,119.664l-0.238-0.122c-8.75-4.482-19.295-1.638-24.526,6.604    c-14.298,22.517-38.041,35.433-65.139,35.433c-27.097,0-50.84-12.915-65.137-35.432c-5.234-8.248-15.78-11.088-24.526-6.606    l-0.24,0.122c-17.514-37.292-26.749-78.456-26.749-119.664c0-9.456,5.858-17.447,12.697-23.571    c3.618,4.969,9.442,7.794,15.442,7.794c2.812,0,5.665-0.62,8.345-1.929l13.918-6.805c1.409,0.173,2.811,0.26,4.197,0.26    c9.623,0,18.905-3.975,25.464-10.907c6.495-6.863,9.787-15.817,9.269-25.209c-0.967-17.498-15.679-31.687-33.492-32.301h-0.001    c-13.691-0.483-26.135,6.901-32.215,18.667l-12.438,6.08c-4.59,2.244-8,6.128-9.602,10.938c-1.586,4.763-1.199,9.851,1.088,14.324    l0.995,1.946c-14.81,11.836-22.584,25.787-22.584,40.715c0,44.197,9.945,88.349,28.818,128.304    c-4.578,2.418-7.995,6.637-9.384,11.629c-1.421,5.111-0.627,10.639,2.18,15.164c19.437,31.337,50.728,53.072,86.64,60.452    c6.7,44.107,45.04,77.66,90.368,77.66c19.12,0,34.678,15.555,34.68,34.674c0.001,9.019-3.648,17.613-10.274,24.197    c-6.718,6.674-15.879,10.487-25.168,10.487c-0.077,0-0.154,0-0.231-0.001c-29.167-0.198-57.055-9.119-80.651-25.797    c-4.269-3.014-10.168-2-13.184,2.265c-3.015,4.266-2,10.168,2.265,13.184c26.771,18.92,58.39,29.039,91.443,29.265    c0.119,0,0.236,0.001,0.354,0.001c14.25,0,28.266-5.814,38.503-15.984c10.229-10.162,15.862-23.521,15.86-37.619    c-0.005-29.549-24.048-53.588-53.597-53.588c-37.939,0-69.704-29.636-72.316-67.47c-0.305-4.428-3.65-8.048-8.04-8.703    c-33.414-4.989-62.784-24.303-80.578-52.993c-0.016-0.025-0.052-0.083-0.052-0.1l16.887-8.635    c17.847,28.033,47.377,44.106,81.042,44.106s63.2-16.078,81.047-44.113l8.67,4.428c0.049,0.026,0.092,0.057,0.143,0.082    c0.043,0.023,0.088,0.037,0.131,0.058l7.917,4.043c0.023,0.048-0.013,0.103-0.026,0.127    C349.792,259.659,329.059,276.491,304.959,285.207z M357.991,50.44c-0.005,0.01-0.011,0.021-0.016,0.032l-3.832,7.509    c-0.003,0.001-0.102,0.062-0.207,0.01l-16.648-8.138c-1.302-0.636-2.723-0.961-4.154-0.961c-0.685,0-1.371,0.074-2.048,0.224    c-1.223,0.271-2.425,0.409-3.573,0.409c-4.513,0-8.679-1.773-11.726-4.993c-2.885-3.051-4.35-7.016-4.121-11.165    c0.433-7.816,7.134-14.16,15.257-14.441c6.901-0.19,13.129,3.819,15.489,10.091c0.85,2.259,2.531,4.107,4.7,5.168l15.348,7.502    L357.991,50.44z M183.807,34.186c2.169-1.061,3.85-2.909,4.7-5.168c2.359-6.274,8.559-10.321,15.489-10.091    c8.122,0.282,14.824,6.625,15.257,14.44c0.229,4.15-1.235,8.115-4.121,11.166c-3.047,3.22-7.212,4.993-11.726,4.993    c-1.148,0-2.349-0.137-3.573-0.409c-2.093-0.465-4.278-0.204-6.202,0.737l-16.648,8.138c-0.071,0.035-0.139,0.02-0.165,0.02    c-0.006,0-0.01,0-0.011,0.003l-8.349-16.325L183.807,34.186z" fill="#007ab9"/>
	</g>
</g>
<g>
	<g>
		<path d="M393.41,356.229c-17.316-17.463-40.364-27.08-64.896-27.08c-17.405,0-32.187-13.011-34.388-30.267    c-0.66-5.182-5.415-8.855-10.578-8.186c-5.182,0.66-8.848,5.396-8.186,10.578c3.4,26.675,26.25,46.792,53.151,46.792    c19.449,0,37.726,7.63,51.464,21.483c13.736,13.849,21.209,32.192,21.047,51.648c-0.159,18.957-7.895,36.886-21.781,50.485    c-13.921,13.631-32.883,21.401-52.157,21.401c-0.301,0-0.604-0.001-0.904-0.005c-45.098-0.569-87.994-17.893-120.784-48.781    c-0.039-0.038-0.079-0.076-0.121-0.112l-1.912-1.739c-3.09-2.81-7.656-3.261-11.236-1.111c-8.293,4.984-17.823,7.618-27.56,7.618    c-29.554,0-53.597-24.043-53.597-53.597c0-29.554,24.043-53.597,53.597-53.597c29.554,0,53.597,24.043,53.597,53.597    c0,6.591-1.18,13.021-3.507,19.115c-1.864,4.88,0.583,10.346,5.462,12.211c4.884,1.861,10.347-0.584,12.211-5.462    c3.153-8.256,4.752-16.958,4.752-25.864c0-39.985-32.529-72.514-72.514-72.514s-72.514,32.529-72.514,72.514    s32.529,72.514,72.514,72.514c10.757,0,21.334-2.381,30.971-6.934c35.829,32.347,81.968,50.445,130.402,51.055    c0.38,0.005,0.758,0.008,1.136,0.008c24.187,0,47.965-9.731,65.397-26.801c17.509-17.145,27.261-39.817,27.463-63.843    C420.146,396.816,410.725,373.688,393.41,356.229z" fill="#007ab9"/>
	</g>
</g>
<g>
	<g>
		<path d="M164.57,360.677c-19.122,0-34.68,15.558-34.68,34.68c0,19.122,15.558,34.68,34.68,34.68    c7.505,0,14.654-2.368,20.675-6.849c4.191-3.12,5.06-9.045,1.941-13.234c-3.12-4.191-9.045-5.06-13.234-1.941    c-2.732,2.033-5.975,3.107-9.38,3.107c-8.693,0-15.764-7.071-15.764-15.764c0-8.693,7.071-15.764,15.763-15.764    c8.693,0,15.764,7.071,15.764,15.764c0,5.225,4.234,9.458,9.458,9.458s9.458-4.234,9.458-9.458    C199.25,376.235,183.692,360.677,164.57,360.677z" fill="#007ab9"/>
	</g>
</g>
<g>
</g>
<g>
</g>
<g>
</g>
<g>
</g>
<g>
</g>
<g>
</g>
<g>
</g>
<g>
</g>
<g>
</g>
<g>
</g>
<g>
</g>
<g>
</g>
<g>
</g>
<g>
</g>
<g>
</g>
</svg>
