<?xml version="1.0" encoding="iso-8859-1"?>
<!-- Generator: Adobe Illustrator 19.0.0, SVG Export Plug-In . SVG Version: 6.00 Build 0)  -->
<svg xmlns="http://www.w3.org/2000/svg"  version="1.1" id="Capa_1" x="0px" y="0px" viewBox="0 0 480.073 480.073" style="enable-background:new 0 0 480.073 480.073;" xml:space="preserve" width="512px" height="512px">
<g>
	<g>
		<path d="M431.459,416.066c-3.547-24.574-22.852-43.879-47.426-47.426V296c0-30.928-25.072-56-56-56c-30.928,0-56,25.072-56,56v120    c0,26.51-21.49,48-48,48c-26.51,0-48-21.49-48-48V288c63.131-4.218,112.141-56.728,112-120V48c0-17.673-14.327-32-32-32V8    c0-4.418-3.582-8-8-8h-24c-13.255,0-24,10.745-24,24s10.745,24,24,24h24c4.418,0,8-3.582,8-8v-8c8.837,0,16,7.163,16,16v120    c0,57.438-46.562,104-104,104s-104-46.562-104-104V48c0-8.837,7.163-16,16-16v8c0,4.418,3.582,8,8,8h24c13.255,0,24-10.745,24-24    s-10.745-24-24-24h-24c-4.418,0-8,3.582-8,8v8c-17.673,0-32,14.327-32,32v120c-0.141,63.272,48.869,115.782,112,120v128    c0,35.346,28.654,64,64,64c35.346,0,64-28.654,64-64V296c0-22.091,17.909-40,40-40c22.091,0,40,17.909,40,40v72.64    c-30.611,4.418-51.844,32.815-47.426,63.426s32.815,51.844,63.426,47.426S435.877,446.676,431.459,416.066z M240.033,32h-16    c-4.418,0-8-3.582-8-8s3.582-8,8-8h16V32z M96.033,16h16c4.418,0,8,3.582,8,8s-3.582,8-8,8h-16V16z M376.033,416    c4.418,0,8,3.582,8,8s-3.582,8-8,8s-8-3.582-8-8S371.615,416,376.033,416z M415.273,431.96    c-3.788,18.658-20.202,32.059-39.24,32.04c-22.091,0.022-40.018-17.868-40.04-39.96c-0.019-19.038,13.383-35.452,32.04-39.24    v16.64c-12.497,4.418-19.046,18.131-14.627,30.627c4.418,12.497,18.131,19.046,30.627,14.627s19.046-18.131,14.627-30.627    c-2.416-6.835-7.793-12.211-14.627-14.627V384.8C405.683,389.196,419.669,410.31,415.273,431.96z" fill="#FFFFFF"/>
	</g>
</g>
<g>
</g>
<g>
</g>
<g>
</g>
<g>
</g>
<g>
</g>
<g>
</g>
<g>
</g>
<g>
</g>
<g>
</g>
<g>
</g>
<g>
</g>
<g>
</g>
<g>
</g>
<g>
</g>
<g>
</g>
</svg>
