<svg xmlns="http://www.w3.org/2000/svg" viewBox="0 0 368.554 368.554" fill="#7f7f7f"><path d="M292.371 17.347h-44.344V0h-127.5v17.347H76.183c-20.005 0-36.281 16.275-36.281 36.281v278.646c0 20.005 16.275 36.281 36.281 36.281h216.188c20.005 0 36.281-16.275 36.281-36.281V53.627c0-20.005-16.276-36.28-36.281-36.28zM135.527 15h97.5v19.693h-97.5V15zm178.125 317.273c0 11.734-9.546 21.281-21.281 21.281H76.183c-11.734 0-21.281-9.546-21.281-21.281V53.627c0-11.734 9.546-21.281 21.281-21.281h44.344v17.347h127.5V32.347h44.344c11.734 0 21.281 9.546 21.281 21.281v278.645z"/><path d="M249.473 169.358l-7.8 11.849c-1.11 1.686-2.794 1.882-3.467 1.888-.691.001-2.36-.161-3.5-1.826l-.217-.317c-3.948-5.77-10.465-8.865-17.431-8.29-6.967.579-12.883 4.711-15.824 11.053l-4.166 8.982c-1.124 2.426-3.309 2.496-4.194 2.412-.887-.083-3.02-.555-3.677-3.146l-9.067-35.742c-2.199-8.67-9.665-14.475-18.598-14.475h-.107c-8.98.046-16.437 5.941-18.554 14.668l-8.178 33.702c-.642 2.646-2.813 3.112-3.716 3.19-.901.076-3.122-.009-4.208-2.507l-8.062-18.541a19.187 19.187 0 0 0-17.603-11.542H79.485v15h21.619c1.671 0 3.181.99 3.847 2.523l8.062 18.541c3.343 7.688 10.895 12.188 19.253 11.47 8.353-.721 15.027-6.451 17.003-14.598l8.178-33.702c.698-2.878 3.068-3.201 4.055-3.206 1.025.004 3.36.293 4.088 3.164l9.066 35.742c2.024 7.979 8.628 13.629 16.825 14.393.624.059 1.243.087 1.857.087 7.461 0 14.138-4.223 17.337-11.123l4.166-8.982c.927-1.998 2.727-2.354 3.458-2.416.728-.056 2.565-.006 3.809 1.812l.217.317a19.161 19.161 0 0 0 15.84 8.355h.173a19.162 19.162 0 0 0 15.861-8.64L262 177.604a4.183 4.183 0 0 1 3.503-1.888h23.563v-15h-23.563a19.147 19.147 0 0 0-16.03 8.642zM79.485 271.777h84.688v15H79.485zM79.485 308.443H248.86v15H79.485z"/></svg>