<svg width="117" height="102" viewBox="0 0 117 102" fill="none" xmlns="http://www.w3.org/2000/svg">
<path d="M18.9022 101.293C18.069 101.293 17.2468 100.958 16.6284 100.327C15.6524 99.3264 15.394 97.7991 15.9828 96.5151L21.7478 83.9625C8.43818 75.9832 0 61.0324 0 44.9946C0 20.1848 19.5118 0 43.4973 0H73.1532C97.1387 0 116.652 20.1848 116.652 44.9946C116.652 69.8003 97.1387 89.9844 73.1532 89.9844H43.4973C43.0328 89.9844 42.5677 89.9754 42.105 89.9628L20.3177 100.953C19.8654 101.18 19.3818 101.293 18.9022 101.293ZM43.4973 6.68322C23.0751 6.68322 6.46116 23.8699 6.46116 44.9946C6.46116 59.5965 14.6781 73.146 27.3967 79.5026C28.9951 80.3031 29.6704 82.2874 28.9086 83.945L25.779 90.7634L40.0072 83.5841C40.5019 83.3361 41.057 83.2364 41.6016 83.249C42.2287 83.288 42.8615 83.3012 43.4967 83.3012H73.1526C93.5754 83.3012 110.191 66.1145 110.191 44.9946C110.191 23.8699 93.5754 6.68322 73.1526 6.68322H43.4973Z" fill="white"/>
<path d="M18.9022 101.293C18.069 101.293 17.2468 100.958 16.6284 100.327C15.6524 99.3264 15.394 97.7991 15.9828 96.5151L21.7478 83.9625C8.43818 75.9832 0 61.0324 0 44.9946C0 20.1848 19.5118 0 43.4973 0H73.1532C97.1387 0 116.652 20.1848 116.652 44.9946C116.652 69.8003 97.1387 89.9844 73.1532 89.9844H43.4973C43.0328 89.9844 42.5677 89.9754 42.105 89.9628L20.3177 100.953C19.8654 101.18 19.3818 101.293 18.9022 101.293ZM43.4973 6.68322C23.0751 6.68322 6.46116 23.8699 6.46116 44.9946C6.46116 59.5965 14.6781 73.146 27.3967 79.5026C28.9951 80.3031 29.6704 82.2874 28.9086 83.945L25.779 90.7634L40.0072 83.5841C40.5019 83.3361 41.057 83.2364 41.6016 83.249C42.2287 83.288 42.8615 83.3012 43.4967 83.3012H73.1526C93.5754 83.3012 110.191 66.1145 110.191 44.9946C110.191 23.8699 93.5754 6.68322 73.1526 6.68322H43.4973Z" stroke="white"/>
</svg>
