<svg xmlns="http://www.w3.org/2000/svg" viewBox="0 0 512 512" fill="#7f7f7f"><path d="M464.143 191.814c-27.46-88.867-110.382-153.619-208.148-153.619-97.767 0-180.69 64.752-208.148 153.62C19.8 200.162 0 226.278 0 255.999c0 29.719 19.8 55.835 47.846 64.182 27.458 88.871 110.382 153.624 208.149 153.624s180.69-64.753 208.149-153.622C492.196 311.844 512 285.729 512 255.999c0-29.732-19.805-55.847-47.857-64.185zM42.049 296.854c-13.885-8.51-22.945-23.858-22.945-40.856 0-16.999 9.059-32.347 22.946-40.856a218.078 218.078 0 0 0-3.86 40.857c0 13.963 1.336 27.617 3.859 40.855zM255.995 454.7c-109.563 0-198.7-89.137-198.7-198.7 0-75.771 42.638-141.762 105.173-175.268 9.5 20.215 39.383 70.795 110.219 99.13a9.508 9.508 0 0 0 3.544.686 9.556 9.556 0 0 0 3.549-18.425c-64.362-25.745-91.763-72.396-100.002-89.616 21.698-9.047 45.329-14.35 70.086-15.104 6.62 13.427 25.628 44.949 64.903 62.802a9.515 9.515 0 0 0 3.947.858 9.556 9.556 0 0 0 8.703-5.602 9.551 9.551 0 0 0-4.744-12.648c-26.462-12.028-42.342-31.698-50.571-44.856 102.058 8.228 182.59 93.904 182.59 198.044.003 109.562-89.132 198.699-198.697 198.699zm213.943-157.838a218.048 218.048 0 0 0 3.86-40.862c0-13.965-1.337-27.624-3.862-40.866 13.893 8.504 22.957 23.855 22.957 40.865.002 17.008-9.061 32.359-22.955 40.863z"/><path d="M174.203 244.294c-22.839 0-41.419 18.58-41.419 41.419 0 5.275 4.276 9.552 9.552 9.552s9.552-4.277 9.552-9.552c0-12.305 10.01-22.314 22.314-22.314s22.315 10.01 22.315 22.314c0 5.275 4.276 9.552 9.552 9.552s9.552-4.277 9.552-9.552c.002-22.839-18.579-41.419-41.418-41.419zM337.787 244.294c-22.839 0-41.42 18.58-41.42 41.419a9.552 9.552 0 0 0 9.552 9.552 9.551 9.551 0 0 0 9.552-9.552c0-12.305 10.01-22.314 22.315-22.314 12.306 0 22.315 10.01 22.315 22.314a9.552 9.552 0 0 0 9.552 9.552 9.551 9.551 0 0 0 9.552-9.552c0-22.839-18.579-41.419-41.418-41.419zM314.461 350.003a9.555 9.555 0 0 0-13.511 0c-24.279 24.279-63.784 24.279-88.063 0-3.732-3.73-9.779-3.73-13.509 0-3.731 3.73-3.731 9.779 0 13.508 15.38 15.38 35.816 23.851 57.542 23.851s42.161-8.47 57.542-23.851a9.55 9.55 0 0 0-.001-13.508zM268.742 299.529h-25.493c-5.277 0-9.552 4.277-9.552 9.552s4.277 9.552 9.552 9.552h25.493c5.277 0 9.552-4.277 9.552-9.552s-4.276-9.552-9.552-9.552z"/></svg>