<svg xmlns="http://www.w3.org/2000/svg" viewBox="0 0 415.999 415.999" fill="#fff"><path d="M240 240h64v16h-64zM240 288h64v16h-64z"/><circle cx="208.24" cy="48" r="12"/><path d="M367.998 96c0-17.673-14.326-32-31.999-32h-44.424c-5.926-6.583-13.538-11.62-22.284-14.136-7.367-2.119-13.037-7.789-15.156-15.156C248.371 14.664 229.897 0 207.999 0c-21.898 0-40.37 14.663-46.134 34.707-2.122 7.376-7.806 13.039-15.181 15.164-8.738 2.518-16.342 7.55-22.262 14.129H80c-17.674 0-32 14.327-32 32v287.999c0 17.673 14.326 32 32 32h256c17.674 0 32-14.327 32-32L367.998 96zM128 95.742c.11-14.066 9.614-26.606 23.112-30.496 12.71-3.663 22.478-13.426 26.128-26.117C181.157 25.512 193.805 16 207.999 16c14.194 0 26.842 9.512 30.758 23.131 3.652 12.698 13.413 22.459 26.111 26.11 13.618 3.916 23.13 16.565 23.13 30.758v16H128V95.742zm208 304.257H80c-8.823 0-16-7.178-16-16V96c0-8.822 7.177-16 16-16h34.742a47.876 47.876 0 0 0-2.739 15.617V128H304V96c0-5.615-.992-10.991-2.764-16H336c8.822 0 15.999 7.178 15.999 16 0 45.743-.001 260.254.002 287.999-.001 8.823-7.178 16-16.001 16z"/><path d="M239.818 175.088l-67.866 67.865-17.141-17.142-11.33 11.331 28.454 28.455 20.064-20.063v42.465h-64V208h48l16-16h-80l-.001 112h96.001v-74.466l43.133-43.132z"/></svg>