<svg xmlns="http://www.w3.org/2000/svg" viewBox="0 0 496 496" fill="#fff"><path d="M496 96V80h-40c-4.424 0-8 3.576-8 8h-28.688L392 60.688V8c0-4.424-3.576-8-8-8-26.472 0-48 21.528-48 48v40h-60c-15.44 0-28 12.56-28 28 0 7.84 3.256 14.912 8.464 20-5.208 5.088-8.464 12.16-8.464 20 0 10.032 5.352 18.784 13.304 23.728C258 184.328 256 189.92 256 196c0 10.032 5.352 18.784 13.304 23.728C266 224.328 264 229.92 264 236c0 15.44 12.56 28 28 28h156c0 4.424 3.576 8 8 8h40v-16h-32V96h32zm-48 152H292c-6.616 0-12-5.384-12-12s5.384-12 12-12h12v-16h-20c-6.616 0-12-5.384-12-12s5.384-12 12-12h12v-16h-20c-6.616 0-12-5.384-12-12s5.384-12 12-12h12v-16h-12c-6.616 0-12-5.384-12-12s5.384-12 12-12h68c4.424 0 8-3.576 8-8V48c0-14.88 10.208-27.432 24-30.984V64c0 2.128.84 4.152 2.344 5.656l32 32A7.998 7.998 0 0 0 416 104h32v144zM248 340c0-10.032-5.352-18.784-13.312-23.728C237.992 311.672 240 306.08 240 300c0-10.032-5.352-18.784-13.312-23.728C229.992 271.672 232 266.08 232 260c0-15.44-12.56-28-28-28H48c0-4.424-3.576-8-8-8H0v16h32v160H0v16h40c4.424 0 8-3.576 8-8h28.688L104 435.312V488c0 4.424 3.576 8 8 8 26.472 0 48-21.528 48-48v-40h60c15.44 0 28-12.56 28-28 0-7.84-3.256-14.912-8.464-20 5.208-5.088 8.464-12.16 8.464-20zm-28 28c6.616 0 12 5.384 12 12s-5.384 12-12 12h-68c-4.424 0-8 3.576-8 8v48c0 14.88-10.208 27.432-24 30.984V432c0-2.128-.848-4.16-2.344-5.656l-32-32A7.979 7.979 0 0 0 80 392H48V248h156c6.616 0 12 5.384 12 12s-5.384 12-12 12h-12v16h20c6.616 0 12 5.384 12 12s-5.384 12-12 12h-12v16h20c6.616 0 12 5.384 12 12s-5.384 12-12 12h-12v16h12zM248 64c-88.832 0-164.936 63.32-180.968 150.552l15.736 2.888C97.4 137.808 166.888 80 248 80c2.56 0 5.12.064 7.648.168l.704-15.984C253.584 64.064 250.8 64 248 64zM413.232 278.56C398.6 358.192 329.112 416 248 416c-2.56 0-5.12-.064-7.648-.168l-.704 15.984c2.768.12 5.552.184 8.352.184 88.824 0 164.936-63.32 180.968-150.552l-15.736-2.888z"/></svg>