<svg xmlns="http://www.w3.org/2000/svg" viewBox="0 0 512.001 512.001" fill="#fff"><path d="M344.174 0c-92.541 0-167.828 75.287-167.828 167.827 0 38.475 13.023 73.96 34.88 102.3l-26.08 26.08a15.462 15.462 0 0 0-6.232-1.311 15.41 15.41 0 0 0-10.971 4.545L9.226 458.157c-12.3 12.301-12.3 32.316 0 44.617 6.15 6.15 14.229 9.226 22.309 9.226s16.158-3.075 22.309-9.226L212.56 344.058c4.642-4.642 5.708-11.513 3.226-17.195l26.088-26.088c28.34 21.858 63.825 34.881 102.3 34.881 92.54 0 167.827-75.287 167.827-167.828S436.714 0 344.174 0zM43.237 492.167c-6.452 6.452-16.951 6.452-23.404 0-6.452-6.452-6.452-16.951 0-23.404l130.975-130.975 23.404 23.404L43.237 492.167zm158.717-158.715l-17.135 17.134-23.404-23.404 17.135-17.135a.487.487 0 0 1 .364-.151c.214 0 .328.113.365.151l22.674 22.674c.202.202.202.53.001.731zm3.986-17.957l-9.434-9.434 24.435-24.435a169.24 169.24 0 0 0 9.434 9.434l-24.435 24.435zm138.234 5.16c-84.269 0-152.828-68.558-152.828-152.827S259.905 15 344.174 15 497 83.558 497 167.826c.001 84.27-68.556 152.829-152.826 152.829z"/><path d="M445.744 90.33a7.5 7.5 0 1 0-11.914 9.113c34.139 44.634 29.868 108.307-9.934 148.108-39.802 39.802-103.474 44.071-148.107 9.933a7.5 7.5 0 0 0-9.114 11.914c22.87 17.492 50.146 26.088 77.341 26.088 32.951 0 65.78-12.622 90.487-37.329 45.097-45.096 49.929-117.246 11.241-167.827zM421.673 66.257c-50.583-38.688-122.734-33.856-167.83 11.24-45.096 45.097-49.928 117.247-11.24 167.828a7.487 7.487 0 0 0 5.962 2.944 7.5 7.5 0 0 0 5.951-12.057c-34.138-44.633-29.868-108.306 9.934-148.107 39.803-39.802 103.475-44.071 148.108-9.932a7.5 7.5 0 0 0 10.514-1.401 7.5 7.5 0 0 0-1.399-10.515zM214.158 16.032H15.502a7.5 7.5 0 0 0 0 15h198.656a7.5 7.5 0 0 0 0-15zM179.337 56.115H55.585a7.5 7.5 0 0 0 0 15h123.753a7.5 7.5 0 1 0-.001-15zM159.797 96.196H95.666a7.5 7.5 0 0 0 0 15h64.131a7.5 7.5 0 0 0 0-15z"/></svg>